<?xml version="1.0" encoding="UTF-8"?>
<svg id="a" data-name="レイヤー 1" xmlns="http://www.w3.org/2000/svg" width="59mm" height="86mm" viewBox="0 0 167.244 243.78">
  <path d="M83.622,191.339l-7.087-7.087,6.614-6.614.222-.222v-17.508l-6.837-6.837,6.837-6.837v-17.508l-6.837-6.837,6.837-6.837v-17.508l-6.837-6.837,6.837-6.837v-17.008L0,150.236v85.039c0,4.697,3.807,8.504,8.504,8.504h127.559l-52.441-52.441h0Z" fill="#313433" stroke-width="0"/>
  <path d="M158.74,0H31.181l59.528,59.528-6.837,6.837v17.508l6.837,6.837-6.837,6.837v17.508l6.837,6.837-6.837,6.837v17.508l6.837,6.837-6.837,6.837v17.008l83.372-83.372V8.504c0-4.697-3.807-8.504-8.504-8.504Z" fill="#313433" stroke-width="0"/>
  <path d="M83.372,66.364l-6.837-6.837,7.087-7.086,7.087,7.087-6.837,6.837h0l6.837-6.837L31.181,0H8.504C3.807,0,0,3.807,0,8.504v141.732l83.372-83.372v-.5Z" fill="var(--opponent-color, #4e93a6)" stroke-width="0"/>
  <path d="M83.872,177.415l6.837,6.837-7.086,7.086,52.441,52.441h22.677c4.697,0,8.504-3.807,8.504-8.504V93.543l-83.372,83.372v.5Z" fill="var(--player-color, #c93941)" stroke-width="0"/>
  <polygon points="83.372 177.415 83.15 177.638 83.372 177.415 83.372 177.415" fill="var(--player-color, #c93941)" stroke-width="0"/>
  <polygon points="83.372 97.545 83.372 115.053 83.622 114.803 83.872 115.053 83.872 97.545 83.622 97.795 83.372 97.545" fill="#fff" stroke-width="0"/>
  <polygon points="83.372 128.726 83.372 146.234 83.622 145.984 83.872 146.234 83.872 128.726 83.622 128.976 83.372 128.726" fill="#fff" stroke-width="0"/>
  <polygon points="83.372 159.907 83.372 177.415 83.372 177.415 83.622 177.165 83.872 177.415 83.872 176.915 83.872 159.907 83.622 160.157 83.372 159.907" fill="#fff" stroke-width="0"/>
  <polygon points="83.622 66.614 83.372 66.364 83.372 66.864 83.372 83.872 83.622 83.622 83.872 83.872 83.872 66.364 83.872 66.364 83.622 66.614" fill="#fff" stroke-width="0"/>
  <polygon points="83.372 146.234 76.535 153.071 83.372 159.907 83.622 160.157 83.872 159.907 90.709 153.071 83.872 146.234 83.622 145.984 83.372 146.234" fill="#fff" stroke-width="0"/>
  <polygon points="83.372 177.415 83.15 177.638 76.535 184.252 83.622 191.339 83.622 191.339 90.709 184.252 83.872 177.415 83.622 177.165 83.372 177.415" fill="#fff" stroke-width="0"/>
  <polygon points="83.372 115.053 76.535 121.89 83.372 128.726 83.622 128.976 83.872 128.726 90.709 121.89 83.872 115.053 83.622 114.803 83.372 115.053" fill="#fff" stroke-width="0"/>
  <polygon points="83.372 83.872 76.535 90.709 83.372 97.545 83.622 97.795 83.872 97.545 90.709 90.709 83.872 83.872 83.622 83.622 83.372 83.872" fill="#fff" stroke-width="0"/>
  <polygon points="83.622 66.614 83.872 66.364 90.709 59.528 83.622 52.441 76.535 59.527 83.372 66.364 83.622 66.614" fill="#fff" stroke-width="0"/>
</svg>