<?xml version="1.0" encoding="UTF-8"?>
<svg version="1.1" viewBox="0 0 1403 2048" width="1280" height="1280" xmlns="http://www.w3.org/2000/svg">
<path transform="translate(0)" d="m0 0h1403v2048h-1403z" fill="#AC3229"/>
<path transform="translate(721,381)" d="m0 0 33 1 50 4 35 6 25 6 31 9 13 5 10 3 5 3-2 4-8 7-10 9-8 7-15 14-8 7-13 12-8 7-7 7-8 7-14 12-11 9-15 13-14 12-15 13-10 9-12 11-10 7-11 5-4 1h-7l-9-7-11-11-19-14-14-10-18-13-13-10-10-9-8-7-16-13-8-4 4 5 8 8 8 7 9 9 11 9 10 9 11 9 11 10 8 7 16 15 12 13 3 6-1 10v9l1 2 10-1 18-8 16-11 14-12 13-13 8-7 10-10h2l2-4 12-11 38-38 6-7 8-7 14-14 8-7 10-9 8-7 15-14 13-12 9-8 17 4 21 9 11 5 9 6 3 1v2l6 2 6 1 11 6 1 4 8 5 4 1 3-1 8 6-1 2 16 10 9 7 19 12 14 10 12 10 3 3 11 7 11 10 8 7 6 6-1 6-15 16-16 17-20 20-6 7-8 7-49 49-7 8-8 8-7 8-5 6-17 17-7 8-7 7h-2l-2 4-5 4-4 5h-2v2h-2l-2 4-56 56-7 8-15 15-9 10-11 11-8 7-10 9-9 3-24 1-24 4-20 6-12 5-9 3-6 1h-8l6 10 11 32 6 15v9l-11 13-63 63-9 10-28 28-11 9-39 39-5 4-5 6-8 7-13 12-11 11-8 7-14 14-8 7-5 5-10 9-4 2v2h-2v2l-8 7-12 11-10 9-17 16-8 7-16 15-11 11-8 7-27 27-8 7-32 32h-2v2l-8 7-30 30h-2v2l-8 7-10 10-8 7-7 7-16 11-6 3h-6l-15-14-9-10-13-18-36-54-14-24-10-18-18-35-9-18v-3l-4-2-6-10-1-5-7-6-2-9-1-2 4 1 2 6 1 6 5 2 2 5-2-7-4-8-5-21-9-35-1-2 2 13 1 5v3l3 12v4h-3l-4-14-7-26-5-23-3-16-1-11-1-2-1-12v-27l-3-33v-82l3-23 2-19 5-28 8-34 9-29 12-35 12-29 13-28 12-22 11-19 12-20 8-11 9-13 14-18 9-11 9-10 8-10 11-12 7-7 7-8 21-21 8-7 11-10 10-8 14-12 17-12 20-14 21-12 22-13 24-13 19-9 41-17 24-9 36-12 24-7 39-7 36-5 17-1 5 3 3 10 2 16v28l-4 17v10l9 2 23 1 38-2h26l11 3 7 7h2l-1-8-7-4-12-10-11-9-17-14-10-8-14-12-15-12-8-6-3-7 1-5 7-2z" fill="#C1D5FC"/>
<path transform="translate(1165,574)" d="m0 0 5 1 14 15 9 11 10 12 12 17 14 19 13 18 14 23 9 16 12 25 11 24 12 27 7 19 11 35 9 27 7 24 2 7 3 16 6 65 1 18v43l-2 40-3 28-5 28-6 22-10 36-9 27-18 43-8 18-16 32-13 22-11 15-6 10-12 17-15 22-9 11-9 10-9 11-12 14-28 28-11 8-13 11-13 10-15 13-24 16-17 9-14 9-24 14-27 14-26 13-28 12-16 7-22 7-48 14-30 7-33 6-17 3-8 2h-6l-2-2 1-31 1-44 2-13-3 1-56 1-27 1-18-1-6-3-1-5h-1l1 7 6 7 10 7 14 8 17 14 13 13 8 7 7 7 10 14 4 8v5l-2 1h-25l-44-2-50-5-41-6-40-10-19-5-18-7-4-3 1-4 14-14 8-7 10-9 8-7 11-11 11-9 12-11 11-9 13-11 10-9 8-7 10-9 11-9 9-9 13-10 11-8 15-11 13-6h8l10 6 10 9 13 9 16 10 14 11 15 13 12 9 11 9 5 4 9 11 4 4h2l-8-13-9-11-12-11-8-7-13-12-12-10-13-10-15-13-12-11-8-11-3-4v-3l14-10 1-2-24 6-11 6-17 9-3 3-2 5-9 7-10 8-4 2-5 7-11 9-14 9-4 5-5 3-4 5-8 7-11 11-5 6-25 25-8 7-33 33-8 7-17 17-7 2-17-6-37-17-23-11-22-11-31-19-12-9-21-16-14-12-14-11-13-10-14-7-3-2v-3h2l1-3 10-8 11-9 7-8 13-13 7-8 83-83 6-7 8-7 12-13 83-83 7-8 11-11 7-8 31-31 7-8 12-11 7-5 9-1 4 2 3 5 7-1 18-4 17-3 13-5 17-8 6-1 5 1-5-13-2-14-5-21-6-13 1-6 9-10 43-43 7-8 28-28 9-11 6-7 11-9 12-11 13-12 10-10 9-11 10-10 11-9 13-12 11-9 16-15 13-12 9-9 8-7 13-12 8-7 62-62 8-7 5-6 8-7 7-7 8-7 24-22 8-8 8-7 18-18 8-7 17-17 5-4 43-43z" fill="#C1D5FC"/>
<path transform="translate(932,421)" d="m0 0 17 4 21 9 11 5 9 6 3 1v2l6 2 6 1 11 6 1 4 8 5 4 1 3-1 8 6-1 2 16 10 9 7 19 12 14 10 12 10 3 3 11 7 11 10 8 7 6 6-1 6-15 16-16 17-20 20-6 7-8 7-49 49-7 8-8 8-7 8-5 6-17 17-7 8-7 7h-2l-2 4-5 4-4 5h-2v2h-2l-2 4-3 2 1-4 2-4-1-3-4 1-2-4 2-3-7 1-7 7-8 7-10 9-5 6h-2v2h-2v2l-8 6-7 3-6 5-5 6-5 4-2-1-5 4-4 3h-2l-9 10-3 1-1-9h-3l-3 7h-2v-7l5-3v-6l-2-5-3 6h-1v-21l-3-14v-29l2-13 4-5-5-5-8-11-3-3-3-2 2-10 2-9 2-6 7-14 7-9 7-12 3-9 2-7 5-12 7-11 11-12 7-9 5-7-1-4-37 37-2-1 45-45 8-7 2-3-16 13-12 11-8 7-17 16-15 14-8 7-51 51-8 7-15 13-16 15-29 29-20 15h-2l5 5 4 2v17l-3 12-3 1 2 4 1 11v13l-1 24-3 12-4 7-11 12-1 2h-2v2h-2l-2 4-13 12-11 9-9 8-17 13-10 9-11 9-10 9-1 2-4-1 1-6 3-10v-1l2-6 3-6 6-4 2-5 6-3 6-7 10-7 6-4 16-14 5-5-4-2h-8l-5 4h-3l-4 4-9 2-4 1-1-6h-2l-1-7h2l1-4 2-3 7-1-16-8-5-4-7-6-2-5 1-7 3-3-9-3-2-2-1-6 13 4 16 3 35 4 28 5 11 1-13-4-8-3-21-5-3-3v-191h1l2 28 1-24v-17-2l-3-2v-2l4-1-1-5-2-1v-4h2l1-2-1-9-2-6v-7l1-2h5v-1l-2-4-5-5-7-8-1-3h-2l-5-5-1-5 5 2 15 13 10 9 8 7 16 15 12 13 3 6-1 10v9l1 2 10-1 18-8 16-11 14-12 13-13 8-7 10-10h2l2-4 12-11 38-38 6-7 8-7 14-14 8-7 10-9 8-7 15-14 13-12z" fill="#C1D5FC"/>
<path transform="translate(1165,574)" d="m0 0 5 1 3 3 5 9 8 9v2l-7-2 4 5 4 4-1 2-4-2-3-2 1 8-4 6-12 12-6 10-7 11-7 7h-2l-2 4-10 11-9 11-4 4h-2l-2 4-14 11-12 9-6 7h-2v2h-2l-2 4-3 1-2 5-8 7-9 11-3 5-5 4-4 5-8 6-3 3h-2v2l-10 7-10 6-10 8-11 8-10 8-8 8-11 9-10 10-8 6-10 8-13 11-8 7h-2l-1 3-8 6-10 8-6 4-7 8-8 9-11 9-9 8-5 5-12 11-5 5-10 8-9 8-7 9-17 16-13 11-11 10-8 6-8 7-4 2-2 4-5 5-2 3h-2l-2 4-8 11-5 9-5 7h-2l-2 5-7 11-2 3-2 9 10-5h6l-2 4h3v-3l8-4 5-5 3-1-2 11-4 1v4l-1 6 8-7 5-5-2 10-7 9-1 2h-7l-1 2v4l7-5-1 7 5-3 17-17 9-6 9 2 6-3 2 1v8l7-2 3 1-2 4-16 17-14 14-7 8-20 20-9 11-6 7-2 9 5-1 3-1 2-4 7-8 9-9 8-7 27-27 11-9 8-8 8-7 15-12 12-8 3-3 2-6 1-19 1-1 1-10h13l2 2-10 2 5 9 4 5 2 8-1 13-6 17-4 6-7 8-9 7-20 16-11 11-7 8-4 5 16-1 4 2-3 7-4 2v8l6-4 2 1-1 3v8l8-5h6l1 4 8 3 2 6h-5l2 3h-3v2l-3 1-2-1-1 2h-29l-35-5-16-2v2l10 2 17 5 15 8 1 2v25l-2 7-3 3h-2l-1 4-6-2-5 8-11 22-2 10-2 4-5 12-6-5 3-7h-2l-2 5-7 14-9 11-9 10-9 11-16 15-11 8-8 4-9 6-5 5-7 6-10 7-12 11-8 7h-2l-2 4-6 4-11 8-15 8-18 11-10 6h-5l2-4 24-24 7-8 11-11 8-7 19-19 8-7 15-15 11-9 13-12 8-7 43-43 8-12 3-9 3-15v-10l-3-14-1-8h-3l-1 9-3 7-1 3h8l2 3-1 8-4 6-4 8-13 15-7 7-7 8-9 10-15 16-16 17-10 10-6 1v-8h-2l-3-32-2-30-2-16v-10l5-3h39l10-4 10-6 5-4 1-7-3-9-4-19v-30l-4-4h-9l-8 4-3 5h-7l-5-5-3-1-27-2-9-2-5-3h-4v7l10 3 4 3 8 4 10 8 13 11 14 11 10 9 8 10 1 6-7 8-2 1h-10l-19-3-25-7-20-10 1 5 6 26 2 7 2 14 1 9-1 16-2 5-4-1-2-2-4-14-2-16 1-1v-6l-4-1-2-6-8-6v-2h-5v-2l6-2-3-2-6 1-4 5-5 2 2-9 4-7 2-6 2-1v-5l-1-3 1-6-8 4-4 4h-2l-2 4-11 10-10 8-10 9-14 14-3 4h-2l-2 4-7 7-6 9-9 9-6 5-4 4h-2v2l-10 8-17 16-36 36-9 7-7 8-8 6-8 7-3 1-2 4-14 10-10 9-4 4h-2l-2 4-10 11-9 11-6 7-6 8-6 3h-7l-7-3-12-4-3-6 7-7 5-6 23-23 7-8 83-83 6-7 8-7 12-13 83-83 7-8 11-11 7-8 31-31 7-8 12-11 7-5 9-1 4 2 3 5 7-1 18-4 17-3 13-5 17-8 6-1 5 1-5-13-2-14-5-21-6-13 1-6 9-10 43-43 7-8 28-28 9-11 6-7 11-9 12-11 13-12 10-10 9-11 10-10 11-9 13-12 11-9 16-15 13-12 9-9 8-7 13-12 8-7 62-62 8-7 5-6 8-7 7-7 8-7 24-22 8-8 8-7 18-18 8-7 17-17 5-4 43-43z" fill="#C4E2FC"/>
<path transform="translate(721,381)" d="m0 0 33 1 50 4 35 6 25 6 31 9 13 5 10 3 5 3-2 4-8 7-10 9-8 7-15 14-8 7-13 12-8 7-7 7-8 7-14 12-11 9-15 13-14 12-15 13-10 9-12 11-10 7-11 5-4 1h-7l-9-7-11-11-19-14-14-10-18-13-13-10-10-9-8-7-15-12 1-3 9 2-1-2-5-1-4-4-1 1h-6l4-3h4v-6l2-2 8 1 2-5v-5h-4l-3-6v-3l7 1 5 3-2-6h-5l-1-3h-3l-1-3 5-1 3 2 5-1 13-3 1-3-1-2 2-6 1-19-6 2h-7l-10 2-10-1-2-2h-11l-11 1-14 3-10 3-24 8-24 9-8 4-52 20-10 4-15 8-19 10-22 13-14 8-11 6-5 4-9 6-5 3-10 7-3 1v2l-14 10-8 6-10 6-14 12-8 7-7 8-10 8-13 13-9 11-14 16-8 10-7 9-9 13-6 9-11 17-10 18-6 9-9 16-5 10-5 12 5-7 3-8h2l2-5 4-2-2 6-8 14-8 19-5 11-11 25-4 8-2 9-3 11-2 10-2 3-1 9h-2l1 4-1 5h-2l-1 11-9 42-3 26-1 17v76l1 24 2 12 4 31 2 11v4h2l1 3 1-5 4 3 1 6 2 2 7 40 7 24 7 22 10 24 7 16 8 16 11 25 10 19 12 19 2 3v3l4 2 6 9 13 21 6 10 3 4 1-2 8 9 3 2 2 5 9 3 4 3 5-1 15-5 5-5 8-3 4-1h5l4-3v2l8-2-2 8-8 7-10 10-8 7-7 7-16 11-6 3h-6l-15-14-9-10-13-18-36-54-14-24-10-18-18-35-9-18v-3l-4-2-6-10-1-5-7-6-2-9-1-2 4 1 2 6 1 6 5 2 2 5-2-7-4-8-5-21-9-35-1-2 2 13 1 5v3l3 12v4h-3l-4-14-7-26-5-23-3-16-1-11-1-2-1-12v-27l-3-33v-82l3-23 2-19 5-28 8-34 9-29 12-35 12-29 13-28 12-22 11-19 12-20 8-11 9-13 14-18 9-11 9-10 8-10 11-12 7-7 7-8 21-21 8-7 11-10 10-8 14-12 17-12 20-14 21-12 22-13 24-13 19-9 41-17 24-9 36-12 24-7 39-7 36-5 17-1 5 3 3 10 2 16v28l-4 17v10l9 2 23 1 38-2h26l11 3 7 7h2l-1-8-7-4-12-10-11-9-17-14-10-8-14-12-15-12-8-6-3-7 1-5 7-2z" fill="#C4E2FC"/>
<path transform="translate(894,567)" d="m0 0 2 1-1 5-6 8-8 10-9 10-7 11-5 15-2 5-4 11-7 11-8 11-5 10-3 11-1 8-1 5 3 2v2l3 1 8 11 1 3 4 2-4 5-2 13v29l3 14v20l2-9 2 4 2 5v6l-5 3-1 7 2-1 2-6 4-2 2 10 5-4 7-8h3l7-7 2 2 8-7 9-9 8-3 4-4h2v-2h2v-2l5-4 5-6 8-7 14-13 9-1-3 4 1 3 5-1 1 4-3 5-2 5-52 52-7 8-15 15-9 10-11 11-8 7-10 9-9 3-24 1-24 4-20 6-12 5-9 3-6 1h-8l6 10 11 32 6 15v9l-11 13-63 63-9 10-28 28-11 9-39 39-5 4-5 6-16 14-3-1v-2h2v-2h2v-13l5-9 13-10 7-3 1-2 11-4 8-6 18-18 8-11h-2v-3h-4v-4l6-2 1-3 6-2 1-3 2 1-1 5 4-5 6-6h2v-2l12-6 8-8 4-8 11-9 2-4h-3l-5 3-6 1 1-4 6-6-6 1-5 3 1-4 4-2h3l1-3h2l1-4h2l2-5 2-3h-6l1-4-6 3-11 6-5 4-8 2-1 3-9 1v2l-7 2h-6l3-4 6-1 4-4 4-2h3l1-3h2l1-3 6-2 1-4 4-2 2-7 5-5 5-4 4-1 2-5 8-10 3-5h-7v-5l10-4v-2l-15 5-9 7-5 5-10 7-8 7-6 7-15 11-12 7-9 3-8 1-12-2-6-4-2-4 6-3 6-8 12-17 10-11 9-11 8-8 6-7 8-7 7-6 7-8 22-24 8-8 6-9 1-4 4-85 3-15 6-8 26-26 7-8 12-12 8-7 86-86 5-3z" fill="#C4E2FB"/>
<path transform="translate(932,423)" d="m0 0 12 6 11 7 35 16 19 9 10 6 12 6 13 10 13 9 8 5 14 9 17 14 11 9 5 4v3l-7 1 2 2 5 2v2l5 1 4 3-1 6-3-3h-7l-3 1-5-2-4-3-9-3-3-4h5l-3-3h7l-6-3-4-5-4-2v-3l-5-1-5-4-7-9-9-6-8-4-3-3-7-3-17-3-8-7-9-5-10-11-8-5-4-2-2 4-10 2-7 1 1-9-3-5-10 2-11 3-6 4-13 15-8 7-8 8h-2v2h-2l-2 4-12 11-6 5-3 5 10-3 5-1 5 2 8 1 1 3-6 4-10 7-8 6-2 4 4-3 2 1-3 3-7 15-9 7h-2l1 2 5-2 4-3h2l2-4 3 1 8-6 5-1-5 5-9 8-8 7-7 7-15 10-5 4-8 10-3 5h-2l-2 5-21 21-15 12-5 7h-2l-2 4-5 6-2 2-5 6-5 1v2l-9 7-4 2v2h-2v2h-2l-2 4-5 6 5-2-2 4-33 33-20 15h-2l5 5 4 2v17l-3 12-3 1 2 4 1 11v13l-1 24-3 12-4 7-11 12-1 2h-2v2h-2l-2 4-13 12-11 9-9 8-17 13-10 9-11 9-10 9-1 2-4-1 1-6 3-10v-1l2-6 3-6 6-4 2-5 6-3 6-7 10-7 6-4 16-14 5-5-4-2h-8l-5 4h-3l-4 4-9 2-4 1-1-6h-2l-1-7h2l1-4 2-3 7-1-16-8-5-4-7-6-2-5 1-7 3-3-9-3-2-2-1-6 13 4 16 3 35 4 28 5 11 1-13-4-8-3-21-5-3-3v-191h1l2 28 1-24v-17-2l-3-2v-2l4-1-1-5-2-1v-4h2l1-2-1-9-2-6v-7l1-2h5v-1l-2-4-5-5-7-8-1-3h-2l-5-5-1-5 5 2 15 13 10 9 8 7 16 15 12 13 3 6-1 10v9l1 2 10-1 18-8 16-11 14-12 13-13 8-7 10-10h2l2-4 12-11 38-38 6-7 8-7 14-14 8-7 10-9 8-7 15-14 13-12 6-5z" fill="#C4E3FC"/>
<path transform="translate(719,1466)" d="m0 0 5 3 2-1 14 9 9 8 5 5 8 5-1 5-3 3h-3l-1 4-1 2-15 2-11 5-21 5-32 6-17 6-5 3-4 5v8l8 1 29-3h48l18 2 6 3-1 9h-1v-6l-3 1-56 1-27 1-18-1-6-3-1-5h-1l1 7 6 7 10 7 14 8 17 14 13 13 8 7 7 7 10 14 4 8v5l-2 1h-25l-44-2-50-5-41-6-40-10-19-5-18-7-4-3 1-4 14-14 2 1-11 11 5 2 13-1 17-4 10-4 18-13 11-10h2l2-4 12-12 16-12 11-8 5-5 7-3 3-3 2-7h2v-6l5-12 5-5 12-6 22-9 11-6 5-7 6-1 14 1h3z" fill="#C1D6FC"/>
<path transform="translate(689,1439)" d="m0 0h8l10 6 10 9 13 9 16 10 14 11 15 13 12 9 11 9 5 4 9 11 3 5v2l-3 1-4-2-4-4h-3l-2 4-11 2-8-2-7-3-4 2h-6l-3-2 1 5 4 1v2l7 1 3 5v5l-1 1 1 3 2-1v16l-2 9 1 5-1 6-1 4 2 3 1 5 2 4 1 3-1 3 4 1-1 4-4 6-8 6-3 3-8 4-4 1-2-2v-68l1-7h2l1-9-6-2-22-2h-44l-29 3-6-1-3-3v-6l5-6 10-5 16-5 37-7 14-4 9-4 9-1h6l2-6 1-2 6-3-1-3-8-5-2-4-5-2-7-7-13-8h-3l-3-2-4 2v1h-5v-1l-17-1-3 3-5 6-17 8-22 9-8 5-6 14-1 6h-2l-1 7-1 6-2-3-4 3-7 3-5 5-17 13-10 8-15 15-10 9-19 13-15 5-17 3-9-1-3-2 11-11 7-8 10-9 8-7 11-11 11-9 12-11 11-9 13-11 10-9 8-7 10-9 11-9 9-9 13-10 11-8 15-11z" fill="#C4E2FC"/>
<path transform="translate(780,894)" d="m0 0h13l14 3 5 3-1 5-14 15-11 9-14 12-12 10-2 3h-3l-1 6 8-6 10-9 3-1-2 7-12 10-9 11-11 12-5 6-8 7-13 13-7 8-35 35h-2l-2 4-7 8-1 6 7 16 5 23 2 12 3 7v3h-7l-11 4-19 9-14 3-22 4-6 2-5-1-3-5-9-1-7 4-14 12-16 17-28 28-7 8-11 11-7 8-45 45v-3l10-11h2v-2h2l3-6h2v-2h2l2-4 12-11 5-5 4-2v-2h2l-1-2-6 3v-3h2l2-4 7-8 2-3-1-2h2l2-5 8-8 8-7 17-16 11-11 8-7 13-13 16-14 5-6 8-7 34-34 11-9 38-38 9-10 55-55 7-9v-9l-10-26-8-24-4-4v-3l13-1 11 3v2l12-2 11-5z" fill="#AD342C"/>
<path transform="translate(1032,466)" d="m0 0 5 2 24 15 11 8 16 10 16 13 13 10 9 7 7 6 4 5 8 7 6 5-1 6v3l1 2-2 5v6l5 2-1 6-5 6-1 4-28 28h-2l-2 4-12 11-15 15-8 7-18 18-8 7-10 10-8 7-14 13-8 7-20 20-8 7-62 62-8 7-10 9-13 12-9 9-8 7-14 13-11 9-7 7-11 9-13 12-9 10-7 8-13 13-16 14h-2l1-4-8 7-10 8h-3l2-9 1 3 8-7 12-11 11-9 14-12 9-10 1-5-7-3-11-2h-13l-10 3-6 3-12 1v-2l-9-1-2-2 10-4 18-7 14-4 24-4 24-1 9-3 15-14 10-9 10-10 5-6h2l2-4 14-14 7-8 52-52 1-2h2v-2l5-5 7-6 15-15 7-8 13-13 9-10 7-8 8-8 7-8 55-55 6-5 7-8 18-18 7-8 9-9 7-9-1-5-10-10-11-9-11-8-5-3-5-5-12-10-17-11-18-12-11-8-8-5v-3l-6-4z" fill="#C82C2C"/>
<path transform="translate(824,1049)" d="m0 0h13l2 2-10 2 5 9 4 5 2 8-1 13-6 17-4 6-7 8-9 7-20 16-11 11-7 8-4 5 16-1 4 2-3 7-4 2v8l6-4 2 1-1 3v8l8-5h6l1 4 8 3 2 6h-5l2 3h-3v2l-3 1-2-1-1 2h-29l-35-5-16-2v2l3 1-8 1-4 16v15l3 16-1 8h-1l-3-21-2-11h-3l-1 9-3 7-1 3h8l2 3-1 8-2 1 1-10h-8l-2-1 2-10 1-1 1-16 1-10-2-1v2l-3 1v-4l2-2v-13l-4-3 1-8 2-2-1 9 5-1 3-1 2-4 7-8 9-9 8-7 27-27 11-9 8-8 8-7 15-12 12-8 3-3 2-6 1-19 1-1z" fill="#C4E2FB"/>
<path transform="translate(1301,1229)" d="m0 0 1 3-6 17-9 22-3 9-16 32-9 15-8 12-7 10-7 11-13 18-12 18-5 6-5 2-2 4-4 5h-2l-2 5-3 3-3-1 3-3 2-4 4-4-1-2-7 4-9 6-6 8-1 6h-2v4l3 2-20 20-9 7-10 2-4-2-1-5 9-1 1-4h-2l2-5 6-10-3-1 7-10 9-5 3-3 1-5 3-3h4l2-3h3l2-4 1-3 2-1-1-7 9-12 3-6 4-6 3-6 6-9 4-9 4-8 5-6 4-8h3l2-4 7-12 2-1-1 8 3-4 7-8 3-4h2l2-4 5-8 6-10 3-3 9-11 4-7h2l1-4h3l1-5-3-1 1-3 4-1v-5l3 2 2-3 1 5 2-1 3-9h3 2z" fill="#C4E2FC"/>
<path transform="translate(716,1406)" d="m0 0h4l-2 4-10 7-3 1 5 9 11 13 11 10 11 9 25 20 8 8 8 7 10 9 8 7 10 12 7 12-3 1-8-8-5-6v-2l-4-2-9-8-16-12-15-13-17-13-17-10-11-9-8-7-9-5h-8l-16 8-24 18-14 11-8 8-11 9-13 12-10 9-11 9-15 13-11 9-12 11-8 7-11 11-8 7-10 9-8 7-3 2-9-2 6-7 12-12 8-7 33-33 8-7 20-20 11-12 15-15 7-5 4-5 13-8 12-10 4-6 5-3 10-8 8-6 2-5 5-4 17-9 9-5z" fill="#C82C2C"/>
<path transform="translate(797,682)" d="m0 0 2 2 4 14 5 21 10 37 7 29-2 5h-10l-11-4-8-3-23-5-16-3h-11l-3 1-2 4h-2l3 9 9 10 11 9 14 11 15 14 14 11 10 8 4 5 1 5-5-1-8-5-4-2-6-1h-24l-32 4-8-1-1-1 1-24 1-37 1-17 4-5 5-2 6-1h9l36 3h7v-9l-5-40v-24z" fill="#AB322B"/>
<path transform="translate(910,548)" d="m0 0 2 1-10 10-8 7-132 132-8 7-11 11-7 8-23 23-3 5-3 15-4 85-3 7-7 9-13 13-7 8-13 14-15 15-6 5-7 8-10 11-9 11-8 10-10 15-5 4-3-1 3-35 6-7 11-9 11-10 14-11 16-13 10-9 16-14 1-2h2v-2h2l2-4 9-10 4-7 3-12 1-24v-13l-1-11-1-4 3-3 2-10 1-17-5-2-4-3v-2l14-10 11-9 35-35 8-7 15-13 16-15 43-43 10-9 17-16 15-14 13-12 11-9z" fill="#AD332B"/>
<path transform="translate(591,1168)" d="m0 0 5 1 7 3 6 1 27 2 5 3 3 3h7l3-5 8-4h9l5 5v30l6 26 1 7-5 5-8 6-10 5-4 1h-39l-4 2v10l2 16 4 55 1 13h-2l-6-15-7-23-5-24-4-15-6-22-4-19-1-6 16 8 15 5 20 5 14 2h10l6-5 2-3-1-6-11-13-14-11-10-9-11-9-13-9-6-3-7-3-5-2v-7z" fill="#AD332B"/>
<path transform="translate(1206,621)" d="m0 0 5 3 12 17 12 16 12 18 12 20 12 23 16 35 11 24 9 24 11 35 2 5v5l-1 1v10l-2-3-3-6v-4l-4-2-3-5-2 4-2-5-1-4h-4l-1 3-5-1-11-7v2l-5-1-1-11 3-5 4-1 3-11h-3l-2-6-11-21-6-11-5-12-12-30-11-25 2-1-9-18-5-7-1-8 5-1-4-7-8-10-1-3 2-1-3-5-3-3-4-7z" fill="#C3E2FB"/>
<path transform="translate(663,1496)" d="m0 0h47l12 2 18 6 2 4-4 3-11 5-21 5-32 6-17 6-5 3-4 5v8l8 1 29-3h48l18 2 6 3-1 9h-1v-6l-3 1-56 1-27 1-18-1-6-3-1-5h-1l1 7 6 7 5 5-5-2-9-8-2-3v-14l-5-6-2-5 1-14 5-10 7-5z" fill="#BDB3D2"/>
<path transform="translate(499,1210)" d="m0 0 2 1-3 7-9 10-1 2h-2l1 2 5-3 2 1-1 2h-2v2l-7 5-7 8-8 7-1 2h-2v2h-2l-3 6h-2v2l-5 4-7 8-3 5-37 37-7 8-10 9-7 8-44 44-5 1-3 1v2h-2v2l-4 4h-2l-1 3-5 4-1 2h-2v2h-2v2h-2v2l-6 1 3-6 4-2v-2h2l2-9-2-4 4-3h2l1-4 7-8 2-5 7-7h2v-2l8-7 32-32 8-7 27-27 8-7 14-14 8-7 16-15 8-7 7-7 8-7 13-12h2v-2h2z" fill="#C82B2B"/>
<path transform="translate(1205,1402)" d="m0 0v3l-11 12-9 11-12 14-28 28-11 8-13 11-13 10-15 13-24 16-17 9-14 9-24 14-27 14-26 13-28 12-16 7-22 7-48 14-30 7-33 6-17 3-8 2h-6l-2-2 1-31h1l1 26 7 1 8-6 13-6 14-1 10-2 16-2 25-6 18-5 12-2 21-7 12-2 5-1v-2l18-7 21-8 26-13 19-10 22-12 19-11 11-6 11-8h2v-2l11-6 12-8 10-8 6-5h2v-2h2v-2l4-3h2v-2l15-10 11-7 7-4 15-14 16-16 7-8 5-5 5-7 10-10z" fill="#9EA4D2"/>
<path transform="translate(1320,844)" d="m0 0 2 3 10 34 3 8 4 21 6 65 1 18v43l-2 40-3 28-5 28-6 22-10 36-9 27-18 43-6 14-1-3 14-35 5-14 4-16 2-7 1-15 4-20 5-21 4-20 2-12 3-26 4-40 3-35v-47l-2-20-4-8-1-11-1-10-2-21-2-5-4-24-3-11v-6z" fill="#9EA4D2"/>
<path transform="translate(585,492)" d="m0 0 7 2 14 11 11 10 22 18 17 12 16 12 17 12 12 11 10 9 2 1h7l11-4 10-6 12-11 8-7 3-3 10-4 8-4 6-4 5 1 6-4 3 1-6 7-6 5-19 19-8 7-10 10-11 9-18 12-16 7-10 1-2-3v-9l1-10-3-6-8-8-7-8-16-15-11-10-11-9-28-24-12-12-8-7-8-8z" fill="#AC332A"/>
<path transform="translate(732,1398)" d="m0 0 5 1 5 4 9 1 1 3 6-2 2 2 1 5 4 9v6l1 2 2 22 3 1 1 6-1 4-3 1-1 7-5-5 2 6 5 5 12 9 12 11 16 16 12 8 3 5v9l-4 2-6-9-8-11-9-10-14-12-16-15-25-20-14-12-12-11-8-11-3-4v-3l13-9h3l3-10z" fill="#C4E1FB"/>
<path transform="translate(764,411)" d="m0 0h9l2 1h37l17 3 15 3v2l-11 2v2l5 1 12 5 1 7-1 3-6 3h-2l-2 4-7 12-5 6-8 4-5 4-11 3-4-1-1-8 1-1v-5l-1-3h-2v-2h-2l-3-6-4-7-8-6-3-7-8-3 2-6 2-2 5-1-1-2-13-2z" fill="#C2D6FD"/>
<path transform="translate(724,1200)" d="m0 0 23 2 38 5 29 4 9 3 6 6v5l-4 2-43-4v19l-2 76-3 45-4 35h-2l-1-90-2-74-1-16-19-9-24-7z" fill="#AD332B"/>
<path transform="translate(493,1603)" d="m0 0 2 2v3l7 2 18 1 7 2 21 3 16 3 58 9 25 2 9 1 54 5 6 1h10l3-4 4 8v5l-2 1h-25l-44-2-50-5-41-6-40-10-19-5-18-7-4-3 1-4z" fill="#BFB4D2"/>
<path transform="translate(710,1226)" d="m0 0 2 1 3 19 1 3v10l-4 18-4 9-8 11-48 48-8 7-10 9-11 9-18 18-8 7-19 19-8 7-11 11-8 7-11 11-11 9-10 8-5 2 6-7 7-7 8-7 20-20 7-8 38-38 7-8 5-4 3-4h2l2-6 12-11 14-14 7-8 9-9 7-8 14-15 7-8 11-12 6-9 6-12-1-7-8-1 2-9 1-1 2-9z" fill="#C0494A"/>
<path transform="translate(782,1223)" d="m0 0h9l34 3 8 1v-2h2l1 5-4 6-2 2h-5l-2-3-1 1v3l-14 2-3 1-1 4-6 8-3 9-1 15-4 6-3 19 2 17 1 18-3 30-5 30-4 15-3 6h-1v-23l3-32 3-77 1-45z" fill="#C3E0FA"/>
<path transform="translate(640,599)" d="m0 0 2 1 1 58 1 95 1 60 2 2 25 6 12 5 7 2-3 1-23-3-23-4-33-4-18-4-4-2-2-6v-4l16 1 32 5v-20l-1-6 3-88z" fill="#92252A"/>
<path transform="translate(910,548)" d="m0 0 2 1-10 10-8 7-132 132-8 7-11 11-7 8-23 23-3 5-3 15-2 44h-1v-7l-2 1-1 5-1 17-1 7h-1v-35l-1-11-1-4 3-3 2-10 1-17-5-2-4-3v-2l14-10 11-9 35-35 8-7 15-13 16-15 43-43 10-9 17-16 15-14 13-12 11-9z" fill="#AE352D"/>
<path transform="translate(821,1050)" d="m0 0h2l-1 29-3 7-7 6-13 9-13 11-13 12-15 13-29 29-8 7-8 8-4 6-5 3-3-1 1-9 7-8 12-14 22-22 7-8 17-17 7-8 12-12 7-8 8-9 8-10 9-10z" fill="#AC332B"/>
<path transform="translate(869,849)" d="m0 0v3l-1 1 6-1-1 5-11 10-11 9-7 7-11 9-13 12-9 10-7 8-13 13-16 14h-2l1-4-8 7-10 8h-3l2-9 1 3 8-7 12-11 11-9 14-12 9-10 1-5-7-3-11-2h-13l-10 3-6 3-12 1v-2l-9-1-2-2 10-4 18-7 14-4 24-4 24-1 9-3 15-14 9-8z" fill="#AD332B"/>
<path transform="translate(257,1468)" d="m0 0 2 1-2 3h2l2 4 8 3 8 2 10 7 6 2v2l4 1 4 4 6 3 2 4 12 6 7 3 24 18 20 13 11 6v2l6 2 10 6 7 5 42 20 13 6 10 4 5 3v2h8l-4 4-5 1-17-6-37-17-23-11-22-11-31-19-12-9-21-16-14-12-14-11-13-10-14-7-3-2v-3h2z" fill="#9DA4D2"/>
<path transform="translate(685,1417)" d="m0 0 2 1-5 4-8 3-7 5v6l-12 9-4 6h-3v2l-2 1-3 7-5 4-5 5-6 1-7 6h-2l-2 4-4 2-1 4h-2l-1 5h-2v3h-2l-2 4-3 1v2h-2v3h-2l-1 3-4 2-2 4h-2l-2 5-3 6-14 12-11 9-12 11-8 7-11 11-8 7-10 9-8 7-3 2-9-2 6-7 12-12 8-7 33-33 8-7 20-20 11-12 15-15 7-5 4-5 13-8 12-10 4-6 5-3 10-8 8-6 2-5 5-4z" fill="#C0494A"/>
<path transform="translate(86,838)" d="m0 0 1 4-4 15-3 21-5 21-5 23-4 32v83l3 34 7 33 14 60 10 42 16 48 3 11 3 5 8 17-1 3-9-19-6-11-1-5-4-2-6-10-1-5-7-6-2-9-1-2 4 1 2 6 1 6 5 2 2 5-2-7-4-8-5-21-9-35-1-2 2 13 1 5v3l3 12v4h-3l-4-14-7-26-5-23-3-16-1-11-1-2-1-12v-27l-3-33v-82l3-23 2-19 5-28 8-34z" fill="#9DA3D1"/>
<path transform="translate(648,1080)" d="m0 0 4 1 4 9 2 16v7l-4 7-10 13-8 4h-15l-19-3-8-3 2-5 14-13 8-7 18-18 8-6z" fill="#C3E0FA"/>
<path transform="translate(780,894)" d="m0 0h13l14 3 5 3-1 5-14 15-11 9-14 12-11 9h-2l-4-16-3-10-1-8v-10l8-4 16-7z" fill="#C4E0FA"/>
<path transform="translate(649,1567)" d="m0 0 8 1 17 10 17 14 13 13 8 7 7 7 7 10-2 4h-5l-1-2-9-3-9-7h-6l-2-1v2l-5-2-5-4-4-4-17-11-2-2-5-4-8-7-3-3 1-2 8 4 8 2-10-7-3-5v-6z" fill="#C4E1FA"/>
<path transform="translate(736,897)" d="m0 0 7 1 9 2v2l10-1-3 2-7 3v10l2 13 3 9 3 13-2 3h-3l-1 6 8-6 10-9 3-1-2 7-12 10-9 11-11 12-5 6-8 7-13 13-7 8-35 35h-2l-2 4-7 8-1 2h-2l-1-8 21-21 9-10 55-55 7-9v-9l-10-26-8-24-4-4v-3z" fill="#AC332D"/>
<path transform="translate(585,1229)" d="m0 0 16 8 15 5 4 2-2 1 2 6v4h-3v2l-4 2v10l2 16 4 55 1 13h-2l-6-15-7-23-5-24-4-15-6-22-4-19z" fill="#AD332B"/>
<path transform="translate(932,421)" d="m0 0 17 4 21 9 11 5 9 6 3 1v2l6 2 6 1 11 6 1 4 8 5 4 1 3-1 8 6-1 2 16 10 9 7 19 12 14 10 12 10 3 3 11 7 11 10 8 7 6 6-1 6-15 16-3 2 2-4 8-9 1-3-2-4-3-1-3-9-8-8-10-7-12-9-9-8-14-11-14-9-8-5-14-10-15-11-16-8-19-10-21-9-21-10-14-9-5-2-2-1z" fill="#9EA4D1"/>
<path transform="translate(643,1507)" d="m0 0h8l5 1h18l15-1h28l15 1-5 5-6 3-26 5-24 5-13 5-6 4h-2l-2 4-6 1-5-4-2-5v-14l3-6z" fill="#C0494A"/>
<path transform="translate(770,481)" d="m0 0 2 3 1 16 4 10v5l-50 4-40 3h-28l-2-1 1-3 24-4 25-5 24-6 22-7 12-6 3-4z" fill="#AE342C"/>
<path transform="translate(797,682)" d="m0 0 2 2 4 14 5 21 10 37 7 29-2 5h-10l-11-4-8-3 3-3 3-8v-9l-5-40v-24z" fill="#AC322A"/>
<path transform="translate(654,1070)" d="m0 0 7 1 7 16 5 23 2 12 3 7v3h-7l-11 4-19 9-14 3-12 1 3-3 5-2v-6l-4-1 17-1 8-4 12-16 1-3v-7l-2-16-4-9-3-1 1-5z" fill="#AD332B"/>
<path transform="translate(799,544)" d="m0 0 3 1-6 7-6 5-19 19-8 7-10 10-11 9-6-1-6 5-5 3-2 1-2-1 2-4 2-1 1-4-1-4 2-6-3-1 16-8 13-12 8-7 3-3 10-4 8-4 6-4 5 1z" fill="#C82C2B"/>
<path transform="translate(721,381)" d="m0 0 33 1 50 4 35 6 25 6 31 9 13 5 10 3 5 3-2 4h-2v-4l-5-1h-16l-3-3v-2l-20-4-14-3-56-10-36-4-21-3-3-2 5-1 17 1-21-2-66-1v-1z" fill="#9EA4D2"/>
<path transform="translate(892,442)" d="m0 0h1v5l-12 11-10 9-12 11-8 7-7 7-8 7-21 18-4-2 4-3 1-4 5-2-1-4 7-9 4-2 4-8-2-2v-6l5-5 6-3 4-4h5l1 2 5-3 4-2h3l2-5 11-8 11-4z" fill="#C2D5FB"/>
<path transform="translate(769,1234)" d="m0 0h1l1 21 1 3 1-6h2l1 5 3 7 1-22h1v45l-2 49-3 37-3 25h-2l-1-90-1-31z" fill="#C14A4B"/>
<path transform="translate(1321,819)" d="m0 0 3 1v2h2l5 10 4 10 4 6 2 10 2 15 2 10 2 5 1 13 2 6 1 8 1 1v6l-4 4-5-5-2-11-2-7-4-15-3-3-6-22-1-14-2-10-2-6-1-8v-4z" fill="#C92A2A"/>
<path transform="translate(636,1511)" d="m0 0 1 3-1 3v14l3 6 3 2 6-1 2-3 2 1-4 5v8l8 1 29-3h48l18 2 6 3-1 9h-1v-6l-3 1-56 1-27 1-18-1-6-3-1-5h-1l1 7 6 7 5 5-5-2-9-8-2-3v-14l-5-6-2-5 1-14z" fill="#BFB5D2"/>
<path transform="translate(494,1611)" d="m0 0 10 2h12l6 4 19 5 27 6 16 3 15 2 13 2 47 4 35 1 15 1h20l2-4 2 4v5l-2 1h-25l-44-2-50-5-41-6-40-10-19-5-18-7z" fill="#9DA4D2"/>
<path transform="translate(708,1407)" d="m0 0 4 1-18 5-12 7-14 7-3 3-2 5-9 7-10 8-4 2-5 7-11 9-14 9-4 5-5 3-4 5-8 7-11 11-5 6-25 25-8 7-27 27v-3l3-5-1-4 7-8 9-5 7-4 7-10 6-9 12-12 8-7h2v-2l11-9 4-4h2l2-4 10-9 8-7 14-10 6-4 9-7 9-8 11-9 6-7 12-8 4-4 10-2 8-3z" fill="#C0B5D2"/>
<path transform="translate(910,548)" d="m0 0 2 1-10 10-8 7-118 118h-3-2v2l-3 1 2-4 3-3-5 1 13-13 8-7 46-46 10-9 17-16 15-14 13-12 11-9z" fill="#AE3630"/>
<path transform="translate(752,1535)" d="m0 0h5l5 5 6 4-1 4-4 5-3 3h-3v-4l-6-2-22-2h-44l-29 3-6-1-3-3v-6l3-2v5l5 2h7l4-1 3 1v-2l10-1 28-5h15l11-2h9l2 1 8-1z" fill="#C2D6FD"/>
<path transform="translate(880,570)" d="m0 0h2v3l-8 7-17 16-15 14-8 7-51 51-8 7-15 13-9 8-4 1h-3l7-8 1-2h2v-2h2v-2l11-9h2v-2l6-3 3-4 6-7 4-5h2l2-4 5-6 14-11 19-19 3-5 4-2 5-5 4-2 5-5 6-5 4-4 1-3 8-5 8-6z" fill="#C4DBF5"/>
<path transform="translate(76,871)" d="m0 0h1l-1 9-6 31-2 13-3 26-1 9v82l3 33v27l1 12 1 2 2 16 5 25 4 16v5l-2-4-6-23-3-14-1-1-5-29-1-7-2-20v-41l-1-11v-54l8-57 4-25z" fill="#C14A4B"/>
<path transform="translate(624,1358)" d="m0 0h5l2 5-13 12-13 13-8 7-19 19-8 7-11 11-8 7-11 11-11 9-10 8-5 2 6-7 7-7 8-7 20-20 7-8 38-38 7-8 5-4 3-4h2l1-3z" fill="#BF4848"/>
<path transform="translate(737,814)" d="m0 0 2 1v5l3 1 2 3 3-1 4-2 13 1v2l6 1v2l2 1-1 5-6 4-2 4-3 2-16 4-5 1v2l-7 3-1-9v-13h2l1-11 1-2h2z" fill="#C92A2A"/>
<path transform="translate(736,897)" d="m0 0 7 1 9 2v2l10-1-3 2-7 3v10l2 13 3 9 3 13-2 3h-3l-2 7-2-2-5-15-6-15-8-24-4-4v-3z" fill="#AE342C"/>
<path transform="translate(640,599)" d="m0 0 2 1 1 58 1 95v59h-1l-2-95-2 11-3 12-1 9h-1v-22l2-54z" fill="#C14A4B"/>
<path transform="translate(641,707)" d="m0 0h1l2 106h-5v-2l-9-2 3-1v-20l-1-6 1-31 1-2 2-12 1-8 3-12z" fill="#AC322A"/>
<path transform="translate(781,1209)" d="m0 0h2v2h5l3 3v2l6 3 5 2v2l-4 1-16-1v19h-2v23l-3-3-2-5-1-3 1-2h-2v6l-2 2-1-5v-21h-2l-1-16-4-3 9-2 5-1z" fill="#C82D2C"/>
<path transform="translate(809,1249)" d="m0 0 6 3v2l3 1v2l3 2 1 5-3 3-8 4v9l-4 6-2 1-3 21v26l-2-2-2-10-1-4-1-6-4-2 1-4 3-2v-4l-2-1 1-5 3-4-1-1 1-7h5v-15l-1-3-4-2 1-5 3-5z" fill="#C5E4FD"/>
<path transform="translate(707,1283)" d="m0 0 1 3-8 11-48 48-6 5h-2l2-5 5-9 2-6 2-4 4-1v-2h2l1-4 1-2h2v-2l8-7 5-4 7-1 9-8h2v-2h2l2-4z" fill="#C92B2B"/>
<path transform="translate(550,1163)" d="m0 0v3l-8 8-8 7-10 10-2 5 2 1h-2l-3 9-11 12-9 9-7 8-45 45v-3l10-11h2v-2h2l3-6h2v-2h2l2-4 12-11 5-5 4-2v-2h2l-1-2-6 3v-3h2l2-4 7-8 2-3-1-2h2l2-5 8-8 8-7 17-16 11-11z" fill="#AD332B"/>
<path transform="translate(771,679)" d="m0 0 3 1-5 6h2v-2h2l1-2v4l-12 12-8 7-11 11-7 8-15 15h-8l2-5 7-8 32-32 7-8 6-5z" fill="#92252A"/>
<path transform="translate(766,1217)" d="m0 0 2 1 1 16 2 74v90h2l1-17 3-30h1v13l-4 47-2 25-3 1-1-2v-55l1-24v-21l-1-38-1-17z" fill="#BBB3D2"/>
<path transform="translate(1032,466)" d="m0 0 5 2 24 15 11 8 16 10 16 13 13 10 9 7 7 6 4 5 8 7 6 5-1 6-9 11-2-1 8-10-1-5-10-10-11-9-11-8-5-3-5-5-12-10-17-11-18-12-11-8-8-5v-3l-6-4z" fill="#C0494A"/>
<path transform="translate(898,1602)" d="m0 0 4 1-24 10-17 5-23 5-12 3-18 2-9 3-9 1-6-1-13 4-9 8-8 1-2-2v-30h1l1 26 7 1 8-6 13-6 14-1 10-2 16-2 25-6 18-5 12-2 9-3z" fill="#C0B5D2"/>
<path transform="translate(494,1612)" d="m0 0 10 3 15 5 44 11 16 3 33 5 50 5 44 2h27v-5l2 2v5l-1 1h-41l-42-2-44-5-35-6-30-7-31-9-16-6z" fill="#C14A4B"/>
<path transform="translate(657,1060)" d="m0 0h2l1 7v4h-6l-5 5-1 5-8 5-12 11-16 16-8 7-7 6-10 2 43-43 11-9z" fill="#97292E"/>
<path transform="translate(525,1173)" d="m0 0 2 1-1 3-10 8-7 9h3v-2l10-7 10-9 4-1-2 4-8 8-8 7-5 5-10 9-4 2v2h-2v2l-8 7-10 9-5 1-4 3 2-4 3-5 2-2 3-1 1-2h2l2-4 10-13 7-8 7-9 8-8z" fill="#C4E0F9"/>
<path transform="translate(701,1180)" d="m0 0 1 3-1 6 5-1 3-1 2-4 1 2-2 9 1 3h3v2l8 1-1 2h-2l-4 18v15l3 16-1 8h-1l-3-21-2-11h-3l-1 9-3 7-1 3h8l2 3-1 8-2 1 1-10h-8l-2-1 2-10 1-1 1-16 1-10-2-1v2l-3 1v-4l2-2v-13l-4-3 1-8z" fill="#BEB4D2"/>
<path transform="translate(644,1510)" d="m0 0h6l3 2 14 1 3 3-2 8-7 2-4 3h-2v2l-7 6-6-1-4-8v-9l3-7z" fill="#C82A29"/>
<path transform="translate(731,503)" d="m0 0 4 1-4 5-8 4-10 4-2 2-8 2-16 1h-28l-2-1 1-3 24-4 25-5z" fill="#96282D"/>
<path transform="translate(298,1406)" d="m0 0 2 3-8 8-4 8v2h4v-2h2l-1 5-3 1-1 4-4 2v2h-2l-2 5-3 3h-2l-3 3-2-2 3-5 2-5 1-3-5 2-8 4-4 1-2 1-3-2 12-9 11-11 8-7 7-6z" fill="#C82C2C"/>
<path transform="translate(810,905)" d="m0 0h2v3l5-2-2 4-14 15-10 10-16 14h-2l1-4-8 7-10 8h-3l2-9 1 3 8-7 12-11 11-9 14-12z" fill="#95272B"/>
<path transform="translate(670,1574)" d="m0 0 6 2 5 4 9 1 17-2h10l1-1h5l3 1 4-2h3v2l8 1-4 2-1 1 4 2-4 2-3 1-1 4-3 3h-2l-1 3h-6l-1-3 2-5v-5l-5 1v3l-3-1v-2l-7-1-3-2-9 1-3 2 1 5 5 5-1 2-8-8-17-13-2-2z" fill="#C92A2A"/>
<path transform="translate(683,624)" d="m0 0 4 1-1 5 6 9 5 5 5 4 5 3 11 1 2 2 1 4-1 3h-5l-5-1h-3v2h-2v-2l-9 3-5 1v-2h-2l-2-8 2-1 3-8-3-1-2-3-6-3 1-5h-2l-2-5z" fill="#C2D6FD"/>
<path transform="translate(572,1142)" d="m0 0 3 1-6 7-1 2h-2v2l5-3 2 1-17 16-9 10-26 26-1-2 4-12 16-16 8-7 6-8 13-13z" fill="#95272B"/>
<path transform="translate(523,1624)" d="m0 0 9 1 30 8 38 7 3 3-18 1h-7l-20-3-10-3-7-3-12-5-6-5z" fill="#8F2228"/>
<path transform="translate(1069,1527)" d="m0 0 2 1-21 14-22 14-14 8-23 11-16 8-29 13-26 10-3-1 27-12 23-10 42-21 24-14 18-11 16-9z" fill="#C14A4B"/>
<path transform="translate(789,881)" d="m0 0h6l-3 2-5 5-1 3 3 2-14 3-11 5-12 1v-2l-9-1-2-2 10-4 18-7 14-4z" fill="#93252B"/>
<path transform="translate(639,597)" d="m0 0 4 2v59h-1l-1-58-5 94-3 94-2-1-1-4v-14l2-20 1-54 4-65 1-32z" fill="#BBB2D2"/>
<path transform="translate(636,1473)" d="m0 0 2 1-11 11-11 9-13 12-10 9-10 8-3-1h2l2-5 2-3h2l1-6 5-1 1-2h2v-3h2v-2l5-5h2v-3h2l1-5h2l1-4 5-4 5-5 2 1-5 6h2v3h-2l-1 2-3 2 1 2 10-8 5-5z" fill="#B0352E"/>
<path transform="translate(748,769)" d="m0 0h9l36 3 7 1-1 5-1 4h-10l-17-4-16-3-7-2z" fill="#94272C"/>
<path transform="translate(585,492)" d="m0 0 7 2 14 11 11 10 22 18 7 5v2l-4-2-3-1v-2h-3l-1 2-5-2-12-11-8-7-9-9-8-7-8-8z" fill="#95272D"/>
<path transform="translate(724,1200)" d="m0 0 23 2 38 5-5 4-5 3-6 1h-8l-13-6-24-7z" fill="#AE342C"/>
<path transform="translate(662,1317)" d="m0 0v3l-1 3h-2v2l-5 3-1 7-5 8-3 5-1 4-10 9-3 1-2-4-6 2-4 3 1-4 10-9 15-15 7-8z" fill="#C14A4B"/>
<path transform="translate(698,752)" d="m0 0 5 1 2 8h2l-2 50h-1v-7l-2 1-1 5-1 17-1 7h-1v-35l-1-11-1-4 3-3 2-10 1-17z" fill="#B03730"/>
<path transform="translate(1194,1406)" d="m0 0 2 1-1 4-3 3-2 4-3 1-1 5-7 7-7 8-20 20-7 6-2-1 7-7 8-7 13-13-3-2 1-6h2l1-5 6-8 9-6z" fill="#C2D6FD"/>
<path transform="translate(643,602)" d="m0 0h2l2 4 3 1-1 4v18l-1 38h-1l-2-26-1 112h-1z" fill="#BDCCF3"/>
<path transform="translate(632,1427)" d="m0 0 2 1-7 7-3 8-1 10-8 3-5-1-2-2v-1h-2v2l-8 4-11 6 2-4 9-7 10-7 1-2 5-3 6-5 10-7z" fill="#C4E3FD"/>
<path transform="translate(880,570)" d="m0 0h2v3l-8 7-17 16-15 14-8 7-5 5-3 2 1-5 5-5 6-10 4-3 4-2 5-5 6-5 4-4 1-3 8-5 8-6z" fill="#C4DCF7"/>
<path transform="translate(1395,2028)" d="m0 0h8v20h-19l3-13 4-5z" fill="#C0D8F2"/>
<path transform="translate(516,1572)" d="m0 0 7 3-6 7-10 9-8 7-3 2-9-2 6-7 12-12 4-2h2z" fill="#C14A4B"/>
<path transform="translate(695,1272)" d="m0 0h7l-3 5-12 13-11 12-7 8-8 9-1-2-2-1 8-7 3-8 2-2 1-4h2l2-4 6-3 3-5 7-9z" fill="#C1D0F5"/>
<path transform="translate(643,1548)" d="m0 0 2 1 1 5 5 2 20 1 25-1 59-1v6l-1-3-102 2 5 8-4-2-9-8-2-4v-5z" fill="#C14A4B"/>
<path transform="translate(793,838)" d="m0 0 5 2 14 11 5 6 1 5-5-1-8-5-4-2-7-2-15-1v-1l10-2 2-6 2-1z" fill="#94272C"/>
<path transform="translate(900,416)" d="m0 0h15l5 2-2 6-8 8-11 9-2-2 2-2-4-1 1-4 6-3 3-7-4-1v-3l-2-1z" fill="#C1D4FB"/>
<path transform="translate(721,381)" d="m0 0 33 1 38 3 1 1 8 1v2h9l12 2 2 2-13-1-14-2-21-2-1-1-29-3-66-1v-1z" fill="#AFB3DB"/>
<path transform="translate(797,682)" d="m0 0 2 2 4 14 4 18-1 4v-2l-6-1-3 1v8l-2-3v-24z" fill="#96282D"/>
<path transform="translate(84,1163)" d="m0 0 2 3 8 31 7 29 4 8 2 5-1 3-3-6-4-2-3-11-1-2h2l-1-6-5-1-1-5 1-3-3-1h3l-5-20 1-2-2-8z" fill="#C04B4D"/>
<path transform="translate(910,548)" d="m0 0 2 1-10 10-8 7-37 37-2-1 2-4h2l2-4 5-5v-3l8-7 16-15 11-9z" fill="#C14A4B"/>
<path transform="translate(617,1244)" d="m0 0h7l12 3 14 2 6 2-4 2-15 2-20 1 3-1-2-9z" fill="#91252A"/>
<path transform="translate(1344,957)" d="m0 0h1l2 18 1 19v47l-2 35-1 1-1 9h-1v-10l2-40v-43l-1-18z" fill="#A13135"/>
<path transform="translate(752,1569)" d="m0 0h1v43l-1 31 1 1 11-1 8-2 45-8 10-1-4 2-37 8-29 5h-5l-2-2v-18l1-31z" fill="#C14A4B"/>
<path transform="translate(645,814)" d="m0 0 15 4 14 4 10 4 7 2-3 1-23-3-23-4-8-1 4-2v-2h7z" fill="#B03630"/>
<path transform="translate(599,1380)" d="m0 0h2l-2 4-38 38-3 4h-2l-2 4-13 13-2-1 2-4 19-19 5-7 5-4 5-5 3-4h2v-2h2v-2l8-7z" fill="#C1D8F5"/>
<path transform="translate(693,782)" d="m0 0h6l-1 2h-2l2 4 1 11v13l-1 24-3 12-3 5-7-1 3-6h2v-2l4-3-1-3h-4v-5l5-1 2 1v-8l-1-9 1-9v-17l-6-4 1-3z" fill="#C1D2F8"/>
<path transform="translate(717,1203)" d="m0 0 2 1-4 16v15l3 16-1 8h-1l-3-21-2-11h-3l-1 9-3 7-1 3h8l2 3-1 8-2 1 1-10h-8l-2-1 2-10 2-2 2-17 2-5-1-7 3 2v5l3-1z" fill="#ADABD2"/>
<path transform="translate(644,1510)" d="m0 0h6l3 2 14 1 3 3-2 8-7 2-4 3h-3l-4-8v-8l-6-2z" fill="#AC3229"/>
<path transform="translate(702,804)" d="m0 0h2v31l-1 17-3 7-2 1 1-10-2-4v-10l2-9 1-19z" fill="#94262C"/>
<path transform="translate(313,1507)" d="m0 0 6 2 9 4 24 18 20 13 11 6v2l-6-2-10-6-10-4-6-6-5-2-9-8-9-4-3-3v-2h-2v-2l-7-2z" fill="#BFB4D2"/>
<path transform="translate(789,1500)" d="m0 0 4 2 10 9 11 14 5 10-4-1-7-7-5-6v-2l-4-2-9-8-2-1 1-4-1-2z" fill="#AF362F"/>
<path transform="translate(486,1598)" d="m0 0 10 1-2 4-3 3v3l4 4v2h-12l-7-3-2-7 9-4z" fill="#97292E"/>
<path transform="translate(833,608)" d="m0 0h2l-2 7-6 5-2 6-7 6-4 2-10 9-6 4h-2l-2 5h-2v2h-2l-3 6h-2l-2 4-5 1 6-7 4-5h2l2-4 5-6 14-11 19-19z" fill="#C2D5FB"/>
<path transform="translate(718,432)" d="m0 0 5 2 13 11 11 9 14 11 5 4 4 2 1 8h-4l-8-7-9-2 2-9-14-12-11-9-9-7z" fill="#9C2D31"/>
<path transform="translate(605,1182)" d="m0 0h7l3 3 10 2 8 5 5 3h5l1 4h-2v3l-3 1-9-2-10-9-12-8z" fill="#C82C2C"/>
<path transform="translate(1192,1419)" d="m0 0 1 3-5 5-3 4v5l-7 6-10 10-6 7-9 6-6 5-2-1 30-30 9-11z" fill="#C14A4B"/>
<path transform="translate(738,1506)" d="m0 0 2 1v3l-13 6-21 5-32 6-17 6-5 2 4-4 12-5 21-5 28-5 9-3 5-4-14-1v-1z" fill="#BAB2D2"/>
<path transform="translate(652,1179)" d="m0 0 5 4v15l-5 1-5-3v-2l-4-1-1-8 2-3 7-1z" fill="#C82D2D"/>
<path transform="translate(698,1185)" d="m0 0h1v5l4 2 1 1v13l-3 3 1 2h2v-2l3 1-1 10-1 16-2 1v-19l-7-6 2-5v-7l-3-3v-2h2v-3l-2-2z" fill="#C2D6FD"/>
<path transform="translate(731,1553)" d="m0 0h22l2 2-3 1-56 1-27 1-18-1v-1l44-2z" fill="#9DA4D2"/>
<path transform="translate(708,1407)" d="m0 0 4 1-18 5-12 7-14 7-3 3-2 5-9 7-10 8-4 1 6-7 10-9 5-5 7-6 10-7 3-3 10-2 8-3z" fill="#C0B5D2"/>
<path transform="translate(733,971)" d="m0 0 8 2v-2h3l-2 4-11 11-1-3-4 1v2l-10 4-2-1 4-6 5-2 1-4h4l1-3z" fill="#C1D4F9"/>
<path transform="translate(1230,1368)" d="m0 0 3 1-2 5-6 7-13 19-10 12-12 16-5 6-1-3 5-6h2l3-9 11-12 11-15 10-15z" fill="#9A2C30"/>
<path transform="translate(678,562)" d="m0 0 7 4 11 9 5 6-3 1-10-3-12-9v-5z" fill="#C82C2C"/>
<path transform="translate(636,1136)" d="m0 0h5v3l-3 3 1 3-12 3-12 1 3-3 5-2v-6l-4-1z" fill="#94262C"/>
<path transform="translate(585,492)" d="m0 0 7 2 14 11 7 6 2 4 1 4-3 1-12-12-8-7-8-8z" fill="#AE3530"/>
<path transform="translate(1020,468)" d="m0 0 6 2 9 6 12 9 11 8 7 4v1h-5l-4-2v-2l-4-2-6-4-8-6-5-3-8-2-6-3-2-5z" fill="#C2DAFD"/>
<path transform="translate(774,1462)" d="m0 0h4l5 6 5 5 4 7v2h2l-1 2-11-7-10-4 1-8z" fill="#C5E4FD"/>
<path transform="translate(1128,1474)" d="m0 0 2 1-18 14-10 8-5 5-4 1v2l-18 12-16 10-2-1 5-4h2v-2l11-6 12-8 10-8 6-5h2v-2h2v-2l4-3h2v-2z" fill="#C0B5D2"/>
<path transform="translate(634,694)" d="m0 0h1v33l-2 61-2-1-1-4v-14l2-20 1-54z" fill="#BAB2D2"/>
<path transform="translate(665,669)" d="m0 0h4l2 9 2 3v7l1 4h-12v-10l2-1 2 1-1-7-1-5z" fill="#C2D6FD"/>
<path transform="translate(879,565)" d="m0 0m-1 1m-1 1m-1 1m-1 1m-1 1m-1 1m-1 1m-1 1 2 1-2 4-4 2-4 3-2 4-9 7-3 3h-2l-2 4h-2l-1 2-4 1-2 4v-3l6-8 5-6 14-10 8-6z" fill="#C2D6FD"/>
<path transform="translate(955,775)" d="m0 0h2l-2 4-31 31-8 7-6 5-2-1 3-4h2l2-4 8-8 7-5 5-5 6-7 8-7z" fill="#AD332B"/>
<path transform="translate(477,1207)" d="m0 0 1 3-3 6-3 5v3l2 3-9 3 3-7-3 3-2 6-3 1v-3l-5 2 1-6 5-4 5-1 7-9z" fill="#C4E3FD"/>
<path transform="translate(674,1193)" d="m0 0h1l1 14 6 26v2h-2l-3-8-1-3h-5l-2-5v-6l3-3h1z" fill="#BF4747"/>
<path transform="translate(160,1349)" d="m0 0 4 2 10 16 8 11 24 36 9 12h-3l-9-12-14-20-10-16-11-16-8-12z" fill="#9E2F33"/>
<path transform="translate(387,1308)" d="m0 0 1 2 4-1-1 4-11 11-8 7-5 1 2-6 10-10 5-3v-3z" fill="#C3DCF7"/>
<path transform="translate(772,670)" d="m0 0 1 2-4 7-14 14-5 3-6 2 6-8 2-3h2v-2h2v-2l11-9h2v-2z" fill="#C2D6FB"/>
<path transform="translate(746,1558)" d="m0 0h8v10l-1 1-1 32-1 26h-1l-1-52-1-16z" fill="#902329"/>
<path transform="translate(669,701)" d="m0 0 6 1 2 5 5 1 7-2v3l-4 2-14-1v7l-5 2-1-4 1-9z" fill="#C2D6FD"/>
<path transform="translate(520,1460)" d="m0 0 2 1-7 7 3 1-14 12-13 10-3 1 2-4 14-14 11-9z" fill="#BDB3D2"/>
<path transform="translate(616,1315)" d="m0 0h1l3 32v6h-2l-6-15-2-6 1-4 3-1 1 1z" fill="#C14A4B"/>
<path transform="translate(742,770)" d="m0 0h6l3 3v1l-10 2-2 4h-2l2 9-3 3-3 1v-16l4-5z" fill="#B13831"/>
<path transform="translate(766,1217)" d="m0 0 2 1 1 16 1 58h-2l-1-12z" fill="#B1AED2"/>
<path transform="translate(706,1195)" d="m0 0 4 2 12 3-3 3h-2l-2 9-4 1-2-6-3-3-1-6z" fill="#C14A4B"/>
<path transform="translate(804,1066)" d="m0 0h2l-1 4-11 13-4 4h-4v-6l8-7 4-5z" fill="#C2DCF8"/>
<path transform="translate(946,765)" d="m0 0 3 1-19 19-4 3-1-4h2l1-5 5-7 5-3 4-1z" fill="#C1D0F6"/>
<path transform="translate(900,823)" d="m0 0 2 1-9 10-5 5-3 1v2h-2v2h-2l-1 2v-4l-4 3-2-1 6-7 14-9 4-2v-2z" fill="#AC3229"/>
<path transform="translate(729,700)" d="m0 0 3 4-2 5-4 2-2 4-5 4-4 4 1-5 3-7z" fill="#C2D6FD"/>
<path transform="translate(693,782)" d="m0 0h6l-1 2h-2l2 4 1 11v13l-1 24h-1l-2-20 1-9v-17l-6-4 1-3z" fill="#BCC2E6"/>
<path transform="translate(933,424)" d="m0 0 6 2 16 10 24 11-1 2-9-3-8-4-5-1-14-9-5-4z" fill="#C2D6FD"/>
<path transform="translate(775,1221)" d="m0 0h5l1 2v19l-2 4-2-2-1-8-1-12z" fill="#AC3129"/>
<path transform="translate(119,828)" d="m0 0 4 1-8 14-2 6 3-3h2l-2 7h-2l-1-2-2 5-2-4 1-6 2-2v-9l3-1z" fill="#C5E4FD"/>
<path transform="translate(99,1236)" d="m0 0 4 2 2 7 6 9 2 1 4 9 4 7-1 3-4-6v-2l-3 1-8-16-6-14z" fill="#C14A4B"/>
<path transform="translate(1173,579)" d="m0 0 5 5 12 13 9 11 6 8-1 2-9-9v-2h-2l-10-13-8-10z" fill="#9DA4D2"/>
<path transform="translate(650,453)" d="m0 0 4 1-1 14-5 1-2-2-1-10 2-3z" fill="#C1D2F8"/>
<path transform="translate(1305,1229)" d="m0 0h1l-1 7-8 21-6 16-2 1v-7z" fill="#9E2E33"/>
<path transform="translate(599,1297)" d="m0 0 2 4 3 3 3 19v8h-1l-2-7-2-2-3-13z" fill="#C3DBF7"/>
<path transform="translate(624,1358)" d="m0 0h5l2 5-8 7h-2v-2l-6 4-2-1 3-4 2-4z" fill="#AE342D"/>
<path transform="translate(376,1326)" d="m0 0v3l-46 46-2-2 8-8h2v-2l8-7z" fill="#C23837"/>
<path transform="translate(1347,1031)" d="m0 0h1l-1 33-1 12-1 1-1 9h-1v-10l2-40z" fill="#A13135"/>
<path transform="translate(114,1266)" d="m0 0h2l4 6v2h2l13 26 2 5-3-1-5-8-4-8-10-19z" fill="#9A2B30"/>
<path transform="translate(634,788)" d="m0 0 6 6-1 2v5l1 2h-2l1 3h-2l1 4 3 1-2 1-9-3 3-1z" fill="#C14A4B"/>
<path transform="translate(533,1561)" d="m0 0h3l-1 4-10 10-5-1-4-2 4-5 4-2 1 2 3-1 2 1 2-4z" fill="#AE352D"/>
<path transform="translate(1336,1025)" d="m0 0 2 1-2 28-2 14-3 23h-1l1-19z" fill="#C0B5D2"/>
<path transform="translate(724,1200)" d="m0 0 23 2 7 1-4 2-2 3-11-2-13-4z" fill="#C14A4B"/>
<path transform="translate(752,1612)" d="m0 0h1l1 26 7 1 8-6h2l-2 4-7 6-8 1-2-2z" fill="#B9B2D2"/>
<path transform="translate(697,605)" d="m0 0 2 4 2 1 1-2 1 4 3 1-2 5-3 1v2l2 1h-5l-2-3v-9z" fill="#C53231"/>
<path transform="translate(716,1406)" d="m0 0h4l-2 4-10 7-3 1-1 3v-4l1-5-5-1v-1z" fill="#C14A4B"/>
<path transform="translate(698,752)" d="m0 0 5 1 2 8h2l-1 31h-1v-19l-4 1 1-20z" fill="#C14A4B"/>
<path transform="translate(738,1506)" d="m0 0 2 1v3l-13 6-7 2h-8v-1l12-3 7-5-14-1v-1z" fill="#A0A5D2"/>
<path transform="translate(1030,1542)" d="m0 0 2 1-19 12-20 10-3-1 18-10z" fill="#C0B5D2"/>
<path transform="translate(1134,551)" d="m0 0 7 6 4 4-4 8-11 11v-3l7-7 3-6-2-4-3-1-1-5z" fill="#BFB4D2"/>
<path transform="translate(366,1332)" d="m0 0 4 1-18 18-3-2 9-11z" fill="#C1D7F3"/>
<path transform="translate(801,754)" d="m0 0 3 1 2 5v7l-1 7-5-1v-17z" fill="#C82F2F"/>
<path transform="translate(648,880)" d="m0 0h2v5 3l-1 5-6-1v-2l-5-1 4-5z" fill="#C2D6FD"/>
<path transform="translate(708,1407)" d="m0 0 4 1-18 5-12 7-9 3 6-8 12-3 8-3z" fill="#BBB2D2"/>
<path transform="translate(658,410)" d="m0 0h1l2 16 1 3v8l-3 7-2 3z" fill="#9B2C31"/>
<path transform="translate(1033,476)" d="m0 0 5 2 9 7 11 8 7 4v1h-5l-4-2v-2l-4-2-6-4-12-9z" fill="#C2D6FD"/>
<path transform="translate(855,471)" d="m0 0 2 1-7 9-6 7-2 5-2 2h-4l1-6 9-7 5-6z" fill="#C4E2FD"/>
<path transform="translate(701,1180)" d="m0 0 1 3-1 6 5-1 3-1 2-4 1 2-2 9 1 3 3 1-5-1-3-2-1 3v-5l-6-3 1-8z" fill="#A9AAD2"/>
<path transform="translate(875,841)" d="m0 0 1 3 5-3-1 5-5 4-3 4h-5l1-3h-3z" fill="#C14A4B"/>
<path transform="translate(109,857)" d="m0 0 1 3-4 13-1 6 3-1-2 6-4 3v-9l3-16z" fill="#C4E3FD"/>
<path transform="translate(724,469)" d="m0 0h26l11 3-3 1-19-2h-31v-1z" fill="#9FA5D2"/>
<path transform="translate(1013,692)" d="m0 0 3 1-2 4-3 3-1 3-7 1 1-4 3-5z" fill="#C4E1FC"/>
<path transform="translate(821,1050)" d="m0 0h2v10l-3 4-1-3-7 1 2-4z" fill="#98292D"/>
<path transform="translate(1205,1402)" d="m0 0v3l-11 12-9 11-7 5 2-4 7-8 10-10 5-7z" fill="#9EA4D2"/>
<path transform="translate(1016,457)" d="m0 0 6 2 10 6-2 3-7-2-9-6 2-1z" fill="#C04B4C"/>
<path transform="translate(97,1219)" d="m0 0h2l4 12 3 4 1 7-2-1-2-5-4-2-3-11-1-2h2z" fill="#C0494A"/>
<path transform="translate(739,776)" d="m0 0 1 3-3 1 2 9-3 3-3 1v-16l5 1z" fill="#C14A4B"/>
<path transform="translate(1042,1546)" d="m0 0 2 1-11 8-13 8-7 3-3-1 20-11z" fill="#8E2228"/>
<path transform="translate(679,440)" d="m0 0h6l-2 4-5 3-7 1v-4z" fill="#C14A4B"/>
<path transform="translate(557,1432)" d="m0 0 2 1-27 27-3-2 15-13z" fill="#B4C4E8"/>
<path transform="translate(796,733)" d="m0 0h1l4 30v9l-2-4-1-3-2-22z" fill="#9DA4D2"/>
<path transform="translate(1254,1333)" d="m0 0 3 1-4 8-7 10-2-2 1-4 7-10z" fill="#9A2B30"/>
<path transform="translate(980,438)" d="m0 0 6 2 16 8 7 4-2 1-5-2-6-1-3-2v-2l-4-1-9-6z" fill="#C14A4B"/>
<path transform="translate(689,1439)" d="m0 0h8l10 6 10 9h-3l-7-6-11-6h-12l2-2z" fill="#B6B0D2"/>
<path transform="translate(714,1220)" d="m0 0h1l2 15 3 7-1 8-2 1-3-16z" fill="#C2D6FD"/>
<path transform="translate(414,1310)" d="m0 0v3l-7 7-7 8-8 7v-3l2-3h2v-2l8-7z" fill="#B0362F"/>
<path transform="translate(614,522)" d="m0 0 5 2 11 10v1h-5l-7-5-2-4z" fill="#C2DBF7"/>
<path transform="translate(690,1437)" d="m0 0h7l10 6 8 7-1 2-8-7-9-5h-8l-5 1 3-3z" fill="#C14A4B"/>
<path transform="translate(612,828)" d="m0 0 2 1 3 5 9 5-3 1-12-3-1-4z" fill="#C2D6FD"/>
<path transform="translate(284,1487)" d="m0 0 9 3v2l4 1 4 5-12-3-3-4v-2h-2z" fill="#C0B5D2"/>
<path transform="translate(1233,1374)" d="m0 0 5 1-2 6-3 3-4-1 1-7z" fill="#C92A29"/>
<path transform="translate(823,1213)" d="m0 0 7 1 3 3 1 7-2-1-2 2-2-5-5-5z" fill="#C3E0FA"/>
<path transform="translate(546,1539)" d="m0 0m-1 1m-1 1m-1 1m-1 1m-1 1m-1 1m-1 1m-1 1m-1 1m-1 1m-1 1m-1 1m-1 1m-1 1m-1 1m-1 1m-1 1m-1 1m-1 1m-1 1m-1 1m-1 1m-1 1m-1 1m-1 1m-1 1m-1 1v3l-9 10-1-3z" fill="#BC4544"/>
<path transform="translate(668,1093)" d="m0 0 2 2 2 10v6l-4-3-2-8z" fill="#96282D"/>
<path transform="translate(636,1473)" d="m0 0 2 1-11 11-8 7h-2l2-4 7-6 5-5z" fill="#B13831"/>
<path transform="translate(143,702)" d="m0 0 1 3-13 24-2 4h-2l2-6 8-15z" fill="#9B2C31"/>
<path transform="translate(758,562)" d="m0 0 3 1-16 15-2-1 4-4 1-3h2l2-5z" fill="#BCC3E7"/>
<path transform="translate(691,781)" d="m0 0h6l-6 3 1 3 5 3v9l-2-1-7-14z" fill="#C2D6FD"/>
<path transform="translate(1138,599)" d="m0 0h2l-2 4-16 16-2-2 10-10h2v-2h2v-2h2v-2h2z" fill="#B33A34"/>
<path transform="translate(793,386)" d="m0 0h11l18 3v2l-21-2v-2h-8z" fill="#A9A9D2"/>
<path transform="translate(1286,1279)" d="m0 0 1 3-9 15-3 1 2-6 6-10 3-1z" fill="#96282D"/>
<path transform="translate(600,939)" d="m0 0 4 1-1 3-5 2-1 5-4 2-1-4 1-2h3l1-5z" fill="#C92A29"/>
<path transform="translate(607,1332)" d="m0 0h4l1 11-4 2-2-9z" fill="#C4DEFA"/>
<path transform="translate(590,1250)" d="m0 0h3l3 6v8h-3l-3-10z" fill="#C53130"/>
<path transform="translate(598,507)" d="m0 0 4 1 13 13-3 1-9-7-1-5-4-2z" fill="#BED5F3"/>
<path transform="translate(1296,1255)" d="m0 0 1 2-6 16-2 1v-7l5-10z" fill="#992A2F"/>
<path transform="translate(705,1176)" d="m0 0v3l-2 6 6-2 3-2-2 4-5 5-4-1 1-9z" fill="#C14A4B"/>
<path transform="translate(693,782)" d="m0 0h6l-1 2h-2l2 4v11h-1l-1-9-6-4 1-3z" fill="#C0B5D2"/>
<path transform="translate(557,1427)" d="m0 0 1 2-7 8-6 5 1-5 9-9z" fill="#B03730"/>
<path transform="translate(139,1311)" d="m0 0h2l12 22-1 3-8-14-5-9z" fill="#9B2C31"/>
<path transform="translate(632,766)" d="m0 0h1v22l-2-1-1-4v-13z" fill="#B3AFD2"/>
<path transform="translate(881,454)" d="m0 0h2l-2 4-10 9-4 3v-3l11-11z" fill="#C3D8F3"/>
<path transform="translate(670,1574)" d="m0 0 6 2 9 9 3 4-4-2-13-10-2-2z" fill="#C43E3F"/>
<path transform="translate(692,1018)" d="m0 0h2v2h-2v2h-2v2l-7 6-6 7v-3l3-5h2l2-4 4-2v-2z" fill="#C2D6FD"/>
<path transform="translate(727,986)" d="m0 0 2 1-8 9-8 2 4-5z" fill="#C2D2F6"/>
<path transform="translate(1386)" d="m0 0h11l-2 4-5 2-4-3z" fill="#C2D8F4"/>
<path transform="translate(729,830)" d="m0 0h1v27h-5l2-9z" fill="#C2D6FD"/>
<path transform="translate(922,426)" d="m0 0 1 4-6 5-5 2-3 1v-2h2v-2z" fill="#C14A4B"/>
<path transform="translate(1118,619)" d="m0 0h2l-1 3h-2l-2 4-10 9-2-2h2v-2h2v-2h2l2-4z" fill="#AF352E"/>
<path transform="translate(590,499)" d="m0 0 4 2 5 6 3 3 1 4-4-2-9-11z" fill="#C3DEFC"/>
<path transform="translate(822,391)" d="m0 0 11 1 10 3v1h-8l-13-2z" fill="#C0B5D2"/>
<path transform="translate(746,1075)" d="m0 0 3 1v3h-3l-2 5h-2l-1 3-4-1 1-2h2v-3l6-5z" fill="#C5E4FD"/>
<path transform="translate(773,1626)" d="m0 0m-1 1m-1 1m-1 1m-1 1m-1 1m-1 1m-3 1h3l-1 3-5 4-7-1v-3l2 1 7-3z" fill="#C2D6FD"/>
<path transform="translate(662,693)" d="m0 0 3 1 1 8-1 2-4-1v-9z" fill="#C2D6FD"/>
<path transform="translate(1397)" d="m0 0h6v8l-3-2h-6l2-4z" fill="#912429"/>
<path transform="translate(257,1468)" d="m0 0 2 1-2 3h2l2 4 8 3v2l-9-3-6-4v-3h2z" fill="#A8A9D2"/>
<path transform="translate(670,1231)" d="m0 0 3 4-1 6h3l-1 3-4-2v-5h-2l-2-4h4z" fill="#C82C2C"/>
<path transform="translate(1346,1061)" d="m0 0 1 3-1 12-1 1-1 9h-1v-10l1-14z" fill="#AB383C"/>
<path transform="translate(1e3 708)" d="m0 0 2 1-6 9-5 3-5 5-2 1 2-4 12-12z" fill="#C14A4B"/>
<path transform="translate(727,1152)" d="m0 0v3l-7 8h-2l-2 4-5 4 2-4 12-13z" fill="#C33A3A"/>
<path transform="translate(699,781)" d="m0 0h1v18h-2l-1-11-1-4z" fill="#C14A4B"/>
<path transform="translate(817,1050)" d="m0 0h2l-1 5-9 10-2-2 8-10 2-2z" fill="#BFD5F2"/>
<path transform="translate(933,777)" d="m0 0h2l-1 4-6 5-2 2-1-4h2v-4l4-1z" fill="#C2D4F4"/>
<path transform="translate(111,835)" d="m0 0 2 4v5l-5 5v-8z" fill="#C2D6FD"/>
<path transform="translate(1184,1419)" d="m0 0 2 3-2 4-7 1 2-5z" fill="#C4E3FD"/>
<path transform="translate(200,1408)" d="m0 0h2l10 14 3 5-3-1-12-16z" fill="#A13135"/>
<path transform="translate(1230,1368)" d="m0 0 3 1-2 5-7 6v-3z" fill="#9D2D32"/>
<path transform="translate(753,1125)" d="m0 0v3l-7 8-5 5-2-1z" fill="#C63636"/>
<path transform="translate(817,896)" d="m0 0 5 1-4 4-7-1-4-3z" fill="#C82F2F"/>
<path transform="translate(797,682)" d="m0 0 2 2 2 8-3 2-2 4v-10z" fill="#C14A4B"/>
<path transform="translate(679,447)" d="m0 0 3 4-1 2-7 1-1-5z" fill="#CA2A2A"/>
<path transform="translate(611,1318)" d="m0 0h1v11l-3-1-2-9z" fill="#C53232"/>
<path transform="translate(619,807)" d="m0 0h7l13 4-3 1-7-1-2-1-6-1z" fill="#AD342B"/>
<path transform="translate(142,748)" d="m0 0 1 4-5 9-3 3 1-5 5-10z" fill="#C2D6FD"/>
<path transform="translate(810,1525)" d="m0 0 7 5 2 5-4-1-6-7z" fill="#BF4748"/>
<path transform="translate(699,1411)" d="m0 0h6l1 4-2 3h-2v-3l-4-2z" fill="#AC3129"/>
<path transform="translate(564,1154)" d="m0 0h2l-2 4-12 10v-3z" fill="#AC3229"/>
<path transform="translate(757,585)" d="m0 0h2l-2 4-9 8h-2l2-4 7-6h2z" fill="#B13831"/>
<path transform="translate(1196,1417)" d="m0 0v3l-7 9-5 5 1-4 4-5h2l2-5z" fill="#8E2228"/>
<path transform="translate(189,1393)" d="m0 0h3l9 14h-3l-9-13z" fill="#9D2D32"/>
<path transform="translate(611,1335)" d="m0 0 2 3 5 13v2l2 1h-4l-5-15z" fill="#B9B2D2"/>
<path transform="translate(849,482)" d="m0 0h3l-2 4-7 6 1-5z" fill="#C2D1F1"/>
<path transform="translate(692,410)" d="m0 0 5 2 12 11h-3l-14-12z" fill="#9D2E32"/>
<path transform="translate(130,1292)" d="m0 0 3 4 4 7v2l-3-1-5-8z" fill="#9F2F34"/>
<path transform="translate(270,1480)" d="m0 0 7 1 7 5-4 1-7-5z" fill="#C0B5D2"/>
<path transform="translate(1202,1409)" d="m0 0v3l-4 5-5 3 1-4z" fill="#A33236"/>
<path transform="translate(795,679)" d="m0 0 3 1-2 19h-1z" fill="#AFACD2"/>
<path transform="translate(92,1221)" d="m0 0 4 1 2 6-1 3h-2z" fill="#9FA7D4"/>
<path transform="translate(713,1109)" d="m0 0h6v3l-4 4h-2l-1-5z" fill="#C2D6FD"/>
<path transform="translate(601,935)" d="m0 0m-1 1m-1 1m-1 1m-2 1 2 1-2 6-3 1-2-1 2-4z" fill="#AB322C"/>
<path transform="translate(650,571)" d="m0 0h2l1 3v8l-2-1-3-9z" fill="#C2D6FD"/>
<path transform="translate(636,1534)" d="m0 0 6 5 4 2-4 2-7-6z" fill="#AAAAD2"/>
<path transform="translate(576,1525)" d="m0 0 2 1-5 6-4 3-3-1h2l2-4z" fill="#B13832"/>
<path transform="translate(1140,1472)" d="m0 0 2 1-2 3-5 3-6 5-2-1z" fill="#AA383B"/>
<path transform="translate(1335,887)" d="m0 0 2 3 2 8v5h-2l-3-14z" fill="#B33A34"/>
<path transform="translate(761,683)" d="m0 0m-1 1m-2 1h2l-1 4-8 7v-3z" fill="#C3D9F4"/>
<path transform="translate(1029,682)" d="m0 0v3l-7 8-5 3 2-4z" fill="#C14A4B"/>
<path transform="translate(117,1258)" d="m0 0 1 3h2l4 10-1 4-4-9-2-3z" fill="#C2D6FD"/>
<path transform="translate(550,1163)" d="m0 0v3l-8 8h-2l2-4z" fill="#B23832"/>
<path transform="translate(875,841)" d="m0 0v3l-3 5-5 3-2-1z" fill="#BB4442"/>
<path transform="translate(887,828)" d="m0 0v3l-5 6h-2l-2 4h-2l2-4 4-2 2-4z" fill="#C14A4B"/>
<path transform="translate(1186,1424)" d="m0 0v3l-8 6 2-4z" fill="#A6A8D2"/>
<path transform="translate(673,1197)" d="m0 0h1v13l-4 1z" fill="#8E2228"/>
<path transform="translate(771,492)" d="m0 0h1v8h-5l-1-2z" fill="#C14A4B"/>
<path transform="translate(591,1397)" d="m0 0h2l-2 4-5 5-3-1z" fill="#B23933"/>
<path transform="translate(932,417)" d="m0 0 5 1 6 3-4 1-8-1z" fill="#8E2228"/>
</svg>
