<?xml version="1.0" encoding="UTF-8"?>
<svg id="a" data-name="レイヤー 1" xmlns="http://www.w3.org/2000/svg" width="59mm" height="52.341mm" viewBox="0 0 167.244 148.367">
  <g>
    <polygon points="78.442 43.501 82.717 39.439 89.293 43.374 91.463 49.246 92.229 48.927 96.244 52.725 99.691 52.265 102.563 55.712 106.208 66.831 103.335 67.501 101.995 68.267 101.031 68.695 99.958 73.623 101.037 74.778 100.271 77.363 96.57 83.976 100.247 89.835 102.085 90.065 103.667 95.267 105.302 95.58 108.104 102.544 105.614 104.171 103.923 104.771 104.944 111.544 104.829 119.433 103.221 124.182 101.223 126.793 102.455 138.607 105.901 142.948 106.923 146.267 105.391 148.367 100.923 148.367 97.221 145.246 97.029 142.986 97.348 138.99 94.904 128.171 89.504 125.912 87.072 121.661 83.759 113.388 81.767 118.214 77.433 121.373 75.902 132.225 77.05 135.799 76.54 138.097 69.519 140.522 62.625 139.884 63.391 136.693 66.838 136.182 70.412 132.99 69.902 120.863 65.689 117.671 64.878 107.759 63.263 107.076 64.604 100.374 65.944 99.544 65.497 97.469 63.996 98.191 62.523 97.169 28.246 107.51 24.455 107.739 23.191 106.82 61.45 94.029 61.757 90.352 62.829 90.007 64.552 90.352 64.852 87.09 69.391 78.225 68.114 76.565 68.114 74.65 70.54 72.863 69.244 70.303 69.537 68.267 67.718 68.076 71.006 56.836 73.61 56.032 76.24 51.512 76.98 51.628 77.293 46.437 78.442 43.501" fill="var(--opponent-color, #4e93a6)" stroke-width="0"/>
    <polygon points="87.728 43.46 90.983 36.567 91.749 27.758 93.089 29.099 93.472 32.546 95.196 33.312 94.813 34.652 93.089 35.609 92.323 38.099 92.706 39.248 91.94 40.78 90.408 41.163 88.685 45.375 87.728 43.46" fill="var(--opponent-color, #4e93a6)" stroke-width="0"/>
    <polygon points="78.429 44.864 74.724 38.201 73.377 29.463 72.128 30.889 71.974 34.354 70.305 35.232 70.776 36.544 72.559 37.385 73.488 39.819 73.182 40.99 74.048 42.468 75.602 42.749 77.6 46.838 78.429 44.864" fill="var(--opponent-color, #4e93a6)" stroke-width="0"/>
  </g>
  <rect width="167.244" height="148.367" fill="none" stroke-width="0"/>
</svg>