<?xml version="1.0" encoding="UTF-8"?>
<svg id="a" data-name="レイヤー 1" xmlns="http://www.w3.org/2000/svg" width="59mm" height="52.341mm" xmlns:xlink="http://www.w3.org/1999/xlink" viewBox="0 0 167.244 148.367">
  <defs>
    <clipPath id="b">
      <polygon points="78.442 43.502 82.717 39.439 89.293 43.374 91.463 49.246 92.229 48.927 96.244 52.725 99.691 52.265 102.563 55.712 106.208 66.831 103.335 67.501 101.995 68.267 101.031 68.695 99.958 73.623 101.037 74.778 100.271 77.363 96.57 83.976 100.247 89.835 102.085 90.065 103.667 95.267 105.302 95.58 108.104 102.544 105.614 104.172 103.923 104.772 104.944 111.544 104.829 119.433 103.221 124.182 101.223 126.793 102.455 138.608 105.901 142.948 106.923 146.267 105.391 148.367 100.923 148.367 97.221 145.246 97.029 142.986 97.348 138.991 94.904 128.172 89.504 125.912 87.072 121.661 83.759 113.389 81.767 118.214 77.433 121.374 75.902 132.225 77.05 135.799 76.54 138.097 69.519 140.523 62.625 139.884 63.391 136.693 66.838 136.182 70.412 132.991 69.902 120.863 65.689 117.672 64.878 107.759 63.263 107.076 64.604 100.374 65.944 99.544 65.497 97.469 63.996 98.192 62.523 97.169 28.246 107.51 24.455 107.74 23.191 106.82 61.45 94.029 61.757 90.352 62.829 90.008 64.552 90.352 64.852 87.091 69.391 78.225 68.114 76.565 68.114 74.65 70.54 72.863 69.244 70.304 69.537 68.267 67.718 68.076 71.006 56.836 73.61 56.032 76.24 51.512 76.98 51.628 77.293 46.438 78.442 43.502" fill="none" stroke-width="0"/>
    </clipPath>
    <linearGradient id="c" x1="141.453" y1="678.348" x2="141.453" y2="609.839" gradientTransform="translate(228.924 713.132) rotate(-180)" gradientUnits="userSpaceOnUse">
      <stop offset=".346" stop-color="var(--opponent-color, #4e92a5)"/>
      <stop offset="1" stop-color="#fef145"/>
    </linearGradient>
  </defs>
  <g>
    <g>
      <polygon points="78.442 43.502 82.717 39.439 89.293 43.374 91.463 49.246 92.229 48.927 96.244 52.725 99.691 52.265 102.563 55.712 106.208 66.831 103.335 67.501 101.995 68.267 101.031 68.695 99.958 73.623 101.037 74.778 100.271 77.363 96.57 83.976 100.247 89.835 102.085 90.065 103.667 95.267 105.302 95.58 108.104 102.544 105.614 104.172 103.923 104.772 104.944 111.544 104.829 119.433 103.221 124.182 101.223 126.793 102.455 138.608 105.901 142.948 106.923 146.267 105.391 148.367 100.923 148.367 97.221 145.246 97.029 142.986 97.348 138.991 94.904 128.172 89.504 125.912 87.072 121.661 83.759 113.389 81.767 118.214 77.433 121.374 75.902 132.225 77.05 135.799 76.54 138.097 69.519 140.523 62.625 139.884 63.391 136.693 66.838 136.182 70.412 132.991 69.902 120.863 65.689 117.672 64.878 107.759 63.263 107.076 64.604 100.374 65.944 99.544 65.497 97.469 63.996 98.192 62.523 97.169 28.246 107.51 24.455 107.74 23.191 106.82 61.45 94.029 61.757 90.352 62.829 90.008 64.552 90.352 64.852 87.091 69.391 78.225 68.114 76.565 68.114 74.65 70.54 72.863 69.244 70.304 69.537 68.267 67.718 68.076 71.006 56.836 73.61 56.032 76.24 51.512 76.98 51.628 77.293 46.438 78.442 43.502" fill="#313534" stroke-width="0"/>
      <polygon points="87.728 43.461 90.983 36.567 91.749 27.759 93.089 29.099 93.472 32.546 95.196 33.312 94.813 34.652 93.089 35.61 92.323 38.099 92.706 39.248 91.94 40.78 90.408 41.163 88.685 45.376 87.728 43.461" fill="#313534" stroke-width="0"/>
      <polygon points="78.429 44.864 74.724 38.201 73.377 29.463 72.128 30.889 71.974 34.354 70.305 35.232 70.776 36.544 72.559 37.386 73.488 39.819 73.182 40.99 74.048 42.468 75.602 42.749 77.6 46.839 78.429 44.864" fill="#313534" stroke-width="0"/>
    </g>
    <g clip-path="url(#b)">
      <polygon points="104.986 38.391 69.957 103.293 97.269 34.785 104.986 38.391" fill="url(#c)" stroke-width="0"/>
    </g>
  </g>
  <rect width="167.244" height="148.367" fill="none" stroke-width="0"/>
</svg>