<?xml version="1.0" encoding="UTF-8"?>
<svg id="a" data-name="レイヤー 1" xmlns="http://www.w3.org/2000/svg" width="59mm" height="86mm" xmlns:xlink="http://www.w3.org/1999/xlink" viewBox="0 0 167.244 243.78">
  <defs>
    <linearGradient id="b" x1="145.117" y1="561.275" x2="145.117" y2="629.783" gradientTransform="translate(-457.844 399.81) rotate(45) scale(1 -1)" gradientUnits="userSpaceOnUse">
      <stop offset=".346" stop-color="var(--opponent-color, #4e93a6)"/>
      <stop offset="1" stop-color="#fff340"/>
    </linearGradient>
    <linearGradient id="c" x1="227.623" y1="664.747" x2="227.623" y2="596.238" gradientTransform="translate(-505.361 447.328) rotate(45) scale(1 -1)" gradientUnits="userSpaceOnUse">
      <stop offset=".346" stop-color="var(--opponent-color, #4e93a6)"/>
      <stop offset="1" stop-color="#fff340"/>
    </linearGradient>
  </defs>
  <g>
    <path d="M158.74,0H10.012v10.012s-10.012,0-10.012,0v225.264c0,4.697,3.807,8.504,8.504,8.504h148.728v-10.012s10.012,0,10.012,0V8.504c0-4.697-3.807-8.504-8.504-8.504Z" fill="var(--opponent-color, #4e93a6)" stroke-width="0"/>
    <path d="M10.012,0h-1.508C3.807,0,0,3.807,0,8.504v1.508h10.012s0-10.012,0-10.012Z" fill="#fff" stroke-width="0"/>
    <path d="M157.232,243.78h1.508c4.697,0,8.504-3.807,8.504-8.504v-1.508h-10.012s0,10.012,0,10.012Z" fill="#fff" stroke-width="0"/>
  </g>
  <rect x="33.756" y="-7.167" width=".5" height="82.345" transform="translate(-14.086 34.006) rotate(-45)" fill="#fff" stroke-width="0"/>
  <g>
    <rect x="14.919" y="14.919" width="24.053" height="24.053" fill="var(--opponent-color, #4e93a6)" stroke-width="0"/>
    <path d="M14.669,14.669h24.553v24.553H14.669V14.669ZM38.722,15.169H15.169v23.553h23.553V15.169Z" fill="#fff" stroke-width="0"/>
  </g>
  <path d="M25.274,26.792c1.706-2.813,1.358-7.368.24-9.857-.084-.156-.108-.252-.084-.276s.108.012.277.108c.324.18,1.407.998,2.127,1.094.301.036.553.193.733.373.168.168.289.36.337.552.349,1.695-.313,5-3.45,8.186l.156.156c2.969-2.44,6.78-3.846,12.296-.132.06.037.108.084.144.12.037.037.073.073.049.096-.012.012-.085-.012-.229-.084-4.652-2.344-7.957-.578-10.589,1.67l.529.529c.481.481,2.259,2.259,3.209,3.04,0,.12-.072.481-.24.649-.997-1.166-3.485-3.654-3.485-3.654l-.313-.313-.865.793-1.178,1.178c-.264.264-.493.493-.769.841l-.06.06.445.445c.481.481,2.644,2.644,3.605,3.438,0,.12-.096.505-.24.649-1.01-1.178-3.906-4.099-3.906-4.099l-3.943-3.943c-.685.157-2.139.314-2.259.193-.277-.277-.517-2.656-.24-2.933.132-.132.3-.012.385.073l4.171,4.171c-.072-.168-.06-.277,0-.337.12-.12.468-.036.697.121.373-.373,1.791-1.743,2.489-2.32l-1.815-1.815c-.637.18-1.947.313-2.055.301-.037-.012-.084-.036-.108-.06-.277-.277-.637-2.608-.289-2.957.12-.12.3.012.385.096l3.846,3.846Z" fill="#dbd5c4" stroke-width="0"/>
  <rect x="132.988" y="168.601" width=".5" height="82.345" transform="translate(-109.308 155.653) rotate(-45)" fill="#fff" stroke-width="0"/>
  <g>
    <rect x="128.271" y="204.808" width="24.053" height="24.053" fill="var(--opponent-color, #4e93a6)" stroke-width="0"/>
    <path d="M128.021,204.558h24.553v24.553h-24.553v-24.553ZM152.074,205.058h-23.553v23.553h23.553v-23.553Z" fill="#fff" stroke-width="0"/>
  </g>
  <path d="M143.491,223.584c-1.106,1.106-1.189,1.262-1.118,1.887.049.264-.095.529-.288.722-.877.877-2.271.204-4.868-2.393-1.214-1.214-2.837-2.933-1.299-4.471.06-.06.12-.12.205-.18.312-.264,1.141-1.046,2.067-1.971-.481.12-3.449-.204-6.142-1.045-.037.06-.084.108-.133.156-.156.156-.312.217-.408.121-.361-.361.421-2.633.517-2.729.06-.06.097.048.3.18.553.361,1.19.758,1.827,1.13.721-.721,2.236-2.211,3.57-3.545-.434-.409-.914-.865-1.503-1.358-.012-.157.073-.456.241-.625.385.505,1.046,1.19,1.539,1.707,1.057-1.082,1.959-1.984,2.139-2.164.301-.325.445-.493.722-.817.119-.144.168-.241.204-.277s.084-.036.397.277c.456.456,1.407,1.67,1.106,1.971-.084.084-.3.084-.721-.12-.144.119-1.262,1.214-2.525,2.451l.097.097c.372-.108,1.118-.397,1.503-.421.036-.012.072,0,.096.024.204.204.132,1.791-.168,2.091-.12.12-.276.012-.348-.059l-1.455-1.455c-1.238,1.238-2.56,2.536-3.197,3.174.769.432,1.418.769,1.766.925l.613.276c.626-.601,1.286-1.262,1.9-1.875-.686-.3-1.286-.565-1.55-.661-.036-.133-.048-.529.036-.685.432.264,1.13.649,1.851,1.01.938-.938,1.683-1.683,1.766-1.791l.193-.193c.229-.229.601-.601.782-.853.072-.095.119-.168.144-.192.036-.036.06-.012.229.157l.06.06c.192.192,1.503,1.646,1.166,1.983-.097.097-.3.085-.673-.096-.133.084-.925.83-1.887,1.791l.733.349.397.18c.745-.745,2.596-2.596,3.1-3.246.108-.132.157-.229.193-.264.024-.024.048-.024.24.168l.06.06c.36.36,1.454,1.671,1.118,2.007-.096.096-.301.108-.649-.097-.373.301-1.058.938-1.827,1.707l-.493.493,1.082.505c.252-.108.649-.192.889-.192.06-.013.12-.025.253.108.312.337.804,1.839.468,2.175-.156.156-.468.012-.733-.156l-.637.637c-1.996,1.996-2.308,2.212-3.173,2.5-.18.06-1.251.385-1.839-.204-.168-.168-.3-.445-.133-.758.168-.312.204-.588.181-.829l-.217.217c-.409.384-1.081-.097-1.322-.338-.312-.312-.492-.709-.229-.973l.024-.024c.445-.396,1.707-1.587,3.33-3.21l-.204-.084-.925-.445c-1.743,1.743-3.955,3.955-4.303,4.328-.421.468-.409.914.925,2.248,1.563,1.563,2.248,1.646,3.21,1.358.481-.144,1.467-.601,1.875-.841.276-.156.408-.216.432-.192.012.012-.023.072-.108.156-.048.048-.121.096-.193.168l-.277.277ZM141.856,220.531c.805.805,1.443.264,4.207-2.5l-1.238-.589c-.949.949-1.923,1.971-2.668,2.765l-.301.325Z" fill="#dbd5c4" stroke-width="0"/>
  <g>
    <g>
      <polygon points="36.543 81.109 37.554 83.393 35.851 84.252 33.306 83.537 9.894 116.389 9.384 114.912 10.712 111.353 30.616 81.593 29.387 79.462 30.725 78.063 35.318 79.191 36.543 81.109" fill="#313433" stroke-width="0"/>
      <polygon points="69.313 47.679 66.334 56.254 62.52 58.759 60.985 59.391 59.631 60.745 57.848 61.67 55.122 62.564 53.89 64.211 52.468 63.06 46.845 73.332 48.118 75.742 46.058 82.677 46.718 83.032 43.829 87.355 42.969 90.389 43.673 95.982 51.535 97.051 56.814 93.685 57.231 94.402 62.786 93.083 64.303 94.663 69.313 94.528 76.354 90.195 75.37 87.658 79.188 81.934 81.679 72.502 90.856 70.675 92.318 71.812 97.115 69.253 98.492 70.187 107.252 66.201 106.643 63.29 105.871 61.67 109.527 58.646 115.025 52.986 117.245 48.491 117.679 45.232 126.904 37.749 132.41 37.117 135.48 35.492 135.881 32.924 132.722 29.765 127.897 29.354 126.164 30.816 123.564 33.867 114.185 39.789 108.769 37.568 104.043 38.855 95.852 42.362 97.856 37.541 97.025 32.243 103.615 23.487 106.955 21.771 108.218 19.785 104.969 13.106 99.643 8.682 97.928 11.481 100.004 14.279 100.275 19.063 91.338 27.278 86.103 26.556 78.52 32.992 76.895 32.333 71.84 39.374 72.201 40.908 68.771 46.234 69.313 47.679" fill="#313433" stroke-width="0"/>
      <polygon points="32.375 79.716 33.052 74.435 35.354 72.675 34.948 70.915 36.573 69.831 43.208 57.239 45.645 56.426 49.165 55.343 49.978 58.864 53.227 59.947 60.205 67.276 52.821 77.414 47.928 70.165 41.718 74.164 41.447 75.789 39.416 77.008 38.875 80.257 35.49 82.018 32.375 79.716" fill="#313433" stroke-width="0"/>
      <polygon points="41.609 78.65 48.65 80.094 50.411 83.479 55.42 76.032 52.442 73.595 35.922 72.06 40.165 79.192 41.609 78.65" fill="#313433" stroke-width="0"/>
      <polygon points="50.308 95.711 47.735 102.887 42.048 109.657 43.944 109.657 46.652 107.491 48.412 108.168 49.089 106.949 48.547 105.054 49.766 102.752 50.849 102.21 51.391 100.585 50.579 99.231 52.339 95.034 50.308 95.711" fill="#313433" stroke-width="0"/>
      <polygon points="44.594 88.643 37.417 91.215 30.647 96.902 30.647 95.007 32.814 92.299 32.137 90.538 33.355 89.861 35.251 90.403 37.553 89.184 38.094 88.101 39.719 87.56 41.073 88.372 45.271 86.612 44.594 88.643" fill="#313433" stroke-width="0"/>
    </g>
    <polygon points="56.585 115.377 77.708 44.715 48.578 112.47 56.585 115.377" fill="url(#b)" stroke-width="0"/>
  </g>
  <g>
    <g>
      <polygon points="125.861 150.783 125.71 144.888 118.278 143.02 112.591 145.638 112.276 144.871 106.751 144.717 104.639 141.955 100.17 142.361 89.731 147.646 91.288 150.151 91.694 151.641 92.073 152.625 89.347 156.869 87.768 156.922 86.481 159.291 84.423 166.584 77.679 168.128 76.217 166.991 71.42 169.55 70.043 168.615 63.137 171.558 63.747 174.47 64.518 176.09 59.008 180.157 53.51 185.816 51.29 190.312 50.856 193.571 41.631 201.054 36.125 201.686 33.055 203.311 32.654 205.879 35.813 209.038 40.638 209.449 42.371 207.986 44.971 204.935 54.35 199.014 59.766 201.234 64.492 199.948 72.683 196.441 70.679 201.261 71.51 206.56 64.92 215.316 61.58 217.031 60.317 219.017 63.566 225.697 68.892 230.12 70.607 227.322 68.531 224.524 68.26 219.739 77.197 211.525 82.432 212.247 90.015 205.811 91.64 206.47 95.431 200.783 95.07 199.248 96.853 198.097 97.404 199.67 99.168 199.989 116.094 231.538 118.612 234.381 120.156 234.625 102.147 198.526 104.53 195.71 104.016 194.708 102.554 193.733 104.648 191.214 107.708 181.736 109.784 181.465 111.138 180.111 110.687 177.133 113.413 176.239 114.645 174.592 116.067 175.743 121.69 165.471 120.417 163.06 121.754 158.005 121.148 157.563 124.597 153.672 125.861 150.783" fill="#313433" stroke-width="0"/>
      <polygon points="119.324 144.188 121.896 137.012 127.583 130.242 125.688 130.242 122.98 132.408 121.219 131.731 120.542 132.95 121.084 134.845 119.865 137.147 118.782 137.689 118.24 139.314 119.053 140.668 117.293 144.865 119.324 144.188" fill="#313433" stroke-width="0"/>
      <polygon points="124.906 151.756 132.237 149.664 139.369 144.438 139.244 146.329 136.903 148.888 137.462 150.689 136.201 151.284 134.345 150.618 131.968 151.682 131.356 152.727 129.699 153.16 128.401 152.26 124.096 153.738 124.906 151.756" fill="#313433" stroke-width="0"/>
    </g>
    <polygon points="110.705 128.4 89.581 199.062 118.712 131.307 110.705 128.4" fill="url(#c)" stroke-width="0"/>
  </g>
</svg>