<?xml version="1.0" encoding="UTF-8"?>
<svg id="a" data-name="レイヤー 1" xmlns="http://www.w3.org/2000/svg" width="59mm" height="86mm" xmlns:xlink="http://www.w3.org/1999/xlink" viewBox="0 0 167.244 243.78">
  <defs>
    <linearGradient id="b" x1="-2855.709" y1="7884.904" x2="-2825.945" y2="7884.904" gradientTransform="translate(-2794.764 7928.132) rotate(-180)" gradientUnits="userSpaceOnUse">
      <stop offset="0" stop-color="var(--opponent-color, #c93941)"/>
      <stop offset=".194" stop-color="var(--opponent-color, #c93941)" stop-opacity=".962"/>
      <stop offset=".35" stop-color="var(--opponent-color, #c93941)" stop-opacity=".846"/>
      <stop offset=".492" stop-color="var(--opponent-color, #c93941)" stop-opacity=".671"/>
      <stop offset=".627" stop-color="var(--opponent-color, #c93941)" stop-opacity=".456"/>
      <stop offset=".756" stop-color="var(--opponent-color, #c93941)" stop-opacity=".240"/>
      <stop offset=".88" stop-color="var(--opponent-color, #c93941)" stop-opacity=".071"/>
      <stop offset="1" stop-color="var(--opponent-color, #c93941)" stop-opacity="0"/>
    </linearGradient>
    <linearGradient id="c" data-name="名称未設定グラデーション 20" x1="122.598" y1="-8.504" x2="122.598" y2="266.456" gradientUnits="userSpaceOnUse">
      <stop offset="0" stop-color="#e49d00"/>
      <stop offset="1" stop-color="#fff340"/>
    </linearGradient>
  </defs>
  <rect y="0" width="167.244" height="243.78" rx="8.504" ry="8.504" fill="#dbd5c4" stroke-width="0"/>
  <path d="M167.244,204.803V8.504C167.244,3.807,163.437,0,158.74,0h-21.969L49.606,87.165l117.638,117.638Z" fill="var(--opponent-color, #4e93a6)" stroke-width="0"/>
  <polygon points="31.181 13.465 60.945 43.228 31.181 72.992 31.181 13.465" fill="url(#b)" stroke-width="0"/>
  <line x1="55.276" y1="106.299" x2="55.276" fill="#fff" stroke="#fff" stroke-miterlimit="10" stroke-width=".463"/>
  <rect x="51.267" y="17.251" width="8.018" height="8.018" transform="translate(1.157 45.312) rotate(-45)" fill="#fff" stroke-width="0"/>
  <rect x="51.267" y="39.22" width="8.018" height="8.018" transform="translate(-14.377 51.747) rotate(-45)" fill="#fff" stroke-width="0"/>
  <rect x="51.267" y="61.188" width="8.018" height="8.018" transform="translate(-29.911 58.181) rotate(-45)" fill="#fff" stroke-width="0"/>
  <rect x="51.267" y="83.157" width="8.018" height="8.018" transform="translate(-45.445 64.615) rotate(-45)" fill="#fff" stroke-width="0"/>
  <rect x="9.758" y="51.146" width="14.432" height="14.432" transform="translate(-36.296 29.096) rotate(-45)" fill="var(--opponent-color, #4e93a6)" stroke-width="0"/>
  <path d="M22.72,16.483c.019.576.036,1.134.036,1.368,0,.271.036.63.036.864v.036c0,.612-1.044.702-1.423.702-.414,0-.773-.108-.81-.504h-3.764c-.756,0-2.16,0-3.366.09-.127-.108-.307-.414-.307-.631,1.045.091,2.629.108,3.421.127.019-.433.019-1.225.019-2.053-.685,0-2.395,0-3.8.036-.378,5.509-2.484,7.058-4.141,8.336-.181.145-.307.198-.36.198-.018,0-.036,0-.036-.036,0-.054.09-.162.234-.324,1.801-1.962,2.106-5.995,2.106-9.074,0-3.476-.234-5.114-.252-5.168-.019-.108-.054-.18-.054-.216,0-.054.035-.072.107-.072.45,0,2.467.559,2.917,1.009h2.755c0-.055,0-1.081-.09-1.819-.019-.197-.054-.306-.054-.359,0-.036.018-.072.558-.072.468,0,2.665.144,2.665.63,0,.145-.181.307-.666.433-.036.288-.036.882-.055,1.188h2.917c.883-1.387,1.333-1.585,1.351-1.585.396,0,2.179,1.351,2.179,1.818,0,.162-.216.181-.342.181h-11.29c-.09.071-.233.144-.414.198-.018.233-.018.684-.018.972v.271c.036.612.036,1.188.036,1.729,0,.45,0,.882-.019,1.278,1.387.036,3.043.036,3.764.036,0-.631-.019-1.261-.019-1.783-.828,0-2.124.019-3.133.108-.126-.145-.306-.414-.306-.63.882.054,2.629.09,3.421.09v-.324c-.019-.468-.019-.721-.072-1.188-.018-.198-.054-.288-.054-.342,0-.072.359-.072.396-.072.126,0,2.539.09,2.539.648,0,.162-.162.342-.63.486v.81h1.729c.126-.216.72-.828.918-.828.054,0,.108.036.198.072.036.018,1.729.666,1.729,1.225,0,.216-.216.414-.559.504v1.225h.145c.198-.396.828-1.333.99-1.333.36,0,1.603,1.207,1.603,1.513,0,.18-.216.234-.324.234h-2.413ZM22.72,24.567c0,.576-.774.756-1.458.756-.396,0-.883-.107-.883-.576v-.521h-4.699v.396c0,.486-.684.774-1.548.774-.469,0-.811-.162-.811-.576v-.054c.018-.252.072-.576.09-.828.036-.36.054-1.585.054-2.269v-.379c0-.396-.018-.54-.071-1.044-.019-.144-.036-.216-.036-.252s0-.054.288-.054c.612.018,2.017.486,2.377.72.018,0,.035.019.054.036h4.159c.234-.324.558-.738.648-.792.054-.036.09-.072.162-.072.288,0,2.07.792,2.07,1.332,0,.234-.216.433-.559.522,0,.216.036,1.206.072,1.566.036.198.09,1.045.09,1.278v.036ZM20.379,21.11h-4.303c-.09.09-.216.18-.414.234v2.448h4.717v-2.683ZM20.578,14.286h-1.872c-.019.522-.019,1.152-.019,1.783h1.891v-1.783ZM20.578,16.483h-1.891c0,.846,0,1.639.019,2.053h1.872c0-.198.019-.414.019-.648l-.019-1.404Z" fill="var(--opponent-color, #4e93a6)" stroke-width="0"/>
  <path d="M22.235,40.695c0,1.998-2.341,2.593-3.008,2.593-.288,0-.576-.108-.773-.486-.307-.631-1.477-1.116-1.963-1.261-.216-.072-.307-.126-.307-.162s.055-.054.162-.054c.055,0,.108.018.181.018.252.019.54.019.828.019,1.314,0,2.593,0,2.593-1.152v-7.022c0-.521-.036-.99-.072-1.351h-1.513c-1.8,2.467-3.259,3.529-3.421,3.529,0,0-.018,0-.018-.018,0-.019.054-.108.18-.252.631-.757,1.242-1.963,1.747-3.277-.055.018-.108.018-.145.018h-2.16c.252.072.485.234.485.396,0,.126-.144.271-.594.414-.018.378-.036,1.675-.036,3.259s.019,3.457.036,4.97c.018.792.036,1.332.036,1.854s-.847.721-1.458.721c-.486,0-.955-.127-.955-.595v-.054c.072-.847.288-4.52.288-10.461v-.505h-.252c-1.872,2.773-3.619,4.052-3.799,4.052q-.019,0-.019-.019c0-.018.055-.126.217-.306,1.818-2.161,3.078-6.86,3.295-8.373.018-.144-.036-.161.162-.161.666.018,2.736.737,2.736,1.278,0,.162-.198.27-.738.306-.342.756-.882,1.747-1.566,2.791h1.333c.396-.702,1.08-1.53,1.17-1.585.054-.035.09-.054.144-.054.36,0,1.675,1.225,1.927,1.675l.019.036c.828-2.251,1.134-4.069,1.152-4.376q.018-.144.198-.144c.882,0,2.881.72,2.881,1.08,0,.145-.198.252-.721.324-.36.774-1.008,1.891-1.801,3.043h2.972c.252-.414,1.134-1.711,1.439-1.711.415,0,2.215,1.585,2.215,1.963,0,.162-.233.18-.359.18h-2.917c.54.181.558.217.558.343,0,.107-.126.252-.504.432-.018.216-.018.54-.018.954,0,1.765.107,5.006.162,7.04v.091Z" fill="var(--opponent-color, #4e93a6)" stroke-width="0"/>
  <path d="M17.826,57.655c.516,2.105,2.8,4.066,4.48,4.704.111.034.168.067.168.09s-.057.045-.18.078c-.235.067-1.12.19-1.501.481-.156.124-.347.168-.515.168-.157,0-.303-.033-.415-.101-.952-.627-2.184-2.475-2.206-5.421h-.146c-.246,2.521-1.366,4.951-5.667,5.791-.045.011-.09.011-.123.011-.034,0-.067,0-.067-.022,0-.011.045-.033.146-.067,3.259-1.075,3.976-3.438,4.155-5.712h-.493c-.448,0-2.105,0-2.912.079-.056-.057-.19-.258-.19-.415,1.008.079,3.326.079,3.326.079h.292l.033-.773v-1.098c0-.246,0-.459-.033-.75v-.056h-.415c-.447,0-2.464,0-3.281.078-.056-.057-.19-.28-.19-.415,1.02.079,3.729.09,3.729.09h3.674c.246-.392.851-1.143.963-1.143.258,0,1.479.997,1.479,1.255,0,.123-.135.146-.213.146h-3.887c.112.045.157.101.157.157,0,.111-.201.234-.381.269,0,.347-.022,1.646-.078,2.24h1.691c.213-.381.761-1.054.817-1.098.022-.012.056-.022.078-.022.258,0,1.512.918,1.512,1.243,0,.111-.146.134-.224.134h-3.584Z" fill="#e6e3d5" stroke-width="0"/>
  <rect x="9.758" y="72.689" width="14.432" height="14.432" transform="translate(-51.53 35.406) rotate(-45)" fill="#4d93a6" opacity=".2" stroke-width="0"/>
  <path d="M21.611,81.563c0,1.03.034,1.143.358,1.4.146.101.202.291.202.471,0,.817-.963,1.153-3.383,1.153-1.131,0-2.688-.045-2.688-1.479,0-.056,0-.112.011-.18.022-.269.045-1.019.045-1.881-.168.279-1.702,1.512-3.349,2.374.011.045.011.09.011.135,0,.146-.044.246-.134.246-.336,0-1.03-1.423-1.03-1.512,0-.057.067-.022.224-.057.426-.089.907-.201,1.378-.324,0-.672.011-2.072.011-3.315-.392.012-.828.022-1.333.067-.078-.067-.179-.246-.179-.403.414.056,1.042.067,1.512.078-.011-.996-.011-1.837-.011-2.005-.012-.291-.022-.437-.045-.717-.012-.123-.034-.19-.034-.224s.022-.056.314-.056c.425,0,1.434.123,1.434.403,0,.078-.102.179-.393.279-.011.123-.022,1.154-.033,2.318h.09c.123-.224.336-.705.504-.896.011-.022.033-.034.056-.034.19,0,.896.773.896,1.053,0,.112-.123.135-.189.135h-1.355c0,1.153-.012,2.374-.012,2.968.561-.156,1.02-.302,1.255-.392l.414-.157c.012-.571.012-1.187.012-1.758-.46.179-.862.336-1.03.414-.079-.045-.27-.224-.303-.336.324-.078.829-.224,1.333-.392,0-.874,0-1.568-.012-1.658v-.179c0-.213,0-.561-.033-.762-.012-.078-.022-.135-.022-.157,0-.033.022-.033.179-.033h.057c.179,0,1.467.067,1.467.381,0,.09-.101.179-.358.269-.022.101-.045.817-.045,1.714l.504-.18.27-.101c0-.694,0-2.419-.067-2.957-.012-.111-.034-.179-.034-.213,0-.022.012-.033.19-.033h.057c.336,0,1.456.101,1.456.414,0,.09-.09.19-.348.258-.033.313-.056.93-.056,1.646v.459l.739-.269c.066-.168.213-.392.324-.504.022-.034.045-.067.168-.067.303.012,1.232.481,1.232.795,0,.146-.213.225-.415.27v.593c0,1.859-.044,2.106-.313,2.644-.056.112-.403.762-.951.762-.157,0-.348-.067-.415-.291-.067-.225-.179-.37-.302-.471v.202c-.012.369-.549.459-.773.459-.291,0-.56-.102-.56-.348v-.022c.022-.392.056-1.534.056-3.046l-.135.056-.638.224c0,1.624,0,3.686.011,4.021.022.414.235.616,1.479.616,1.456,0,1.814-.28,2.128-.863.157-.291.403-.963.481-1.266.057-.201.09-.291.112-.291.011,0,.022.045.022.123,0,.045-.012.102-.012.168v.258ZM19.427,80.903c.75,0,.795-.549.795-3.125l-.851.302c0,.885.022,1.814.045,2.531l.011.292Z" fill="#e6e3d5" stroke-width="0"/>
  <path d="M32.391,11.253l-.72-.762-2.018,1.639c-.168.137-.28.244-.335.321-.056.077-.089.172-.101.285h-.119v-1.869h.119c.044.189.108.283.195.283.048,0,.105-.028.174-.085l1.59-1.281h-1.337c-.198,0-.334.027-.408.084-.074.056-.146.199-.214.429h-.119v-1.936h.119c.051.217.114.357.191.423.078.064.212.097.403.098h2.687c.188,0,.317-.034.391-.102.072-.067.134-.206.184-.418h.12v1.935h-.12c-.045-.2-.107-.335-.186-.406-.079-.071-.191-.106-.337-.106h-1.214l1.214,1.261c.08.084.158.127.235.127.133,0,.229-.127.287-.38h.12v1.702h-.12c0-.191-.05-.38-.151-.565-.102-.187-.278-.411-.531-.676Z" fill="var(--opponent-color, #4e93a6)" stroke-width="0"/>
  <path d="M28.993,13.687c0-.219.068-.405.204-.559.136-.154.299-.23.49-.23s.351.076.477.229c.127.152.254.472.381.957.062.234.112.403.15.506.244,0,.421-.053.53-.157s.164-.271.164-.499c0-.357-.147-.622-.44-.793v-.103c.284.07.505.209.661.415s.233.462.233.768c0,.354-.086.635-.26.846-.173.211-.415.316-.728.316h-1.244c-.234,0-.353.054-.353.161,0,.111.082.181.246.208v.112c-.164-.014-.29-.076-.379-.188s-.134-.264-.134-.455c0-.161.029-.292.088-.391.058-.1.153-.182.285-.248l-.059-.062c-.209-.237-.314-.515-.314-.834ZM29.553,14.583h1.002c-.148-.349-.275-.579-.383-.692-.107-.112-.245-.169-.414-.169-.144,0-.259.033-.347.101s-.132.155-.132.265c0,.148.092.313.273.496Z" fill="var(--opponent-color, #4e93a6)" stroke-width="0"/>
  <path d="M31.843,17.379h-.841v.014c.562.251.841.542.841.875,0,.183-.074.338-.224.469l-.798-.175c.228-.239.342-.438.342-.595,0-.116-.027-.218-.082-.304-.055-.087-.152-.182-.294-.284h-1.08c-.169,0-.284.029-.346.089s-.109.179-.144.358h-.119v-1.682h.119c.041.174.095.29.161.351s.176.091.328.091h1.395c.166,0,.29-.038.372-.114s.131-.199.145-.367h.119l.105,1.155v.119Z" fill="var(--opponent-color, #4e93a6)" stroke-width="0"/>
  <path d="M28.993,19.734c0-.219.068-.405.204-.559.136-.154.299-.23.49-.23s.351.076.477.229c.127.152.254.472.381.957.062.234.112.403.15.506.244,0,.421-.053.53-.157s.164-.271.164-.499c0-.357-.147-.622-.44-.793v-.103c.284.07.505.209.661.415s.233.462.233.768c0,.354-.086.635-.26.846-.173.211-.415.316-.728.316h-1.244c-.234,0-.353.054-.353.161,0,.111.082.181.246.208v.112c-.164-.014-.29-.076-.379-.188s-.134-.264-.134-.455c0-.161.029-.292.088-.391.058-.1.153-.182.285-.248l-.059-.062c-.209-.237-.314-.515-.314-.834ZM29.553,20.63h1.002c-.148-.349-.275-.579-.383-.692-.107-.112-.245-.169-.414-.169-.144,0-.259.033-.347.101s-.132.155-.132.265c0,.148.092.313.273.496Z" fill="var(--opponent-color, #4e93a6)" stroke-width="0"/>
  <path d="M30.716,22.263v2.092h-.589v-2.092h.589Z" fill="var(--opponent-color, #4e93a6)" stroke-width="0"/>
  <path d="M29.539,26.857l-.078.082c-.312-.185-.469-.467-.469-.848,0-.282.073-.502.219-.66.146-.156.354-.235.622-.235h1.695v-.475h.134c.217.353.582.731,1.097,1.135v.133h-1.021v.868h-.209v-.868h-1.521c-.239,0-.412.038-.518.114-.106.076-.159.199-.159.367,0,.14.069.269.208.387Z" fill="var(--opponent-color, #4e93a6)" stroke-width="0"/>
  <path d="M28.993,27.906c0-.219.068-.405.204-.559.136-.154.299-.23.49-.23s.351.076.477.229c.127.152.254.472.381.957.062.234.112.403.15.506.244,0,.421-.053.53-.157s.164-.271.164-.499c0-.357-.147-.622-.44-.793v-.103c.284.07.505.209.661.415s.233.462.233.768c0,.354-.086.635-.26.846-.173.211-.415.316-.728.316h-1.244c-.234,0-.353.054-.353.161,0,.111.082.181.246.208v.112c-.164-.014-.29-.076-.379-.188s-.134-.264-.134-.455c0-.161.029-.292.088-.391.058-.1.153-.182.285-.248l-.059-.062c-.209-.237-.314-.515-.314-.834ZM29.553,28.801h1.002c-.148-.349-.275-.579-.383-.692-.107-.112-.245-.169-.414-.169-.144,0-.259.033-.347.101s-.132.155-.132.265c0,.148.092.313.273.496Z" fill="var(--opponent-color, #4e93a6)" stroke-width="0"/>
  <path d="M29.099,30.404h.119c.041.15.094.255.157.313.064.058.163.087.298.087h3.199c.118,0,.207-.028.265-.084.059-.056.108-.161.149-.315h.119l.075,1.073v.119h-2.96l.677.937c.053.07.12.105.202.106.065,0,.119-.026.158-.077.04-.052.061-.122.061-.21h.119v1.455h-.12c-.024-.175-.06-.316-.105-.425s-.126-.244-.242-.408l-.487-.691-1.304,1.245c-.096.086-.16.161-.193.225-.033.064-.056.152-.067.264h-.119v-1.206l1.261-1.214h-.602c-.182,0-.303.021-.363.064-.061.044-.119.154-.177.332h-.119v-1.59Z" fill="var(--opponent-color, #4e93a6)" stroke-width="0"/>
  <path d="M29.913,37.137v.119c-.285-.118-.51-.304-.674-.557s-.246-.538-.246-.854c0-.412.135-.756.402-1.03s.603-.412,1.007-.412c.41,0,.753.141,1.028.422s.413.631.413,1.048c0,.376-.107.688-.322.938-.216.249-.505.398-.867.445v-1.999c-.036-.002-.072-.003-.109-.003-.357,0-.647.089-.871.27-.224.179-.335.402-.335.668,0,.38.191.695.574.945ZM30.815,35.255v1.151c.248-.016.45-.079.606-.188s.234-.245.234-.404c0-.16-.076-.291-.229-.392-.153-.1-.357-.156-.612-.167Z" fill="var(--opponent-color, #4e93a6)" stroke-width="0"/>
  <polygon points="123.884 243.78 137.707 0 107.49 0 121.313 243.78 123.884 243.78" fill="url(#c)" stroke-width="0"/>
</svg>