<?xml version="1.0" encoding="UTF-8"?>
<svg id="a" data-name="レイヤー 1" xmlns="http://www.w3.org/2000/svg" width="59mm" height="86mm" xmlns:xlink="http://www.w3.org/1999/xlink" viewBox="0 0 167.244 243.78">
  <defs>
    <linearGradient id="b" data-name="名称未設定グラデーション 10" x1="-2855.709" y1="7840.967" x2="-2825.945" y2="7840.967" gradientTransform="translate(-2794.764 7928.132) rotate(-180)" gradientUnits="userSpaceOnUse">
      <stop offset="0" stop-color="var(--opponent-color, #4e93a6)"/>
      <stop offset=".194" stop-color="var(--opponent-color, #4e93a6)" stop-opacity=".962"/>
      <stop offset=".35" stop-color="var(--opponent-color, #4e93a6)" stop-opacity=".846"/>
      <stop offset=".492" stop-color="var(--opponent-color, #4e93a6)" stop-opacity=".671"/>
      <stop offset=".627" stop-color="var(--opponent-color, #4e93a6)" stop-opacity=".456"/>
      <stop offset=".756" stop-color="var(--opponent-color, #4e93a6)" stop-opacity=".240"/>
      <stop offset=".88" stop-color="var(--opponent-color, #4e93a6)" stop-opacity=".071"/>
      <stop offset="1" stop-color="var(--opponent-color, #4e93a6)" stop-opacity="0"/>
    </linearGradient>
    <linearGradient id="c" data-name="名称未設定グラデーション 20" x1="-23.26" y1="-83.581" x2="-23.26" y2="130.509" gradientTransform="translate(90.284 144.951) rotate(90)" gradientUnits="userSpaceOnUse">
      <stop offset="0" stop-color="#e49d00"/>
      <stop offset="1" stop-color="#fff340"/>
    </linearGradient>
  </defs>
  <rect y="0" width="167.244" height="243.78" rx="8.504" ry="8.504" fill="#dbd5c4" stroke-width="0"/>
  <path d="M167.244,204.803V8.504C167.244,3.807,163.437,0,158.74,0h-21.969L49.606,87.165l117.638,117.638Z" fill="var(--player-color, #c93941)" stroke-width="0"/>
  <polygon points="31.181 57.402 60.945 87.165 31.181 116.929 31.181 57.402" fill="url(#b)" stroke-width="0"/>
  <line x1="55.276" y1="106.299" x2="55.276" fill="#fff" stroke="#fff" stroke-miterlimit="10" stroke-width=".463"/>
  <rect x="51.267" y="17.251" width="8.018" height="8.018" transform="translate(1.157 45.312) rotate(-45)" fill="#fff" stroke-width="0"/>
  <rect x="51.267" y="39.22" width="8.018" height="8.018" transform="translate(-14.377 51.747) rotate(-45)" fill="#fff" stroke-width="0"/>
  <rect x="51.267" y="61.188" width="8.018" height="8.018" transform="translate(-29.911 58.181) rotate(-45)" fill="#fff" stroke-width="0"/>
  <rect x="51.267" y="83.157" width="8.018" height="8.018" transform="translate(-45.445 64.615) rotate(-45)" fill="#fff" stroke-width="0"/>
  <rect x="9.758" y="51.146" width="14.432" height="14.432" transform="translate(-36.296 29.096) rotate(-45)" fill="var(--player-color, #c93941)" stroke-width="0"/>
  <path d="M17.826,57.655c.516,2.105,2.8,4.066,4.48,4.704.111.034.168.067.168.09s-.057.045-.18.078c-.235.067-1.12.19-1.501.481-.156.124-.347.168-.515.168-.157,0-.303-.033-.415-.101-.952-.627-2.184-2.475-2.206-5.421h-.146c-.246,2.521-1.366,4.951-5.667,5.791-.045.011-.09.011-.123.011-.034,0-.067,0-.067-.022,0-.011.045-.033.146-.067,3.259-1.075,3.976-3.438,4.155-5.712h-.493c-.448,0-2.105,0-2.912.079-.056-.057-.19-.258-.19-.415,1.008.079,3.326.079,3.326.079h.292l.033-.773v-1.098c0-.246,0-.459-.033-.75v-.056h-.415c-.447,0-2.464,0-3.281.078-.056-.057-.19-.28-.19-.415,1.02.079,3.729.09,3.729.09h3.674c.246-.392.851-1.143.963-1.143.258,0,1.479.997,1.479,1.255,0,.123-.135.146-.213.146h-3.887c.112.045.157.101.157.157,0,.111-.201.234-.381.269,0,.347-.022,1.646-.078,2.24h1.691c.213-.381.761-1.054.817-1.098.022-.012.056-.022.078-.022.258,0,1.512.918,1.512,1.243,0,.111-.146.134-.224.134h-3.584Z" fill="#e6e3d5" stroke-width="0"/>
  <rect x="9.758" y="72.689" width="14.432" height="14.432" transform="translate(-51.53 35.406) rotate(-45)" fill="var(--player-color, #c93941)" stroke-width="0"/>
  <path d="M21.611,81.563c0,1.03.034,1.143.358,1.4.146.101.202.291.202.471,0,.817-.963,1.153-3.383,1.153-1.131,0-2.688-.045-2.688-1.479,0-.056,0-.112.011-.18.022-.269.045-1.019.045-1.881-.168.279-1.702,1.512-3.349,2.374.011.045.011.09.011.135,0,.146-.044.246-.134.246-.336,0-1.03-1.423-1.03-1.512,0-.057.067-.022.224-.057.426-.089.907-.201,1.378-.324,0-.672.011-2.072.011-3.315-.392.012-.828.022-1.333.067-.078-.067-.179-.246-.179-.403.414.056,1.042.067,1.512.078-.011-.996-.011-1.837-.011-2.005-.012-.291-.022-.437-.045-.717-.012-.123-.034-.19-.034-.224s.022-.056.314-.056c.425,0,1.434.123,1.434.403,0,.078-.102.179-.393.279-.011.123-.022,1.154-.033,2.318h.09c.123-.224.336-.705.504-.896.011-.022.033-.034.056-.034.19,0,.896.773.896,1.053,0,.112-.123.135-.189.135h-1.355c0,1.153-.012,2.374-.012,2.968.561-.156,1.02-.302,1.255-.392l.414-.157c.012-.571.012-1.187.012-1.758-.46.179-.862.336-1.03.414-.079-.045-.27-.224-.303-.336.324-.078.829-.224,1.333-.392,0-.874,0-1.568-.012-1.658v-.179c0-.213,0-.561-.033-.762-.012-.078-.022-.135-.022-.157,0-.033.022-.033.179-.033h.057c.179,0,1.467.067,1.467.381,0,.09-.101.179-.358.269-.022.101-.045.817-.045,1.714l.504-.18.27-.101c0-.694,0-2.419-.067-2.957-.012-.111-.034-.179-.034-.213,0-.022.012-.033.19-.033h.057c.336,0,1.456.101,1.456.414,0,.09-.09.19-.348.258-.033.313-.056.93-.056,1.646v.459l.739-.269c.066-.168.213-.392.324-.504.022-.034.045-.067.168-.067.303.012,1.232.481,1.232.795,0,.146-.213.225-.415.27v.593c0,1.859-.044,2.106-.313,2.644-.056.112-.403.762-.951.762-.157,0-.348-.067-.415-.291-.067-.225-.179-.37-.302-.471v.202c-.012.369-.549.459-.773.459-.291,0-.56-.102-.56-.348v-.022c.022-.392.056-1.534.056-3.046l-.135.056-.638.224c0,1.624,0,3.686.011,4.021.022.414.235.616,1.479.616,1.456,0,1.814-.28,2.128-.863.157-.291.403-.963.481-1.266.057-.201.09-.291.112-.291.011,0,.022.045.022.123,0,.045-.012.102-.012.168v.258ZM19.427,80.903c.75,0,.795-.549.795-3.125l-.851.302c0,.885.022,1.814.045,2.531l.011.292Z" fill="#e6e3d5" stroke-width="0"/>
  <g>
    <path d="M33.299,10.86h-1.08v-.12c.239-.08.44-.217.603-.411.163-.194.245-.395.245-.602,0-.187-.054-.345-.161-.476-.107-.131-.238-.196-.393-.196-.075,0-.15.017-.224.051-.074.034-.143.083-.207.149-.064.064-.206.274-.426.627-.22.361-.374.593-.46.698-.086.104-.197.205-.332.3-.208.146-.435.218-.681.218-.365,0-.654-.128-.869-.385-.214-.256-.322-.566-.322-.931,0-.196.035-.43.106-.701.037-.144.055-.244.055-.301,0-.096-.044-.165-.133-.208v-.12h1.234v.12c-.319.062-.57.189-.754.383-.183.194-.275.432-.275.714,0,.219.055.399.164.542.109.142.249.213.417.213.137,0,.266-.045.388-.137.122-.091.301-.335.537-.732.218-.365.386-.606.505-.725s.251-.208.399-.268c.147-.06.303-.09.467-.09.352,0,.639.12.862.36.224.24.335.549.335.927,0,.116-.02.256-.058.42-.037.164-.055.28-.055.348,0,.066.038.136.113.211v.12Z" fill="var(--player-color, #c93941)" stroke-width="0"/>
    <path d="M29.638,13.913v-.014c-.431-.283-.646-.632-.646-1.049,0-.273.071-.488.213-.643.143-.155.34-.232.593-.232h1.364c.146,0,.251-.03.316-.089.064-.059.111-.167.138-.325h.12l.106,1.087v.116h-1.948c-.146,0-.259.043-.34.13-.081.086-.121.208-.121.362,0,.134.035.249.104.343.069.095.194.199.374.313h1.316c.212,0,.342-.138.39-.414h.12l.106,1.087v.12h-2.102c-.175,0-.296.026-.36.079-.065.052-.119.167-.163.342h-.12l-.106-1.213h.646Z" fill="var(--player-color, #c93941)" stroke-width="0"/>
    <path d="M31.843,16.657v.12h-2.177c-.264,0-.414.143-.448.427h-.12v-1.661h.12c.034.178.084.295.15.354.066.058.184.087.352.087h1.408c.162,0,.274-.031.338-.092s.114-.189.15-.383h.12l.106,1.148ZM33.025,15.922c.125,0,.232.045.321.135.089.09.133.199.133.327,0,.125-.044.232-.132.321-.087.089-.195.133-.323.133s-.236-.044-.327-.133c-.09-.089-.135-.196-.135-.321,0-.127.045-.236.137-.327.091-.09.199-.135.325-.135Z" fill="var(--player-color, #c93941)" stroke-width="0"/>
    <path d="M30.715,17.611v2.092h-.588v-2.092h.588Z" fill="var(--player-color, #c93941)" stroke-width="0"/>
    <path d="M33.48,21.21v.12h-2.276v.014c.226.137.389.283.489.438s.15.337.15.547c0,.287-.09.515-.272.682-.181.168-.426.251-.736.251h-1.142c-.148,0-.256.031-.325.094-.068.062-.119.169-.15.319h-.12v-1.617h.12c.041.157.097.265.169.323.071.059.18.087.326.087h1.066c.424,0,.636-.158.636-.475,0-.116-.031-.224-.094-.323-.063-.099-.176-.212-.34-.34h-1.302c-.139,0-.242.03-.308.091s-.117.168-.154.322h-.12v-1.606h.12c.037.15.091.254.164.313.073.058.184.087.332.087h3.138c.125,0,.219-.029.282-.087.062-.059.113-.163.152-.313h.12l.075,1.073Z" fill="var(--player-color, #c93941)" stroke-width="0"/>
    <path d="M29.912,26.87v.12c-.285-.119-.509-.304-.673-.557s-.246-.538-.246-.854c0-.413.134-.756.402-1.03.268-.275.603-.412,1.006-.412.41,0,.753.141,1.029.422.276.282.414.631.414,1.048,0,.376-.108.688-.323.938-.216.249-.504.398-.867.446v-2c-.037-.002-.073-.003-.109-.003-.358,0-.648.09-.872.27s-.335.402-.335.668c0,.38.191.695.574.945ZM30.814,24.987v1.152c.249-.016.451-.079.606-.188.156-.11.234-.245.234-.405s-.076-.29-.229-.391-.356-.157-.612-.168Z" fill="var(--player-color, #c93941)" stroke-width="0"/>
    <path d="M31.843,28.483v.12h-2.177c-.264,0-.414.143-.448.427h-.12v-1.661h.12c.034.178.084.295.15.354.066.058.184.087.352.087h1.408c.162,0,.274-.031.338-.092s.114-.189.15-.383h.12l.106,1.148ZM33.025,27.749c.125,0,.232.045.321.135.089.09.133.199.133.327,0,.125-.044.232-.132.321-.087.089-.195.133-.323.133s-.236-.044-.327-.133c-.09-.089-.135-.196-.135-.321,0-.127.045-.236.137-.327.091-.09.199-.135.325-.135Z" fill="var(--player-color, #c93941)" stroke-width="0"/>
  </g>
  <polygon points="0 124.621 167.244 136.8 167.244 106.583 0 118.762 0 124.621" fill="url(#c)" stroke-width="0"/>
  <g>
    <path d="M25.618,22.794c-.049.011-.098.026-.148.034-.326.052-.653.101-.979.155-.42.07-.84.146-1.232.322-.087.039-.169.089-.249.142-.165.11-.336.205-.533.241-.251.046-.483-.012-.675-.174-.172-.144-.331-.305-.481-.472-.505-.56-.908-1.19-1.252-1.858-.486-.943-.838-1.937-1.118-2.958-.184-.671-.338-1.349-.455-2.035-.086-.507-.167-1.016-.238-1.526-.055-.397-.095-.796-.135-1.195-.038-.377-.07-.756-.098-1.134-.024-.32-.04-.64-.057-.961-.014-.262-.024-.523-.035-.785,0-.022,0-.043,0-.074-.079.014-.151.032-.225.038-.063.005-.076.038-.077.091-.008.359-.023.719-.025,1.078-.002.376.009.753.015,1.129.007.45.013.901.02,1.351.006.348.013.695.02,1.043.008.366.016.732.024,1.098.007.322.014.645.02.967.007.346.014.692.02,1.038.006.343.011.685.017,1.028.005.304.01.608.014.912.003.235,0,.471.008.706.012.351.031.701.047,1.052.014.312.034.624.041.936.004.177,0,.357-.021.532-.043.348-.191.655-.408.928-.318.402-.731.679-1.192.888-.304.138-.619.241-.95.288-.339.048-.653-.007-.912-.253-.05-.047-.096-.1-.134-.157-.214-.329-.501-.581-.827-.793-.314-.204-.65-.361-1.001-.489-.094-.035-.186-.077-.277-.12-.031-.015-.057-.042-.09-.067.054-.045.107-.042.157-.036.257.03.516.039.774.033.287-.006.575-.007.861-.023.339-.019.675-.061.994-.19.268-.108.485-.273.607-.544.076-.168.107-.345.107-.528,0-.313,0-.625,0-.938,0-3.452,0-6.904-.001-10.356,0-.371-.016-.742-.033-1.113-.008-.169-.035-.337-.053-.505-.002-.02-.004-.04-.003-.06.001-.041.023-.068.065-.068.144-.003.289-.015.432-.004.261.021.521.049.78.086.422.059.841.136,1.24.292.118.046.233.098.327.185.042.039.08.087.105.139.037.078.021.158-.045.215-.046.04-.1.072-.154.102-.028.015-.038.029-.036.061.021.278.036.556.06.834.055.621.16,1.234.303,1.84.225.954.548,1.875.967,2.761.008.016.016.032.028.057.069-.102.135-.197.197-.294.39-.602.739-1.228,1.075-1.861.218-.412.43-.828.64-1.244.041-.081.063-.173.092-.26.027-.083.05-.103.132-.074.097.035.194.075.285.125.368.205.703.458,1.028.725.296.243.581.5.832.791.117.136.231.277.297.447.02.053.03.114.029.171-.002.09-.059.146-.142.176-.119.043-.241.036-.363.012-.095-.018-.19-.043-.285-.062-.021-.004-.048-.002-.066.008-.515.307-1.055.567-1.601.815-.644.293-1.298.563-1.96.814-.014.005-.028.011-.054.022,1.413,2.692,3.4,4.852,5.962,6.486-.002.006-.003.012-.005.017Z" fill="var(--player-color, #c93941)" stroke-width="0"/>
    <path d="M8.03,23.886c.017-.024.029-.052.051-.07.097-.08.193-.162.297-.233.442-.302.828-.664,1.173-1.07.637-.748,1.117-1.592,1.515-2.486.431-.966.751-1.969.995-2.997.117-.493.214-.989.289-1.49.039-.26.069-.522.104-.79-.067,0-.126-.001-.186,0-.233.006-.467.01-.7.021-.288.013-.577.028-.865.048-.234.016-.469.035-.702.063-.301.037-.601.083-.901.128-.038.006-.063.001-.088-.032-.136-.173-.238-.361-.277-.58-.008-.042-.009-.086-.014-.135.066.008.126.018.187.022.258.018.516.041.774.048.42.011.84.016,1.26.015.356-.001.712-.015,1.068-.023.114-.003.228-.005.342-.012.023-.001.051-.015.067-.032.202-.225.401-.452.603-.677.041-.046.093-.083.136-.128.063-.066.141-.085.221-.054.14.055.281.111.412.184.478.269.918.591,1.309.977.082.081.157.171.221.267.101.15.068.272-.085.37-.121.076-.255.122-.393.148-.093.017-.124.06-.14.148-.105.576-.251,1.142-.433,1.698-.327,1.002-.769,1.949-1.35,2.83-.36.545-.767,1.054-1.223,1.523-.64.658-1.354,1.221-2.15,1.679-.44.253-.895.473-1.38.629-.041.013-.083.02-.125.029-.004-.006-.008-.012-.012-.018Z" fill="var(--player-color, #c93941)" stroke-width="0"/>
  </g>
  <g>
    <path d="M8.68,35.921c.081.007.159.015.237.022.244.02.488.042.733.057.334.02.667.038,1.001.051.448.017.896.03,1.345.042.29.008.581.017.872.02.887.008,1.775.014,2.662.021.01,0,.02,0,.043-.002,0-.072,0-.144,0-.215.003-1.19.008-2.381.009-3.571,0-.35-.006-.699-.015-1.048-.01-.421-.023-.843-.041-1.264-.009-.221-.029-.442-.045-.663-.003-.035-.013-.069-.02-.108-.022,0-.042,0-.062,0-.541,0-1.083-.001-1.624.003-.405.003-.81.014-1.214.023-.327.008-.655.017-.982.03-.403.016-.805.035-1.208.057-.188.01-.375.03-.562.044-.018.001-.042-.005-.053-.017-.201-.206-.324-.45-.356-.738-.001-.011.001-.023.002-.025.441.029.879.062,1.318.087.394.022.788.036,1.183.051.344.013.688.022,1.032.031.312.008.625.015.937.02,2.118.038,4.237.009,6.355.019.033,0,.051-.012.069-.038.392-.554.811-1.089,1.244-1.611.087-.105.187-.126.309-.088.191.059.355.166.517.277.356.247.682.529.996.827.21.199.413.404.591.633.025.032.047.066.068.1.05.084.034.167-.045.227-.09.068-.195.087-.304.087-1.806,0-3.612,0-5.418,0h-.06s-.002.004-.002.006c.012.005.025.009.037.016.064.039.134.071.19.121.1.088.106.203.028.312-.075.105-.182.169-.296.22-.093.042-.19.075-.286.109-.029.01-.04.022-.041.052-.009.322-.027.645-.028.967-.004,1.086-.002,2.172-.001,3.259,0,.272.003.545.005.817.003.318.007.635.01.953,0,.012.002.023.003.041h.055c1.002,0,2.004,0,3.007,0,.036,0,.056-.012.076-.042.361-.563.736-1.117,1.179-1.62.061-.069.131-.13.198-.194.082-.079.177-.092.284-.056.171.057.323.149.469.25.32.219.61.474.889.743.262.252.513.514.73.806.058.078.107.163.15.249.039.079.012.151-.06.201-.068.048-.146.067-.226.076-.027.003-.054.002-.081.002-2.191,0-4.382,0-6.573,0-.023,0-.047,0-.079,0,0,.044,0,.083,0,.123.003.229.006.457.01.686.007.422.013.843.02,1.265.006.329.012.658.02.988.012.44.026.88.04,1.32.012.354.027.708.04,1.062.01.263.019.527.03.79.01.227-.087.403-.261.539-.185.145-.402.219-.629.268-.313.067-.63.077-.947.049-.169-.015-.336-.047-.488-.128-.188-.1-.295-.254-.293-.469.002-.196.02-.392.028-.589.019-.456.036-.913.052-1.369.011-.309.021-.618.03-.927.011-.358.021-.715.03-1.073.007-.269.014-.537.02-.806.007-.331.014-.662.02-.993.005-.22.01-.44.014-.66,0-.023,0-.046,0-.077h-.059c-.636,0-1.271-.002-1.907,0-.343.001-.686.007-1.028.013-.299.005-.598.011-.897.02-.473.015-.946.031-1.42.051-.268.011-.537.029-.805.046-.122.008-.244.021-.367.029-.019.001-.046-.006-.058-.019-.197-.206-.323-.448-.35-.735,0-.01.002-.019.003-.033Z" fill="var(--player-color, #c93941)" stroke-width="0"/>
    <path d="M18.708,35.69c.013-.053.02-.108.04-.158.181-.453.332-.916.469-1.385.19-.651.358-1.309.5-1.972.094-.437.18-.876.259-1.316.04-.221.059-.445.085-.668.008-.071.032-.104.107-.094.156.02.314.036.465.077.688.189,1.338.466,1.943.847.151.095.297.199.407.342.039.05.068.112.084.173.019.077-.02.14-.085.184-.087.06-.186.086-.288.094-.129.01-.258.01-.387.012-.032,0-.052.009-.071.036-.505.71-1.038,1.397-1.61,2.053-.445.511-.906,1.007-1.418,1.452-.121.105-.254.198-.383.294-.028.021-.064.03-.097.045-.006-.005-.013-.011-.019-.016Z" fill="var(--player-color, #c93941)" stroke-width="0"/>
    <path d="M10.854,30.435c.054.007.108.011.161.023.444.098.868.252,1.278.447.392.186.759.41,1.087.695.374.325.672.706.825,1.183.152.474.166.951-.016,1.421-.152.392-.418.676-.832.793-.359.101-.706.074-1.021-.144-.248-.172-.39-.417-.433-.71-.029-.2-.031-.404-.045-.607-.023-.342-.036-.684-.073-1.024-.072-.658-.302-1.256-.729-1.77-.053-.063-.11-.123-.16-.188-.023-.03-.037-.067-.055-.101.005-.006.009-.011.014-.017Z" fill="var(--player-color, #c93941)" stroke-width="0"/>
  </g>
</svg>