<?xml version="1.0" encoding="UTF-8"?>
<svg id="a" data-name="レイヤー 1" xmlns="http://www.w3.org/2000/svg" width="59mm" height="86mm" xmlns:xlink="http://www.w3.org/1999/xlink" viewBox="0 0 167.244 243.78">
  <defs>
    <linearGradient id="b" data-name="名称未設定グラデーション 10" x1="-2855.709" y1="7862.935" x2="-2825.945" y2="7862.935" gradientTransform="translate(-2794.764 7928.132) rotate(-180)" gradientUnits="userSpaceOnUse">
      <stop offset="0" stop-color="var(--opponent-color, #4e93a6)"/>
      <stop offset=".194" stop-color="var(--opponent-color, #4e93a6)" stop-opacity=".962"/>
      <stop offset=".35" stop-color="var(--opponent-color, #4e93a6)" stop-opacity=".846"/>
      <stop offset=".492" stop-color="var(--opponent-color, #4e93a6)" stop-opacity=".671"/>
      <stop offset=".627" stop-color="var(--opponent-color, #4e93a6)" stop-opacity=".456"/>
      <stop offset=".756" stop-color="var(--opponent-color, #4e93a6)" stop-opacity=".240"/>
      <stop offset=".88" stop-color="var(--opponent-color, #4e93a6)" stop-opacity=".071"/>
      <stop offset="1" stop-color="var(--opponent-color, #4e93a6)" stop-opacity="0"/>
    </linearGradient>
    <linearGradient id="c" data-name="名称未設定グラデーション 20" x1="98.184" y1="30.868" x2="98.184" y2="305.828" gradientTransform="translate(35.865 313.405) rotate(-131.586) scale(1.065 1)" gradientUnits="userSpaceOnUse">
      <stop offset="0" stop-color="#e49d00"/>
      <stop offset="1" stop-color="#fff340"/>
    </linearGradient>
  </defs>
  <rect y="0" width="167.244" height="243.78" rx="8.504" ry="8.504" fill="#dbd5c4" stroke-width="0"/>
  <path d="M167.244,204.803V8.504C167.244,3.807,163.437,0,158.74,0h-21.969L49.606,87.165l117.638,117.638Z" fill="var(--player-color, #c93941)" stroke-width="0"/>
  <polygon points="31.181 35.433 60.945 65.197 31.181 94.961 31.181 35.433" fill="url(#b)" stroke-width="0"/>
  <line x1="55.276" y1="106.299" x2="55.276" fill="#fff" stroke="#fff" stroke-miterlimit="10" stroke-width=".463"/>
  <rect x="51.267" y="17.251" width="8.018" height="8.018" transform="translate(1.157 45.312) rotate(-45)" fill="#fff" stroke-width="0"/>
  <rect x="51.267" y="39.22" width="8.018" height="8.018" transform="translate(-14.377 51.747) rotate(-45)" fill="#fff" stroke-width="0"/>
  <rect x="51.267" y="61.188" width="8.018" height="8.018" transform="translate(-29.911 58.181) rotate(-45)" fill="#fff" stroke-width="0"/>
  <rect x="51.267" y="83.157" width="8.018" height="8.018" transform="translate(-45.445 64.615) rotate(-45)" fill="#fff" stroke-width="0"/>
  <rect x="9.758" y="51.146" width="14.432" height="14.432" transform="translate(-36.296 29.096) rotate(-45)" fill="var(--player-color, #c93941)" opacity=".2" stroke-width="0"/>
  <path d="M17.826,57.655c.516,2.105,2.8,4.066,4.48,4.704.111.034.168.067.168.09s-.057.045-.18.078c-.235.067-1.12.19-1.501.481-.156.124-.347.168-.515.168-.157,0-.303-.033-.415-.101-.952-.627-2.184-2.475-2.206-5.421h-.146c-.246,2.521-1.366,4.951-5.667,5.791-.045.011-.09.011-.123.011-.034,0-.067,0-.067-.022,0-.011.045-.033.146-.067,3.259-1.075,3.976-3.438,4.155-5.712h-.493c-.448,0-2.105,0-2.912.079-.056-.057-.19-.258-.19-.415,1.008.079,3.326.079,3.326.079h.292l.033-.773v-1.098c0-.246,0-.459-.033-.75v-.056h-.415c-.447,0-2.464,0-3.281.078-.056-.057-.19-.28-.19-.415,1.02.079,3.729.09,3.729.09h3.674c.246-.392.851-1.143.963-1.143.258,0,1.479.997,1.479,1.255,0,.123-.135.146-.213.146h-3.887c.112.045.157.101.157.157,0,.111-.201.234-.381.269,0,.347-.022,1.646-.078,2.24h1.691c.213-.381.761-1.054.817-1.098.022-.012.056-.022.078-.022.258,0,1.512.918,1.512,1.243,0,.111-.146.134-.224.134h-3.584Z" fill="#e6e3d5" stroke-width="0"/>
  <rect x="9.758" y="72.689" width="14.432" height="14.432" transform="translate(-51.53 35.406) rotate(-45)" fill="var(--player-color, #c93941)" stroke-width="0"/>
  <path d="M21.611,81.563c0,1.03.034,1.143.358,1.4.146.101.202.291.202.471,0,.817-.963,1.153-3.383,1.153-1.131,0-2.688-.045-2.688-1.479,0-.056,0-.112.011-.18.022-.269.045-1.019.045-1.881-.168.279-1.702,1.512-3.349,2.374.011.045.011.09.011.135,0,.146-.044.246-.134.246-.336,0-1.03-1.423-1.03-1.512,0-.057.067-.022.224-.057.426-.089.907-.201,1.378-.324,0-.672.011-2.072.011-3.315-.392.012-.828.022-1.333.067-.078-.067-.179-.246-.179-.403.414.056,1.042.067,1.512.078-.011-.996-.011-1.837-.011-2.005-.012-.291-.022-.437-.045-.717-.012-.123-.034-.19-.034-.224s.022-.056.314-.056c.425,0,1.434.123,1.434.403,0,.078-.102.179-.393.279-.011.123-.022,1.154-.033,2.318h.09c.123-.224.336-.705.504-.896.011-.022.033-.034.056-.034.19,0,.896.773.896,1.053,0,.112-.123.135-.189.135h-1.355c0,1.153-.012,2.374-.012,2.968.561-.156,1.02-.302,1.255-.392l.414-.157c.012-.571.012-1.187.012-1.758-.46.179-.862.336-1.03.414-.079-.045-.27-.224-.303-.336.324-.078.829-.224,1.333-.392,0-.874,0-1.568-.012-1.658v-.179c0-.213,0-.561-.033-.762-.012-.078-.022-.135-.022-.157,0-.033.022-.033.179-.033h.057c.179,0,1.467.067,1.467.381,0,.09-.101.179-.358.269-.022.101-.045.817-.045,1.714l.504-.18.27-.101c0-.694,0-2.419-.067-2.957-.012-.111-.034-.179-.034-.213,0-.022.012-.033.19-.033h.057c.336,0,1.456.101,1.456.414,0,.09-.09.19-.348.258-.033.313-.056.93-.056,1.646v.459l.739-.269c.066-.168.213-.392.324-.504.022-.034.045-.067.168-.067.303.012,1.232.481,1.232.795,0,.146-.213.225-.415.27v.593c0,1.859-.044,2.106-.313,2.644-.056.112-.403.762-.951.762-.157,0-.348-.067-.415-.291-.067-.225-.179-.37-.302-.471v.202c-.012.369-.549.459-.773.459-.291,0-.56-.102-.56-.348v-.022c.022-.392.056-1.534.056-3.046l-.135.056-.638.224c0,1.624,0,3.686.011,4.021.022.414.235.616,1.479.616,1.456,0,1.814-.28,2.128-.863.157-.291.403-.963.481-1.266.057-.201.09-.291.112-.291.011,0,.022.045.022.123,0,.045-.012.102-.012.168v.258ZM19.427,80.903c.75,0,.795-.549.795-3.125l-.851.302c0,.885.022,1.814.045,2.531l.011.292Z" fill="#e6e3d5" stroke-width="0"/>
  <polygon points="0 226.482 .003 226.486 167.244 59.002 167.244 53.069 0 184.345 0 226.482" fill="url(#c)" stroke-width="0"/>
  <g>
    <path d="M32.391,11.253l-.72-.762-2.018,1.639c-.169.137-.281.244-.336.321-.055.077-.088.173-.1.286h-.12v-1.87h.12c.043.189.108.284.195.284.048,0,.106-.028.174-.085l1.589-1.282h-1.336c-.198,0-.334.028-.409.084-.074.056-.145.199-.213.428h-.12v-1.935h.12c.05.216.114.357.191.422.078.064.212.097.403.097h2.687c.187,0,.317-.034.39-.101.073-.067.134-.207.185-.418h.12v1.935h-.12c-.045-.2-.108-.335-.186-.406-.079-.071-.191-.106-.337-.106h-1.213l1.213,1.261c.08.084.158.126.236.126.132,0,.228-.126.287-.379h.12v1.702h-.12c0-.191-.051-.38-.152-.566-.102-.186-.278-.411-.531-.675Z" fill="var(--player-color, #c93941)" stroke-width="0"/>
    <path d="M31.843,14.101v.12h-2.177c-.264,0-.414.143-.448.427h-.12v-1.661h.12c.034.178.084.295.15.354.066.058.184.087.352.087h1.408c.162,0,.274-.031.338-.092s.114-.189.15-.383h.12l.106,1.148ZM33.025,13.366c.125,0,.232.045.321.135.089.09.133.199.133.327,0,.125-.044.232-.132.321-.087.089-.195.133-.323.133s-.236-.044-.327-.133c-.09-.089-.135-.196-.135-.321,0-.127.045-.236.137-.327.091-.09.199-.135.325-.135Z" fill="var(--player-color, #c93941)" stroke-width="0"/>
    <path d="M31.843,16.216h-.841v.014c.561.25.841.542.841.875,0,.182-.075.338-.224.468l-.798-.174c.228-.239.342-.438.342-.595,0-.116-.027-.218-.082-.304s-.153-.181-.294-.284h-1.08c-.168,0-.284.03-.345.089s-.109.179-.144.359h-.12v-1.682h.12c.041.173.095.29.161.35.066.061.175.091.328.091h1.395c.167,0,.291-.038.373-.114.082-.077.13-.199.144-.368h.12l.106,1.155v.12Z" fill="var(--player-color, #c93941)" stroke-width="0"/>
    <path d="M31.843,18.985v.12h-2.177c-.264,0-.414.143-.448.427h-.12v-1.661h.12c.034.178.084.295.15.354.066.058.184.087.352.087h1.408c.162,0,.274-.031.338-.092s.114-.189.15-.383h.12l.106,1.148ZM33.025,18.25c.125,0,.232.045.321.135.089.09.133.199.133.327,0,.125-.044.232-.132.321-.087.089-.195.133-.323.133s-.236-.044-.327-.133c-.09-.089-.135-.196-.135-.321,0-.127.045-.236.137-.327.091-.09.199-.135.325-.135Z" fill="var(--player-color, #c93941)" stroke-width="0"/>
    <path d="M30.715,19.938v2.092h-.588v-2.092h.588Z" fill="var(--player-color, #c93941)" stroke-width="0"/>
    <path d="M28.992,23.172c0-.219.068-.405.204-.559.135-.154.299-.231.49-.231s.351.076.477.229c.127.153.254.472.381.957.062.235.112.403.15.506.244,0,.42-.052.53-.157s.164-.271.164-.499c0-.358-.147-.622-.441-.793v-.103c.285.071.505.209.662.415.156.207.234.462.234.768,0,.353-.086.635-.26.846-.173.211-.416.316-.728.316h-1.244c-.235,0-.352.054-.352.161,0,.112.082.181.246.208v.113c-.164-.014-.291-.076-.379-.188s-.133-.263-.133-.455c0-.162.029-.292.087-.391.058-.1.153-.182.285-.248l-.058-.062c-.209-.237-.314-.515-.314-.834ZM29.553,24.067h1.001c-.148-.349-.276-.579-.383-.692-.107-.112-.245-.169-.414-.169-.144,0-.259.034-.347.101-.087.067-.131.156-.131.265,0,.148.091.313.273.496Z" fill="var(--player-color, #c93941)" stroke-width="0"/>
    <path d="M30.756,25.722c.312,0,.571.126.778.378.206.251.309.571.309.958,0,.071-.003.172-.01.304l-.003.089v1.377h-.479l.051-.673-.014-.014c-.201.239-.425.359-.673.359-.276,0-.506-.119-.69-.357-.185-.238-.277-.544-.277-.918,0-.308-.021-.526-.065-.654-.043-.129-.114-.193-.211-.193-.073,0-.13.047-.17.14-.041.094-.078.304-.109.632-.048.477-.114.819-.198,1.029s-.201.369-.351.479c-.149.109-.305.164-.467.164-.346,0-.633-.161-.86-.484-.227-.322-.34-.749-.34-1.28,0-.447.076-.812.229-1.095.153-.284.35-.426.591-.426.196,0,.367.103.513.308s.236.479.27.82h.017c.032-.319.096-.553.193-.701.097-.148.242-.222.436-.222.146,0,.262.062.349.187.086.124.167.349.239.675h.014c.093-.305.215-.529.364-.67.149-.141.338-.212.566-.212ZM28.083,26.183c-.201,0-.362.153-.484.458-.122.305-.183.659-.183,1.06,0,.196.041.357.123.484.082.126.186.189.311.189.198,0,.354-.144.468-.431s.171-.631.171-1.032c0-.221-.037-.397-.111-.53-.074-.132-.172-.198-.295-.198ZM30.785,26.511c-.258,0-.464.055-.618.164-.154.109-.231.255-.231.438,0,.189.075.335.226.439.151.104.365.156.644.156.262,0,.468-.051.616-.154s.223-.24.223-.414c0-.419-.287-.629-.86-.629Z" fill="var(--player-color, #c93941)" stroke-width="0"/>
    <path d="M29.912,32.031v.12c-.285-.119-.509-.304-.673-.557s-.246-.538-.246-.854c0-.413.134-.756.402-1.03.268-.275.603-.412,1.006-.412.41,0,.753.141,1.029.422.276.282.414.631.414,1.048,0,.376-.108.688-.323.938-.216.249-.504.398-.867.446v-2c-.037-.002-.073-.003-.109-.003-.358,0-.648.09-.872.27s-.335.402-.335.668c0,.38.191.695.574.945ZM30.814,30.148v1.152c.249-.016.451-.079.606-.188.156-.11.234-.245.234-.405s-.076-.29-.229-.391-.356-.157-.612-.168Z" fill="var(--player-color, #c93941)" stroke-width="0"/>
  </g>
  <path d="M11.968,21.567c-.127,0-.258-.002-.388,0-.196.003-.391.008-.587.015-.375.014-.75.028-1.125.045-.244.011-.488.025-.732.039-.066.004-.132.008-.198.016-.029.003-.047-.003-.064-.026-.117-.17-.213-.35-.256-.554-.005-.024-.005-.049-.008-.079,1.121.116,2.242.114,3.365.142v-2.377h-.755c0,.02,0,.04,0,.06-.002.134.004.269-.008.402-.021.228-.151.385-.351.488-.147.076-.307.115-.47.135-.197.025-.396.041-.595.02-.128-.013-.252-.043-.354-.129-.082-.069-.127-.16-.127-.265,0-.188.01-.375.019-.563.01-.227.025-.454.035-.68.017-.37.034-.741.047-1.111.013-.369.023-.738.03-1.107.006-.354.013-.707.006-1.061-.007-.4-.027-.801-.044-1.201-.009-.232-.023-.463-.074-.69-.02-.088.008-.119.101-.119.229-.001.451.045.671.104.398.107.783.248,1.15.438.006.003.012.005.017.009.091.075.197.086.31.08.123-.006.246-.001.372-.001v-1.711c-.016,0-.035,0-.053,0-.371.005-.742.006-1.113.016-.407.011-.813.029-1.22.047-.211.01-.422.027-.633.042-.029.002-.049-.005-.068-.03-.12-.165-.215-.341-.253-.544-.005-.027-.004-.056-.007-.086,1.115.115,2.23.115,3.348.141,0-.087.001-.167,0-.248-.004-.276-.005-.552-.016-.828-.013-.356-.033-.712-.053-1.068-.006-.107-.025-.213-.035-.319-.005-.056.008-.075.068-.078.146-.008.293-.021.439-.012.26.015.519.038.777.069.353.043.705.101,1.038.236.095.039.186.087.257.164.086.094.089.2.007.298-.079.095-.184.152-.294.202-.062.028-.125.052-.189.075-.025.009-.038.02-.039.049-.003.136-.011.271-.012.407-.003.336-.003.673-.004,1.009,0,.012.001.025.002.04.018,0,.033.002.048.002.174,0,.347,0,.521,0,.033,0,.05-.011.066-.039.192-.339.385-.678.619-.991.082-.11.174-.212.266-.314.073-.081.167-.095.269-.065.158.047.297.132.429.226.415.297.784.642,1.081,1.058.05.07.093.147.127.226.078.18.01.287-.187.304-.066.006-.132.009-.198.009-.997,0-1.993,0-2.99,0h-.065v1.708c.018,0,.035.002.052.002.175,0,.351,0,.526,0,.036,0,.057-.011.077-.041.163-.244.36-.454.611-.612.099-.062.185-.074.293-.017.406.216.794.456,1.124.779.065.063.123.136.173.212.129.198.092.378-.098.519-.099.073-.21.12-.327.155-.032.01-.041.024-.04.056.005.361.007.723.014,1.084.006.308.016.615.028.923.016.394.032.788.054,1.182.014.239.044.477.058.717.007.117.011.239-.012.353-.039.189-.178.302-.346.382-.169.08-.35.116-.534.13-.135.01-.271.012-.407.01-.108-.002-.213-.025-.31-.074-.149-.075-.225-.198-.233-.362-.003-.067,0-.135,0-.205h-.725c.007.785.014,1.568.021,2.358.017,0,.032,0,.047,0,.144,0,.287,0,.431,0,.032,0,.05-.01.068-.037.222-.342.449-.679.712-.991.071-.084.152-.16.23-.238.07-.07.155-.087.243-.046.123.057.248.111.36.185.411.268.778.588,1.097.961.023.026.043.054.065.081,0,0,.003,0,.01.002.028-.119.061-.237.082-.357.066-.374.136-.747.187-1.123.046-.336.074-.674.098-1.012.027-.37.049-.74.056-1.11.013-.627.018-1.253.017-1.88,0-.388-.019-.776-.03-1.164-.011-.38-.023-.76-.038-1.14-.02-.477-.042-.955-.066-1.432-.01-.2-.026-.4-.043-.599-.008-.088-.027-.174-.041-.261,0-.005-.003-.009-.004-.014-.015-.084,0-.098.084-.092.316.02.618.106.914.208.394.136.783.287,1.173.435.041.015.07.016.108-.007.489-.301.964-.624,1.419-.975.358-.276.704-.565,1.023-.887.124-.125.24-.259.357-.391.027-.031.046-.071.063-.11.025-.054.04-.065.097-.056.135.021.255.081.373.145.552.298,1.056.662,1.5,1.105.112.112.207.242.303.368.036.048.06.107.079.165.061.184-.028.329-.218.363-.163.03-.32,0-.474-.052-.045-.015-.09-.031-.131-.054-.041-.022-.076-.022-.119-.006-.68.246-1.376.441-2.081.601-.6.136-1.204.255-1.807.379-.09.018-.176.04-.255.091-.05.032-.109.048-.166.068-.026.009-.038.018-.039.048-.008.238-.021.476-.026.714-.006.295-.01.59-.008.885.002.353.012.707.018,1.06,0,.006.002.012.003.024.017,0,.033.002.05.002.872,0,1.744,0,2.616,0,.033,0,.051-.011.068-.038.239-.375.48-.749.758-1.098.091-.114.194-.22.297-.324.104-.107.231-.113.363-.06.165.066.313.163.456.266.459.334.875.714,1.231,1.158.046.058.086.121.122.186.054.099.027.188-.069.247-.08.049-.168.071-.261.071-.166,0-.332,0-.498,0-.453,0-.907,0-1.36,0-.017,0-.034,0-.051,0-.001.004-.003.007-.004.011.056.028.116.051.168.086.054.036.109.077.149.127.065.082.058.174-.006.257-.056.073-.131.124-.215.159-.1.041-.204.073-.307.107-.028.009-.044.017-.045.053-.003.161-.014.322-.015.482-.001.4,0,.799.003,1.199.002.311.006.622.009.933.003.24.006.48.009.72.005.377.01.754.016,1.132.004.256.009.511.013.767.006.374.006.748.017,1.122.013.419.035.838.053,1.258.009.213.019.426.024.638.006.244-.106.423-.312.546-.164.098-.345.144-.531.172-.235.036-.471.042-.708.027-.188-.012-.373-.042-.543-.131-.185-.098-.288-.248-.281-.461.01-.312.026-.624.038-.936.017-.434.033-.867.049-1.301.01-.281.02-.561.028-.842.01-.355.02-.71.028-1.065.008-.33.014-.659.019-.989.004-.286.007-.571.01-.857.003-.452.012-.903.006-1.355-.006-.426-.028-.851-.046-1.277-.008-.176-.026-.352-.037-.529-.003-.041-.015-.055-.059-.055-.406.002-.812.001-1.218.001h-.058c0,.049.001.096,0,.142-.013.378-.019.757-.04,1.135-.022.389-.055.777-.092,1.165-.065.694-.171,1.382-.332,2.06-.182.768-.434,1.51-.823,2.201-.243.431-.533.826-.878,1.182-.474.49-1.026.876-1.622,1.201-.46.251-.938.464-1.424.658-.074.029-.155.04-.233.056-.024.005-.051.001-.075-.004-.043-.009-.058-.044-.031-.077.029-.035.062-.068.1-.092.11-.068.223-.13.335-.194.435-.249.836-.543,1.191-.898.389-.389.706-.831.957-1.321.166-.323.301-.658.414-1.003.004-.013.007-.027.013-.049-1.039-.006-2.074-.011-3.11-.017,0,.099-.001.191,0,.283.004.257.006.515.014.772.011.35.031.7.04,1.05.009.344.015.688.008,1.032-.004.216-.12.377-.304.488-.161.097-.339.142-.523.168-.194.027-.39.034-.585.019-.145-.011-.288-.036-.418-.108-.162-.09-.246-.232-.251-.412-.004-.173.009-.346.016-.52.016-.449.034-.899.049-1.348.011-.345.02-.691.028-1.036.003-.126,0-.252,0-.38ZM12.066,18.369v-1.997h-.869c.007.667.014,1.33.021,1.997h.848ZM13.762,16.371v1.998h.845c.006-.121.018-.238.017-.356-.001-.32-.009-.64-.012-.96-.002-.211-.002-.423-.002-.634,0-.015-.002-.03-.003-.048h-.846ZM12.071,14.015c-.011-.003-.016-.005-.02-.005-.189,0-.379,0-.568,0-.013,0-.027.006-.038.013-.058.037-.117.074-.173.114-.015.011-.031.033-.032.05-.013.28-.027.56-.033.841-.006.293-.003.587-.004.88,0,.015.002.031.003.051h.054c.251,0,.502-.001.753.001.048,0,.06-.012.06-.06-.002-.611-.001-1.221-.001-1.832,0-.017,0-.034,0-.054ZM14.612,15.957c-.007-.652-.015-1.298-.022-1.944h-.826v1.944h.848Z" fill="var(--player-color, #c93941)" stroke-width="0"/>
  <path d="M8.455,41.405c.171.011.336.023.501.033.178.01.356.021.534.027.37.014.741.026,1.111.037.211.006.423.008.634.011.453.007.906.013,1.359.019.309.004.619.008.928.009.493.002.985.003,1.478.004.02,0,.04,0,.066,0v-.061c0-1.499,0-2.998,0-4.496,0-1.137-.003-2.274-.004-3.411,0-.648,0-1.295-.002-1.943-.002-.507-.005-1.014-.009-1.52-.002-.281-.006-.562-.013-.843-.009-.331-.019-.662-.035-.993-.011-.233-.028-.466-.077-.695-.014-.067.002-.09.072-.095.093-.006.186-.013.279-.011.333.008.666.01.998.032.467.031.933.082,1.386.207.139.038.272.097.405.153.045.019.086.053.122.088.104.097.109.224.018.333-.07.085-.163.14-.262.182-.094.04-.191.074-.287.107-.029.01-.044.025-.047.056-.012.151-.03.301-.036.452-.013.347-.022.694-.03,1.041-.008.39-.016.779-.019,1.169-.005.759-.007,1.519-.01,2.279,0,.019,0,.037,0,.061h.055c.842,0,1.684,0,2.525,0,.034,0,.052-.009.071-.039.155-.249.315-.495.47-.743.198-.316.422-.613.663-.896.081-.096.176-.18.267-.267.062-.059.135-.066.216-.04.162.051.301.143.437.24.259.185.495.396.724.616.291.279.569.57.821.885.089.112.17.231.247.352.078.121.003.219-.093.261-.087.039-.18.044-.273.044-2.018,0-4.037,0-6.055,0h-.082c.01,2.499.021,4.993.031,7.492.029.001.046.003.063.003,1.177,0,2.353,0,3.53,0,.034,0,.053-.01.07-.041.361-.636.782-1.229,1.269-1.776.061-.068.131-.128.196-.192.065-.064.139-.075.226-.048.157.048.3.125.435.216.626.42,1.174.925,1.633,1.525.089.117.168.24.215.382.064.194-.03.344-.232.374-.04.006-.082.009-.122.009-3.789,0-7.578,0-11.367,0-.344,0-.689,0-1.033.002-.324.002-.647.005-.971.009-.245.003-.489.007-.734.013-.349.008-.697.016-1.045.029-.271.01-.542.021-.812.047-.09.008-.131-.022-.171-.089-.098-.166-.186-.336-.227-.527-.005-.024-.005-.049-.008-.075Z" fill="var(--player-color, #c93941)" stroke-width="0"/>
</svg>