<?xml version="1.0" encoding="UTF-8"?>
<svg id="a" data-name="レイヤー 1" xmlns="http://www.w3.org/2000/svg" width="59mm" height="86mm" xmlns:xlink="http://www.w3.org/1999/xlink" viewBox="0 0 167.244 243.78">
  <defs>
    <linearGradient id="b" data-name="名称未設定グラデーション 30" x1="-2855.709" y1="7902.62" x2="-2825.945" y2="7902.62" gradientTransform="translate(-2794.764 7928.132) rotate(-180)" gradientUnits="userSpaceOnUse">
      <stop offset="0" stop-color="#cdc4b2"/>
      <stop offset=".178" stop-color="rgba(205, 196, 178, .984)" stop-opacity=".984"/>
      <stop offset=".321" stop-color="rgba(205, 196, 178, .936)" stop-opacity=".936"/>
      <stop offset=".451" stop-color="rgba(205, 196, 178, .853)" stop-opacity=".853"/>
      <stop offset=".575" stop-color="rgba(205, 196, 178, .737)" stop-opacity=".737"/>
      <stop offset=".693" stop-color="rgba(205, 196, 178, .587)" stop-opacity=".587"/>
      <stop offset=".808" stop-color="rgba(205, 196, 178, .402)" stop-opacity=".402"/>
      <stop offset=".917" stop-color="rgba(205, 196, 178, .188)" stop-opacity=".188"/>
      <stop offset="1" stop-color="#cdc4b2" stop-opacity="0"/>
    </linearGradient>
    <linearGradient id="c" data-name="名称未設定グラデーション 30" x1="-2855.709" y1="7884.904" x2="-2825.945" y2="7884.904" xlink:href="#b"/>
    <linearGradient id="d" data-name="名称未設定グラデーション 20" x1="-8.504" y1="156.239" x2="155.964" y2="156.239" gradientUnits="userSpaceOnUse">
      <stop offset="0" stop-color="#e49d00"/>
      <stop offset="1" stop-color="#fff340"/>
    </linearGradient>
  </defs>
  <rect y="0" width="167.244" height="243.78" rx="8.504" ry="8.504" fill="#e37423" stroke-width="0"/>
  <polygon points="31.181 51.024 60.945 21.26 39.685 0 31.181 0 31.181 51.024" fill="url(#b)" stroke-width="0"/>
  <path d="M167.244,204.803V8.504C167.244,3.807,163.437,0,158.74,0h-21.969L49.606,87.165l117.638,117.638Z" fill="#dbd5c4" stroke-width="0"/>
  <polygon points="31.181 13.465 60.945 43.228 31.181 72.992 31.181 13.465" fill="url(#c)" stroke-width="0"/>
  <line x1="55.276" y1="106.299" x2="55.276" fill="#fff" stroke="#fff" stroke-miterlimit="10" stroke-width=".463"/>
  <rect x="51.267" y="17.251" width="8.018" height="8.018" transform="translate(1.157 45.312) rotate(-45)" fill="#fff" stroke-width="0"/>
  <rect x="51.267" y="39.22" width="8.018" height="8.018" transform="translate(-14.377 51.747) rotate(-45)" fill="#fff" stroke-width="0"/>
  <rect x="51.267" y="61.188" width="8.018" height="8.018" transform="translate(-29.911 58.181) rotate(-45)" fill="#fff" stroke-width="0"/>
  <rect x="51.267" y="83.157" width="8.018" height="8.018" transform="translate(-45.445 64.615) rotate(-45)" fill="#fff" stroke-width="0"/>
  <rect x="9.758" y="51.146" width="14.432" height="14.432" transform="translate(-36.296 29.096) rotate(-45)" fill="#dbd5c4" opacity=".3" stroke-width="0"/>
  <path d="M23.316,24.551c0,.233-.108.738-1.351.738-.486,0-1.026-.108-1.026-.595v-.054c.108-2.395.18-4.447.18-6.968,0-.774-.018-1.278-.09-2.179h-1.332c-.108,6.752-1.927,8.391-5.132,9.704-.162.072-.27.091-.342.091-.054,0-.09-.019-.09-.055s.071-.107.233-.197c1.404-.738,2.287-1.801,2.791-3.386h-.054l-3.062-.018c.019.684.019,1.26.036,1.603.036.648.036,1.008.036,1.458v.019c0,.576-.612.738-1.225.738-.468,0-.864-.108-.864-.595v-.054c.055-1.045.091-2.215.108-3.169-.864.018-2.196.054-3.079.126-.09-.108-.288-.45-.288-.666.828.107,2.449.126,3.367.144v-2.377h-.756v.36c0,.576-.54.757-1.278.757-.343,0-.631-.108-.631-.45v-.055c.126-2.358.145-3.402.145-3.979,0-1.099-.054-1.819-.072-2.035-.018-.18-.054-.288-.054-.342s.036-.072.126-.072c.594,0,1.675.433,1.944.63h.559v-1.71c-.864,0-2.179.036-3.062.107-.107-.126-.288-.432-.288-.666.828.108,2.431.126,3.35.145,0-.559-.019-1.494-.072-2.161-.019-.162-.036-.27-.036-.324,0-.035,0-.071.378-.071h.072c.018,0,2.196.09,2.196.63,0,.126-.144.288-.576.433-.018.107-.018.684-.018,1.494h.612c.233-.414.648-1.135.954-1.387.036-.018.09-.036.126-.036.45,0,1.765,1.242,1.765,1.657,0,.161-.216.18-.342.18h-3.134v1.71h.631c.359-.558.756-.72.792-.72.108,0,1.513.774,1.513,1.261,0,.18-.162.359-.54.468v.252c0,.973.071,2.809.107,3.151.019.27.055.521.055.738v.018c0,.234-.145.666-1.207.666-.342,0-.647-.107-.647-.486v-.162h-.721c0,.738.018,1.603.018,2.359h.522s.847-1.333,1.099-1.333c.36,0,1.368.864,1.639,1.261.324-1.278.45-2.863.45-4.861,0-.864-.036-1.801-.072-2.809,0-.396-.09-2.143-.126-2.269-.019-.108-.036-.181-.036-.217,0-.018.018-.036.054-.036.271,0,.918.145,2.179.667.576-.324,2.106-1.351,2.881-2.305.054-.072.036-.145.108-.145.396,0,2.305,1.314,2.305,1.891,0,.162-.126.271-.36.271-.144,0-.324-.036-.54-.145-1.188.433-2.683.774-4.087,1.026-.091.054-.198.108-.324.145-.036.342-.036,1.17-.036,1.746.018.342.018.666.018.973h2.719c.973-1.531,1.171-1.549,1.278-1.549.072,0,.145.018.217.054.684.324,1.782,1.44,1.782,1.675,0,.18-.252.234-.378.234h-1.909l.217.107c.09.055.162.145.162.234,0,.144-.162.306-.612.414-.019.145-.019.486-.019.99,0,1.513.055,4.285.072,5.798.018.648.072,1.026.072,1.494v.019ZM12.224,14.09h-.612c-.054.054-.126.09-.216.144-.036.486-.036,1.135-.036,1.801h.864v-1.944ZM12.224,16.449h-.864c0,.612,0,1.242.019,1.765v.233h.846v-1.998ZM14.763,16.035c0-.738-.018-1.495-.018-1.944h-.829v1.944h.847ZM14.763,18.447c0-.126.018-.252.018-.396,0-.288-.018-.919-.018-1.603h-.847v1.998h.847Z" fill="#e6e3d5" stroke-width="0"/>
  <path d="M21.083,35.385c.684,3.15,3.385,5.978,4.663,6.716.107.054.162.107.162.162,0,.054-.055.09-.181.09-.45.036-1.656.216-2.179.486-.216.126-.432.18-.63.18-.216,0-.414-.072-.558-.252-.793-.973-1.567-2.863-1.567-6.446,0-.306,0-.612.019-.936h-.145c-.558,4.393-2.736,7.021-7.094,7.994-.234.054-.45.09-.54.09-.036,0-.054-.018-.054-.018,0-.036.107-.108.432-.234,3.583-1.494,4.844-4.447,5.204-7.832-.9.018-2.107.035-2.899.071l-.162-.18h-2.124c.018,1.549.018,3.511.018,4.465,1.477-.288,2.791-.576,3.205-.702.216-.071.342-.107.396-.107.018,0,.035.018.035.018,0,.181-4.051,2.467-6.716,3.493,0,.234-.09.559-.288.559-.107,0-.252-.091-.414-.324-.54-.757-1.188-2.197-.918-2.197.594,0,1.854-.216,2.881-.396.018-1.135.018-3.313.018-4.808-.702,0-1.53.036-2.538.108-.091-.108-.288-.469-.288-.648.828.107,2.106.126,2.826.126-.018-.612-.018-1.062-.018-1.135,0-.252,0-.756-.055-1.152v-.071h-.99c-.792.81-2.106,1.836-2.358,1.836-.018,0-.036-.018-.036-.036,0-.018.036-.071.126-.162,1.854-1.656,3.025-6.193,3.025-7.094,0-.198.018-.198.18-.216.433,0,2.629.521,2.629.99,0,.18-.216.324-.594.36l-.108.197c.666.145,2.772.793,2.772,2.341,0,.469-.342,1.135-.972,1.135-.486,0-.828-.504-.937-.99-.198-.828-.45-1.585-.99-2.215-.559,1.044-1.332,2.305-2.377,3.457h1.549c.702-1.351.738-1.404.846-1.404.234,0,1.531,1.134,1.531,1.548,0,.198-.234.253-.379.253h-.936c.071.018.126.035.162.035.107.036.197.127.197.234,0,.108-.126.252-.468.307,0,.09-.018.81-.018,1.782h.18c.108-.198.738-1.423.937-1.423.27,0,.936.721,1.188.99.647-1.656.828-4.429.828-5.527v-.27c0-.108-.019-.162-.019-.198,0-.019.09-.036.252-.036.486,0,1.333.162,2.053.432v-.018c-.036-.414-.036-.9-.107-1.351-.019-.144-.055-.234-.055-.271,0-.035.019-.054.072-.054s.145.019.306.019h.091c.684,0,2.395.197,2.395.594,0,.126-.162.288-.595.433,0,.306-.018,1.71-.071,3.169h.468c.99-1.387,1.17-1.603,1.332-1.603.559,0,1.963,1.44,1.963,1.836,0,.181-.216.181-.342.181h-3.439c-.018,1.026-.072,2.629-.162,3.205h1.278c1.009-1.405,1.188-1.639,1.351-1.639.522,0,1.98,1.512,1.98,1.872,0,.181-.216.181-.342.181h-3.889ZM8.857,36.124c0-.019.019-.019.019-.019.648,0,2.431.54,2.448,2.017,0,.811-.647,1.225-1.044,1.225-.288,0-.918-.126-.918-1.08,0-1.333-.036-1.603-.396-2.035l-.108-.107ZM13.61,39.616c0-.035.018-.144.09-.324.234-.647.45-2.935.45-3.259,0-.107-.018-.162-.018-.198q0-.018.018-.018c.306,0,2.215.63,2.215,1.188,0,.144-.145.252-.576.252h-.054c-.631.756-1.171,1.494-1.909,2.179-.126.108-.198.198-.216.198v-.019ZM16.095,34.935c.774.018,1.801.036,2.575.036.072-.667.072-.865.126-3.205h-.918c-.486,1.08-1.135,2.088-1.927,2.935.054.072.107.144.126.198l.018.036ZM18.814,31.352c.019-.738.036-1.459.036-1.945l-.18.036c-.145.63-.342,1.278-.612,1.909h.756Z" fill="#e6e3d5" stroke-width="0"/>
  <path d="M17.826,57.657c.516,2.105,2.8,4.066,4.48,4.704.111.034.168.067.168.09s-.057.045-.18.078c-.235.067-1.12.19-1.501.481-.156.124-.347.168-.515.168-.157,0-.303-.033-.415-.101-.952-.627-2.184-2.475-2.206-5.421h-.146c-.246,2.521-1.366,4.951-5.667,5.791-.045.011-.09.011-.123.011-.034,0-.067,0-.067-.022,0-.011.045-.033.146-.067,3.259-1.075,3.976-3.438,4.155-5.712h-.493c-.448,0-2.105,0-2.912.079-.056-.057-.19-.258-.19-.415,1.008.079,3.326.079,3.326.079h.292l.033-.773v-1.098c0-.246,0-.459-.033-.75v-.056h-.415c-.447,0-2.464,0-3.281.078-.056-.057-.19-.28-.19-.415,1.02.079,3.729.09,3.729.09h3.674c.246-.392.851-1.143.963-1.143.258,0,1.479.997,1.479,1.255,0,.123-.135.146-.213.146h-3.887c.112.045.157.101.157.157,0,.111-.201.234-.381.269,0,.347-.022,1.646-.078,2.24h1.691c.213-.381.761-1.054.817-1.098.022-.012.056-.022.078-.022.258,0,1.512.918,1.512,1.243,0,.111-.146.134-.224.134h-3.584Z" fill="#e37423" stroke-width="0"/>
  <rect x="9.758" y="72.689" width="14.432" height="14.432" transform="translate(-51.53 35.406) rotate(-45)" fill="#dbd5c4" stroke-width="0"/>
  <path d="M21.611,81.564c0,1.03.034,1.143.358,1.4.146.101.202.291.202.471,0,.817-.963,1.153-3.383,1.153-1.131,0-2.688-.045-2.688-1.479,0-.056,0-.112.011-.18.022-.269.045-1.019.045-1.881-.168.279-1.702,1.512-3.349,2.374.011.045.011.09.011.135,0,.146-.044.246-.134.246-.336,0-1.03-1.423-1.03-1.512,0-.057.067-.022.224-.057.426-.089.907-.201,1.378-.324,0-.672.011-2.072.011-3.315-.392.012-.828.022-1.333.067-.078-.067-.179-.246-.179-.403.414.056,1.042.067,1.512.078-.011-.996-.011-1.837-.011-2.005-.012-.291-.022-.437-.045-.717-.012-.123-.034-.19-.034-.224s.022-.056.314-.056c.425,0,1.434.123,1.434.403,0,.078-.102.179-.393.279-.011.123-.022,1.154-.033,2.318h.09c.123-.224.336-.705.504-.896.011-.022.033-.034.056-.034.19,0,.896.773.896,1.053,0,.112-.123.135-.189.135h-1.355c0,1.153-.012,2.374-.012,2.968.561-.156,1.02-.302,1.255-.392l.414-.157c.012-.571.012-1.187.012-1.758-.46.179-.862.336-1.03.414-.079-.045-.27-.224-.303-.336.324-.078.829-.224,1.333-.392,0-.874,0-1.568-.012-1.658v-.179c0-.213,0-.561-.033-.762-.012-.078-.022-.135-.022-.157,0-.033.022-.033.179-.033h.057c.179,0,1.467.067,1.467.381,0,.09-.101.179-.358.269-.022.101-.045.817-.045,1.714l.504-.18.27-.101c0-.694,0-2.419-.067-2.957-.012-.111-.034-.179-.034-.213,0-.022.012-.033.19-.033h.057c.336,0,1.456.101,1.456.414,0,.09-.09.19-.348.258-.033.313-.056.93-.056,1.646v.459l.739-.269c.066-.168.213-.392.324-.504.022-.034.045-.067.168-.067.303.012,1.232.481,1.232.795,0,.146-.213.225-.415.27v.593c0,1.859-.044,2.106-.313,2.644-.056.112-.403.762-.951.762-.157,0-.348-.067-.415-.291-.067-.225-.179-.37-.302-.471v.202c-.012.369-.549.459-.773.459-.291,0-.56-.102-.56-.348v-.022c.022-.392.056-1.534.056-3.046l-.135.056-.638.224c0,1.624,0,3.686.011,4.021.022.414.235.616,1.479.616,1.456,0,1.814-.28,2.128-.863.157-.291.403-.963.481-1.266.057-.201.09-.291.112-.291.011,0,.022.045.022.123,0,.045-.012.102-.012.168v.258ZM19.428,80.904c.75,0,.795-.549.795-3.125l-.851.302c0,.885.022,1.814.045,2.531l.011.292Z" fill="#e37423" stroke-width="0"/>
  <path d="M30.169,12.242v.126l-1.069-.178v-3.883h.119s3.743,2.767,3.743,2.767v-1.549c0-.256-.056-.446-.166-.573-.11-.126-.32-.243-.63-.35v-.12l1.028.12v3.64h-.113l-3.749-2.759v1.597c0,.319.057.555.171.707.114.153.336.305.666.455Z" fill="#e6e3d5" stroke-width="0"/>
  <path d="M28.993,13.404c0-.219.068-.405.204-.559.136-.154.299-.23.49-.23s.351.076.477.229c.127.152.254.472.381.957.062.234.112.403.15.506.244,0,.421-.053.53-.157s.164-.271.164-.499c0-.357-.147-.622-.44-.793v-.103c.284.07.505.209.661.415s.233.462.233.768c0,.354-.086.635-.26.846-.173.211-.415.316-.728.316h-1.244c-.234,0-.353.054-.353.161,0,.111.082.181.246.208v.112c-.164-.014-.29-.076-.379-.188s-.134-.264-.134-.455c0-.161.029-.292.088-.391.058-.1.153-.182.285-.248l-.059-.062c-.209-.237-.314-.515-.314-.834ZM29.554,14.299h1.002c-.148-.349-.275-.579-.383-.692-.107-.112-.245-.169-.414-.169-.144,0-.259.033-.347.101s-.132.155-.132.265c0,.148.092.313.273.496Z" fill="#e6e3d5" stroke-width="0"/>
  <path d="M31.844,17.102h-.646v.014c.431.253.646.587.646,1.002,0,.26-.087.478-.261.655-.175.178-.407.268-.699.268h-1.155c-.166,0-.283.029-.351.088-.067.06-.12.168-.159.325h-.119v-1.624h.119c.034.155.087.264.156.325s.176.093.319.093h1.094c.198,0,.353-.043.463-.129.11-.085.166-.205.166-.36,0-.271-.153-.49-.462-.656h-1.233c-.157,0-.269.027-.335.082s-.122.157-.168.308h-.119v-1.596h.119c.039.154.092.262.157.322.066.061.166.091.298.091h1.477c.15,0,.26-.035.328-.104s.115-.192.141-.37h.119l.105,1.148v.119Z" fill="#e6e3d5" stroke-width="0"/>
  <path d="M30.717,19.874v2.092h-.589v-2.092h.589Z" fill="#e6e3d5" stroke-width="0"/>
  <path d="M29.54,24.468l-.078.082c-.312-.185-.469-.467-.469-.848,0-.282.073-.502.219-.66.146-.156.354-.235.622-.235h1.695v-.475h.134c.217.353.582.731,1.097,1.135v.133h-1.021v.868h-.209v-.868h-1.521c-.239,0-.412.038-.518.114-.106.076-.159.199-.159.367,0,.14.069.269.208.387Z" fill="#e6e3d5" stroke-width="0"/>
  <path d="M29.913,27.603v.119c-.285-.118-.51-.304-.674-.557s-.246-.538-.246-.854c0-.412.135-.756.402-1.03s.603-.412,1.007-.412c.41,0,.753.141,1.028.422s.413.631.413,1.048c0,.376-.107.688-.322.938-.216.249-.505.398-.867.445v-1.999c-.036-.002-.072-.003-.109-.003-.357,0-.647.089-.871.27-.224.179-.335.402-.335.668,0,.38.191.695.574.945ZM30.816,25.72v1.151c.248-.016.45-.079.606-.188s.234-.245.234-.404c0-.16-.076-.291-.229-.392-.153-.1-.357-.156-.612-.167Z" fill="#e6e3d5" stroke-width="0"/>
  <path d="M29.54,30.164l-.078.082c-.312-.185-.469-.467-.469-.848,0-.282.073-.502.219-.66.146-.156.354-.235.622-.235h1.695v-.475h.134c.217.353.582.731,1.097,1.135v.133h-1.021v.868h-.209v-.868h-1.521c-.239,0-.412.038-.518.114-.106.076-.159.199-.159.367,0,.14.069.269.208.387Z" fill="#e6e3d5" stroke-width="0"/>
  <path d="M28.993,30.578h1.019v.12c-.554.263-.83.582-.83.956,0,.128.038.237.113.33s.165.139.271.139c.113,0,.212-.042.296-.127.083-.084.18-.266.289-.547.139-.357.274-.593.405-.707s.292-.171.48-.171c.229,0,.42.086.575.258s.232.394.232.665c0,.101-.019.274-.058.523-.014.098-.021.157-.021.178,0,.041.026.094.078.16v.12h-.827v-.12c.201-.08.357-.191.471-.335.112-.144.169-.303.169-.479,0-.125-.028-.23-.084-.314s-.126-.126-.21-.126c-.085,0-.158.035-.222.105-.062.07-.141.229-.233.476-.146.38-.295.634-.444.762-.15.128-.336.191-.558.191-.255,0-.471-.098-.646-.292-.177-.195-.266-.416-.266-.662,0-.146.016-.29.045-.434.032-.146.048-.248.048-.308,0-.104-.031-.186-.093-.243v-.119Z" fill="#e6e3d5" stroke-width="0"/>
  <path d="M29.64,35.38v-.014c-.431-.283-.646-.633-.646-1.05,0-.273.071-.487.214-.643s.34-.232.594-.232h1.363c.146,0,.251-.029.316-.089.064-.06.111-.167.139-.324h.119l.105,1.087v.116h-1.948c-.146,0-.259.043-.34.129-.081.087-.121.208-.121.363,0,.134.035.248.104.343s.194.199.374.313h1.315c.213,0,.342-.139.391-.414h.119l.105,1.087v.12h-2.102c-.176,0-.296.025-.36.078-.065.053-.119.166-.163.342h-.119l-.106-1.213h.646Z" fill="#e6e3d5" stroke-width="0"/>
  <g>
    <path d="M29.681,58.475h3.167c5.918,0,10.715,4.797,10.715,10.715s-4.797,10.715-10.715,10.715h-2.835" fill="none" stroke="#fff" stroke-miterlimit="10"/>
    <polygon points="32.994 62.565 33.676 61.832 30.064 58.476 33.676 55.118 32.994 54.386 28.596 58.476 32.994 62.565" fill="#fff" stroke-width="0"/>
  </g>
  <polygon points="81.242 165.446 0 96.607 0 123.435 74.965 173.572 20.741 243.78 51.83 243.78 88.288 182.483 150.27 223.937 92.664 175.125 155.964 68.698 81.242 165.446" fill="url(#d)" stroke-width="0"/>
</svg>