<?xml version="1.0" encoding="UTF-8"?>
<svg id="a" data-name="レイヤー 1" xmlns="http://www.w3.org/2000/svg" width="59mm" height="86mm" viewBox="0 0 167.244 243.78">
  <g>
    <polygon points="83.622 43.189 82.722 43.921 82.722 26.98 83.623 27.712 84.522 26.983 84.522 43.921 83.622 43.189" fill="#fff" stroke-width="0"/>
    <path d="M83.372,28.346l.25.203.25-.203v14.209l-.25-.203-.25.203v-14.209M82.072,25.617v19.667l1.55-1.258,1.55,1.258v-19.667l-1.55,1.258-1.55-1.258h0Z" fill="#313433" stroke-width="0"/>
  </g>
  <path d="M83.622,52.441l7.087,7.087-6.614,6.614-.222.222v17.508l6.837,6.837-6.837,6.837v17.508l6.837,6.837-6.837,6.837v17.508l6.837,6.837-6.837,6.837v17.008l83.372-83.372V8.504c0-4.697-3.807-8.504-8.504-8.504H31.181l52.441,52.441h0Z" fill="#313433" stroke-width="0"/>
  <path d="M83.612,19.141l9.196,9.196-9.196,9.196-9.196-9.196,9.196-9.196M83.612,17.726l-.374.374-10.236,10.236,10.61,10.61,10.61-10.61-10.236-10.236-.374-.374h0Z" fill="#4d93a6" stroke-width="0"/>
  <path d="M8.504,243.78h127.559l-59.528-59.528,6.837-6.837v-17.508l-6.837-6.837,6.837-6.837v-17.508l-6.837-6.837,6.837-6.837v-17.508l-6.837-6.837,6.837-6.837v-17.008L0,150.236v85.039c0,4.697,3.807,8.504,8.504,8.504Z" fill="#313433" stroke-width="0"/>
  <path d="M83.622,52.441L31.181,0H8.504C3.807,0,0,3.807,0,8.504v204.094l83.372-83.372.25-76.785Z" fill="#c93941" stroke-width="0"/>
  <path d="M83.622,191.339l52.441,52.441h22.677c4.697,0,8.504-3.807,8.504-8.504V31.181l-83.372,83.372-.25,76.785Z" fill="#4e93a6" stroke-width="0"/>
  <polygon points="83.872 66.364 84.094 66.142 83.872 66.364 83.872 66.364" fill="#c93941" stroke-width="0"/>
  <polygon points="83.872 97.545 90.709 90.709 83.872 83.872 83.622 83.622 83.372 83.872 76.535 90.709 83.372 97.545 83.622 97.795 83.872 97.545" fill="#fff" stroke-width="0"/>
  <polygon points="83.872 66.364 84.094 66.142 90.709 59.528 83.622 52.441 83.622 52.441 76.535 59.527 83.372 66.364 83.622 66.614 83.872 66.364" fill="#fff" stroke-width="0"/>
  <g>
    <polygon points="83.622 44.752 82.722 45.64 82.722 25.261 83.622 26.149 84.522 25.261 84.522 45.64 83.622 44.752" fill="#fff" stroke-width="0"/>
    <path d="M83.372,26.816l.25.247.25-.247v17.27l-.25-.247-.25.247v-17.27M82.072,23.707v23.487l1.55-1.529,1.55,1.529v-23.487l-1.55,1.529-1.55-1.529h0Z" fill="#313433" stroke-width="0"/>
  </g>
  <polygon points="83.872 35.183 84.094 34.961 90.709 28.346 83.622 21.26 83.622 21.26 76.535 28.346 83.372 35.183 83.622 35.433 83.872 35.183" fill="#fff" stroke-width="0"/>
  <polygon points="83.872 128.726 90.709 121.89 83.872 115.053 83.622 114.803 83.372 115.053 76.535 121.89 83.372 128.726 83.622 128.976 83.872 128.726" fill="#fff" stroke-width="0"/>
  <polygon points="83.872 159.908 90.709 153.071 83.872 146.234 83.622 145.984 83.372 146.234 76.535 153.071 83.372 159.907 83.622 160.158 83.872 159.908" fill="#fff" stroke-width="0"/>
  <path d="M83.622,206.237l9.196,9.196-9.196,9.196-9.196-9.196,9.196-9.196M83.622,204.823l-.374.374-10.236,10.236,10.61,10.61,10.61-10.61-10.236-10.236-.374-.374h0Z" fill="#ca3941" stroke-width="0"/>
  <polygon points="83.622 177.165 83.372 177.415 76.535 184.252 83.622 191.339 90.709 184.252 83.872 177.415 83.622 177.165" fill="#fff" stroke-width="0"/>
  <g>
    <polygon points="83.622 216.101 82.722 216.99 82.722 196.611 83.622 197.497 84.522 196.611 84.522 216.99 83.622 216.101" fill="#fff" stroke-width="0"/>
    <path d="M83.372,198.163l.25.247.25-.247v17.27l-.25-.247-.25.247v-17.27M82.072,195.054v23.487l1.55-1.529,1.55,1.529v-23.487l-1.55,1.529-1.55-1.529h0Z" fill="#313433" stroke-width="0"/>
  </g>
  <polygon points="83.872 215.433 83.872 28.348 83.872 28.348 83.622 31.018 83.372 28.346 83.372 33.691 83.372 215.433 83.622 212.762 83.872 215.433" fill="#fff" stroke-width="0"/>
  <polygon points="83.622 208.346 83.372 208.596 76.535 215.433 83.622 222.52 90.709 215.433 83.872 208.596 83.622 208.346" fill="#fff" stroke-width="0"/>
</svg>