<?xml version="1.0" encoding="UTF-8"?>
<svg id="a" data-name="レイヤー 1" xmlns="http://www.w3.org/2000/svg" width="59mm" height="86mm" viewBox="0 0 167.244 243.78">
  <path d="M8.504,243.78h150.236l8.504-8.504V8.504c0-4.697-3.807-8.504-8.504-8.504H8.504L0,8.504v226.772c0,4.697,3.807,8.504,8.504,8.504Z" fill="#313433" stroke-width="0"/>
  <path d="M8.504,240.78c-3.035,0-5.504-2.469-5.504-5.504V8.504c0-3.035,2.469-5.504,5.504-5.504h150.236c3.035,0,5.504,2.469,5.504,5.504v226.772c0,3.035-2.469,5.504-5.504,5.504H8.504M8.504,243.78h150.236c4.697,0,8.504-3.807,8.504-8.504V8.504C167.244,3.807,163.437,0,158.74,0H8.504C3.807,0,0,3.807,0,8.504v226.772C0,239.972,3.807,243.78,8.504,243.78h0Z" fill="#231916" stroke-width="0"/>
  <path d="M83.622,191.339l52.441,52.441h22.677c4.697,0,8.504-3.807,8.504-8.504V93.543s0-62.362,0-62.362l-83.372,83.372-.25,76.785Z" fill="#376771" stroke-width="0"/>
  <path d="M83.622,52.441L31.181,0H8.504C3.807,0,0,3.807,0,8.504v204.094l83.372-83.372.25-76.785Z" fill="#922a34" stroke-width="0"/>
  <polygon points="83.372 177.415 83.15 177.638 83.372 177.415 83.372 177.415" fill="#c93941" stroke-width="0"/>
  <polygon points="83.872 159.907 90.709 153.071 83.872 146.234 83.872 146.234 83.872 159.908 83.872 159.907" fill="#fff" stroke-width="0"/>
  <polygon points="76.535 153.071 83.372 159.907 83.372 146.234 76.535 153.071" fill="#fff" stroke-width="0"/>
  <polygon points="90.709 184.252 83.872 177.415 83.872 177.415 83.872 191.089 90.709 184.252" fill="#fff" stroke-width="0"/>
  <polygon points="83.15 177.638 76.535 184.252 83.372 191.089 83.372 177.415 83.15 177.638" fill="#fff" stroke-width="0"/>
  <polygon points="83.372 215.432 83.372 208.597 83.15 208.819 76.535 215.433 83.622 222.52 83.622 222.52 90.709 215.433 83.872 208.597 83.872 208.597 83.872 215.433 83.372 215.432" fill="#fff" stroke-width="0"/>
  <polygon points="76.535 121.89 83.372 128.726 83.372 115.053 76.535 121.89" fill="#fff" stroke-width="0"/>
  <polygon points="83.872 128.726 90.709 121.89 83.872 115.053 83.872 115.053 83.872 128.726 83.872 128.726" fill="#fff" stroke-width="0"/>
  <polygon points="76.535 90.709 83.372 97.545 83.372 83.872 76.535 90.709" fill="#fff" stroke-width="0"/>
  <polygon points="83.872 97.545 90.709 90.709 83.872 83.872 83.872 83.872 83.872 97.545 83.872 97.545" fill="#fff" stroke-width="0"/>
  <polygon points="76.535 59.527 83.372 66.364 83.372 52.691 76.535 59.527" fill="#fff" stroke-width="0"/>
  <polygon points="83.872 66.364 90.709 59.528 83.872 52.691 83.872 66.364 83.872 66.364" fill="#fff" stroke-width="0"/>
  <polygon points="83.372 191.089 83.372 208.597 83.372 215.432 83.872 215.433 83.872 208.597 83.872 191.089 83.872 177.415 83.872 159.908 83.872 146.234 83.872 128.726 83.872 115.053 83.872 97.545 83.872 83.872 83.872 66.364 83.872 52.691 83.872 35.183 83.622 35.433 83.372 35.183 83.372 35.183 83.372 52.691 83.372 66.364 83.372 83.872 83.372 97.545 83.372 115.053 83.372 128.726 83.372 146.234 83.372 159.907 83.372 177.415 83.372 191.089" fill="#fff" stroke-width="0"/>
  <polygon points="83.622 35.433 83.872 35.183 83.872 35.183 90.709 28.346 83.622 21.26 76.535 28.346 83.372 35.183 83.372 35.183 83.622 35.433" fill="#fff" stroke-width="0"/>
  <polygon points="83.258 225.679 83.632 226.053 84.006 225.679 94.242 215.443 85.172 206.373 85.172 207.787 92.828 215.443 83.632 224.639 74.436 215.443 82.072 207.807 82.072 206.393 73.022 215.443 83.258 225.679" fill="#4d93a6" stroke-width="0"/>
  <polygon points="83.996 18.11 83.622 17.736 83.248 18.11 73.012 28.346 82.082 37.417 82.082 36.002 74.426 28.346 83.622 19.15 92.818 28.347 85.182 35.983 85.182 37.397 94.232 28.347 83.996 18.11" fill="#cb3941" stroke-width="0"/>
</svg>