<?xml version="1.0" encoding="UTF-8"?>
<svg id="a" data-name="レイヤー 1" xmlns="http://www.w3.org/2000/svg" width="59mm" height="86mm" viewBox="0 0 167.244 243.78">
  <rect width="167.244" height="243.78" rx="8.504" ry="8.504" fill="#e13912" stroke-width="0"/>
  <circle cx="83.622" cy="121.89" r="73.701" fill="#fff" stroke-width="0"/>
  <polygon points="75.529 184.782 90.104 179.737 75.529 179.737 75.529 184.782" fill="#e13912" stroke-width="0"/>
  <polygon points="90.104 198.155 90.104 185.263 75.529 185.263 90.104 198.155" fill="#e13912" stroke-width="0"/>
  <polygon points="86.993 168.018 81.002 168.018 47.034 201.986 82.019 172.247 98.372 183.805 84.565 170.082 86.993 168.018" fill="#e13912" stroke-width="0"/>
  <polyline points="74.123 161.842 57.651 179.376 84.908 154.38 84.908 141.484 97.621 130.9 97.621 124.329 83.717 140.14 83.717 151.63 74.224 161.734" fill="#e13912" stroke-width="0"/>
  <polyline points="73.694 162.443 73.694 151.082 81.385 151.082 69.623 147.011 69.623 151.082 73.593 162.55" fill="#e13912" stroke-width="0"/>
  <polygon points="77.313 128.316 77.313 135.684 69.623 135.684 69.623 139.755 81.385 135.684 78.479 127.289 77.313 128.316" fill="#e13912" stroke-width="0"/>
  <polygon points="91.679 172.637 92.933 146.571 97.621 148.166 97.621 144.142 85.795 144.142 90.385 145.704 91.679 172.637" fill="#e13912" stroke-width="0"/>
  <polygon points="81.385 150.547 81.385 140.143 69.623 140.143 81.385 150.547" fill="#e13912" stroke-width="0"/>
  <polygon points="91.715 58.998 77.14 64.042 91.715 64.042 91.715 58.998" fill="#e13912" stroke-width="0"/>
  <polygon points="77.14 45.624 77.14 58.516 91.715 58.516 77.14 45.624" fill="#e13912" stroke-width="0"/>
  <polygon points="80.251 75.761 86.242 75.761 120.21 41.793 85.225 71.533 68.872 59.974 82.679 73.698 80.251 75.761" fill="#e13912" stroke-width="0"/>
  <polyline points="93.121 81.938 109.593 64.404 82.336 89.399 82.336 102.295 69.623 112.88 69.623 119.45 83.527 103.64 83.527 92.15 93.02 82.046" fill="#e13912" stroke-width="0"/>
  <polyline points="93.549 81.337 93.549 92.698 85.859 92.698 97.621 96.769 97.621 92.698 93.651 81.229" fill="#e13912" stroke-width="0"/>
  <polygon points="89.931 115.464 89.931 108.096 97.621 108.096 97.621 104.024 85.859 108.096 88.765 116.491 89.931 115.464" fill="#e13912" stroke-width="0"/>
  <polygon points="75.565 71.142 74.311 97.208 69.623 95.613 69.623 99.637 81.449 99.637 76.859 98.075 75.565 71.142" fill="#e13912" stroke-width="0"/>
  <polygon points="85.859 93.232 85.859 103.636 97.621 103.636 85.859 93.232" fill="#e13912" stroke-width="0"/>
  <rect width="167.244" height="243.78" rx="8.504" ry="8.504" fill="none" stroke-width="0"/>
  <g>
    <polygon points="83.275 121.549 0 201.214 0 210.002 83.969 122.23 68.1 137.412 83.275 121.549" fill="#e13912" stroke-width="0"/>
    <polygon points="68.1 137.412 83.969 122.23 167.244 42.565 167.244 33.778 83.275 121.549 68.1 137.412" fill="#e13912" stroke-width="0"/>
  </g>
</svg>