<?xml version="1.0" encoding="UTF-8"?>
<svg id="a" data-name="レイヤー 1" xmlns="http://www.w3.org/2000/svg" width="59mm" height="86mm" viewBox="0 0 167.244 243.78">
  <rect width="166.8" x="0.1" y="0.1" height="243.78" rx="8.904" ry="8.904" fill="#c93941" stroke-width="0"/>
  <line x1="4.892" y1="4.892" x2="63.119" y2="63.119" fill="none" stroke="#fff" stroke-miterlimit="10" stroke-width=".5"/>
  <rect x="14.919" y="14.919" width="24.053" height="24.053" fill="#c93941" stroke="#fff" stroke-miterlimit="10" stroke-width=".5"/>
  <path d="M25.276,26.788c1.706-2.813,1.358-7.368.24-9.857-.084-.156-.108-.252-.084-.276s.108.012.277.108c.324.18,1.407.998,2.127,1.094.301.036.553.193.733.373.168.168.289.36.337.552.349,1.695-.313,5-3.45,8.186l.156.156c2.969-2.44,6.78-3.846,12.296-.132.06.037.108.084.144.12.037.037.073.073.049.096-.012.012-.085-.012-.229-.084-4.652-2.344-7.957-.578-10.589,1.67l.529.529c.481.481,2.259,2.259,3.209,3.04,0,.12-.072.481-.24.649-.997-1.166-3.485-3.654-3.485-3.654l-.313-.313-.865.793-1.178,1.178c-.264.264-.493.493-.769.841l-.06.06.445.445c.481.481,2.644,2.644,3.605,3.438,0,.12-.096.505-.24.649-1.01-1.178-3.906-4.099-3.906-4.099l-3.943-3.943c-.685.157-2.139.314-2.259.193-.277-.277-.517-2.656-.24-2.933.132-.132.3-.012.385.073l4.171,4.171c-.072-.168-.06-.277,0-.337.12-.12.468-.036.697.121.373-.373,1.791-1.743,2.489-2.32l-1.815-1.815c-.637.18-1.947.313-2.055.301-.037-.012-.084-.036-.108-.06-.277-.277-.637-2.608-.289-2.957.12-.12.3.012.385.096l3.846,3.846Z" fill="#dbd5c4" stroke-width="0"/>
  <line x1="162.352" y1="238.887" x2="104.125" y2="180.66" fill="none" stroke="#fff" stroke-miterlimit="10" stroke-width=".5"/>
  <rect x="128.272" y="204.807" width="24.053" height="24.053" fill="#c93941" stroke="#fff" stroke-miterlimit="10" stroke-width=".5"/>
  <path d="M143.492,223.589c-1.106,1.106-1.189,1.262-1.118,1.887.049.264-.095.529-.288.722-.877.877-2.271.204-4.868-2.393-1.214-1.214-2.837-2.933-1.299-4.471.06-.06.12-.12.205-.18.312-.264,1.141-1.046,2.067-1.971-.481.12-3.449-.204-6.142-1.045-.037.06-.084.108-.133.156-.156.156-.312.217-.408.121-.361-.361.421-2.633.517-2.729.06-.06.097.048.3.18.553.361,1.19.758,1.827,1.13.721-.721,2.236-2.211,3.57-3.545-.434-.409-.914-.865-1.503-1.358-.012-.157.073-.456.241-.625.385.505,1.046,1.19,1.539,1.707,1.057-1.082,1.959-1.984,2.139-2.164.301-.325.445-.493.722-.817.119-.144.168-.241.204-.277s.084-.036.397.277c.456.456,1.407,1.67,1.106,1.971-.084.084-.3.084-.721-.12-.144.119-1.262,1.214-2.525,2.451l.097.097c.372-.108,1.118-.397,1.503-.421.036-.012.072,0,.096.024.204.204.132,1.791-.168,2.091-.12.12-.276.012-.348-.059l-1.455-1.455c-1.238,1.238-2.56,2.536-3.197,3.174.769.432,1.418.769,1.766.925l.613.276c.626-.601,1.286-1.262,1.9-1.875-.686-.3-1.286-.565-1.55-.661-.036-.133-.048-.529.036-.685.432.264,1.13.649,1.851,1.01.938-.938,1.683-1.683,1.766-1.791l.193-.193c.229-.229.601-.601.782-.853.072-.095.119-.168.144-.192.036-.036.06-.012.229.157l.06.06c.192.192,1.503,1.646,1.166,1.983-.097.097-.3.085-.673-.096-.133.084-.925.83-1.887,1.791l.733.349.397.18c.745-.745,2.596-2.596,3.1-3.246.108-.132.157-.229.193-.264.024-.024.048-.024.24.168l.06.06c.36.36,1.454,1.671,1.118,2.007-.096.096-.301.108-.649-.097-.373.301-1.058.938-1.827,1.707l-.493.493,1.082.505c.252-.108.649-.192.889-.192.06-.013.12-.025.253.108.312.337.804,1.839.468,2.175-.156.156-.468.012-.733-.156l-.637.637c-1.996,1.996-2.308,2.212-3.173,2.5-.18.06-1.251.385-1.839-.204-.168-.168-.3-.445-.133-.758.168-.312.204-.588.181-.829l-.217.217c-.409.384-1.081-.097-1.322-.338-.312-.312-.492-.709-.229-.973l.024-.024c.445-.396,1.707-1.587,3.33-3.21l-.204-.084-.925-.445c-1.743,1.743-3.955,3.955-4.303,4.328-.421.468-.409.914.925,2.248,1.563,1.563,2.248,1.646,3.21,1.358.481-.144,1.467-.601,1.875-.841.276-.156.408-.216.432-.192.012.012-.023.072-.108.156-.048.048-.121.096-.193.168l-.277.277ZM141.858,220.536c.805.805,1.443.264,4.207-2.5l-1.238-.589c-.949.949-1.923,1.971-2.668,2.765l-.301.325Z" fill="#dbd5c4" stroke-width="0"/>
  <path d="M118.607,234.384l-2.518-2.843-16.925-31.549-1.765-.319-.551-1.572-1.783,1.151.361,1.535-3.791,5.687-1.625-.659-7.583,6.436-5.236-.722-8.937,8.214.271,4.784,2.076,2.798-1.715,2.798-5.326-4.423-3.25-6.68,1.264-1.986,3.34-1.715,6.59-8.756-.83-5.299,2.004-4.82-8.192,3.507-4.726,1.286-5.416-2.221-9.379,5.922-2.6,3.051-1.733,1.462-4.825-.411-3.159-3.159.402-2.568,3.069-1.625,5.506-.632,9.225-7.483.433-3.259,2.221-4.495,5.497-5.66,5.511-4.067-.771-1.62-.609-2.911,6.905-2.943,1.377.935,4.797-2.559,1.462,1.137,6.743-1.544,2.059-7.293,1.286-2.37,1.58-.053,2.726-4.244-.379-.984-.406-1.489-1.557-2.505,10.44-5.285,4.468-.406,2.112,2.762,5.524.153.316.767,2.85-1.312c-.351-2.484.205-5.072,1.684-7.222-.737,2.07-.697,4.349.103,6.399l1.05-.483,3.972,1.264,2.772,4.989c2.566.196,5.198-.68,7.161-2.643,2.266-2.266,3.087-5.425,2.475-8.343,1.929,3.829,1.302,8.616-1.896,11.814-2.166,2.166-5.063,3.146-7.897,2.959l-.267.611-3.449,3.891.605.442-1.337,5.056,1.273,2.41-5.623,10.272-1.422-1.151-1.232,1.647-2.726.893.451,2.979-1.354,1.354-2.076.271-3.06,9.478-2.094,2.518,1.462.975.515,1.002-2.383,2.816,18.009,36.098-1.544-.244Z" fill="#dbd5c4" stroke-width="0"/>
  <g>
    <polygon points="46.933 73.089 43.796 72.797 47.882 70.166 48.241 70.699 46.933 73.089" fill="none" stroke-width="0"/>
    <path d="M52.366,102.702c1.49-2.166,2.044-4.777,1.677-7.278l2.726-1.738.417.717,5.555-1.319,1.516,1.58,5.01-.135,7.041-4.333-.984-2.537,3.818-5.724,2.492-9.432,9.176-1.828,1.462,1.137,4.797-2.559,1.377.935,8.76-3.986-.609-2.911-.771-1.62,3.656-3.024,5.497-5.66,2.221-4.495.433-3.259,9.226-7.483,5.506-.632,3.069-1.625.402-2.568-3.159-3.159-4.825-.411-1.733,1.462-2.6,3.051-9.379,5.922-5.416-2.221-4.726,1.286-8.192,3.507,2.004-4.82-.83-5.299,6.59-8.756,3.34-1.715,1.264-1.986-3.25-6.68-5.326-4.423-1.715,2.798,2.076,2.798.271,4.784-8.937,8.214-5.236-.722-7.583,6.436-1.625-.659-5.055,7.041.361,1.535-3.43,5.326.542,1.444-2.979,8.576-3.814,2.505-1.535.632-1.354,1.354-1.783.925-2.272.745-2.349-2.468-3.25-1.083-.812-3.521-3.521,1.083-2.437.812-6.635,12.593-1.625,1.083.406,1.76-2.302,1.76-.522,4.071-1.805-.444-1.338,1.4,1.228,2.131-19.904,29.76-1.328,3.559.51,1.477,23.412-32.853,2.545.716,1.704-.859-.881-1.991,2.202-1.145.421-2.527.869,1.461,1.444-.542,5.321,1.091-.872,2.935.66.355-2.467,3.692c-2.698-.067-5.417.92-7.475,2.979-3.197,3.197-3.825,7.985-1.896,11.814-.612-2.918.209-6.077,2.475-8.343,1.596-1.596,3.636-2.473,5.723-2.641l4.351,5.804,4.107.713.859-.548c.724,1.997.73,4.196.017,6.198ZM47.882,70.166l.359.532-1.308,2.39-3.137-.291,4.086-2.631Z" fill="#dbd5c4" stroke-width="0"/>
  </g>
  <g>
    <path d="M10.012,10.012V0s-1.508,0-1.508,0C3.807,0,0,3.807,0,8.504v1.508h10.012Z" fill="#fff" stroke-width="0"/>
    <path d="M157.232,233.767v10.012s1.508,0,1.508,0c4.697,0,8.504-3.807,8.504-8.504v-1.508h-10.012Z" fill="#fff" stroke-width="0"/>
  </g>
</svg>