<?xml version="1.0" encoding="UTF-8"?>
<svg id="a" data-name="レイヤー 1" xmlns="http://www.w3.org/2000/svg" width="59mm" height="52.341mm" viewBox="0 0 167.244 148.367">
  <g>
    <polygon points="78.401 43.502 85.55 41.459 89.252 43.374 91.422 49.246 92.188 48.927 96.203 52.725 99.65 52.265 102.522 55.712 106.167 66.831 103.295 67.501 101.954 68.267 100.99 68.695 99.917 73.623 100.997 74.778 100.231 77.363 96.529 83.976 100.206 89.835 102.044 90.065 103.627 95.267 105.261 95.58 108.063 102.544 105.574 104.172 103.883 104.772 104.903 111.544 104.789 119.433 103.18 124.182 101.182 126.793 102.414 138.608 105.861 142.948 106.882 146.267 105.35 148.367 100.882 148.367 97.18 145.246 96.989 142.986 97.308 138.991 94.863 128.172 89.463 125.912 87.031 121.661 83.718 113.389 81.727 118.214 77.393 121.374 75.861 132.225 77.01 135.799 76.499 138.097 69.478 140.523 62.584 139.884 63.35 136.693 66.797 136.182 70.372 132.991 69.861 120.863 65.648 117.672 64.838 107.759 63.223 107.076 64.563 100.374 65.904 99.544 65.457 97.47 63.955 98.192 62.482 97.169 28.206 107.51 24.414 107.74 23.15 106.82 61.41 94.029 61.716 90.352 62.788 90.008 64.512 90.352 64.812 87.091 69.35 78.225 68.074 76.565 68.074 74.65 70.499 72.863 69.203 70.304 69.497 68.267 67.678 68.076 70.965 56.836 73.569 56.032 76.199 51.512 76.939 51.628 77.252 46.438 78.401 43.502" fill="#ca3a42" stroke-width="0"/>
    <path d="M86.003,45.231c-5.046,0-9.136-4.09-9.136-9.136,0-3.204,1.653-6.019,4.149-7.649-4.072,1.343-7.013,5.172-7.013,9.694,0,5.64,4.572,10.213,10.213,10.213,5.002,0,9.157-3.599,10.035-8.346-1.466,3.086-4.603,5.225-8.247,5.225h0Z" fill="#ca3a42" stroke-width="0"/>
  </g>
  <rect width="167.244" height="148.367" fill="none" stroke-width="0"/>
</svg>