<?xml version="1.0" encoding="UTF-8"?>
<svg id="a" data-name="レイヤー 1" xmlns="http://www.w3.org/2000/svg" width="59mm" height="86mm" xmlns:xlink="http://www.w3.org/1999/xlink" viewBox="0 0 167.244 243.78">
  <defs>
    <clipPath id="b">
      <rect x="0" y="0" width="167.244" height="243.78" fill="none" stroke-width="0"/>
    </clipPath>
    <linearGradient id="c" data-name="名称未設定グラデーション 58" x1="145.084" y1="561.242" x2="145.084" y2="629.75" gradientTransform="translate(-457.844 399.81) rotate(45) scale(1 -1)" gradientUnits="userSpaceOnUse">
      <stop offset=".346" stop-color="#c93941"/>
      <stop offset="1" stop-color="#fff340"/>
    </linearGradient>
    <linearGradient id="d" data-name="名称未設定グラデーション 58" x1="227.624" y1="662.184" x2="227.624" y2="593.675" gradientTransform="translate(-503.551 445.517) rotate(45) scale(1 -1)" xlink:href="#c"/>
  </defs>
  <g clip-path="url(#b)">
    <g>
      <g>
        <rect width="166.8" x="0.1" y="0.1" height="243.78" rx="8.904" ry="8.904" fill="#c93941" stroke-width="0"/>
        <path d="M157.232,243.78h1.503c4.7,0,8.509-3.81,8.509-8.51v-1.503h-10.012s0,10.012,0,10.012Z" fill="#fff" stroke-width="0"/>
      </g>
      <path d="M10.012,10.012V0s-1.521,0-1.8,0C3.701,0,0,3.701,0,8.491v1.521s10.012,0,10.012,0Z" fill="#fff" stroke-width="0"/>
      <rect x="33.756" y="-7.167" width=".5" height="82.345" transform="translate(-14.086 34.006) rotate(-45)" fill="#fff" stroke-width="0"/>
      <g>
        <rect x="14.919" y="14.919" width="24.053" height="24.053" fill="#c93941" stroke-width="0"/>
        <path d="M14.669,14.669h24.553s0,24.553,0,24.553H14.669s0-24.553,0-24.553ZM38.722,15.169H15.169v23.553h23.553V15.169Z" fill="#fff" stroke-width="0"/>
      </g>
      <path d="M25.278,26.723c1.706-2.813,1.358-7.368.24-9.857-.084-.156-.108-.252-.084-.275.024-.024.108.012.276.107.325.181,1.407.998,2.127,1.094.301.036.553.193.733.373.168.169.289.361.337.553.349,1.695-.313,5-3.45,8.186l.156.156c2.969-2.439,6.78-3.846,12.296-.133.06.037.108.085.144.121.037.036.073.072.049.096-.012.013-.084-.012-.229-.084-4.652-2.344-7.957-.578-10.589,1.671l.529.529c.48.48,2.259,2.259,3.208,3.04,0,.121-.071.48-.24.649-.998-1.165-3.486-3.653-3.486-3.653l-.313-.312-.865.793-1.178,1.178c-.265.265-.493.493-.769.842l-.06.06.445.444c.48.48,2.644,2.645,3.605,3.438,0,.12-.096.505-.24.649-1.009-1.178-3.906-4.1-3.906-4.1l-3.943-3.942c-.685.157-2.139.313-2.259.192-.277-.276-.518-2.656-.24-2.934.132-.131.3-.011.384.073l4.171,4.171c-.072-.168-.06-.277,0-.337.12-.12.468-.036.697.12.373-.373,1.792-1.742,2.489-2.319l-1.815-1.815c-.637.18-1.946.313-2.055.301-.037-.012-.084-.035-.109-.061-.277-.276-.637-2.607-.289-2.956.12-.12.3.011.385.096l3.846,3.847Z" fill="#dbd5c4" stroke-width="0"/>
      <rect x="132.988" y="168.601" width=".5" height="82.345" transform="translate(-109.308 155.653) rotate(-45)" fill="#fff" stroke-width="0"/>
      <g>
        <rect x="128.271" y="204.808" width="24.053" height="24.053" fill="#c93941" stroke-width="0"/>
        <path d="M128.021,204.558h24.553s0,24.553,0,24.553h-24.553s0-24.553,0-24.553ZM152.074,205.058h-23.553v23.553h23.553v-23.553Z" fill="#fff" stroke-width="0"/>
      </g>
      <path d="M143.491,223.663c-1.106,1.105-1.189,1.262-1.119,1.887.049.264-.095.529-.288.722-.877.877-2.271.204-4.867-2.393-1.214-1.214-2.837-2.933-1.299-4.472.06-.061.12-.12.205-.18.312-.264,1.141-1.047,2.066-1.972-.48.12-3.449-.204-6.141-1.046-.037.061-.084.108-.133.156-.156.156-.312.217-.408.121-.361-.361.42-2.633.516-2.729.06-.061.097.048.3.18.553.361,1.19.758,1.827,1.13.721-.722,2.236-2.212,3.57-3.546-.433-.408-.913-.865-1.503-1.357-.012-.156.073-.457.241-.625.385.504,1.046,1.189,1.538,1.707,1.058-1.082,1.959-1.984,2.14-2.164.301-.324.445-.493.721-.817.12-.144.168-.241.204-.276.036-.037.084-.036.397.277.456.455,1.406,1.67,1.105,1.971-.083.083-.3.083-.721-.121-.145.121-1.262,1.215-2.525,2.452l.097.097c.372-.108,1.118-.396,1.503-.421.036-.013.072,0,.096.024.204.203.131,1.79-.169,2.09-.12.121-.276.014-.348-.059l-1.455-1.455c-1.238,1.238-2.56,2.536-3.197,3.174.77.432,1.418.77,1.767.926l.613.275c.626-.601,1.287-1.262,1.9-1.875-.686-.3-1.286-.564-1.55-.66-.036-.133-.049-.529.036-.686.433.264,1.13.648,1.851,1.01.937-.938,1.683-1.683,1.766-1.791l.192-.193c.229-.229.601-.601.782-.854.072-.095.119-.168.143-.191.036-.036.061-.012.229.156l.06.061c.192.191,1.502,1.646,1.166,1.982-.097.097-.3.085-.673-.096-.133.084-.925.83-1.887,1.791l.732.349.397.181c.745-.746,2.597-2.598,3.101-3.246.109-.132.157-.229.193-.265.024-.024.047-.024.24.169l.06.061c.36.359,1.454,1.67,1.118,2.007-.096.096-.301.107-.648-.097-.373.301-1.058.938-1.827,1.707l-.493.493,1.082.505c.252-.108.649-.191.889-.191.06-.014.12-.025.253.107.312.337.805,1.838.468,2.175-.156.156-.468.013-.733-.156l-.637.637c-1.996,1.995-2.308,2.212-3.173,2.501-.18.06-1.25.385-1.838-.204-.168-.169-.301-.445-.133-.758.168-.313.204-.589.181-.829l-.217.217c-.409.385-1.081-.097-1.322-.338-.312-.312-.492-.709-.229-.973l.024-.024c.444-.396,1.707-1.587,3.33-3.21l-.205-.084-.925-.444c-1.743,1.743-3.955,3.954-4.303,4.327-.421.469-.41.914.924,2.248,1.563,1.562,2.249,1.646,3.21,1.357.48-.144,1.467-.601,1.876-.841.276-.155.408-.216.432-.192.012.012-.024.072-.108.156-.048.049-.121.096-.192.168l-.277.277ZM141.856,220.61c.805.805,1.442.264,4.208-2.501l-1.238-.589c-.949.949-1.923,1.971-2.668,2.765l-.301.325Z" fill="#dbd5c4" stroke-width="0"/>
    </g>
  </g>
  <g>
    <g>
      <polygon points="36.497 81.109 37.508 83.393 35.804 84.252 33.259 83.537 9.848 116.389 9.338 114.912 10.665 111.353 30.569 81.593 29.341 79.462 30.679 78.063 35.272 79.191 36.497 81.109" fill="#313433" stroke-width="0"/>
      <polygon points="69.266 47.679 66.287 56.254 62.474 58.759 60.939 59.391 59.585 60.745 57.802 61.67 55.076 62.564 53.844 64.211 52.422 63.06 46.799 73.332 48.071 75.742 46.012 82.677 46.671 83.032 43.783 87.355 42.923 90.389 47.382 96.338 51.489 97.051 56.768 93.685 57.185 94.402 62.74 93.083 64.256 94.663 69.266 94.528 76.307 90.195 75.323 87.658 79.141 81.934 81.633 72.502 90.809 70.675 92.272 71.812 97.069 69.253 98.446 70.187 107.206 66.201 106.597 63.29 105.825 61.67 109.481 58.646 114.978 52.986 117.199 48.491 117.632 45.232 126.858 37.749 132.364 37.117 135.433 35.492 135.835 32.924 132.675 29.765 127.851 29.354 126.118 30.816 123.518 33.867 114.139 39.789 108.723 37.568 103.997 38.855 95.805 42.362 97.809 37.541 96.979 32.243 103.568 23.487 106.908 21.771 108.172 19.785 104.922 13.106 99.597 8.682 97.881 11.481 99.958 14.279 100.228 19.063 91.292 27.278 86.056 26.556 78.474 32.992 76.849 32.333 71.794 39.374 72.155 40.908 68.725 46.234 69.266 47.679" fill="#313433" stroke-width="0"/>
      <path d="M50.229,93.174c-3.568-3.568-9.353-3.568-12.921,0-2.266,2.266-3.087,5.425-2.475,8.343-1.929-3.829-1.302-8.616,1.896-11.814,3.988-3.988,10.455-3.988,14.443,0,3.537,3.537,3.93,9.019,1.194,12.997,1.146-3.219.44-6.95-2.137-9.527Z" fill="#313433" stroke-width="0"/>
      <polygon points="32.329 79.716 33.006 74.435 35.308 72.675 34.902 70.915 36.526 69.831 43.161 57.239 45.598 56.426 49.119 55.343 49.931 58.864 53.181 59.947 60.158 67.276 52.775 77.414 47.882 70.165 41.672 74.164 41.401 75.789 39.37 77.008 38.828 80.257 35.443 82.018 32.329 79.716" fill="#313433" stroke-width="0"/>
      <polygon points="41.563 78.65 48.604 80.094 50.364 83.479 55.374 76.032 52.395 73.595 35.876 72.06 40.119 79.192 41.563 78.65" fill="#313433" stroke-width="0"/>
    </g>
    <polygon points="56.539 115.377 77.662 44.715 48.532 112.47 56.539 115.377" fill="url(#c)" stroke-width="0"/>
  </g>
  <g>
    <g>
      <polygon points="125.86 150.786 122.249 144.287 118.277 143.023 112.59 145.641 112.274 144.873 106.75 144.72 104.637 141.958 100.169 142.364 89.729 147.649 91.287 150.154 91.693 151.644 92.072 152.628 89.346 156.871 87.766 156.924 86.48 159.294 84.421 166.587 77.678 168.131 76.216 166.993 71.418 169.553 70.041 168.618 63.136 171.561 63.745 174.472 64.517 176.092 59.006 180.159 53.509 185.819 51.288 190.315 50.855 193.573 41.63 201.057 36.123 201.688 33.054 203.313 32.652 205.881 35.812 209.041 40.637 209.452 42.37 207.989 44.97 204.938 54.348 199.016 59.765 201.237 64.49 199.951 72.682 196.444 70.678 201.264 71.509 206.563 64.919 215.319 61.579 217.034 60.315 219.02 63.565 225.7 68.891 230.123 70.606 227.325 68.53 224.526 68.259 219.742 77.195 211.528 82.431 212.25 90.014 205.814 91.638 206.473 95.43 200.786 95.069 199.251 96.851 198.1 97.403 199.673 99.167 199.991 116.092 231.54 118.611 234.384 120.155 234.627 102.146 198.529 104.529 195.713 104.015 194.711 102.552 193.736 104.646 191.217 107.706 181.739 109.782 181.468 111.137 180.114 110.685 177.135 113.411 176.242 114.644 174.594 116.065 175.745 121.689 165.473 120.416 163.063 121.752 158.008 121.147 157.566 124.596 153.675 125.86 150.786" fill="#313433" stroke-width="0"/>
      <path d="M119.261,146.634c3.568,3.568,9.353,3.568,12.921,0,2.266-2.266,3.087-5.425,2.475-8.343,1.929,3.829,1.302,8.616-1.896,11.814-3.988,3.988-10.455,3.988-14.443,0-3.537-3.537-3.93-9.019-1.194-12.997-1.146,3.219-.44,6.95,2.137,9.527Z" fill="#313433" stroke-width="0"/>
    </g>
    <polygon points="110.703 128.403 89.58 199.065 118.71 131.31 110.703 128.403" fill="url(#d)" stroke-width="0"/>
  </g>
</svg>