<?xml version="1.0" encoding="UTF-8"?>
<svg id="a" data-name="レイヤー 1" xmlns="http://www.w3.org/2000/svg" width="59mm" height="52.341mm" xmlns:xlink="http://www.w3.org/1999/xlink" viewBox="0 0 167.244 148.367">
  <defs>
    <clipPath id="b">
      <polygon points="68.719 90.863 72.677 82.693 71.751 78.225 71.113 76.693 71.113 74.778 70.506 72.863 69.21 70.303 69.504 68.267 67.685 68.076 70.972 56.836 73.576 56.032 77.023 49.672 77.741 49.887 78.755 44.788 80.292 42.035 87.652 40.981 91.06 43.381 92.413 49.494 93.215 49.281 96.21 54.142 98.4 54.097 101.847 57.735 103.762 65.778 101.272 66.876 99.924 73.623 95.017 82.054 100.213 89.835 102.051 90.065 103.634 95.267 105.269 95.58 108.644 104.593 106.155 106.22 104.464 106.82 104.911 111.544 104.796 119.433 103.187 124.182 101.189 126.793 102.421 138.608 105.868 142.948 106.889 146.267 105.357 148.367 100.889 148.367 97.187 145.246 96.996 142.986 97.315 138.991 94.87 128.171 89.47 125.912 87.038 121.661 83.726 113.388 81.734 118.214 77.4 121.374 75.868 132.225 77.017 135.799 76.506 138.097 69.485 140.522 62.592 139.884 63.358 136.693 66.804 136.182 70.379 132.991 69.868 120.863 65.655 117.671 64.845 107.759 63.23 107.076 64.634 98.523 65.975 97.693 67.315 91.501 68.719 90.863" fill="none" stroke-width="0"/>
    </clipPath>
    <linearGradient id="c" data-name="名称未設定グラデーション 58" x1="170.742" y1="554.666" x2="170.742" y2="623.174" gradientTransform="translate(-80.667 -524.279)" gradientUnits="userSpaceOnUse">
      <stop offset=".346" stop-color="#c93941"/>
      <stop offset="1" stop-color="#fff340"/>
    </linearGradient>
  </defs>
  <rect width="167.244" height="148.367" fill="none" stroke-width="0"/>
  <g>
    <g>
      <polygon points="69.187 44.053 71.517 43.153 70.92 41.34 68.614 40.047 75.29 .262 73.885 .946 72.307 4.401 65.338 39.519 62.962 40.157 62.919 42.093 66.964 44.542 69.187 44.053" fill="#313433" stroke-width="0"/>
      <polygon points="68.719 90.863 72.677 82.693 71.751 78.225 71.113 76.693 71.113 74.778 70.506 72.863 69.21 70.303 69.504 68.267 67.685 68.076 70.972 56.836 73.576 56.032 77.023 49.672 77.741 49.887 78.755 44.788 80.292 42.035 87.652 40.981 91.06 43.381 92.413 49.494 93.215 49.281 96.21 54.142 98.4 54.097 101.847 57.735 103.762 65.778 101.272 66.876 99.924 73.623 95.017 82.054 100.213 89.835 102.051 90.065 103.634 95.267 105.269 95.58 108.644 104.593 106.155 106.22 104.464 106.82 104.911 111.544 104.796 119.433 103.187 124.182 101.189 126.793 102.421 138.608 105.868 142.948 106.889 146.267 105.357 148.367 100.889 148.367 97.187 145.246 96.996 142.986 97.315 138.991 94.87 128.171 89.47 125.912 87.038 121.661 83.726 113.388 81.734 118.214 77.4 121.374 75.868 132.225 77.017 135.799 76.506 138.097 69.485 140.522 62.592 139.884 63.358 136.693 66.804 136.182 70.379 132.991 69.868 120.863 65.655 117.671 64.845 107.759 63.23 107.076 64.634 98.523 65.975 97.693 67.315 91.501 68.719 90.863" fill="#313433" stroke-width="0"/>
      <path d="M87.428,45.231c-5.046,0-9.136-4.09-9.136-9.136,0-3.204,1.653-6.019,4.149-7.649-4.072,1.343-7.013,5.172-7.013,9.694,0,5.64,4.572,10.213,10.213,10.213,5.002,0,9.157-3.599,10.035-8.346-1.466,3.086-4.603,5.225-8.247,5.225Z" fill="#313433" stroke-width="0"/>
      <polygon points="65.254 42.091 61.999 46.303 62.382 49.176 60.85 50.133 61.233 52.048 57.02 65.644 58.169 67.942 59.893 71.197 62.956 69.282 66.02 70.814 76.137 70.565 78.084 58.176 69.498 59.842 67.935 52.622 68.893 51.282 68.318 48.984 70.233 46.303 69.084 42.665 65.254 42.091" fill="#313433" stroke-width="0"/>
      <polygon points="71.03 49.374 77.03 53.331 80.668 52.182 78.945 60.991 75.115 60.608 62.349 50.012 70.392 47.969 71.03 49.374" fill="#313433" stroke-width="0"/>
    </g>
    <g clip-path="url(#b)">
      <polygon points="107.59 33.993 72.56 98.895 99.872 30.387 107.59 33.993" fill="url(#c)" stroke-width="0"/>
    </g>
  </g>
</svg>