<?xml version="1.0" encoding="UTF-8"?>
<svg id="a" data-name="レイヤー 1" xmlns="http://www.w3.org/2000/svg" width="13.083mm" height="13.192mm" viewBox="0 0 37.085 37.396">
  <path d="M33.99,27.954l-2.872-3.447-3.447.46-4.015-3.798-.766.319-1.087-2.942c2.005-1.508,3.442-3.731,3.916-6.297-.943,1.985-2.582,3.568-4.598,4.452l-.401-1.085-3.702-1.915-5.488,1.568c-1.953-1.676-3.195-4.157-3.195-6.932,0-3.204,1.653-6.019,4.149-7.649-4.072,1.343-7.013,5.172-7.013,9.694,0,3.064,1.356,5.805,3.492,7.677l-.243.621-.313,5.19-.74-.116-2.63,4.52-2.604.804L0,37.396h37.085l-3.095-9.442Z" fill="#ca3a42" stroke-width="0"/>
</svg>