<?xml version="1.0" encoding="UTF-8"?>
<svg id="a" data-name="レイヤー 1" xmlns="http://www.w3.org/2000/svg" width="59mm" height="52.341mm" viewBox="0 0 167.244 148.367">
  <g>
    <polygon points="69.186 44.053 71.516 43.153 70.919 41.34 68.613 40.047 75.289 .262 73.884 .946 72.306 4.401 65.337 39.519 62.962 40.157 62.918 42.093 66.964 44.542 69.186 44.053" fill="#ca3a42" stroke-width="0"/>
    <polygon points="68.719 90.863 72.676 82.693 71.751 78.225 71.112 76.693 71.112 74.778 70.506 72.863 69.21 70.304 69.503 68.267 67.684 68.076 70.971 56.836 73.576 56.032 77.022 49.672 77.74 49.887 78.755 44.788 80.292 42.035 87.652 40.982 91.059 43.381 92.412 49.494 93.215 49.282 96.21 54.142 98.399 54.097 101.846 57.736 103.761 65.778 101.272 66.876 99.924 73.623 95.016 82.055 100.213 89.835 102.051 90.065 103.633 95.267 105.268 95.58 108.644 104.593 106.154 106.221 104.463 106.821 104.91 111.544 104.795 119.433 103.187 124.182 101.189 126.793 102.421 138.608 105.867 142.948 106.889 146.267 105.357 148.367 100.889 148.367 97.187 145.246 96.995 142.986 97.314 138.991 94.87 128.172 89.47 125.912 87.038 121.661 83.725 113.389 81.733 118.214 77.399 121.374 75.868 132.225 77.016 135.799 76.506 138.097 69.485 140.523 62.591 139.884 63.357 136.693 66.804 136.182 70.378 132.991 69.868 120.863 65.655 117.672 64.844 107.759 63.229 107.076 64.634 98.523 65.974 97.693 67.314 91.501 68.719 90.863" fill="#ca3a42" stroke-width="0"/>
    <path d="M87.427,45.231c-5.046,0-9.136-4.09-9.136-9.136,0-3.204,1.653-6.019,4.149-7.649-4.072,1.343-7.013,5.172-7.013,9.694,0,5.64,4.572,10.213,10.213,10.213,5.002,0,9.157-3.599,10.035-8.346-1.466,3.086-4.603,5.225-8.247,5.225h0Z" fill="#ca3a42" stroke-width="0"/>
    <polygon points="65.254 42.091 61.998 46.304 62.381 49.176 60.849 50.133 61.232 52.048 57.02 65.644 58.169 67.942 59.892 71.197 62.956 69.282 66.02 70.814 76.136 70.565 78.083 58.176 69.498 59.842 67.935 52.623 68.892 51.282 68.318 48.984 70.232 46.304 69.083 42.665 65.254 42.091" fill="#ca3a42" stroke-width="0"/>
    <polygon points="71.03 49.374 77.03 53.331 80.668 52.182 78.944 60.991 75.115 60.608 62.349 50.012 70.391 47.97 71.03 49.374" fill="#ca3a42" stroke-width="0"/>
  </g>
  <rect width="167.244" height="148.367" fill="none" stroke-width="0"/>
</svg>