<?xml version="1.0" encoding="UTF-8"?>
<svg id="a" data-name="レイヤー 1" xmlns="http://www.w3.org/2000/svg" width="59mm" height="86mm" viewBox="0 0 167.244 243.78">
  <polygon points="47.946 70.118 43.86 72.75 46.997 73.041 48.305 70.651 47.946 70.118" fill="#c93941" stroke-width="0"/>
  <path d="M158.74,0H10.012v9.658s5.011,5.011,5.011,5.011h24.199v24.199l21.128,21.128.653-.653,1.535-.632,3.814-2.505,2.979-8.576-.542-1.444,3.43-5.326-.361-1.535,5.055-7.041,1.625.659,7.583-6.436,5.236.722,8.937-8.214-.271-4.784-2.076-2.798,1.715-2.798,5.326,4.423,3.25,6.68-1.264,1.986-3.34,1.715-6.59,8.756.831,5.299-2.004,4.82,8.192-3.507,4.726-1.286,5.416,2.221,9.379-5.922,2.6-3.051,1.733-1.462,4.825.411,3.159,3.159-.402,2.568-3.069,1.625-5.506.632-9.225,7.483-.433,3.259-2.221,4.495-5.497,5.66-3.656,3.024.771,1.62.609,2.911-8.76,3.986-1.377-.935-4.797,2.559-1.462-1.137-9.176,1.828-2.492,9.432-3.818,5.724.984,2.537-7.041,4.333-5.01.135-1.516-1.58-5.555,1.319-.417-.717-2.726,1.738c.368,2.501-.187,5.112-1.677,7.278.712-2.002.707-4.201-.017-6.198l-.859.548-4.107-.713-4.351-5.804c-2.087.168-4.127,1.045-5.723,2.641-2.266,2.266-3.087,5.425-2.475,8.343-1.929-3.829-1.302-8.616,1.896-11.814,2.059-2.059,4.778-3.046,7.475-2.979l2.467-3.692-.66-.355.872-2.935-5.32-1.091-1.444.542-.869-1.461-.421,2.527-2.202,1.145.881,1.991-1.704.859-2.545-.716-23.412,32.853-.51-1.477,1.328-3.559,19.904-29.76-1.228-2.131,1.338-1.4,1.805.444.522-4.071,2.302-1.76-.406-1.76,1.625-1.083,6.635-12.593,2.437-.812,3.521-1.083.812,3.521,3.25,1.083,2.349,2.468,2.272-.745,1.783-.925.348-.348-21.128-21.128H14.669V15.023l-5.011-5.011H0s0,225.263,0,225.263c0,4.697,3.807,8.504,8.504,8.504h148.728v-9.658s-5.011-5.011-5.011-5.011h-24.199v-24.2l-21.008-21.008-2.36,7.31-2.094,2.518,1.462.975.515,1.002-2.383,2.816,18.009,36.099-1.544-.244-2.518-2.844-16.925-31.549-1.765-.319-.551-1.572-1.783,1.151.361,1.535-3.791,5.687-1.625-.659-7.583,6.436-5.236-.722-8.937,8.214.271,4.784,2.076,2.798-1.715,2.798-5.326-4.423-3.25-6.68,1.264-1.986,3.34-1.715,6.59-8.756-.831-5.299,2.004-4.82-8.192,3.507-4.726,1.286-5.416-2.221-9.379,5.922-2.6,3.051-1.733,1.462-4.825-.411-3.159-3.159.402-2.568,3.069-1.625,5.506-.632,9.225-7.483.433-3.259,2.221-4.495,5.497-5.66,5.511-4.067-.771-1.62-.609-2.911,6.905-2.943,1.377.935,4.797-2.559,1.462,1.137,6.743-1.544,2.059-7.293,1.286-2.37,1.58-.053,2.726-4.244-.379-.984-.406-1.489-1.557-2.505,10.44-5.285,4.468-.406,2.112,2.762,5.524.153.316.767,2.85-1.312c-.351-2.484.205-5.072,1.684-7.222-.737,2.07-.697,4.349.103,6.399l1.05-.483,3.972,1.264,2.772,4.989c2.566.196,5.198-.68,7.161-2.643,2.266-2.266,3.087-5.425,2.475-8.343,1.929,3.829,1.302,8.617-1.896,11.814-2.166,2.166-5.063,3.146-7.897,2.959l-.267.611-3.449,3.891.605.442-1.337,5.056,1.273,2.41-5.623,10.272-1.422-1.151-1.232,1.647-2.726.893.451,2.979-1.354,1.354-2.076.271-.527,1.633,21.19,21.19h24.199v24.199l5.011,5.011h9.659s0-225.263,0-225.263c0-4.697-3.807-8.504-8.504-8.504Z" fill="#c93941" stroke-width="0"/>
  <path d="M4.715,5.069l.354-.354,4.943,4.943V0s-1.508,0-1.508,0C3.807,0,0,3.807,0,8.504v1.508h9.659s-4.943-4.943-4.943-4.943Z" fill="#fff" stroke-width="0"/>
  <polygon points="38.869 39.222 59.997 60.351 60.351 59.997 39.222 38.869 39.222 39.222 38.869 39.222" fill="#fff" stroke-width="0"/>
  <polygon points="4.715 5.069 9.659 10.012 14.669 15.023 14.669 14.669 15.023 14.669 10.012 9.658 5.069 4.715 4.715 5.069" fill="#fff" stroke-width="0"/>
  <path d="M15.169,15.169v23.553h23.553V15.169H15.169ZM25.709,16.763c.324.18,1.407.998,2.127,1.094.301.036.553.193.733.373.169.168.289.36.337.552.349,1.695-.313,5-3.45,8.186l.156.156c2.969-2.44,6.78-3.846,12.296-.132.06.037.108.084.144.12.037.037.073.073.049.096-.012.012-.085-.012-.229-.084-4.652-2.344-7.957-.578-10.589,1.67l.529.529c.481.481,2.259,2.259,3.209,3.04,0,.12-.072.481-.24.649-.997-1.166-3.485-3.654-3.485-3.654l-.313-.313-.865.793-1.178,1.178c-.264.265-.493.493-.769.841l-.06.06.445.445c.481.481,2.644,2.644,3.605,3.438,0,.12-.096.505-.24.649-1.01-1.178-3.906-4.099-3.906-4.099l-3.943-3.943c-.685.157-2.139.314-2.259.193-.277-.277-.517-2.656-.24-2.933.132-.132.3-.012.385.073l4.171,4.171c-.072-.168-.06-.277,0-.337.12-.12.468-.036.697.121.373-.373,1.791-1.743,2.489-2.32l-1.815-1.815c-.637.18-1.947.313-2.055.301-.037-.012-.084-.036-.108-.06-.277-.277-.637-2.608-.289-2.957.12-.12.3.012.385.096l3.846,3.846c1.706-2.812,1.358-7.368.24-9.857-.084-.156-.108-.252-.084-.276s.108.012.277.108Z" fill="#c93941" stroke-width="0"/>
  <path d="M14.669,15.023v24.199h24.553V14.669H14.669v.354ZM38.722,38.722H15.169V15.169h23.553v23.553Z" fill="#fff" stroke-width="0"/>
  <path d="M25.276,26.788l-3.846-3.846c-.084-.084-.265-.216-.385-.096-.349.349.012,2.68.289,2.957.024.024.072.048.108.06.108.012,1.418-.121,2.055-.301l1.815,1.815c-.697.577-2.116,1.947-2.489,2.32-.229-.157-.577-.241-.697-.121-.06.06-.072.169,0,.337l-4.171-4.171c-.084-.084-.253-.204-.385-.073-.277.277-.037,2.656.24,2.933.12.12,1.574-.036,2.259-.193l3.943,3.943s2.896,2.921,3.906,4.099c.144-.144.24-.529.24-.649-.961-.794-3.125-2.958-3.605-3.438l-.445-.445.06-.06c.276-.348.505-.577.769-.841l1.178-1.178.865-.793.313.313s2.488,2.488,3.485,3.654c.168-.169.24-.529.24-.649-.949-.781-2.728-2.56-3.209-3.04l-.529-.529c2.632-2.248,5.937-4.015,10.589-1.67.144.072.216.096.229.084.023-.023-.012-.059-.049-.096-.036-.036-.084-.084-.144-.12-5.517-3.714-9.328-2.308-12.296.132l-.156-.156c3.137-3.185,3.799-6.49,3.45-8.186-.048-.192-.168-.384-.337-.552-.18-.18-.432-.337-.733-.373-.72-.096-1.803-.914-2.127-1.094-.169-.097-.253-.133-.277-.108s0,.12.084.276c1.117,2.489,1.466,7.044-.24,9.857Z" fill="#dbd5c4" stroke-width="0"/>
  <path d="M162.528,238.711l-.354.354-4.943-4.943v9.658s1.508,0,1.508,0c4.697,0,8.504-3.807,8.504-8.504v-1.508h-9.659s4.943,4.943,4.943,4.943Z" fill="#fff" stroke-width="0"/>
  <polygon points="128.376 204.558 107.186 183.368 107.013 183.902 128.021 204.911 128.021 204.558 128.376 204.558" fill="#fff" stroke-width="0"/>
  <polygon points="162.528 238.711 157.585 233.767 152.574 228.757 152.574 229.11 152.221 229.11 157.232 234.122 162.175 239.064 162.528 238.711" fill="#fff" stroke-width="0"/>
  <path d="M152.074,228.61v-23.553h-23.553v23.553h23.553ZM143.962,223.144c-.048.048-.121.096-.193.168l-.277.277c-1.106,1.106-1.189,1.262-1.118,1.887.049.264-.095.529-.288.722-.877.877-2.271.204-4.868-2.393-1.214-1.214-2.837-2.933-1.299-4.471.06-.06.12-.12.205-.18.312-.264,1.141-1.046,2.067-1.971-.481.12-3.449-.204-6.142-1.045-.037.06-.084.108-.133.156-.156.156-.312.217-.408.121-.361-.361.421-2.633.517-2.729.06-.06.097.048.3.18.553.361,1.19.758,1.827,1.13.721-.721,2.236-2.211,3.57-3.545-.434-.409-.914-.865-1.503-1.358-.012-.157.073-.456.241-.625.385.505,1.046,1.19,1.539,1.707,1.057-1.082,1.959-1.984,2.139-2.164.301-.325.445-.493.722-.817.12-.144.168-.241.204-.277.036-.036.084-.036.397.277.456.456,1.407,1.67,1.106,1.971-.084.084-.3.084-.721-.12-.144.12-1.262,1.214-2.525,2.451l.097.097c.372-.108,1.118-.397,1.503-.421.036-.012.072,0,.096.024.204.204.132,1.791-.168,2.091-.12.12-.276.012-.348-.059l-1.455-1.455c-1.238,1.238-2.56,2.536-3.197,3.174.769.432,1.418.769,1.766.925l.613.276c.626-.601,1.286-1.262,1.9-1.875-.686-.3-1.286-.565-1.55-.661-.036-.133-.048-.529.036-.685.432.264,1.13.649,1.851,1.01.938-.938,1.683-1.683,1.766-1.791l.193-.193c.229-.229.601-.601.782-.853.072-.095.119-.168.144-.192.036-.036.06-.012.229.157l.06.06c.192.192,1.503,1.646,1.166,1.982-.097.097-.3.085-.673-.096-.133.084-.925.83-1.887,1.791l.733.349.397.18c.745-.745,2.596-2.596,3.1-3.246.108-.132.157-.229.193-.264.024-.024.048-.024.24.169l.06.06c.36.36,1.454,1.671,1.118,2.007-.096.096-.301.108-.649-.097-.373.301-1.058.938-1.827,1.707l-.493.493,1.082.505c.252-.108.649-.192.889-.192.06-.013.12-.025.253.108.312.337.804,1.839.468,2.175-.156.156-.468.012-.733-.156l-.637.637c-1.996,1.996-2.308,2.212-3.173,2.5-.18.06-1.251.385-1.839-.204-.168-.169-.3-.445-.133-.758.168-.312.204-.588.181-.829l-.217.217c-.409.384-1.081-.097-1.322-.338-.312-.312-.492-.709-.229-.973l.024-.024c.445-.396,1.707-1.587,3.33-3.21l-.204-.084-.925-.445c-1.743,1.743-3.955,3.955-4.303,4.328-.421.468-.409.914.925,2.248,1.563,1.563,2.248,1.646,3.21,1.358.481-.144,1.467-.601,1.875-.841.276-.156.408-.216.432-.192.012.012-.023.072-.108.156Z" fill="#c93941" stroke-width="0"/>
  <path d="M142.159,220.211l-.301.325c.805.805,1.443.264,4.207-2.5l-1.238-.589c-.949.949-1.923,1.971-2.668,2.765Z" fill="#c93941" stroke-width="0"/>
  <path d="M152.574,228.757v-24.199h-24.553v24.553h24.553v-.354ZM128.521,205.058h23.553v23.553h-23.553v-23.553Z" fill="#fff" stroke-width="0"/>
  <path d="M141.762,224.021c-.961.289-1.647.205-3.21-1.358-1.334-1.334-1.346-1.78-.925-2.248.348-.373,2.56-2.585,4.303-4.328l.925.445.204.084c-1.623,1.623-2.885,2.813-3.33,3.21l-.024.024c-.264.264-.084.661.229.973.241.241.914.722,1.322.338l.217-.217c.023.24-.012.516-.181.829-.168.313-.036.59.133.758.588.588,1.659.264,1.839.204.865-.288,1.177-.505,3.173-2.5l.637-.637c.265.169.577.312.733.156.336-.336-.156-1.838-.468-2.175-.133-.133-.193-.121-.253-.108-.24,0-.637.084-.889.192l-1.082-.505.493-.493c.769-.769,1.454-1.406,1.827-1.707.348.204.553.193.649.097.336-.336-.758-1.647-1.118-2.007l-.06-.06c-.193-.193-.216-.193-.24-.169-.036.036-.084.133-.193.264-.504.649-2.355,2.5-3.1,3.246l-.397-.18-.733-.349c.961-.961,1.754-1.707,1.887-1.791.373.181.577.193.673.096.336-.336-.974-1.791-1.166-1.982l-.06-.06c-.168-.169-.193-.193-.229-.157-.024.024-.072.097-.144.192-.181.253-.553.625-.782.853l-.193.193c-.084.108-.829.854-1.766,1.791-.721-.36-1.418-.746-1.851-1.01-.084.156-.072.552-.036.685.264.096.865.36,1.55.661-.613.613-1.274,1.274-1.9,1.875l-.613-.276c-.348-.156-.997-.493-1.766-.925.637-.637,1.959-1.936,3.197-3.174l1.455,1.455c.072.072.228.18.348.059.3-.3.373-1.887.168-2.091-.024-.024-.06-.037-.096-.024-.385.024-1.13.313-1.503.421l-.097-.097c1.262-1.237,2.38-2.332,2.525-2.451.421.204.637.204.721.12.301-.301-.649-1.515-1.106-1.971-.313-.313-.361-.313-.397-.277-.036.036-.084.133-.204.277-.277.324-.421.492-.722.817-.18.18-1.082,1.082-2.139,2.164-.492-.517-1.154-1.202-1.539-1.707-.169.169-.253.468-.241.625.59.493,1.07.949,1.503,1.358-1.334,1.334-2.849,2.824-3.57,3.545-.637-.372-1.274-.769-1.827-1.13-.204-.132-.24-.24-.3-.18-.096.096-.878,2.368-.517,2.729.096.096.252.035.408-.121.048-.048.096-.096.133-.156,2.692.842,5.661,1.166,6.142,1.045-.925.925-1.755,1.708-2.067,1.971-.085.06-.145.12-.205.18-1.539,1.539.085,3.257,1.299,4.471,2.596,2.596,3.991,3.27,4.868,2.393.193-.193.337-.457.288-.722-.071-.625.012-.782,1.118-1.887l.277-.277c.072-.072.144-.119.193-.168.084-.084.12-.144.108-.156-.024-.024-.156.036-.432.192-.409.24-1.395.697-1.875.841ZM144.827,217.446l1.238.589c-2.765,2.765-3.402,3.306-4.207,2.5l.301-.325c.745-.793,1.719-1.815,2.668-2.765Z" fill="#dbd5c4" stroke-width="0"/>
  <path d="M107.713,181.734l2.076-.271,1.354-1.354-.451-2.979,2.726-.893,1.232-1.647,1.422,1.151,5.623-10.272-1.273-2.41,1.337-5.056-.605-.442,3.449-3.891.267-.611c-2.384-.157-4.724-1.137-6.546-2.959-1.626-1.626-2.579-3.663-2.878-5.776l-2.85,1.312-.316-.767-5.524-.153-2.112-2.762-4.468.406-10.44,5.285,1.557,2.505.406,1.489.379.984-2.726,4.244-1.58.053-1.286,2.37-2.059,7.293-6.743,1.544-1.462-1.137-4.797,2.559-1.377-.935-6.905,2.943.609,2.911.771,1.62-5.511,4.067-5.497,5.66-2.221,4.495-.433,3.259-9.225,7.483-5.506.632-3.069,1.625-.402,2.568,3.159,3.159,4.825.411,1.733-1.462,2.6-3.051,9.379-5.922,5.416,2.221,4.726-1.286,8.192-3.507-2.004,4.82.831,5.299-6.59,8.756-3.34,1.715-1.264,1.986,3.25,6.68,5.326,4.423,1.715-2.798-2.076-2.798-.271-4.784,8.937-8.214,5.236.722,7.583-6.436,1.625.659,3.791-5.687-.361-1.535,1.783-1.151.551,1.572,1.765.319,16.925,31.549,2.518,2.844,1.544.244-18.009-36.099,2.383-2.816-.515-1.002-1.462-.975,2.094-2.518,2.36-7.31.173-.534.527-1.633Z" fill="#dbd5c4" stroke-width="0"/>
  <path d="M125.028,149.271l-2.772-4.989-3.972-1.264-1.05.483c.444,1.138,1.114,2.208,2.034,3.127,1.606,1.606,3.661,2.482,5.76,2.643Z" fill="#dbd5c4" stroke-width="0"/>
  <path d="M124.87,153.059c2.834.187,5.731-.793,7.897-2.959,3.197-3.197,3.825-7.985,1.896-11.814.612,2.918-.209,6.077-2.475,8.343-1.962,1.962-4.595,2.839-7.161,2.643-2.099-.16-4.154-1.037-5.76-2.643-.92-.92-1.59-1.99-2.034-3.127-.8-2.05-.84-4.329-.103-6.399-1.479,2.15-2.035,4.738-1.684,7.222.299,2.112,1.252,4.15,2.878,5.776,1.822,1.822,4.162,2.802,6.546,2.959Z" fill="#dbd5c4" stroke-width="0"/>
  <polygon points="32.393 79.669 32.548 78.46 30.743 78.016 29.405 79.416 30.633 81.547 10.73 111.307 9.402 114.866 9.912 116.343 33.323 83.49 35.868 84.206 37.572 83.346 36.691 81.356 35.507 81.971 32.393 79.669" fill="#dbd5c4" stroke-width="0"/>
  <path d="M59.649,60.699l-1.783.925-2.272.745,4.628,4.861-5.782,7.939.998.817-5.01,7.447-1.76-3.385-1.72-.353-.872,2.935.66.355-2.467,3.692c2.528.063,5.038,1.05,6.968,2.979,1.611,1.611,2.562,3.627,2.87,5.719l2.726-1.738.417.717,5.555-1.319,1.516,1.58,5.01-.135,7.041-4.333-.984-2.537,3.818-5.724,2.492-9.432,9.176-1.828,1.462,1.137,4.797-2.559,1.377.935,8.76-3.986-.609-2.911-.771-1.62,3.656-3.024,5.497-5.66,2.221-4.495.433-3.259,9.225-7.483,5.506-.632,3.069-1.625.402-2.568-3.159-3.159-4.825-.411-1.733,1.462-2.6,3.051-9.379,5.922-5.416-2.221-4.726,1.286-8.192,3.507,2.004-4.82-.831-5.299,6.59-8.756,3.34-1.715,1.264-1.986-3.25-6.68-5.326-4.423-1.715,2.798,2.076,2.798.271,4.784-8.937,8.214-5.236-.722-7.583,6.436-1.625-.659-5.055,7.041.361,1.535-3.43,5.326.542,1.444-2.979,8.576-3.814,2.505-1.535.632-.653.653-.354.354-.348.348Z" fill="#dbd5c4" stroke-width="0"/>
  <polygon points="46.997 73.041 50.114 73.331 48.305 70.651 46.997 73.041" fill="#dbd5c4" stroke-width="0"/>
  <path d="M43.095,90.487l4.351,5.804,4.107.713.859-.548c-.44-1.214-1.145-2.354-2.12-3.329-1.972-1.972-4.62-2.848-7.198-2.641Z" fill="#dbd5c4" stroke-width="0"/>
  <path d="M44.268,86.678c-2.698-.067-5.416.92-7.475,2.979-3.197,3.197-3.825,7.985-1.896,11.814-.612-2.918.209-6.077,2.475-8.343,1.596-1.596,3.636-2.473,5.723-2.641,2.578-.208,5.226.669,7.198,2.641.974.974,1.679,2.114,2.12,3.329.724,1.997.73,4.196.017,6.198,1.49-2.166,2.044-4.777,1.677-7.278-.308-2.092-1.259-4.108-2.87-5.719-1.93-1.93-4.439-2.917-6.968-2.979Z" fill="#dbd5c4" stroke-width="0"/>
  <polygon points="43.86 72.75 47.946 70.118 48.305 70.651 50.114 73.331 52.459 73.549 54.44 75.169 60.222 67.23 55.594 62.368 53.245 59.901 49.995 58.817 49.183 55.297 45.663 56.38 43.225 57.192 36.591 69.785 34.966 70.868 35.372 72.628 33.07 74.389 32.548 78.46 32.393 79.669 35.507 81.971 36.691 81.356 38.892 80.211 39.314 77.684 35.94 72.014 43.86 72.75" fill="#dbd5c4" stroke-width="0"/>
  <polygon points="50.428 83.433 55.438 75.986 54.44 75.169 52.459 73.549 50.114 73.331 46.997 73.041 43.86 72.75 35.94 72.014 39.314 77.684 40.183 79.145 41.627 78.604 46.948 79.695 48.668 80.048 50.428 83.433" fill="#dbd5c4" stroke-width="0"/>
</svg>