<?xml version="1.0" encoding="UTF-8"?>
<svg id="a" data-name="レイヤー 1" xmlns="http://www.w3.org/2000/svg" width="59mm" height="86mm" viewBox="0 0 167.244 243.78">
  <g>
    <path d="M158.74,0H10.012v10.012s-10.012,0-10.012,0v225.264c0,4.697,3.807,8.504,8.504,8.504h148.728v-10.012s10.012,0,10.012,0V8.504c0-4.697-3.807-8.504-8.504-8.504Z" fill="#4e93a6" stroke-width="0"/>
    <path d="M10.012,0h-1.508C3.807,0,0,3.807,0,8.504v1.508h10.012s0-10.012,0-10.012Z" fill="#fff" stroke-width="0"/>
    <path d="M157.232,243.78h1.508c4.697,0,8.504-3.807,8.504-8.504v-1.508h-10.012s0,10.012,0,10.012Z" fill="#fff" stroke-width="0"/>
  </g>
  <rect x="33.756" y="-7.167" width=".5" height="82.345" transform="translate(-14.086 34.006) rotate(-45)" fill="#fff" stroke-width="0"/>
  <g>
    <rect x="14.919" y="14.919" width="24.053" height="24.053" fill="#4e93a6" stroke-width="0"/>
    <path d="M39.222,39.222H14.669V14.669h24.553v24.553ZM15.169,38.722h23.553V15.169H15.169v23.553Z" fill="#fff" stroke-width="0"/>
  </g>
  <path d="M28.618,27.099c-1.706,2.813-1.358,7.368-.24,9.857.084.156.108.252.084.276s-.108-.012-.277-.108c-.324-.18-1.407-.998-2.127-1.094-.301-.036-.553-.193-.733-.373-.168-.168-.289-.36-.337-.552-.349-1.695.313-5,3.45-8.186l-.156-.156c-2.969,2.44-6.78,3.846-12.296.132-.06-.037-.108-.084-.144-.12-.037-.037-.073-.073-.049-.096.012-.012.085.012.229.084,4.652,2.344,7.957.578,10.589-1.67l-.529-.529c-.481-.481-2.259-2.259-3.209-3.04,0-.12.072-.481.24-.649.997,1.166,3.485,3.654,3.485,3.654l.313.313.865-.793,1.178-1.178c.264-.264.493-.493.769-.841l.06-.06-.445-.445c-.481-.481-2.644-2.644-3.605-3.438,0-.12.096-.505.24-.649,1.01,1.178,3.906,4.099,3.906,4.099l3.943,3.943c.685-.157,2.139-.314,2.259-.193.277.277.517,2.656.24,2.933-.132.132-.3.012-.385-.073l-4.171-4.171c.072.168.06.277,0,.337-.12.12-.468.036-.697-.121-.373.373-1.791,1.743-2.489,2.32l1.815,1.815c.637-.18,1.947-.313,2.055-.301.037.012.084.036.108.06.277.277.637,2.608.289,2.957-.12.12-.3-.012-.385-.096l-3.846-3.846Z" fill="#dbd5c4" stroke-width="0"/>
  <rect x="132.988" y="168.601" width=".5" height="82.345" transform="translate(-109.308 155.653) rotate(-45)" fill="#fff" stroke-width="0"/>
  <g>
    <rect x="128.272" y="204.807" width="24.053" height="24.053" fill="#4e93a6" stroke-width="0"/>
    <path d="M152.574,229.11h-24.553v-24.553h24.553v24.553ZM128.521,228.61h23.553v-23.553h-23.553v23.553Z" fill="#fff" stroke-width="0"/>
  </g>
  <path d="M137.105,210.084c1.106-1.106,1.189-1.262,1.118-1.887-.049-.264.095-.529.288-.722.877-.877,2.271-.204,4.868,2.393,1.214,1.214,2.837,2.933,1.299,4.471-.06.06-.12.12-.205.18-.312.264-1.141,1.046-2.067,1.971.481-.12,3.449.204,6.142,1.045.037-.06.084-.108.133-.156.156-.156.312-.217.408-.121.361.361-.421,2.633-.517,2.729-.06.06-.097-.048-.3-.18-.553-.361-1.19-.758-1.827-1.13-.721.721-2.236,2.211-3.57,3.545.434.409.914.865,1.503,1.358.012.157-.073.456-.241.625-.385-.505-1.046-1.19-1.539-1.707-1.057,1.082-1.959,1.984-2.139,2.164-.301.325-.445.493-.722.817-.119.144-.168.241-.204.277s-.084.036-.397-.277c-.456-.456-1.407-1.67-1.106-1.971.084-.084.3-.084.721.12.144-.119,1.262-1.214,2.525-2.451l-.097-.097c-.372.108-1.118.397-1.503.421-.036.012-.072,0-.096-.024-.204-.204-.132-1.791.168-2.091.12-.12.276-.012.348.059l1.455,1.455c1.238-1.238,2.56-2.536,3.197-3.174-.769-.432-1.418-.769-1.766-.925l-.613-.276c-.626.601-1.286,1.262-1.9,1.875.686.3,1.286.565,1.55.661.036.133.048.529-.036.685-.432-.264-1.13-.649-1.851-1.01-.938.938-1.683,1.683-1.766,1.791l-.193.193c-.229.229-.601.601-.782.853-.072.095-.119.168-.144.192-.036.036-.06.012-.229-.157l-.06-.06c-.192-.192-1.503-1.646-1.166-1.983.097-.097.3-.085.673.096.133-.084.925-.83,1.887-1.791l-.733-.349-.397-.18c-.745.745-2.596,2.596-3.1,3.246-.108.132-.157.229-.193.264-.024.024-.048.024-.24-.168l-.06-.06c-.36-.36-1.454-1.671-1.118-2.007.096-.096.301-.108.649.097.373-.301,1.058-.938,1.827-1.707l.493-.493-1.082-.505c-.252.108-.649.192-.889.192-.06.013-.12.025-.253-.108-.312-.337-.804-1.839-.468-2.175.156-.156.468-.012.733.156l.637-.637c1.996-1.996,2.308-2.212,3.173-2.5.18-.06,1.251-.385,1.839.204.168.168.3.445.133.758-.168.312-.204.588-.181.829l.217-.217c.409-.384,1.081.097,1.322.338.312.312.492.709.229.973l-.024.024c-.445.396-1.707,1.587-3.33,3.21l.204.084.925.445c1.743-1.743,3.955-3.955,4.303-4.328.421-.468.409-.914-.925-2.248-1.563-1.563-2.248-1.646-3.21-1.358-.481.144-1.467.601-1.875.841-.276.156-.408.216-.432.192-.012-.012.023-.072.108-.156.048-.048.121-.096.193-.168l.277-.277ZM138.74,213.137c-.805-.805-1.443-.264-4.207,2.5l1.238.589c.949-.949,1.923-1.971,2.668-2.765l.301-.325Z" fill="#dbd5c4" stroke-width="0"/>
  <g>
    <polygon points="81.109 36.497 83.393 37.508 84.252 35.804 83.537 33.259 116.389 9.848 114.912 9.338 111.353 10.665 81.593 30.569 79.462 29.341 78.063 30.679 79.191 35.272 81.109 36.497" fill="#dbd5c4" stroke-width="0"/>
    <polygon points="47.679 69.266 56.254 66.287 58.759 62.474 59.391 60.939 60.745 59.585 61.67 57.802 62.564 55.076 64.211 53.844 63.06 52.422 73.332 46.799 75.742 48.071 82.677 46.012 83.032 46.671 87.355 43.783 90.389 42.923 95.982 43.627 97.051 51.489 93.685 56.768 94.402 57.185 93.083 62.74 94.663 64.256 94.528 69.266 90.195 76.307 87.658 75.323 81.934 79.141 72.502 81.633 70.675 90.809 71.812 92.272 69.253 97.069 70.187 98.446 66.201 107.206 63.29 106.597 61.67 105.825 58.646 109.481 52.986 114.978 48.491 117.199 45.232 117.632 37.749 126.858 37.117 132.364 35.492 135.433 32.924 135.835 29.765 132.675 29.354 127.851 30.816 126.118 33.867 123.518 39.789 114.139 37.568 108.723 38.855 103.997 42.362 95.805 37.541 97.809 32.243 96.979 23.487 103.568 21.771 106.908 19.785 108.172 13.106 104.922 8.682 99.597 11.481 97.881 14.279 99.958 19.063 100.228 27.278 91.292 26.556 86.056 32.992 78.474 32.333 76.849 39.374 71.794 40.908 72.155 46.234 68.725 47.679 69.266" fill="#dbd5c4" stroke-width="0"/>
    <polygon points="79.716 32.329 74.435 33.006 72.675 35.308 70.915 34.902 69.831 36.526 57.239 43.161 56.426 45.598 55.343 49.119 58.864 49.931 59.947 53.181 67.276 60.158 77.414 52.775 70.165 47.882 74.164 41.672 75.789 41.401 77.008 39.37 80.257 38.828 82.018 35.443 79.716 32.329" fill="#dbd5c4" stroke-width="0"/>
    <polygon points="78.65 41.563 80.094 48.604 83.479 50.364 76.032 55.374 73.595 52.395 72.06 35.876 79.192 40.119 78.65 41.563" fill="#dbd5c4" stroke-width="0"/>
    <polygon points="95.711 50.261 102.887 47.689 109.657 42.002 109.657 43.897 107.491 46.605 108.168 48.366 106.949 49.043 105.054 48.501 102.752 49.72 102.21 50.803 100.585 51.345 99.231 50.532 95.034 52.292 95.711 50.261" fill="#dbd5c4" stroke-width="0"/>
    <polygon points="88.643 44.547 91.215 37.371 96.902 30.601 95.007 30.601 92.299 32.767 90.538 32.09 89.861 33.309 90.403 35.204 89.184 37.506 88.101 38.048 87.56 39.673 88.372 41.027 86.612 45.224 88.643 44.547" fill="#dbd5c4" stroke-width="0"/>
  </g>
  <g>
    <polygon points="74.251 202.397 68.355 202.246 66.488 194.815 69.105 189.128 68.338 188.812 68.185 183.287 65.422 181.175 65.829 176.707 71.114 166.267 73.619 167.824 75.108 168.23 76.092 168.609 80.336 165.884 80.389 164.304 82.758 163.017 90.052 160.959 91.595 154.216 90.458 152.753 93.017 147.956 92.083 146.579 95.026 139.674 97.937 140.283 99.557 141.054 103.624 135.544 109.284 130.046 113.779 127.826 117.038 127.393 124.521 118.167 125.153 112.661 126.778 109.592 129.346 109.19 132.505 112.349 132.916 117.174 131.454 118.907 128.403 121.507 122.481 130.886 124.702 136.302 123.415 141.028 119.908 149.22 124.729 147.216 130.027 148.046 138.784 141.456 140.499 138.116 142.485 136.853 149.164 140.102 153.588 145.428 150.789 147.143 147.991 145.067 143.207 144.796 134.992 153.733 135.714 158.969 129.278 166.551 129.937 168.176 124.25 171.967 122.716 171.606 121.565 173.389 123.137 173.94 123.456 175.705 155.005 192.63 157.848 195.149 158.092 196.692 121.994 178.683 119.177 181.067 118.175 180.552 117.2 179.09 114.682 181.184 105.204 184.244 104.933 186.32 103.579 187.674 100.6 187.223 99.706 189.949 98.059 191.181 99.21 192.603 88.938 198.226 86.528 196.953 81.472 198.29 81.03 197.684 77.139 201.133 74.251 202.397" fill="#dbd5c4" stroke-width="0"/>
    <polygon points="67.656 195.86 60.479 198.432 53.709 204.119 53.709 202.224 55.875 199.516 55.198 197.755 56.417 197.078 58.313 197.62 60.615 196.401 61.156 195.318 62.781 194.777 64.135 195.589 68.333 193.829 67.656 195.86" fill="#dbd5c4" stroke-width="0"/>
    <polygon points="75.224 201.443 73.132 208.773 67.905 215.905 69.797 215.78 72.355 213.439 74.157 213.998 74.751 212.737 74.086 210.881 75.149 208.504 76.194 207.892 76.627 206.235 75.727 204.937 77.205 200.633 75.224 201.443" fill="#dbd5c4" stroke-width="0"/>
  </g>
</svg>