<?xml version="1.0" encoding="UTF-8"?>
<svg id="a" data-name="レイヤー 1" xmlns="http://www.w3.org/2000/svg" width="59mm" height="86mm" xmlns:xlink="http://www.w3.org/1999/xlink" viewBox="0 0 167.244 243.78">
  <defs>
    <linearGradient id="b" data-name="名称未設定グラデーション 20" x1="-22.51" y1="-1.443" x2="-22.51" y2="55.239" gradientTransform="translate(164.029 61.986) rotate(46.417) scale(1 .973)" gradientUnits="userSpaceOnUse">
      <stop offset="0" stop-color="#e49d00"/>
      <stop offset="1" stop-color="#fff340"/>
    </linearGradient>
    <linearGradient id="c" data-name="名称未設定グラデーション 20" x1="103.332" y1="130.565" x2="144.547" y2="130.565" gradientTransform="matrix(1,0,0,1,0,0)" xlink:href="#b"/>
    <linearGradient id="d" data-name="名称未設定グラデーション 20" x1="41.506" y1="-13.509" x2="41.506" y2="40.141" gradientTransform="translate(90.284 144.951) rotate(90)" xlink:href="#b"/>
    <linearGradient id="e" data-name="名称未設定グラデーション 20" x1="104.565" y1="127.894" x2="104.565" y2="196.797" gradientTransform="translate(35.865 313.405) rotate(-131.586) scale(1.065 1)" xlink:href="#b"/>
    <linearGradient id="f" data-name="名称未設定グラデーション 20" x1="90.946" y1="24.732" x2="90.946" y2="93.635" gradientTransform="matrix(1,0,0,1,0,0)" xlink:href="#b"/>
  </defs>
  <rect width="167.244" height="243.78" rx="8.504" ry="8.504" fill="#e37423" stroke-width="0"/>
  <path d="M146.773,27.521l-22.615,22.615-22.742-22.742-25.342,25.342,9.583,9.583-24.908,24.908,32.418,32.418-32.271,32.271,32.138,32.138-32.279,32.279,27.368,27.368h70.539c4.697,0,8.504-3.807,8.504-8.504V47.913l-20.392-20.392Z" fill="#c6651a" stroke-width="0"/>
  <rect x="9.758" y="51.146" width="14.432" height="14.432" transform="translate(-36.296 29.096) rotate(-45)" fill="#dbd5c4" stroke-width="0"/>
  <path d="M17.826,57.657c.516,2.105,2.8,4.066,4.48,4.704.111.034.168.067.168.09s-.057.045-.18.078c-.235.067-1.12.19-1.501.481-.156.124-.347.168-.515.168-.157,0-.303-.033-.415-.101-.952-.627-2.184-2.475-2.206-5.421h-.146c-.246,2.521-1.366,4.951-5.667,5.791-.045.011-.09.011-.123.011-.034,0-.067,0-.067-.022,0-.011.045-.033.146-.067,3.259-1.075,3.976-3.438,4.155-5.712h-.493c-.448,0-2.105,0-2.912.079-.056-.057-.19-.258-.19-.415,1.008.079,3.326.079,3.326.079h.292l.033-.773v-1.098c0-.246,0-.459-.033-.75v-.056h-.415c-.447,0-2.464,0-3.281.078-.056-.057-.19-.28-.19-.415,1.02.079,3.729.09,3.729.09h3.674c.246-.392.851-1.143.963-1.143.258,0,1.479.997,1.479,1.255,0,.123-.135.146-.213.146h-3.887c.112.045.157.101.157.157,0,.111-.201.234-.381.269,0,.347-.022,1.646-.078,2.24h1.691c.213-.381.761-1.054.817-1.098.022-.012.056-.022.078-.022.258,0,1.512.918,1.512,1.243,0,.111-.146.134-.224.134h-3.584Z" fill="#e37423" stroke-width="0"/>
  <rect x="9.758" y="72.689" width="14.432" height="14.432" transform="translate(-51.53 35.406) rotate(-45)" fill="#dbd5c4" stroke-width="0"/>
  <path d="M21.611,81.564c0,1.03.034,1.143.358,1.4.146.101.202.291.202.471,0,.817-.963,1.153-3.383,1.153-1.131,0-2.688-.045-2.688-1.479,0-.056,0-.112.011-.18.022-.269.045-1.019.045-1.881-.168.279-1.702,1.512-3.349,2.374.011.045.011.09.011.135,0,.146-.044.246-.134.246-.336,0-1.03-1.423-1.03-1.512,0-.057.067-.022.224-.057.426-.089.907-.201,1.378-.324,0-.672.011-2.072.011-3.315-.392.012-.828.022-1.333.067-.078-.067-.179-.246-.179-.403.414.056,1.042.067,1.512.078-.011-.996-.011-1.837-.011-2.005-.012-.291-.022-.437-.045-.717-.012-.123-.034-.19-.034-.224s.022-.056.314-.056c.425,0,1.434.123,1.434.403,0,.078-.102.179-.393.279-.011.123-.022,1.154-.033,2.318h.09c.123-.224.336-.705.504-.896.011-.022.033-.034.056-.034.19,0,.896.773.896,1.053,0,.112-.123.135-.189.135h-1.355c0,1.153-.012,2.374-.012,2.968.561-.156,1.02-.302,1.255-.392l.414-.157c.012-.571.012-1.187.012-1.758-.46.179-.862.336-1.03.414-.079-.045-.27-.224-.303-.336.324-.078.829-.224,1.333-.392,0-.874,0-1.568-.012-1.658v-.179c0-.213,0-.561-.033-.762-.012-.078-.022-.135-.022-.157,0-.033.022-.033.179-.033h.057c.179,0,1.467.067,1.467.381,0,.09-.101.179-.358.269-.022.101-.045.817-.045,1.714l.504-.18.27-.101c0-.694,0-2.419-.067-2.957-.012-.111-.034-.179-.034-.213,0-.022.012-.033.19-.033h.057c.336,0,1.456.101,1.456.414,0,.09-.09.19-.348.258-.033.313-.056.93-.056,1.646v.459l.739-.269c.066-.168.213-.392.324-.504.022-.034.045-.067.168-.067.303.012,1.232.481,1.232.795,0,.146-.213.225-.415.27v.593c0,1.859-.044,2.106-.313,2.644-.056.112-.403.762-.951.762-.157,0-.348-.067-.415-.291-.067-.225-.179-.37-.302-.471v.202c-.012.369-.549.459-.773.459-.291,0-.56-.102-.56-.348v-.022c.022-.392.056-1.534.056-3.046l-.135.056-.638.224c0,1.624,0,3.686.011,4.021.022.414.235.616,1.479.616,1.456,0,1.814-.28,2.128-.863.157-.291.403-.963.481-1.266.057-.201.09-.291.112-.291.011,0,.022.045.022.123,0,.045-.012.102-.012.168v.258ZM19.428,80.904c.75,0,.795-.549.795-3.125l-.851.302c0,.885.022,1.814.045,2.531l.011.292Z" fill="#e37423" stroke-width="0"/>
  <g>
    <path d="M32.391,11.253l-.72-.762-2.018,1.639c-.169.137-.281.244-.336.321-.055.077-.088.173-.1.286h-.12v-1.87h.12c.043.189.108.284.195.284.048,0,.106-.028.174-.085l1.589-1.282h-1.336c-.198,0-.334.028-.409.084-.074.056-.145.199-.213.428h-.12v-1.935h.12c.05.216.114.357.191.422.078.064.212.097.403.097h2.687c.187,0,.317-.034.39-.101.073-.067.134-.207.185-.418h.12v1.935h-.12c-.045-.2-.108-.335-.186-.406-.079-.071-.191-.106-.337-.106h-1.213l1.213,1.261c.08.084.158.126.236.126.132,0,.228-.126.287-.379h.12v1.702h-.12c0-.191-.051-.38-.152-.566-.102-.186-.278-.411-.531-.675Z" fill="#e6e3d5" stroke-width="0"/>
    <path d="M28.992,13.687c0-.219.068-.405.204-.559.135-.154.299-.231.49-.231s.351.076.477.229c.127.153.254.472.381.957.062.235.112.403.15.506.244,0,.42-.052.53-.157s.164-.271.164-.499c0-.358-.147-.622-.441-.793v-.103c.285.071.505.209.662.415.156.207.234.462.234.768,0,.353-.086.635-.26.846-.173.211-.416.316-.728.316h-1.244c-.235,0-.352.054-.352.161,0,.112.082.181.246.208v.113c-.164-.014-.291-.076-.379-.188s-.133-.263-.133-.455c0-.162.029-.292.087-.391.058-.1.153-.182.285-.248l-.058-.062c-.209-.237-.314-.515-.314-.834ZM29.553,14.583h1.001c-.148-.349-.276-.579-.383-.692-.107-.112-.245-.169-.414-.169-.144,0-.259.034-.347.101-.087.067-.131.156-.131.265,0,.148.091.313.273.496Z" fill="#e6e3d5" stroke-width="0"/>
    <path d="M29.912,18.978v.12c-.285-.119-.509-.304-.673-.557s-.246-.538-.246-.854c0-.413.134-.756.402-1.03.268-.275.603-.412,1.006-.412.41,0,.753.141,1.029.422.276.282.414.631.414,1.048,0,.376-.108.688-.323.938-.216.249-.504.398-.867.446v-2c-.037-.002-.073-.003-.109-.003-.358,0-.648.09-.872.27s-.335.402-.335.668c0,.38.191.695.574.945ZM30.814,17.095v1.152c.249-.016.451-.079.606-.188.156-.11.234-.245.234-.405s-.076-.29-.229-.391-.356-.157-.612-.168Z" fill="#e6e3d5" stroke-width="0"/>
    <path d="M28.992,19.542h1.019v.12c-.554.264-.831.583-.831.957,0,.127.038.238.113.33.076.092.166.139.271.139.114,0,.213-.042.296-.126.083-.084.18-.267.29-.547.139-.358.274-.594.405-.708s.292-.171.481-.171c.228,0,.42.086.575.258.155.172.233.394.233.665,0,.1-.02.274-.058.523-.014.098-.021.157-.021.178,0,.041.026.095.079.161v.12h-.827v-.12c.201-.08.357-.191.47-.335.112-.144.169-.303.169-.479,0-.125-.028-.23-.084-.314-.056-.084-.126-.126-.21-.126s-.158.035-.221.106c-.063.071-.141.229-.234.475-.146.38-.294.635-.444.762s-.336.191-.557.191c-.255,0-.471-.098-.647-.292-.176-.195-.265-.416-.265-.662,0-.146.015-.291.044-.434.032-.146.048-.249.048-.308,0-.105-.031-.186-.092-.243v-.12Z" fill="#e6e3d5" stroke-width="0"/>
    <path d="M33.48,23.1v.12h-2.276v.014c.226.137.389.283.489.438s.15.337.15.547c0,.287-.09.515-.272.682-.181.168-.426.251-.736.251h-1.142c-.148,0-.256.031-.325.094-.068.062-.119.169-.15.319h-.12v-1.617h.12c.041.157.097.265.169.323.071.059.18.087.326.087h1.066c.424,0,.636-.158.636-.475,0-.116-.031-.224-.094-.323-.063-.099-.176-.212-.34-.34h-1.302c-.139,0-.242.03-.308.091s-.117.168-.154.322h-.12v-1.606h.12c.037.15.091.254.164.313.073.058.184.087.332.087h3.138c.125,0,.219-.029.282-.087.062-.059.113-.163.152-.313h.12l.075,1.073Z" fill="#e6e3d5" stroke-width="0"/>
    <path d="M31.843,27.089v.12h-2.177c-.264,0-.414.143-.448.427h-.12v-1.661h.12c.034.178.084.295.15.354.066.058.184.087.352.087h1.408c.162,0,.274-.031.338-.092s.114-.189.15-.383h.12l.106,1.148ZM33.025,26.354c.125,0,.232.045.321.135.089.09.133.199.133.327,0,.125-.044.232-.132.321-.087.089-.195.133-.323.133s-.236-.044-.327-.133c-.09-.089-.135-.196-.135-.321,0-.127.045-.236.137-.327.091-.09.199-.135.325-.135Z" fill="#e6e3d5" stroke-width="0"/>
    <path d="M30.715,28.042v2.092h-.588v-2.092h.588Z" fill="#e6e3d5" stroke-width="0"/>
    <path d="M30.756,30.62c.312,0,.571.126.778.378.206.251.309.571.309.958,0,.071-.003.172-.01.304l-.003.089v1.377h-.479l.051-.673-.014-.014c-.201.239-.425.359-.673.359-.276,0-.506-.119-.69-.357-.185-.238-.277-.544-.277-.918,0-.308-.021-.526-.065-.654-.043-.129-.114-.193-.211-.193-.073,0-.13.047-.17.14-.041.094-.078.304-.109.632-.048.477-.114.819-.198,1.029s-.201.369-.351.479c-.149.109-.305.164-.467.164-.346,0-.633-.161-.86-.484-.227-.322-.34-.749-.34-1.28,0-.447.076-.812.229-1.095.153-.284.35-.426.591-.426.196,0,.367.103.513.308s.236.479.27.82h.017c.032-.319.096-.553.193-.701.097-.148.242-.222.436-.222.146,0,.262.062.349.187.086.124.167.349.239.675h.014c.093-.305.215-.529.364-.67.149-.141.338-.212.566-.212ZM28.083,31.081c-.201,0-.362.153-.484.458-.122.305-.183.659-.183,1.06,0,.196.041.357.123.484.082.126.186.189.311.189.198,0,.354-.144.468-.431s.171-.631.171-1.032c0-.221-.037-.397-.111-.53-.074-.132-.172-.198-.295-.198ZM30.785,31.409c-.258,0-.464.055-.618.164-.154.109-.231.255-.231.438,0,.189.075.335.226.439.151.104.365.156.644.156.262,0,.468-.051.616-.154s.223-.24.223-.414c0-.419-.287-.629-.86-.629Z" fill="#e6e3d5" stroke-width="0"/>
    <path d="M31.843,35.258v.12h-2.177c-.264,0-.414.143-.448.427h-.12v-1.661h.12c.034.178.084.295.15.354.066.058.184.087.352.087h1.408c.162,0,.274-.031.338-.092s.114-.189.15-.383h.12l.106,1.148ZM33.025,34.523c.125,0,.232.045.321.135.089.09.133.199.133.327,0,.125-.044.232-.132.321-.087.089-.195.133-.323.133s-.236-.044-.327-.133c-.09-.089-.135-.196-.135-.321,0-.127.045-.236.137-.327.091-.09.199-.135.325-.135Z" fill="#e6e3d5" stroke-width="0"/>
    <path d="M31.843,37.374h-.841v.014c.561.25.841.542.841.875,0,.182-.075.338-.224.468l-.798-.174c.228-.239.342-.438.342-.595,0-.116-.027-.218-.082-.304s-.153-.181-.294-.284h-1.08c-.168,0-.284.03-.345.089s-.109.179-.144.359h-.12v-1.682h.12c.041.173.095.29.161.35.066.061.175.091.328.091h1.395c.167,0,.291-.038.373-.114.082-.077.13-.199.144-.368h.12l.106,1.155v.12Z" fill="#e6e3d5" stroke-width="0"/>
    <path d="M31.843,40.142v.12h-2.177c-.264,0-.414.143-.448.427h-.12v-1.661h.12c.034.178.084.295.15.354.066.058.184.087.352.087h1.408c.162,0,.274-.031.338-.092s.114-.189.15-.383h.12l.106,1.148ZM33.025,39.407c.125,0,.232.045.321.135.089.09.133.199.133.327,0,.125-.044.232-.132.321-.087.089-.195.133-.323.133s-.236-.044-.327-.133c-.09-.089-.135-.196-.135-.321,0-.127.045-.236.137-.327.091-.09.199-.135.325-.135Z" fill="#e6e3d5" stroke-width="0"/>
  </g>
  <g>
    <g>
      <rect x="105.463" y="26.863" width="41.91" height="61.09" rx="2.131" ry="2.131" fill="#e37423" stroke-width="0"/>
      <polygon points="147.374 50.96 147.374 42.565 109.713 82.837 147.374 50.96" fill="url(#b)" stroke-width="0"/>
    </g>
    <rect x="105.463" y="91.412" width="41.91" height="61.09" rx="2.131" ry="2.131" fill="#e37423" stroke-width="0"/>
    <polygon points="125.822 132.872 105.463 115.621 105.463 122.344 124.249 134.908 110.661 152.502 118.451 152.502 127.588 137.141 143.12 147.53 128.684 135.298 144.547 108.628 125.822 132.872" fill="url(#c)" stroke-width="0"/>
    <g>
      <rect x="60.223" y="155.962" width="41.91" height="61.09" rx="2.131" ry="2.131" fill="#dbd5c4" stroke-width="0"/>
      <polygon points="60.223 187.191 102.134 190.243 102.134 182.671 60.223 185.723 60.223 187.191" fill="url(#d)" stroke-width="0"/>
    </g>
    <g>
      <rect x="60.223" y="91.412" width="41.91" height="61.09" rx="2.131" ry="2.131" fill="#dbd5c4" stroke-width="0"/>
      <polygon points="60.223 148.167 60.224 148.168 102.134 106.198 102.134 104.711 60.223 137.608 60.223 148.167" fill="url(#e)" stroke-width="0"/>
    </g>
    <g>
      <rect x="60.223" y="26.863" width="41.91" height="61.09" rx="2.131" ry="2.131" fill="#dbd5c4" stroke-width="0"/>
      <polygon points="91.268 87.953 94.732 26.863 87.16 26.863 90.624 87.953 91.268 87.953" fill="url(#f)" stroke-width="0"/>
    </g>
  </g>
  <g>
    <path d="M13.154,21.512c-.084.123-.163.245-.246.363-.372.531-.777,1.036-1.206,1.522-.3.34-.613.667-.919,1.001-.012.013-.019.038-.017.056.018.116.02.231-.015.345-.058.184-.213.245-.379.147-.147-.086-.267-.205-.38-.331-.485-.54-.898-1.129-1.215-1.784-.049-.102-.092-.207-.101-.322-.004-.051.008-.073.052-.074.171-.004.331-.058.492-.104.622-.178,1.243-.364,1.851-.587.067-.025.132-.055.199-.082.023-.009.035-.023.031-.048-.001-.007,0-.015,0-.023,0-1.48,0-2.959,0-4.439v-.06c-.014-.001-.023-.003-.032-.003-.308-.007-.615.007-.921.039-.233.025-.466.044-.699.067-.084.008-.166.023-.25.032-.019.002-.048,0-.058-.011-.17-.201-.293-.424-.323-.691,0-.001.001-.003.003-.006.085.011.17.024.256.032.169.016.338.037.507.042.454.014.909.02,1.363.031.045.001.069-.011.091-.053.11-.204.26-.378.421-.542.097-.099.201-.192.303-.288.058-.054.121-.067.198-.04.25.089.486.207.719.332.294.158.579.331.838.544.131.109.257.224.334.38.072.147.043.274-.086.374-.134.103-.292.15-.452.192-.071.019-.074.018-.079.09-.011.163-.026.327-.029.49-.009.525-.015,1.05-.017,1.575-.001.373.007.747.012,1.121.001.112.007.224.003.335-.004.103.023.196.07.285.027.051.059.1.093.158.067-.079.129-.149.188-.223.444-.551.752-1.175.981-1.84.174-.505.303-1.022.386-1.549.056-.359.105-.72.144-1.081.031-.284.049-.57.058-.856.015-.482.026-.964.025-1.446,0-.387-.019-.774-.034-1.161-.012-.315-.03-.629-.044-.944-.009-.206-.013-.413-.025-.619-.017-.298-.035-.595-.059-.892-.02-.254-.047-.508-.076-.762-.009-.08-.03-.159-.053-.236-.019-.066-.014-.083.052-.076.187.02.375.036.558.073.684.135,1.333.376,1.963.67.008.004.017.007.024.013.098.083.213.09.336.09,1.014-.003,2.028-.002,3.042,0,.043,0,.068-.013.092-.05.296-.448.621-.873,1.009-1.246.053-.051.113-.094.171-.139.056-.044.12-.056.185-.026.138.064.281.122.412.199.443.262.853.569,1.216.935.111.112.216.23.291.371.029.054.05.115.062.176.016.087-.02.148-.104.175-.06.019-.125.032-.188.032-.741.002-1.483,0-2.224,0-.138,0-.276-.003-.413-.004-.947-.002-1.893-.003-2.84-.006-.269,0-.539.001-.808-.006-.093-.002-.175.01-.257.057-.062.035-.133.054-.2.078-.024.008-.034.018-.034.044.002.377.002.753.006,1.13.003.309.009.618.013.927,0,.02,0,.04,0,.066.018,0,.034.002.05.002,1.127,0,2.255,0,3.382,0,.029,0,.05-.007.071-.03.212-.219.435-.426.681-.608.106-.078.204-.091.326-.037.446.2.862.45,1.245.753.16.127.31.264.425.436.057.085.101.175.101.281,0,.117-.064.198-.158.257-.115.072-.243.106-.376.122-.067.008-.101.028-.126.099-.36,1.048-.848,2.033-1.484,2.942-.145.208-.303.407-.455.611-.008.011-.016.022-.027.037.113.08.223.159.336.236.775.527,1.608.942,2.477,1.286.399.158.803.301,1.206.451.059.022.118.04.177.062.017.006.033.017.047.029.03.026.03.051-.006.068-.072.033-.145.065-.22.09-.571.193-1.131.412-1.66.705-.165.091-.321.196-.463.321-.152.134-.337.192-.535.216-.278.034-.524-.062-.765-.18-.39-.192-.735-.451-1.057-.741-.352-.317-.663-.67-.937-1.056-.007-.01-.015-.019-.022-.027-.15.116-.295.233-.445.343-.796.587-1.665,1.035-2.596,1.365-.484.172-.978.308-1.484.401-.293.054-.588.099-.888.097-.032,0-.064-.005-.095-.011-.012-.002-.022-.013-.034-.02.008-.012.013-.029.025-.035.051-.026.103-.056.157-.073.207-.065.417-.12.622-.19.806-.273,1.546-.672,2.229-1.178.33-.245.641-.512.933-.8.318-.313.611-.648.883-1.002.021-.027.022-.047.008-.078-.301-.66-.518-1.348-.664-2.057-.076-.368-.143-.738-.191-1.11-.052-.401-.079-.806-.115-1.21-.01-.109-.014-.219-.021-.331h-.556c-.004.101-.005.202-.011.302-.017.299-.03.599-.054.898-.022.271-.051.542-.086.812-.052.401-.125.8-.22,1.193-.121.502-.277.993-.485,1.467-.291.661-.674,1.261-1.171,1.788-.396.42-.846.775-1.323,1.096-.124.084-.251.165-.376.247-.011.007-.022.015-.036.025.092.105.196.191.309.267.295.198.623.322.962.419.369.105.746.173,1.126.224.407.054.815.092,1.224.106.459.016.918.029,1.377.026.465-.003.93-.024,1.394-.042.287-.011.574-.029.861-.048.256-.017.512-.039.768-.061.247-.021.494-.042.74-.067.268-.027.535-.057.802-.089.344-.042.689-.081,1.032-.132.379-.056.756-.123,1.135-.185.033-.005.065-.015.098-.021.039-.008.056.011.038.045-.026.048-.056.095-.092.137-.205.238-.414.471-.616.711-.228.271-.446.549-.612.864-.066.124-.124.252-.189.377-.085.163-.194.304-.359.395-.134.074-.28.116-.431.133-.274.03-.548.052-.822.076-.288.025-.576.05-.864.071-.284.02-.568.037-.852.052-.24.012-.48.023-.72.027-.338.005-.677.01-1.015.003-.277-.005-.553-.021-.829-.043-.265-.021-.53-.048-.793-.085-.808-.115-1.591-.312-2.314-.707-.592-.323-1.078-.76-1.418-1.35-.2-.347-.332-.72-.411-1.112-.012-.061-.023-.123-.034-.184,0-.003-.003-.006-.006-.013ZM20.95,13.891h-2.736c.249,1.266.794,2.381,1.656,3.346.555-1.056.908-2.169,1.08-3.346Z" fill="#dbd5c4" stroke-width="0"/>
    <path d="M9.972,9.916c.043-.007.085-.021.128-.02.333.009.668.009,1,.034.485.036.963.122,1.423.291.318.117.615.273.861.512.236.229.384.505.435.83.043.275.03.547-.082.806-.189.435-.523.696-.983.792-.267.056-.529.032-.779-.087-.259-.124-.423-.328-.509-.601-.111-.351-.218-.703-.345-1.048-.191-.519-.522-.941-.942-1.296-.058-.049-.117-.099-.174-.15-.014-.013-.024-.03-.037-.045l.004-.018Z" fill="#dbd5c4" stroke-width="0"/>
  </g>
  <path d="M14.112,39.61c0,.166-.002.323,0,.481.003.248.006.496.014.744.008.249.024.498.03.747.009.373.016.747.018,1.12.001.183-.067.34-.21.46-.109.093-.238.148-.374.187-.246.07-.497.081-.75.073-.161-.005-.32-.025-.468-.097-.189-.091-.281-.249-.281-.453,0-.223.016-.446.025-.669.013-.355.027-.709.038-1.064.01-.323.019-.645.028-.968.005-.17.008-.34.014-.509.002-.043-.011-.055-.054-.053-.391.013-.783.023-1.174.036-.229.007-.459.013-.688.024-.318.015-.635.034-.953.051-.059.003-.119.012-.178.014-.016,0-.039-.009-.048-.021-.119-.167-.214-.345-.26-.547-.005-.021-.006-.042-.008-.064,0-.007.001-.015.002-.026,1.118.115,2.239.114,3.364.141,0-.024,0-.041,0-.057,0-.752,0-1.504.001-2.256,0-.049-.015-.058-.059-.057-.216.002-.432,0-.648,0-.016,0-.033,0-.055,0,0,.042,0,.078,0,.114-.002.119.004.239-.008.358-.025.24-.168.397-.379.497-.164.077-.338.114-.517.129-.137.011-.275.016-.412.018-.109.001-.216-.016-.319-.055-.174-.066-.269-.196-.266-.382.003-.179.014-.358.023-.536.01-.223.022-.446.032-.669.015-.324.03-.648.043-.972.009-.225.016-.45.022-.674.008-.321.016-.643.018-.964.001-.349-.003-.698-.009-1.047-.004-.223-.013-.447-.023-.67-.008-.171-.018-.342-.033-.513-.01-.105-.032-.208-.048-.312-.002-.012-.005-.024-.006-.036-.005-.068.006-.091.075-.092.099-.002.199,0,.297.016.533.086,1.036.267,1.52.505.044.022.088.044.127.073.036.026.072.034.115.033.15-.002.3-.001.45,0,.03,0,.044-.005.043-.04,0-.545,0-1.091,0-1.636,0-.01-.002-.021-.004-.034-.015-.001-.028-.003-.042-.003-.202.002-.404,0-.606.006-.411.01-.823.02-1.234.036-.329.013-.657.035-.985.053-.055.003-.11.008-.165.01-.014,0-.034-.007-.042-.017-.134-.178-.24-.369-.268-.595-.001-.011-.002-.021-.002-.032,0-.004.002-.009.004-.013,1.109.116,2.223.114,3.344.141,0-.046,0-.09,0-.133-.003-.208-.003-.416-.01-.624-.012-.358-.025-.715-.044-1.073-.011-.201-.035-.402-.054-.603-.008-.082.008-.108.092-.109.208-.003.416-.008.623.003.2.01.399.035.598.061.341.044.681.099,1.001.232.081.033.159.08.228.133.128.097.134.237.021.352-.102.105-.232.162-.363.218-.024.01-.048.023-.073.027-.056.009-.067.045-.068.094-.002.168-.008.337-.009.505-.002.291,0,.582,0,.873,0,.013.002.027.003.043.017,0,.032.002.047.002.173,0,.346,0,.519,0,.032,0,.049-.011.064-.038.198-.35.399-.699.64-1.022.072-.096.154-.186.235-.276.077-.087.174-.105.284-.072.17.051.316.145.457.248.4.293.758.629,1.048,1.034.068.095.128.194.153.31.019.09-.014.163-.102.189-.074.022-.153.035-.229.035-1.023.002-2.046.002-3.069.002h-.065v1.71c.016,0,.033.002.049.002.178,0,.355,0,.533,0,.033,0,.052-.01.07-.037.16-.239.35-.449.596-.603.16-.101.166-.102.335-.014.377.194.731.422,1.045.709.097.089.186.186.25.303.091.165.063.321-.079.446-.105.093-.231.148-.363.189-.034.011-.046.024-.045.06.004.331.004.661.011.992.006.312.016.624.027.936.015.397.031.795.053,1.192.013.237.044.472.058.709.008.135.018.274-.004.406-.032.195-.173.313-.345.396-.15.073-.311.11-.476.126-.138.013-.278.02-.417.018-.089-.001-.18-.015-.266-.039-.221-.06-.328-.21-.332-.452,0-.049,0-.098,0-.151h-.723c.008.782.015,1.562.023,2.348.027,0,.051,0,.075,0,.135,0,.27,0,.404,0,.03,0,.046-.01.063-.035.161-.235.316-.474.486-.701.132-.177.27-.352.434-.503.089-.082.181-.102.293-.058.19.074.358.186.521.305.093.068.18.142.272.212.251.191.473.411.671.655.011.013.02.026.037.048.017-.067.033-.125.046-.185.09-.396.167-.795.215-1.199.036-.301.071-.601.098-.903.023-.257.039-.516.049-.774.016-.428.028-.856.037-1.285.006-.295.006-.591.004-.886-.002-.294-.01-.587-.018-.881-.01-.373-.024-.746-.036-1.119-.009-.286-.016-.572-.028-.858-.015-.359-.032-.718-.052-1.077-.014-.238-.033-.476-.054-.714-.007-.076-.026-.15-.04-.226-.01-.053.005-.075.059-.069.136.016.274.03.407.06.496.112.97.291,1.443.475.092.036.185.073.276.112.032.014.056.011.085-.006.474-.279.926-.591,1.364-.923.399-.303.784-.623,1.135-.981.114-.117.221-.241.329-.365.024-.028.039-.065.054-.1.022-.05.041-.062.096-.053.142.025.27.089.394.157.517.282.991.625,1.417,1.032.149.142.288.292.39.473.042.074.074.152.07.239-.006.132-.102.226-.251.247-.208.03-.4-.023-.587-.107-.044-.02-.08-.022-.125-.005-.728.26-1.473.466-2.227.635-.541.121-1.084.229-1.627.337-.104.021-.204.047-.296.1-.045.026-.094.046-.144.058-.047.011-.056.038-.058.077-.006.165-.017.33-.019.495-.005.415-.008.83-.007,1.245,0,.292.01.585.015.877,0,.012,0,.024,0,.042h.067c.856,0,1.712,0,2.569.002.064,0,.097-.02.13-.073.238-.376.482-.749.762-1.096.076-.094.157-.184.245-.267.128-.123.221-.158.422-.065.131.06.257.136.375.22.489.345.928.746,1.297,1.218.041.053.076.111.106.171.041.081.021.155-.05.212-.073.058-.16.082-.251.088-.072.005-.144.002-.216.002-.559,0-1.118,0-1.677,0-.017,0-.034,0-.05,0-.001.003-.003.005-.004.008.01.006.02.013.03.018.071.038.147.07.212.116.083.058.136.139.114.247-.016.079-.072.134-.136.179-.125.089-.268.139-.416.174-.047.011-.061.033-.062.077-.002.116-.009.232-.009.349,0,.481-.001.962.001,1.443.002.352.008.704.012,1.056.003.22.006.441.009.661.005.361.01.722.015,1.084.004.245.009.49.012.734.005.369.005.738.017,1.107.012.381.034.761.051,1.141.009.211.017.422.024.633.008.252-.11.432-.322.556-.158.092-.332.142-.512.163-.183.021-.369.035-.553.036-.211.001-.422-.019-.621-.099-.161-.064-.294-.162-.342-.338-.018-.067-.026-.139-.023-.208.012-.352.03-.703.044-1.055.016-.393.032-.786.046-1.179.014-.381.026-.761.037-1.142.011-.382.02-.765.027-1.147.008-.438.014-.875.018-1.313.004-.484.012-.968.006-1.452-.005-.393-.025-.786-.043-1.179-.01-.221-.028-.442-.043-.667h-1.343c0,.095.003.19,0,.284-.017.425-.032.85-.056,1.274-.015.282-.035.565-.067.846-.047.405-.101.809-.162,1.213-.066.44-.162.874-.284,1.301-.184.646-.422,1.269-.761,1.851-.488.839-1.157,1.501-1.975,2.017-.528.332-1.088.601-1.664.84-.127.053-.256.098-.387.141-.043.014-.094.014-.14.008-.063-.008-.079-.054-.031-.095.07-.059.144-.115.223-.158.455-.245.88-.531,1.259-.883.438-.407.791-.879,1.068-1.409.175-.334.316-.681.432-1.04.004-.013.007-.026.013-.046-1.039-.006-2.072-.013-3.103-.019ZM14.827,34.44c-.019-.002-.03-.005-.04-.005-.257,0-.515,0-.772-.001-.039,0-.04.018-.04.048,0,.635,0,1.271,0,1.906,0,.04.013.048.05.048.25-.001.499,0,.749,0h.047c.003-.023.006-.041.007-.059.004-.179.011-.358.011-.536-.001-.383-.007-.765-.01-1.148,0-.084,0-.168,0-.252ZM12.287,34.44c-.016-.002-.026-.004-.037-.004-.263,0-.527,0-.79,0-.034,0-.041.013-.04.043.003.367.005.735.008,1.102.002.266.006.533.01.799,0,.018,0,.035,0,.057.024,0,.04,0,.057,0,.245,0,.49-.001.735.001.046,0,.059-.011.059-.058-.002-.629-.001-1.259-.001-1.888v-.051ZM12.283,34.019v-1.942c-.199,0-.393,0-.587,0-.01,0-.021.004-.029.009-.061.04-.123.079-.183.122-.013.01-.026.03-.027.046-.012.287-.026.574-.032.861-.006.285-.003.569-.004.854,0,.016,0,.032,0,.049h.862ZM14.826,34.019c-.007-.65-.014-1.294-.02-1.939h-.826v1.939h.847Z" fill="#dbd5c4" stroke-width="0"/>
  <polygon points="129.921 0 69.778 74.291 119.848 110.439 17.938 218.886 133.818 109.449 85.155 72.758 156.779 0 129.921 0" fill="#db3a16" stroke-width="0"/>
</svg>