<?xml version="1.0" encoding="UTF-8"?>
<svg id="a" data-name="レイヤー 1" xmlns="http://www.w3.org/2000/svg" width="59mm" height="86mm" xmlns:xlink="http://www.w3.org/1999/xlink" viewBox="0 0 167.244 243.78">
  <defs>
    <linearGradient id="b" data-name="名称未設定グラデーション 30" x1="-2855.709" y1="7862.935" x2="-2825.945" y2="7862.935" gradientTransform="translate(-2794.764 7928.132) rotate(-180)" gradientUnits="userSpaceOnUse">
      <stop offset="0" stop-color="#cdc4b2"/>
      <stop offset=".178" stop-color="rgba(205, 196, 178, .984)" stop-opacity=".984"/>
      <stop offset=".321" stop-color="rgba(205, 196, 178, .936)" stop-opacity=".936"/>
      <stop offset=".451" stop-color="rgba(205, 196, 178, .853)" stop-opacity=".853"/>
      <stop offset=".575" stop-color="rgba(205, 196, 178, .737)" stop-opacity=".737"/>
      <stop offset=".693" stop-color="rgba(205, 196, 178, .587)" stop-opacity=".587"/>
      <stop offset=".808" stop-color="rgba(205, 196, 178, .402)" stop-opacity=".402"/>
      <stop offset=".917" stop-color="rgba(205, 196, 178, .188)" stop-opacity=".188"/>
      <stop offset="1" stop-color="#cdc4b2" stop-opacity="0"/>
    </linearGradient>
    <linearGradient id="c" data-name="名称未設定グラデーション 30" y1="7840.967" y2="7840.967" xlink:href="#b"/>
    <linearGradient id="d" data-name="名称未設定グラデーション 20" x1="14.837" y1="-2.242" x2="14.837" y2="223.949" gradientTransform="translate(164.029 61.986) rotate(46.417) scale(1 .973)" gradientUnits="userSpaceOnUse">
      <stop offset="0" stop-color="#e49d00"/>
      <stop offset="1" stop-color="#fff340"/>
    </linearGradient>
  </defs>
  <rect y="0" width="167.244" height="243.78" rx="8.504" ry="8.504" fill="#e37423" stroke-width="0"/>
  <path d="M167.244,204.803V8.504C167.244,3.807,163.437,0,158.74,0h-21.969L49.606,87.165l117.638,117.638Z" fill="#dbd5c4" stroke-width="0"/>
  <polygon points="31.181 35.433 60.945 65.197 31.181 94.961 31.181 35.433" fill="url(#b)" stroke-width="0"/>
  <polygon points="31.181 57.402 60.945 87.165 31.181 116.929 31.181 57.402" fill="url(#c)" stroke-width="0"/>
  <line x1="55.276" y1="106.299" x2="55.276" fill="#fff" stroke="#fff" stroke-miterlimit="10" stroke-width=".463"/>
  <rect x="51.267" y="17.251" width="8.018" height="8.018" transform="translate(1.157 45.312) rotate(-45)" fill="#fff" stroke-width="0"/>
  <rect x="51.267" y="39.22" width="8.018" height="8.018" transform="translate(-14.377 51.747) rotate(-45)" fill="#fff" stroke-width="0"/>
  <rect x="51.267" y="61.188" width="8.018" height="8.018" transform="translate(-29.911 58.181) rotate(-45)" fill="#fff" stroke-width="0"/>
  <rect x="51.267" y="83.157" width="8.018" height="8.018" transform="translate(-45.445 64.615) rotate(-45)" fill="#fff" stroke-width="0"/>
  <rect x="9.758" y="51.146" width="14.432" height="14.432" transform="translate(-36.296 29.096) rotate(-45)" fill="#dbd5c4" stroke-width="0"/>
  <path d="M17.826,57.657c.516,2.105,2.8,4.066,4.48,4.704.111.034.168.067.168.09s-.057.045-.18.078c-.235.067-1.12.19-1.501.481-.156.124-.347.168-.515.168-.157,0-.303-.033-.415-.101-.952-.627-2.184-2.475-2.206-5.421h-.146c-.246,2.521-1.366,4.951-5.667,5.791-.045.011-.09.011-.123.011-.034,0-.067,0-.067-.022,0-.011.045-.033.146-.067,3.259-1.075,3.976-3.438,4.155-5.712h-.493c-.448,0-2.105,0-2.912.079-.056-.057-.19-.258-.19-.415,1.008.079,3.326.079,3.326.079h.292l.033-.773v-1.098c0-.246,0-.459-.033-.75v-.056h-.415c-.447,0-2.464,0-3.281.078-.056-.057-.19-.28-.19-.415,1.02.079,3.729.09,3.729.09h3.674c.246-.392.851-1.143.963-1.143.258,0,1.479.997,1.479,1.255,0,.123-.135.146-.213.146h-3.887c.112.045.157.101.157.157,0,.111-.201.234-.381.269,0,.347-.022,1.646-.078,2.24h1.691c.213-.381.761-1.054.817-1.098.022-.012.056-.022.078-.022.258,0,1.512.918,1.512,1.243,0,.111-.146.134-.224.134h-3.584Z" fill="#e37423" stroke-width="0"/>
  <rect x="9.758" y="72.689" width="14.432" height="14.432" transform="translate(-51.53 35.406) rotate(-45)" fill="#dbd5c4" opacity=".3" stroke-width="0"/>
  <path d="M21.611,81.564c0,1.03.034,1.143.358,1.4.146.101.202.291.202.471,0,.817-.963,1.153-3.383,1.153-1.131,0-2.688-.045-2.688-1.479,0-.056,0-.112.011-.18.022-.269.045-1.019.045-1.881-.168.279-1.702,1.512-3.349,2.374.011.045.011.09.011.135,0,.146-.044.246-.134.246-.336,0-1.03-1.423-1.03-1.512,0-.057.067-.022.224-.057.426-.089.907-.201,1.378-.324,0-.672.011-2.072.011-3.315-.392.012-.828.022-1.333.067-.078-.067-.179-.246-.179-.403.414.056,1.042.067,1.512.078-.011-.996-.011-1.837-.011-2.005-.012-.291-.022-.437-.045-.717-.012-.123-.034-.19-.034-.224s.022-.056.314-.056c.425,0,1.434.123,1.434.403,0,.078-.102.179-.393.279-.011.123-.022,1.154-.033,2.318h.09c.123-.224.336-.705.504-.896.011-.022.033-.034.056-.034.19,0,.896.773.896,1.053,0,.112-.123.135-.189.135h-1.355c0,1.153-.012,2.374-.012,2.968.561-.156,1.02-.302,1.255-.392l.414-.157c.012-.571.012-1.187.012-1.758-.46.179-.862.336-1.03.414-.079-.045-.27-.224-.303-.336.324-.078.829-.224,1.333-.392,0-.874,0-1.568-.012-1.658v-.179c0-.213,0-.561-.033-.762-.012-.078-.022-.135-.022-.157,0-.033.022-.033.179-.033h.057c.179,0,1.467.067,1.467.381,0,.09-.101.179-.358.269-.022.101-.045.817-.045,1.714l.504-.18.27-.101c0-.694,0-2.419-.067-2.957-.012-.111-.034-.179-.034-.213,0-.022.012-.033.19-.033h.057c.336,0,1.456.101,1.456.414,0,.09-.09.19-.348.258-.033.313-.056.93-.056,1.646v.459l.739-.269c.066-.168.213-.392.324-.504.022-.034.045-.067.168-.067.303.012,1.232.481,1.232.795,0,.146-.213.225-.415.27v.593c0,1.859-.044,2.106-.313,2.644-.056.112-.403.762-.951.762-.157,0-.348-.067-.415-.291-.067-.225-.179-.37-.302-.471v.202c-.012.369-.549.459-.773.459-.291,0-.56-.102-.56-.348v-.022c.022-.392.056-1.534.056-3.046l-.135.056-.638.224c0,1.624,0,3.686.011,4.021.022.414.235.616,1.479.616,1.456,0,1.814-.28,2.128-.863.157-.291.403-.963.481-1.266.057-.201.09-.291.112-.291.011,0,.022.045.022.123,0,.045-.012.102-.012.168v.258ZM19.428,80.904c.75,0,.795-.549.795-3.125l-.851.302c0,.885.022,1.814.045,2.531l.011.292Z" fill="#e37423" stroke-width="0"/>
  <g>
    <path d="M28.596,58.475h4.252c5.918,0,10.715,4.797,10.715,10.715s-4.797,10.715-10.715,10.715h-1.75" fill="none" stroke="#fff" stroke-miterlimit="10"/>
    <polygon points="34.365 75.765 35.055 76.49 31.482 79.887 35.131 83.204 34.457 83.944 30.013 79.904 34.365 75.765" fill="#fff" stroke-width="0"/>
  </g>
  <g>
    <path d="M32.391,11.253l-.72-.762-2.018,1.639c-.169.137-.281.244-.336.321-.055.077-.088.173-.1.286h-.12v-1.87h.12c.043.189.108.284.195.284.048,0,.106-.028.174-.085l1.589-1.282h-1.336c-.198,0-.334.028-.409.084-.074.056-.145.199-.213.428h-.12v-1.935h.12c.05.216.114.357.191.422.078.064.212.097.403.097h2.687c.187,0,.317-.034.39-.101.073-.067.134-.207.185-.418h.12v1.935h-.12c-.045-.2-.108-.335-.186-.406-.079-.071-.191-.106-.337-.106h-1.213l1.213,1.261c.08.084.158.126.236.126.132,0,.228-.126.287-.379h.12v1.702h-.12c0-.191-.051-.38-.152-.566-.102-.186-.278-.411-.531-.675Z" fill="#e6e3d5" stroke-width="0"/>
    <path d="M29.912,15.772v.12c-.285-.119-.509-.304-.673-.557s-.246-.538-.246-.854c0-.413.134-.756.402-1.03.268-.275.603-.412,1.006-.412.41,0,.753.141,1.029.422.276.282.414.631.414,1.048,0,.376-.108.688-.323.938-.216.249-.504.398-.867.446v-2c-.037-.002-.073-.003-.109-.003-.358,0-.648.09-.872.27s-.335.402-.335.668c0,.38.191.695.574.945ZM30.814,13.889v1.152c.249-.016.451-.079.606-.188.156-.11.234-.245.234-.405s-.076-.29-.229-.391-.356-.157-.612-.168Z" fill="#e6e3d5" stroke-width="0"/>
    <path d="M30.715,16.295v2.092h-.588v-2.092h.588Z" fill="#e6e3d5" stroke-width="0"/>
    <path d="M28.992,18.893h1.019v.12c-.554.264-.831.583-.831.957,0,.127.038.238.113.33.076.092.166.139.271.139.114,0,.213-.042.296-.126.083-.084.18-.267.29-.547.139-.358.274-.594.405-.708s.292-.171.481-.171c.228,0,.42.086.575.258.155.172.233.394.233.665,0,.1-.02.274-.058.523-.014.098-.021.157-.021.178,0,.041.026.095.079.161v.12h-.827v-.12c.201-.08.357-.191.47-.335.112-.144.169-.303.169-.479,0-.125-.028-.23-.084-.314-.056-.084-.126-.126-.21-.126s-.158.035-.221.106c-.063.071-.141.229-.234.475-.146.38-.294.635-.444.762s-.336.191-.557.191c-.255,0-.471-.098-.647-.292-.176-.195-.265-.416-.265-.662,0-.146.015-.291.044-.434.032-.146.048-.249.048-.308,0-.105-.031-.186-.092-.243v-.12Z" fill="#e6e3d5" stroke-width="0"/>
    <path d="M28.992,22.085c0-.219.068-.405.204-.559.135-.154.299-.231.49-.231s.351.076.477.229c.127.153.254.472.381.957.062.235.112.403.15.506.244,0,.42-.052.53-.157s.164-.271.164-.499c0-.358-.147-.622-.441-.793v-.103c.285.071.505.209.662.415.156.207.234.462.234.768,0,.353-.086.635-.26.846-.173.211-.416.316-.728.316h-1.244c-.235,0-.352.054-.352.161,0,.112.082.181.246.208v.113c-.164-.014-.291-.076-.379-.188s-.133-.263-.133-.455c0-.162.029-.292.087-.391.058-.1.153-.182.285-.248l-.058-.062c-.209-.237-.314-.515-.314-.834ZM29.553,22.98h1.001c-.148-.349-.276-.579-.383-.692-.107-.112-.245-.169-.414-.169-.144,0-.259.034-.347.101-.087.067-.131.156-.131.265,0,.148.091.313.273.496Z" fill="#e6e3d5" stroke-width="0"/>
  </g>
  <polygon points="167.244 96.159 167.244 62.659 16.959 223.366 167.244 96.159" fill="url(#d)" stroke-width="0"/>
  <g>
    <path d="M15.145,18.433c-.029,0-.047,0-.066,0-1.091,0-2.183-.001-3.274.002-.372.001-.743.012-1.115.023-.321.009-.642.022-.962.037-.24.011-.479.028-.719.04-.02.001-.049-.01-.061-.026-.125-.164-.222-.343-.269-.546-.002-.009-.004-.018-.005-.027-.002-.017-.002-.034-.003-.057.053.005.103.01.154.013.424.027.848.06,1.272.08.373.018.746.022,1.119.03.274.006.547.012.821.013,1.191.003,2.381.004,3.572.005.012,0,.024,0,.04,0,0-.066.001-.129,0-.193-.005-.228-.006-.456-.016-.683-.011-.252-.026-.503-.045-.755-.005-.074-.027-.147-.04-.22-.012-.064.006-.094.07-.095.193-.005.385-.012.578-.005.198.008.396.027.594.051.44.053.878.116,1.295.275.096.037.188.081.263.154.091.089.093.189.005.282-.094.099-.214.156-.338.205-.069.028-.14.051-.212.074-.023.008-.035.016-.035.044,0,.28,0,.56,0,.84,0,.006.001.012.003.023.016,0,.032.002.048.002,1.117,0,2.235,0,3.352,0,.035,0,.055-.012.074-.04.214-.311.424-.625.645-.931.126-.174.264-.341.41-.5.157-.172.225-.18.443-.096.208.081.398.195.583.317.425.281.826.592,1.18.958.1.104.191.219.273.338.072.104.061.198-.01.273-.059.063-.134.088-.218.092-.014,0-.028,0-.041,0h-7.346s0,.005-.001.007c.075.022.151.044.225.067.17.055.339.114.489.214.059.039.116.087.159.142.078.1.043.21-.076.254-.051.019-.107.025-.161.031-.042.005-.085,0-.138,0,.027.063.05.12.076.176.167.364.402.681.676.97.276.291.584.544.911.774.007.005.015.01.03.019.087-.091.177-.179.261-.274.549-.616,1.031-1.281,1.437-2,.05-.089.093-.182.137-.275.026-.053.043-.065.1-.049.054.016.108.033.16.056.645.29,1.257.636,1.806,1.085.125.102.241.213.328.35.023.036.043.074.058.114.051.142-.014.245-.164.266-.161.023-.314-.014-.463-.063-.089-.03-.159-.023-.243.022-.423.225-.869.396-1.32.553-.515.179-1.036.334-1.568.456-.036.008-.071.017-.117.027.021.014.035.024.049.033.616.379,1.265.688,1.936.956.974.389,1.975.689,3,.913.256.056.516.094.774.143.031.006.059.025.088.038-.025.022-.047.053-.076.065-.159.063-.32.119-.479.182-.44.173-.867.371-1.265.63-.176.115-.338.245-.48.403-.219.243-.495.378-.823.367-.162-.005-.327-.046-.484-.091-.806-.231-1.532-.62-2.187-1.143-.438-.349-.82-.752-1.146-1.208-.016-.022-.028-.03-.055-.015-1.095.575-2.232,1.054-3.393,1.48-.972.357-1.958.666-2.963.916-.033.008-.043.022-.043.056.002.134-.01.266-.056.393-.072.201-.217.246-.39.121-.132-.096-.229-.224-.319-.358-.239-.357-.418-.745-.576-1.143-.118-.295-.222-.595-.29-.906-.018-.082-.027-.165-.04-.247,1.071-.059,2.134-.118,3.207-.177-.008-.516-.015-1.021-.023-1.533-.047.018-.088.034-.129.05-.973.39-1.971.704-2.993.934-.46.103-.923.193-1.387.272-.325.055-.654.084-.982.12-.074.008-.149-.002-.224-.006-.017,0-.033-.011-.05-.017-.001-.005-.003-.009-.004-.014.023-.015.044-.036.069-.044.109-.035.218-.068.328-.097.851-.228,1.672-.539,2.467-.918.679-.324,1.332-.696,1.959-1.113.682-.454,1.33-.954,1.924-1.519.139-.132.269-.272.403-.409.009-.009.017-.02.031-.038ZM18.417,22.274c-.588-.95-.897-1.985-1.024-3.089-.511.406-1.05.752-1.615,1.077.04.011.069.018.098.026.114.032.225.069.313.154.066.064.076.152.019.223-.036.044-.08.089-.129.114-.112.057-.23.105-.347.151-.035.014-.046.028-.046.064.001.516,0,1.031,0,1.547,0,.016.001.033.002.056.911-.095,1.819-.185,2.729-.323Z" fill="#dbd5c4" stroke-width="0"/>
    <path d="M11.932,11.649c-.008,0-.015-.003-.023-.002-.408.006-.817.01-1.225.019-.228.005-.455.016-.683.028-.197.01-.394.024-.59.039-.04.003-.067-.01-.093-.037-.111-.114-.177-.252-.221-.402-.018-.062-.026-.128-.037-.189.492.034.977.075,1.463.097.487.023.975.027,1.466.039.01-.076.021-.141.025-.206.023-.32.055-.64.063-.961.006-.244-.019-.488-.032-.733-.003-.055-.012-.109-.019-.163-.005-.044.02-.078.077-.084.076-.009.153-.018.228-.012.267.019.534.037.799.068.423.049.844.11,1.248.256.107.038.209.086.297.16.008.007.016.014.024.021.104.108.097.213-.021.304-.125.096-.274.139-.424.176-.077.019-.073.019-.08.1-.021.25-.044.499-.07.748-.011.104-.031.208-.047.318h.05c.205,0,.41-.001.615,0,.038,0,.061-.013.083-.042.142-.182.285-.364.463-.514.07-.059.146-.114.229-.15.047-.021.114-.007.17.004.233.045.44.154.639.278.33.206.63.45.876.754.056.07.105.147.147.226.082.157.053.293-.08.411-.109.097-.237.163-.372.213-.073.027-.095.06-.096.139-.01.523-.048,1.044-.162,1.556-.11.496-.279.968-.569,1.39-.397.578-.944.938-1.62,1.106-.174.043-.352.077-.53.097-.181.02-.364.01-.533-.076-.091-.046-.155-.115-.194-.211-.088-.216-.222-.404-.369-.583-.183-.222-.389-.419-.63-.578-.018-.012-.036-.023-.055-.035-.08.073-.158.146-.237.217-.497.443-1.048.807-1.638,1.113-.56.29-1.141.528-1.751.693-.112.03-.226.05-.34.073-.018.004-.037-.001-.056-.002-.001-.004-.003-.008-.004-.013.017-.014.033-.03.051-.041.172-.102.346-.202.517-.305.882-.532,1.59-1.241,2.134-2.114.45-.723.761-1.505.964-2.33.067-.274.116-.552.173-.829.002-.01,0-.021,0-.033ZM13.982,11.648c-.25,1.249-.767,2.365-1.632,3.319.025.002.038.003.052.004.127.007.253.014.38.02.252.013.504.023.755-.01.406-.054.723-.248.945-.593.176-.274.27-.579.335-.895.061-.295.095-.594.105-.895.01-.31.009-.621.013-.931,0-.006-.003-.011-.005-.018h-.949Z" fill="#dbd5c4" stroke-width="0"/>
    <path d="M21.9,15.076h-1.994c0,.021,0,.04,0,.059-.004.124.003.249-.016.37-.032.208-.164.349-.344.45-.162.091-.339.136-.521.163-.205.031-.411.04-.617.027-.147-.009-.291-.036-.419-.116-.135-.084-.21-.206-.213-.364-.002-.134.01-.268.019-.402.013-.194.033-.387.042-.581.017-.38.034-.76.042-1.141.01-.451.013-.902.015-1.354.002-.288.005-.576-.007-.863-.016-.388-.043-.775-.07-1.162-.008-.112-.029-.224-.045-.336-.006-.039.009-.053.048-.058.238-.028.47.006.698.069.598.167,1.17.397,1.706.71.005.003.012.005.015.01.039.059.099.047.156.047.435,0,.869,0,1.304,0,.037,0,.061-.01.084-.041.192-.254.395-.498.627-.718.106-.101.223-.133.36-.074.038.016.078.027.115.044.502.223.968.502,1.365.887.052.051.098.11.14.169.121.168.081.33-.038.463-.114.127-.264.195-.424.243-.031.009-.04.022-.039.053.013.334.024.669.036,1.003.008.212.016.425.024.637.01.264.018.529.033.792.012.201.036.402.049.603.015.226.031.451.032.677.001.196-.101.345-.257.458-.168.122-.361.182-.562.223-.218.044-.439.062-.661.044-.191-.015-.375-.055-.528-.182-.135-.112-.183-.262-.176-.433.005-.126.012-.252.018-.382ZM19.89,11.164v3.478h2.006v-3.623c-.023,0-.042,0-.062,0-.474,0-.949.001-1.423-.001-.098,0-.188.008-.276.059-.063.037-.139.052-.21.076-.011.004-.023.008-.034.012Z" fill="#dbd5c4" stroke-width="0"/>
  </g>
  <g>
    <path d="M25.719,41.356c-.014.014-.027.031-.044.04-.152.084-.302.173-.459.248-.391.188-.785.37-1.152.603-.216.137-.417.292-.587.488-.207.238-.477.36-.789.39-.233.022-.46-.02-.685-.071-.897-.203-1.714-.584-2.452-1.131-.41-.304-.774-.657-1.086-1.062-.011-.014-.023-.028-.035-.043-.121.062-.24.124-.361.183-.703.346-1.423.654-2.151.942-.941.372-1.893.712-2.866.991-.328.094-.66.176-.991.26-.036.009-.04.028-.047.055-.019.081-.034.165-.062.243-.032.088-.09.158-.196.16-.068.001-.128-.025-.184-.062-.124-.083-.205-.204-.282-.328-.236-.375-.42-.776-.58-1.188-.078-.201-.151-.403-.187-.616-.01-.056-.008-.115-.006-.172.001-.037.026-.053.065-.055.414-.02.827-.038,1.241-.065.378-.024.756-.059,1.134-.088.244-.019.487-.038.731-.058.014-.001.027-.004.042-.007v-1.233c-.016.004-.03.006-.043.011-.771.252-1.553.459-2.347.621-.511.104-1.025.194-1.54.279-.346.057-.696.097-1.045.136-.156.018-.314.017-.471.02-.026,0-.053-.02-.08-.03.022-.018.04-.044.065-.052.154-.05.307-.1.463-.142.578-.156,1.14-.36,1.692-.592.945-.398,1.855-.864,2.719-1.417.424-.272.833-.564,1.205-.906.09-.083.174-.172.26-.259.011-.011.02-.022.036-.04-.021-.002-.034-.004-.046-.004-.493,0-.986-.001-1.478,0-.311,0-.621.005-.932.009-.343.005-.685.01-1.027.019-.348.008-.697.017-1.045.031-.322.013-.644.033-.966.048-.017,0-.041-.008-.051-.02-.14-.186-.253-.385-.286-.621,0-.004,0-.009.001-.018.072.006.142.014.213.019.213.015.427.034.64.044.394.018.788.032,1.182.045.212.007.425.009.638.012.589.007,1.178.015,1.767.018.803.004,1.607.003,2.41.004.012,0,.024-.001.046-.003-.016-.383-.017-.766-.071-1.139-.108,0-.204,0-.3,0-.236.003-.471.008-.707.009-.399,0-.799,0-1.198-.002-.193-.001-.385-.011-.578-.014-.019,0-.046.011-.055.025-.205.326-.507.51-.874.596-.285.067-.568.065-.84-.055-.293-.129-.494-.343-.583-.655-.047-.166-.021-.328.027-.487.064-.212.134-.421.203-.631.083-.253.086-.511.039-.77-.045-.246-.192-.406-.427-.487-.17-.058-.347-.083-.525-.101-.173-.018-.346-.035-.519-.056-.031-.004-.062-.018-.089-.034-.035-.021-.037-.047-.003-.068.046-.028.096-.057.148-.068.164-.033.329-.069.496-.084.275-.025.552-.032.828-.05.216-.014.401-.11.572-.236.167-.123.297-.281.428-.439.451-.545.901-1.089,1.357-1.629.407-.481.818-.959,1.234-1.432.282-.32.576-.63.866-.942.061-.066.132-.123.199-.184.019-.017.041-.032.063-.045.012-.006.028-.005.041-.007,0,.014.005.031,0,.043-.031.066-.06.134-.097.197-.265.45-.534.899-.797,1.35-.41.703-.816,1.409-1.182,2.136-.202.402-.393.81-.521,1.244-.092.31-.135.627-.119.95.005.104.041.206.065.308.048.203.1.406.145.61.055.249.047.497-.02.743-.005.017-.008.035-.012.056.011.002.019.005.027.004.228-.02.457-.038.685-.062.217-.022.435-.046.651-.077.261-.038.522-.08.781-.128.54-.1,1.073-.232,1.596-.402.752-.245,1.47-.564,2.137-.993.688-.444,1.285-.985,1.777-1.641.258-.345.481-.711.668-1.099.022-.045.037-.094.057-.14.025-.059.054-.082.114-.065.107.029.215.06.315.107.551.255,1.073.559,1.549.938.107.085.199.189.294.288.041.043.069.099.065.162-.004.066-.043.115-.102.136-.095.035-.194.064-.293.084-.094.019-.191.022-.286.036-.023.003-.048.018-.063.035-.645.734-1.386,1.349-2.243,1.822-.686.379-1.412.652-2.172.835-.249.06-.5.11-.756.166.036.006.069.012.102.017.218.036.437.071.646.148.068.025.136.058.195.098.122.083.121.2.004.29-.117.091-.256.133-.397.171-.065.017-.13.031-.196.046v.571c.017,0,.034.003.05.003,1.151,0,2.302,0,3.453,0,.034,0,.054-.009.074-.039.275-.425.588-.82.948-1.177.042-.042.089-.079.133-.12.089-.083.192-.1.307-.069.174.046.328.133.477.23.47.304.896.66,1.263,1.084.052.06.098.125.139.193.094.158.04.268-.143.296-.053.008-.107.011-.16.011-.918,0-1.837,0-2.755,0-.018,0-.036,0-.055,0l-.005.009c.013.01.027.02.041.03.331.232.66.466.968.727.176.15.348.305.482.495.056.079.101.163.121.26.035.171-.049.286-.224.307-.139.016-.27-.018-.402-.051-.043-.011-.081-.01-.124.002-.395.118-.798.203-1.205.268-.348.056-.697.111-1.046.153-.346.041-.694.065-1.04.096-.007,0-.015.001-.036.003.023.015.035.023.049.031.503.272,1.029.493,1.569.681.733.255,1.482.451,2.244.597.372.071.745.137,1.119.189.364.051.731.083,1.098.121.086.009.174.007.261.012.02.001.04.007.06.01.002.004.003.009.005.013ZM17.536,38.153c.051.075.101.155.157.23.33.448.754.79,1.217,1.088.011.007.035.007.048,0,.066-.039.13-.08.194-.123.347-.234.664-.505.963-.797.353-.345.679-.713.967-1.114.006-.009.011-.019.017-.031h-4.031c.007.008.016.011.024.014.15.052.301.1.448.158.104.041.201.099.274.187.097.116.073.249-.062.316-.064.032-.137.047-.216.073ZM15.888,40.798c.769-.076,1.536-.168,2.309-.287-.477-.731-.793-1.523-.986-2.365-.327.192-.651.381-.977.572.017.006.031.011.045.016.047.018.096.031.141.054.1.051.12.146.047.231-.032.037-.074.069-.116.095-.124.076-.262.116-.403.145-.04.008-.049.025-.05.064-.002.387-.006.774-.009,1.161,0,.102,0,.204,0,.313Z" fill="#dbd5c4" stroke-width="0"/>
    <path d="M18.319,29.544c0-.427.006-.854-.002-1.281-.004-.236-.03-.473-.049-.709-.006-.074-.018-.148-.031-.222-.008-.046.008-.073.051-.081.091-.015.184-.037.276-.037.231,0,.462.002.691.02.251.019.501.05.751.085.205.029.409.075.598.165.064.03.125.072.176.12.078.075.074.173.002.254-.074.083-.171.127-.271.166-.035.014-.072.027-.109.036-.026.006-.035.019-.036.043-.005.104-.014.208-.015.311-.007.714-.016,1.429-.016,2.143,0,.249.023.498.033.746.011.271-.055.524-.186.76-.177.318-.434.558-.737.753-.304.196-.632.338-.991.402-.119.021-.24.029-.36.012-.154-.022-.272-.102-.362-.227-.025-.035-.052-.069-.07-.108-.111-.235-.295-.406-.496-.562-.235-.183-.488-.335-.767-.442-.048-.018-.094-.045-.137-.073-.017-.011-.034-.039-.033-.058,0-.013.033-.032.052-.033.079-.007.158-.011.238-.01.157.002.315.018.471.011.189-.009.377-.031.564-.059.15-.022.293-.074.424-.153.203-.122.306-.306.332-.536.009-.076.01-.153.01-.229,0-.402,0-.805,0-1.207,0,0-.001,0-.002,0Z" fill="#dbd5c4" stroke-width="0"/>
    <path d="M15.663,28.466c.328.009.645.075.956.174.376.118.735.273,1.068.486.125.08.245.168.338.286.012.016.023.032.033.05.054.096.034.177-.059.235-.102.064-.218.084-.335.101-.017.002-.034.008-.05.006-.084-.013-.123.04-.166.1-.264.373-.561.718-.878,1.047-.64.665-1.339,1.259-2.098,1.783-.231.16-.467.313-.724.431-.051.024-.105.04-.16.055-.038.011-.053-.006-.033-.041.031-.056.064-.112.107-.159.351-.386.613-.831.841-1.296.393-.803.71-1.634.928-2.502.058-.229.111-.46.108-.7,0-.037.016-.057.055-.056.023,0,.046,0,.069,0Z" fill="#dbd5c4" stroke-width="0"/>
    <path d="M20.801,28.845c.061-.007.123-.019.184-.019.363-.002.724.013,1.085.053.448.049.887.133,1.309.296.328.126.631.295.881.547.241.243.399.53.441.871.042.338-.017.656-.228.933-.184.241-.433.377-.734.414-.524.065-.945-.227-1.148-.668-.083-.18-.149-.368-.228-.55-.168-.39-.365-.764-.634-1.095-.21-.258-.457-.472-.754-.624-.039-.02-.078-.043-.114-.068-.025-.018-.045-.043-.066-.065.002-.008.004-.015.006-.023Z" fill="#dbd5c4" stroke-width="0"/>
    <path d="M10.738,27.319c.573.015,1.14.072,1.689.248.283.09.55.212.777.409.267.233.399.526.377.881-.02.319-.169.574-.421.767-.258.197-.552.296-.878.273-.415-.03-.731-.31-.821-.697-.063-.27-.116-.543-.186-.811-.07-.268-.181-.521-.374-.726-.076-.081-.168-.146-.252-.219-.029-.025-.061-.046-.086-.074-.025-.028-.014-.049.024-.05.05-.002.101,0,.151,0Z" fill="#dbd5c4" stroke-width="0"/>
    <path d="M8.881,29.781c.03-.006.061-.016.091-.019.178-.012.357-.028.535-.032.219-.005.438-.006.656,0,.295.009.587.049.872.132.271.08.525.194.73.395.227.221.328.491.306.807-.041.582-.515.963-.972,1.056-.35.072-.654-.016-.9-.282-.109-.118-.165-.266-.218-.414-.086-.238-.17-.477-.268-.711-.111-.263-.264-.501-.493-.679-.079-.062-.169-.109-.254-.164-.032-.021-.062-.046-.093-.069.002-.007.004-.014.006-.021Z" fill="#dbd5c4" stroke-width="0"/>
  </g>
</svg>