<?xml version="1.0" encoding="UTF-8"?>
<svg id="a" data-name="レイヤー 1" xmlns="http://www.w3.org/2000/svg" width="59mm" height="86mm" viewBox="0 0 167.244 243.78">
  <path d="M158.74,0H8.504L0,8.504v226.772C0,239.972,3.807,243.78,8.504,243.78h150.236l8.504-8.504V8.504C167.244,3.807,163.437,0,158.74,0Z" fill="#313433" stroke-width="0"/>
  <path d="M158.74,3c3.035,0,5.504,2.469,5.504,5.504v226.772c0,3.035-2.469,5.504-5.504,5.504H8.504c-3.035,0-5.504-2.469-5.504-5.504V8.504c0-3.035,2.469-5.504,5.504-5.504h150.236M158.74,0H8.504C3.807,0,0,3.807,0,8.504v226.772c0,4.697,3.807,8.504,8.504,8.504h150.236c4.697,0,8.504-3.807,8.504-8.504V8.504c0-4.697-3.807-8.504-8.504-8.504h0Z" fill="#231916" stroke-width="0"/>
  <path d="M83.622,52.441L31.181,0H8.504C3.807,0,0,3.807,0,8.504v204.094l83.372-83.372.25-76.785Z" fill="#376771" stroke-width="0"/>
  <path d="M83.622,191.339l52.441,52.441h22.677c4.697,0,8.504-3.807,8.504-8.504V31.181l-83.372,83.372-.25,76.785Z" fill="#922a34" stroke-width="0"/>
  <polygon points="83.872 66.364 84.094 66.142 83.872 66.364 83.872 66.364" fill="#c93941" stroke-width="0"/>
  <polygon points="83.372 83.872 76.535 90.709 83.372 97.545 83.372 97.545 83.372 83.872 83.372 83.872" fill="#fff" stroke-width="0"/>
  <polygon points="90.709 90.709 83.872 83.872 83.872 97.545 90.709 90.709" fill="#fff" stroke-width="0"/>
  <polygon points="76.535 59.527 83.372 66.364 83.372 66.364 83.372 52.691 76.535 59.527" fill="#fff" stroke-width="0"/>
  <polygon points="84.094 66.142 90.709 59.528 83.872 52.691 83.872 66.364 84.094 66.142" fill="#fff" stroke-width="0"/>
  <polygon points="83.872 28.348 83.872 35.183 84.094 34.961 90.709 28.346 83.622 21.26 83.622 21.26 76.535 28.346 83.372 35.183 83.372 35.183 83.372 28.346 83.872 28.348" fill="#fff" stroke-width="0"/>
  <polygon points="90.709 121.89 83.872 115.053 83.872 128.726 90.709 121.89" fill="#fff" stroke-width="0"/>
  <polygon points="83.372 115.053 76.535 121.89 83.372 128.726 83.372 128.726 83.372 115.053 83.372 115.053" fill="#fff" stroke-width="0"/>
  <polygon points="90.709 153.071 83.872 146.234 83.872 159.908 90.709 153.071" fill="#fff" stroke-width="0"/>
  <polygon points="83.372 146.234 76.535 153.071 83.372 159.907 83.372 159.908 83.372 146.234 83.372 146.234" fill="#fff" stroke-width="0"/>
  <polygon points="90.709 184.252 83.872 177.415 83.872 191.089 90.709 184.252" fill="#fff" stroke-width="0"/>
  <polygon points="83.372 177.415 76.535 184.252 83.372 191.089 83.372 177.415 83.372 177.415" fill="#fff" stroke-width="0"/>
  <polygon points="83.872 52.691 83.872 35.183 83.872 28.348 83.372 28.346 83.372 35.183 83.372 52.691 83.372 66.364 83.372 83.872 83.372 97.545 83.372 115.053 83.372 128.726 83.372 146.234 83.372 159.908 83.372 177.415 83.372 191.089 83.372 208.596 83.622 208.346 83.872 208.596 83.872 208.597 83.872 191.089 83.872 177.415 83.872 159.908 83.872 146.234 83.872 128.726 83.872 115.053 83.872 97.545 83.872 83.872 83.872 66.364 83.872 52.691" fill="#fff" stroke-width="0"/>
  <polygon points="83.622 208.346 83.372 208.596 83.372 208.596 76.535 215.433 83.622 222.52 90.709 215.433 83.872 208.597 83.872 208.596 83.622 208.346" fill="#fff" stroke-width="0"/>
  <polygon points="83.986 18.101 83.612 17.726 83.238 18.101 73.002 28.337 82.072 37.407 82.072 35.992 74.416 28.337 83.612 19.141 92.808 28.337 85.172 35.973 85.172 37.387 94.222 28.337 83.986 18.101" fill="#4d93a6" stroke-width="0"/>
  <polygon points="83.248 225.669 83.622 226.043 83.996 225.669 94.232 215.433 85.162 206.363 85.162 207.777 92.818 215.433 83.622 224.629 74.426 215.433 82.062 207.797 82.062 206.383 73.012 215.433 83.248 225.669" fill="#cb3941" stroke-width="0"/>
</svg>