<?xml version="1.0" encoding="UTF-8"?>
<svg id="a" data-name="レイヤー 1" xmlns="http://www.w3.org/2000/svg" width="59mm" height="86mm" viewBox="0 0 167.244 243.78">
  <g>
    <polygon points="83.621 216.067 82.722 216.794 82.722 199.859 83.622 200.59 84.522 199.859 84.522 216.799 83.621 216.067" fill="#fff" stroke-width="0"/>
    <path d="M83.872,201.225v14.209l-.25-.203-.25.203v-14.209l.25.203.25-.203M85.172,198.495l-1.55,1.258-1.55-1.258v19.667l1.55-1.258,1.55,1.258v-19.667h0Z" fill="#313433" stroke-width="0"/>
  </g>
  <path d="M83.622,191.339l-7.087-7.087,6.614-6.614.222-.222v-17.508l-6.837-6.837,6.837-6.837v-17.508l-6.837-6.837,6.837-6.837v-17.508l-6.837-6.837,6.837-6.837v-17.008L0,150.236v85.039c0,4.697,3.807,8.504,8.504,8.504h127.559l-52.441-52.441h0Z" fill="#313433" stroke-width="0"/>
  <path d="M83.632,206.247l9.196,9.196-9.196,9.196-9.196-9.196,9.196-9.196M83.632,204.833l-10.61,10.61,10.236,10.236.374.374.374-.374,10.236-10.236-10.61-10.61h0Z" fill="#4d93a6" stroke-width="0"/>
  <path d="M158.74,0H31.181l59.528,59.528-6.837,6.837v17.508l6.837,6.837-6.837,6.837v17.508l6.837,6.837-6.837,6.837v17.508l6.837,6.837-6.837,6.837v17.008l83.372-83.372V8.504c0-4.697-3.807-8.504-8.504-8.504Z" fill="#313433" stroke-width="0"/>
  <path d="M83.622,191.339l52.441,52.441h22.677c4.697,0,8.504-3.807,8.504-8.504V31.181l-83.372,83.372-.25,76.785Z" fill="#c93941" stroke-width="0"/>
  <path d="M83.622,52.441L31.181,0H8.504C3.807,0,0,3.807,0,8.504v204.094l83.372-83.372.25-76.785Z" fill="#4e93a6" stroke-width="0"/>
  <polygon points="83.372 177.415 83.15 177.638 83.372 177.415 83.372 177.415" fill="#c93941" stroke-width="0"/>
  <polygon points="83.372 146.234 76.535 153.071 83.372 159.907 83.622 160.157 83.872 159.907 90.709 153.071 83.872 146.234 83.622 145.984 83.372 146.234" fill="#fff" stroke-width="0"/>
  <polygon points="83.372 177.415 83.15 177.638 76.535 184.252 83.622 191.339 83.622 191.339 90.709 184.252 83.872 177.415 83.622 177.165 83.372 177.415" fill="#fff" stroke-width="0"/>
  <g>
    <polygon points="83.622 217.63 82.722 218.516 82.722 198.137 83.622 199.026 84.522 198.137 84.522 218.516 83.622 217.63" fill="#fff" stroke-width="0"/>
    <path d="M83.872,199.694v17.27l-.25-.247-.25.247v-17.27l.25.247.25-.247M85.172,196.585l-1.55,1.529-1.55-1.529v23.487l1.55-1.529,1.55,1.529v-23.487h0Z" fill="#313433" stroke-width="0"/>
  </g>
  <polygon points="83.372 208.596 83.15 208.819 76.535 215.433 83.622 222.52 83.622 222.52 90.709 215.433 83.872 208.597 83.622 208.347 83.372 208.596" fill="#fff" stroke-width="0"/>
  <polygon points="83.372 115.053 76.535 121.89 83.372 128.726 83.622 128.976 83.872 128.726 90.709 121.89 83.872 115.053 83.622 114.803 83.372 115.053" fill="#fff" stroke-width="0"/>
  <polygon points="83.372 83.872 76.535 90.709 83.372 97.545 83.622 97.795 83.872 97.545 90.709 90.709 83.872 83.872 83.622 83.622 83.372 83.872" fill="#fff" stroke-width="0"/>
  <path d="M83.622,19.15l9.196,9.196-9.196,9.196-9.196-9.196,9.196-9.196M83.622,17.736l-10.61,10.61,10.236,10.236.374.374.374-.374,10.236-10.236-10.61-10.61h0Z" fill="#ca3941" stroke-width="0"/>
  <polygon points="83.622 66.614 83.872 66.364 90.709 59.528 83.622 52.441 76.535 59.527 83.372 66.364 83.622 66.614" fill="#fff" stroke-width="0"/>
  <g>
    <polygon points="83.622 46.283 82.722 47.171 82.722 26.792 83.622 27.68 84.522 26.792 84.522 47.171 83.622 46.283" fill="#fff" stroke-width="0"/>
    <path d="M83.872,28.346v17.27l-.25-.247-.25.247v-17.27l.25.247.25-.247M85.172,25.238l-1.55,1.529-1.55-1.529v23.487l1.55-1.529,1.55,1.529v-23.487h0Z" fill="#313433" stroke-width="0"/>
  </g>
  <polygon points="83.372 28.346 83.372 215.432 83.372 215.432 83.622 212.761 83.872 215.433 83.872 210.089 83.872 28.346 83.622 31.018 83.372 28.346" fill="#fff" stroke-width="0"/>
  <polygon points="83.622 35.433 83.872 35.183 90.709 28.346 83.622 21.26 76.535 28.346 83.372 35.183 83.622 35.433" fill="#fff" stroke-width="0"/>
</svg>