<?xml version="1.0" encoding="UTF-8"?>
<svg id="a" data-name="レイヤー 1" xmlns="http://www.w3.org/2000/svg" width="13.083mm" height="13.192mm" xmlns:xlink="http://www.w3.org/1999/xlink" viewBox="0 0 37.085 37.396">
  <defs>
    <linearGradient id="b" x1="125.444" y1="-28.734" x2="125.444" y2="-44.114" gradientTransform="translate(92.768 35.072) rotate(-124.707) scale(.4 1.702)" gradientUnits="userSpaceOnUse">
      <stop offset=".086" stop-color="#313433"/>
      <stop offset="1" stop-color="#fff340"/>
    </linearGradient>
  </defs>
  <g>
    <polygon points="8.407 23.869 7.667 23.754 5.037 28.274 2.433 29.078 0 37.396 37.085 37.396 33.99 27.954 31.118 24.507 27.671 24.966 23.656 21.169 22.89 21.488 20.82 15.887 19.532 14.904 14.144 11.681 9.869 15.743 9.55 16.557 8.72 18.679 8.407 23.869" fill="#4e92a5" stroke-width="0"/>
    <polygon points="20.112 17.617 20.82 15.887 21.836 13.404 23.368 13.021 24.134 11.489 23.751 10.34 24.517 7.851 26.24 6.894 26.623 5.553 24.9 4.787 24.517 1.34 23.176 0 22.41 8.809 19.532 14.904 19.155 15.702 20.112 17.617" fill="#4e92a5" stroke-width="0"/>
    <polygon points="9.856 17.106 9.55 16.557 6.151 10.443 4.804 1.704 3.555 3.131 3.401 6.595 1.732 7.474 2.203 8.786 3.986 9.627 4.915 12.06 4.609 13.232 5.475 14.71 7.029 14.991 8.769 18.553 9.027 19.08 9.856 17.106" fill="#4e92a5" stroke-width="0"/>
  </g>
  <polygon points="26.5 23.821 23.656 21.12 22.89 21.44 22.073 19.17 2.023 36.817 26.46 23.821" fill="url(#b)" stroke-width="0"/>
</svg>