<?xml version="1.0" encoding="UTF-8"?>
<svg id="a" data-name="レイヤー 1" xmlns="http://www.w3.org/2000/svg" width="59mm" height="52.341mm" viewBox="0 0 167.244 148.367">
  <g>
    <polygon points="69.144 44.052 71.473 43.153 70.876 41.34 68.571 40.047 75.247 .262 73.842 .946 72.264 4.401 65.295 39.519 62.919 40.157 62.875 42.093 66.921 44.542 69.144 44.052" fill="#4e92a5" stroke-width="0"/>
    <polygon points="68.676 90.863 72.633 82.693 71.708 78.225 71.07 76.693 71.07 74.778 70.463 72.863 69.167 70.303 69.461 68.267 67.642 68.076 70.929 56.836 73.533 56.032 76.98 49.672 77.698 49.887 78.712 44.787 80.249 42.034 84.702 38.577 91.017 43.381 92.37 49.494 93.172 49.281 96.167 54.142 98.357 54.097 101.804 57.735 103.718 65.778 101.229 66.876 99.881 73.623 94.974 82.054 100.17 89.835 102.008 90.065 103.591 95.267 105.225 95.58 108.601 104.593 106.112 106.22 104.421 106.82 104.867 111.544 104.753 119.433 103.144 124.182 101.146 126.793 102.378 138.607 105.825 142.948 106.846 146.267 105.314 148.367 100.846 148.367 97.144 145.246 96.953 142.986 97.272 138.99 94.827 128.171 89.427 125.912 86.995 121.661 83.682 113.388 81.691 118.214 77.357 121.373 75.825 132.225 76.974 135.799 76.463 138.097 69.442 140.522 62.548 139.884 63.314 136.693 66.761 136.182 70.336 132.99 69.825 120.863 65.612 117.671 64.802 107.759 63.187 107.076 64.591 98.522 65.931 97.693 67.272 91.501 68.676 90.863" fill="#4e92a5" stroke-width="0"/>
    <polygon points="65.211 42.091 61.956 46.303 62.339 49.176 60.807 50.133 61.19 52.048 56.977 65.644 58.126 67.942 59.849 71.197 62.913 69.282 65.977 70.814 76.093 70.565 78.041 58.176 69.455 59.842 67.892 52.622 68.849 51.282 68.275 48.984 70.19 46.303 69.041 42.665 65.211 42.091" fill="#4e92a5" stroke-width="0"/>
    <polygon points="70.987 49.374 76.987 53.331 80.625 52.182 78.902 60.991 75.072 60.608 62.306 50.012 70.349 47.969 70.987 49.374" fill="#4e92a5" stroke-width="0"/>
    <polygon points="89.202 43.46 92.457 36.567 93.223 27.758 94.563 29.099 94.946 32.546 96.67 33.312 96.287 34.652 94.563 35.609 93.797 38.099 94.18 39.248 93.414 40.78 91.882 41.163 90.159 45.375 89.202 43.46" fill="#4e92a5" stroke-width="0"/>
    <polygon points="80.163 44.418 76.908 37.524 76.142 28.716 74.801 30.056 74.418 33.503 72.695 34.269 73.078 35.609 74.801 36.567 75.567 39.056 75.184 40.205 75.95 41.737 77.482 42.12 79.206 46.333 80.163 44.418" fill="#4e92a5" stroke-width="0"/>
  </g>
  <rect width="167.244" height="148.367" fill="none" stroke-width="0"/>
</svg>