<?xml version="1.0" encoding="UTF-8"?>
<svg id="a" data-name="レイヤー 1" xmlns="http://www.w3.org/2000/svg" width="59mm" height="86mm" xmlns:xlink="http://www.w3.org/1999/xlink" viewBox="0 0 167.244 243.78">
  <defs>
    <linearGradient id="b" data-name="名称未設定グラデーション 11" x1="2058.114" y1="5676.547" x2="2143.153" y2="5676.547" gradientTransform="translate(2177.152 -5493.712) rotate(-180) scale(1 -1)" gradientUnits="userSpaceOnUse">
      <stop offset="0" stop-color="#c93941"/>
      <stop offset=".179" stop-color="rgba(201, 57, 65, .984)" stop-opacity=".984"/>
      <stop offset=".323" stop-color="rgba(201, 57, 65, .934)" stop-opacity=".934"/>
      <stop offset=".455" stop-color="rgba(201, 57, 65, .85)" stop-opacity=".85"/>
      <stop offset=".579" stop-color="rgba(201, 57, 65, .732)" stop-opacity=".732"/>
      <stop offset=".699" stop-color="rgba(201, 57, 65, .578)" stop-opacity=".578"/>
      <stop offset=".814" stop-color="rgba(201, 57, 65, .39)" stop-opacity=".39"/>
      <stop offset=".925" stop-color="rgba(201, 57, 65, .172)" stop-opacity=".172"/>
      <stop offset="1" stop-color="#c93941" stop-opacity="0"/>
    </linearGradient>
    <linearGradient id="c" data-name="名称未設定グラデーション 11" x1="-1488.317" y1="5798.437" x2="-1403.278" y2="5798.437" gradientTransform="translate(1536.513 5859.381) scale(1 -1)" xlink:href="#b"/>
  </defs>
  <rect x="0" y="0" width="167.244" height="243.78" rx="8.504" ry="8.504" fill="#dbd5c4" stroke-width="0"/>
  <polygon points="33.999 121.89 60.219 121.89 119.038 180.709 55.967 243.78 33.999 243.78 33.999 121.89" fill="url(#b)" opacity=".3" stroke-width="0"/>
  <path d="M0,235.276v-113.386h26.912s92.126,92.126,92.126,92.126l-29.764,29.764H8.504c-4.697,0-8.504-3.807-8.504-8.504Z" fill="#c93941" stroke-width="0"/>
  <polygon points="111.267 121.89 133.235 121.89 133.235 0 107.015 0 48.196 58.819 111.267 121.89" fill="url(#c)" opacity=".3" stroke-width="0"/>
  <path d="M152.777,144.14c0,.469-.54.685-1.171.702-.54,0-1.025-.144-1.025-.594v-.072l.09-.864c0-.396.018-.954.018-1.477-1.314.864-2.862,1.53-4.429,1.801h-.019c.324,1.099,2.755,1.423,5.401,1.423,2.863,0,5.996-.396,6.933-.595.036,0,.054-.018.09-.018.018,0,.036.018.036.036,0,.035-.019.09-.108.18-.18.198-.99,1.026-1.134,1.458-.217.612-.522.793-1.062.847-1.08.108-2.557.252-4.052.252-3.043,0-6.176-.612-6.373-3.421-.522.9-1.711,2.143-2.359,2.845.019.145.036.252.036.342,0,.217-.054.324-.162.324-.324,0-1.872-1.891-1.872-2.484,0-.09.071-.072.252-.126.504-.145,2.124-.612,2.358-.757v-4.627h-.648s-.918.072-1.332.144c-.108-.107-.306-.504-.306-.72.396.072,1.116.09,1.44.09h.737c.145-.252.738-.828.829-.9.054-.036.071-.036.107-.036.252,0,1.783.973,1.783,1.423,0,.18-.162.342-.595.45-.036.486-.054,1.17-.054,1.837,0,.773.018,1.53.018,1.836,1.387-.558,3.403-2.089,4.43-3.781h-.522v.271c0,.54-1.134.63-1.44.63-.378,0-.702-.107-.702-.432v-.072c.126-1.044.126-2.251.126-2.341v-.252c0-.252-.036-.648-.09-1.044,0-.072-.018-.126-.018-.162,0-.055.018-.072.107-.072.181,0,1.368.144,2.323.702h3.205c.126-.18.558-.774.756-.774.306,0,1.854.757,1.854,1.135,0,.162-.18.342-.468.414v.162c0,.252.018.594.035.864l.072.792c0,.18-.126.288-.288.378.054.036,1.225.666,1.225.99,0,.126-.126.216-.342.216-.072,0-.145-.018-.234-.035-.433.252-1.044.485-1.62.666,2.143.342,2.34,1.242,2.34,1.62,0,.648-.468,1.152-1.08,1.152-.378,0-.756-.18-1.026-.648-.504-.9-1.494-1.584-2.215-1.944.019.307.019.486.145,2.232v.036ZM143.198,132.023c1.477,0,3.385.306,3.385,1.944,0,.828-.611,1.404-1.314,1.404-.414,0-.828-.233-.972-.738-.307-1.08-.45-1.729-1.387-2.503-.036-.018-.054-.054-.054-.071,0-.019.054-.036.107-.036h.234ZM151.445,135.715c-.757,0-3.457.018-4.628.126-.126-.108-.324-.415-.324-.648.919.107,3.098.126,4.321.126v-1.639c-1.062.018-2.467.054-3.259.126-.108-.108-.324-.414-.324-.648.792.091,2.395.108,3.583.126v-.414c0-.45-.018-.738-.054-1.152-.018-.162-.054-.252-.054-.324,0-.071.054-.071.432-.071h.072c.612,0,2.484.198,2.484.63,0,.145-.18.307-.666.433,0,.144,0,.485-.018.899h.846c.271-.378.648-1.025.954-1.296.055-.036.091-.054.162-.054.343,0,1.927,1.206,1.927,1.584,0,.162-.252.162-.378.162h-3.511c0,.685-.019,1.404-.019,1.639h1.801c.774-1.152.918-1.351,1.116-1.351.306,0,1.908,1.188,1.908,1.585,0,.162-.233.162-.378.162h-5.995ZM153.749,137.263h-3.367c-.072.036-.162.072-.288.108v1.891s3.637,0,3.637,0c.019-.162.019-.288.019-.595v-1.404ZM154.361,140.035c-.288,0-.558-.09-.611-.378h-.379v.019c0,.107-.18.216-.504.27l-.342.379c.107.018.648.161.648.378,0,.126-.145.252-.541.306v.595c.126,0,.288-.019.45-.019.234,0,.486.019.757.036.288-.378.647-1.026.882-1.603-.09.018-.18.018-.234.018h-.126Z" fill="#c93941" stroke-width="0"/>
  <path d="M144.35,157.315h-.486s-1.008.072-1.458.144c-.126-.107-.342-.504-.342-.72.576.108,1.782.108,1.782.108h.414c.18-.379.685-.828.774-.9.054-.036.072-.036.107-.036.343,0,1.999.937,1.999,1.422,0,.162-.162.324-.648.433-.054.486-.054,1.17-.054,1.818,0,.883.018,1.692.018,1.891.324,1.17,2.575,1.513,5.06,1.513,2.881,0,6.086-.45,6.95-.63.036,0,.054-.019.09-.019.019,0,.036.019.036.036s-.018.072-.126.18c-.144.162-.918.828-1.152,1.459-.233.594-.45.936-1.17,1.008-1.063.09-2.413.217-3.781.217-2.971,0-5.978-.612-6.158-3.512-.576.918-1.639,2.179-2.341,2.881.019.108.036.198.036.271,0,.233-.09.342-.216.342-.468,0-1.963-2.034-1.963-2.503,0-.09.09-.036.288-.09.559-.144,2.089-.612,2.341-.756v-4.556ZM143.342,150.113c.99,0,3.547.145,3.547,1.944,0,.811-.648,1.351-1.351,1.351-.432,0-.882-.216-1.026-.72-.324-1.062-.468-1.693-1.44-2.467-.036-.036-.054-.055-.054-.072s.036-.019.09-.036h.234ZM155.999,155.857c.252,0,1.818,1.35,1.818,1.891,0,.107-.071.161-.197.161s-.307-.054-.54-.161c-.631.216-1.495.414-2.197.521,1.297.612,2.161,1.423,2.161,2.287,0,.648-.469,1.296-1.171,1.296-.468,0-.9-.306-1.152-.99-.198-.54-.504-1.062-.864-1.548-1.314.864-3.853,2.16-4.934,2.61,0,.054.019.09.019.144,0,.217-.09.415-.271.415-.107,0-.27-.091-.468-.36-.828-1.171-1.099-2.269-.954-2.269.036,0,.107.018.216.018.126,0,.234-.018,1.152-.126,0-1.494.018-3.421.018-5.077,0-3.277-.036-3.854-.144-4.646-.019-.145-.036-.234-.036-.307s.036-.107.09-.107c.702,0,1.944.521,2.484.846h2.737c.162-.252.738-.882.882-.882.36,0,1.693.954,1.693,1.368,0,.216-.181.378-.522.469v.432c0,.99.072,2.719.09,3.115.019.252.054.702.054.9h.036ZM153.749,155.119c.018-.307.018-1.099.018-1.945h-3.043c0,.667-.018,1.423-.018,2.197h3.043s0-.252,0-.252ZM153.731,156.001l.019-.216h-3.043s0,3.601,0,3.601c1.062-.18,2.106-.396,2.772-.54-.468-.54-1.026-.99-1.584-1.296-.145-.091-.253-.145-.253-.181,0-.018.019-.018.091-.018.468,0,1.71.324,2.467.63.432-.396,1.025-1.044,1.422-1.584-.288.18-.738.233-1.008.252-.486,0-.883-.126-.883-.612v-.036ZM151.012,150.869c-.072.036-.144.091-.252.126-.018.307-.018.955-.036,1.765h3.061c0-.756.019-1.494.019-1.891h-2.791Z" fill="#c93941" stroke-width="0"/>
  <g>
    <line x1="97.792" y1="180.709" x2="97.792" y2="211.847" fill="none" stroke="#fff" stroke-miterlimit="10" stroke-width="2"/>
    <polygon points="89.613 205.22 91.078 203.856 97.791 211.079 104.505 203.856 105.97 205.22 97.791 214.016 89.613 205.22" fill="#fff" stroke-width="0"/>
  </g>
  <rect x="106.953" y="209.01" width="10.012" height="10.012" transform="translate(-118.54 141.852) rotate(-45)" fill="#fff" stroke-width="0"/>
  <rect x="106.953" y="175.703" width="10.012" height="10.012" transform="translate(-94.989 132.096) rotate(-45)" fill="#fff" stroke-width="0"/>
  <rect x="106.953" y="142.396" width="10.012" height="10.012" transform="translate(-71.437 122.34) rotate(-45)" fill="#fff" stroke-width="0"/>
  <path d="M167.244,8.504C167.244,3.807,163.437,0,158.74,0h-85.032l-25.512,25.512,96.378,96.378h22.67V8.504Z" fill="#c93941" stroke-width="0"/>
  <rect x="50.27" y="20.506" width="10.012" height="10.012" transform="translate(-1.85 46.558) rotate(-45)" fill="#fff" stroke-width="0"/>
  <rect x="50.27" y="53.813" width="10.012" height="10.012" transform="translate(-25.401 56.313) rotate(-45)" fill="#fff" stroke-width="0"/>
  <rect x="50.27" y="87.12" width="10.012" height="10.012" transform="translate(-48.953 66.068) rotate(-45)" fill="#fff" stroke-width="0"/>
  <line x1="55.276" y1="0" x2="55.276" y2="121.89" fill="#fff" stroke="#fff" stroke-miterlimit="10" stroke-width=".465"/>
  <g>
    <line x1="69.442" y1="58.819" x2="69.442" y2="27.681" fill="none" stroke="#fff" stroke-miterlimit="10" stroke-width="2"/>
    <polygon points="77.621 34.308 76.157 35.672 69.444 28.448 62.729 35.672 61.264 34.308 69.444 25.512 77.621 34.308" fill="#fff" stroke-width="0"/>
  </g>
  <circle cx="69.442" cy="58.819" r="2.835" fill="#fff" stroke-width="0"/>
  <circle cx="97.792" cy="180.709" r="2.835" fill="#fff" stroke-width="0"/>
  <line x1=".027" y1="121.89" x2="167.244" y2="121.89" fill="none" stroke="#fff" stroke-miterlimit="10" stroke-width="2"/>
  <line x1="111.959" y1="121.89" x2="111.959" y2="243.78" fill="#fff" stroke="#fff" stroke-miterlimit="10" stroke-width=".465"/>
  <path d="M21.622,21.944c0,.414-.504.72-1.459.72-.521,0-.954-.107-.954-.594v-.054c.162-3.691.181-3.998.181-4.952,0-.666-.036-1.351-.091-1.836h-1.746c-.234,4.501-2.179,6.104-3.835,6.896.773.757,2.664.99,4.717.99,2.881,0,6.086-.468,6.95-.647.036,0,.054-.019.09-.019.019,0,.036.019.036.036s-.018.072-.126.18c-.162.181-.937.919-1.152,1.459-.198.486-.342.936-1.17,1.008-1.099.108-2.485.234-3.854.234-2.862,0-5.708-.612-6.086-3.529-.576.918-1.8,2.215-2.503,2.917.019.09.019.162.019.234,0,.27-.09.396-.234.396-.432,0-1.782-2.124-1.782-2.557,0-.09.09-.036.288-.09.558-.144,2.106-.612,2.358-.756v-4.556h-.486s-1.008.072-1.458.144c-.126-.107-.342-.504-.342-.72.576.108,1.782.108,1.782.108h.414c.18-.379.685-.828.774-.9.054-.036.072-.036.107-.036.162,0,1.999.864,1.999,1.422,0,.162-.162.324-.648.433-.054.486-.054,1.17-.054,1.818,0,.883.018,1.692.018,1.891.036.126.091.234.162.342,1.477-1.224,1.945-3.366,1.945-6.5,0-1.854-.198-3.853-.234-3.961-.019-.072-.054-.126-.054-.162,0-.018.018-.018.054-.018.756,0,1.963.432,2.286.558.505-.252,2.503-1.296,3.548-2.412.071-.072.036-.145.126-.145.378,0,2.502,1.477,2.502,2.071,0,.162-.126.27-.359.27-.145,0-.324-.054-.559-.162-1.278.45-3.205.738-4.879.954-.091.055-.217.091-.324.126,0,.036-.019.127-.019,1.387.019.145.019.307.019.45,0,.145,0,.288-.019.433h4.088c.071-.108.954-1.621,1.278-1.621.306,0,2.053,1.368,2.053,1.873,0,.162-.217.18-.343.18h-3.061c.162.036.306.09.378.145.108.054.162.144.162.233,0,.145-.162.307-.648.414,0,.145-.018.414-.018.721,0,.216,0,3.312.162,5.149v.036ZM10.35,10.186c1.26,0,3.511.234,3.511,1.999,0,.72-.576,1.386-1.368,1.386-.468,0-.918-.233-1.08-.756-.324-1.08-.469-1.746-1.495-2.521-.036-.036-.054-.055-.054-.072,0-.036.054-.036.108-.036h.378Z" fill="#c93941" stroke-width="0"/>
  <path d="M21.874,41.258c0,1.746-2.106,2.376-2.827,2.376-.306,0-.576-.107-.774-.468-.27-.486-1.314-.9-1.71-1.062-.216-.09-.307-.126-.307-.162,0-.018.055-.018.145-.018h.18c.234.018.469.018.721.018,1.494,0,2.412-.144,2.431-1.08v-3.276c0-.522-.055-1.297-.108-1.657l-5.888-.018c-.72,0-3.133.072-4.465.144-.091-.09-.307-.396-.307-.666,1.765.126,5.149.126,5.149.126h7.419c.342-.558,1.08-1.458,1.17-1.513.036-.035.09-.054.126-.054.468,0,2.215,1.297,2.215,1.711,0,.198-.216.27-.342.27h-3.115c.666.108.72.288.72.36,0,.108-.126.252-.485.432-.019.234-.019.559-.019.919,0,1.242.054,2.971.072,3.547v.072ZM17.57,32.309c-.054.162-.107.307-.18.469.288-.019.576-.036.864-.036,1.639,0,3.205.45,3.205,1.53,0,.864-.721,1.044-.937,1.044-.396,0-.738-.306-1.026-.666-.486-.594-1.242-1.278-2.251-1.62-.702,1.26-2.25,2.07-5.869,2.232h-.181c-.18,0-.252-.018-.252-.054s.108-.072.343-.108c1.998-.36,3.583-.811,4.159-2.791-.828.019-1.927.055-2.737.108-.107-.126-.306-.45-.306-.648.81.108,2.232.126,3.133.126.054-.288.107-.612.107-.972.019-.234.019-.486.019-.631,0-.162.018-.162.198-.162h.107c.631,0,1.854.126,2.215.252.145.055.234.145.234.253,0,.144-.162.288-.595.359-.035.324-.09.612-.144.9h1.206c.252-.414.937-1.368,1.171-1.368.306,0,1.062.559,1.35.811.162-.396.379-.973.486-1.477h-9.488c.072.27.107.576.107.864,0,1.584-1.242,2.215-1.944,2.215-.72,0-1.261-.522-1.261-1.081,0-.306.162-.647.576-.9.883-.54,1.711-1.242,1.747-2.269,0-.107,0-.144.018-.144.055,0,.36.288.631.937h3.547c0-.919-.054-1.657-.072-1.819-.018-.216-.054-.306-.054-.378,0-.054.198-.071.558-.071.829,0,2.629.216,2.629.647,0,.162-.162.324-.647.469-.036.306-.055.899-.055,1.152h3.619c.198-.307.612-.757.738-.847.036-.018.072-.036.126-.036.145,0,2.232,1.135,2.232,2.143,0,.378-.252.721-.846.721-.126,0-.252,0-.396-.036-.18-.054-.396-.072-.612-.072-.378,0-.828.09-1.296.307.107.107.18.197.216.27.054.09.072.162.072.198,0,.18-.216.18-.342.18h-4.124ZM18.11,40.376c0,.54-.611.648-1.116.648h-.144c-.414,0-.702-.09-.702-.558,0-.091,0-.181.018-.289h-2.232v.811c0,.648-1.351.648-1.404.648-.433,0-.721-.126-.721-.468v-.055c.162-1.944.162-2.269.162-2.557v-.396c0-.396,0-.919-.071-1.351,0-.091-.019-.145-.019-.181,0-.071.036-.071.234-.071.324,0,1.98.414,2.232.666h1.746c.486-.685.667-.702.738-.702.108,0,1.747.666,1.747,1.17,0,.198-.198.36-.612.469.018.359.018.737.054,1.116.036.288.09.882.09,1.08v.018ZM16.184,39.547c0-.414.018-.918.018-1.351,0-.216,0-.414-.018-.576h-1.945l-.27.108c0,.306-.036.99-.036,1.44v.612h2.251v-.234Z" fill="#c93941" stroke-width="0"/>
  <path d="M31.799,12.539v-.112c.412-.094.732-.263.96-.506.229-.244.342-.54.343-.889,0-.381-.161-.684-.482-.908s-.753-.336-1.295-.336c-.604,0-1.071.131-1.402.393-.33.262-.495.623-.495,1.084,0,.248.051.476.153.684.103.207.269.418.496.632h-.216c-.556-.405-.834-.958-.834-1.657,0-.627.194-1.137.583-1.528s.893-.588,1.513-.588c.629,0,1.154.211,1.577.634s.635.949.635,1.578c0,.257-.058.548-.172.871-.05.139-.075.233-.075.284,0,.1.071.185.212.253v.112h-1.5Z" fill="#c93941" stroke-width="0"/>
  <path d="M33.515,14.081v.119h-2.276v.014c.226.137.389.282.488.438.101.155.15.337.15.547,0,.287-.09.515-.271.682-.181.168-.427.252-.736.252h-1.142c-.148,0-.257.031-.325.094s-.118.169-.15.319h-.119v-1.616h.119c.041.156.098.265.17.322.071.059.181.088.326.088h1.066c.424,0,.636-.159.636-.476,0-.116-.031-.224-.094-.323-.062-.099-.177-.212-.341-.34h-1.302c-.139,0-.241.03-.308.092-.066.061-.117.168-.154.322h-.119v-1.607h.119c.037.15.092.255.164.313.073.058.184.087.332.087h3.138c.125,0,.22-.029.282-.087.062-.059.113-.162.152-.312h.119l.075,1.073Z" fill="#c93941" stroke-width="0"/>
  <path d="M33.061,17.334c.125,0,.232.045.32.135.09.09.134.199.134.327,0,.125-.044.232-.132.321s-.195.133-.322.133c-.128,0-.237-.044-.327-.133s-.135-.196-.135-.321c0-.128.046-.237.137-.327s.199-.135.325-.135ZM31.877,18.069v.119h-2.177c-.265,0-.414.143-.448.427h-.119v-1.66h.119c.034.178.085.295.15.354.066.058.184.087.353.087h1.408c.162,0,.274-.03.339-.092.063-.062.113-.189.15-.383h.119l.105,1.148Z" fill="#c93941" stroke-width="0"/>
  <path d="M29.133,18.991h.119c.041.15.094.255.157.313.064.058.163.087.298.087h3.199c.118,0,.207-.028.265-.084.059-.056.108-.161.149-.315h.119l.075,1.073v.119h-2.96l.677.937c.053.07.12.105.202.106.065,0,.119-.026.158-.077.04-.052.061-.122.061-.21h.119v1.455h-.12c-.024-.175-.06-.316-.105-.425s-.126-.244-.242-.408l-.487-.691-1.304,1.245c-.096.086-.16.161-.193.225-.033.064-.056.152-.067.264h-.119v-1.206l1.261-1.214h-.602c-.182,0-.303.021-.363.064-.061.044-.119.154-.177.332h-.119v-1.59Z" fill="#c93941" stroke-width="0"/>
  <path d="M29.027,23.639c0-.219.068-.405.204-.559.136-.154.299-.23.49-.23s.351.076.477.229c.127.152.254.472.381.957.062.234.112.403.15.506.244,0,.421-.053.53-.157s.164-.271.164-.499c0-.357-.147-.622-.44-.793v-.103c.284.07.505.209.661.415s.233.462.233.768c0,.354-.086.635-.26.846-.173.211-.415.316-.728.316h-1.244c-.234,0-.353.054-.353.161,0,.111.082.181.246.208v.112c-.164-.014-.29-.076-.379-.188s-.134-.264-.134-.455c0-.161.029-.292.088-.391.058-.1.153-.182.285-.248l-.059-.062c-.209-.237-.314-.515-.314-.834ZM29.587,24.535h1.002c-.148-.349-.275-.579-.383-.692-.107-.112-.245-.169-.414-.169-.144,0-.259.033-.347.101s-.132.155-.132.265c0,.148.092.313.273.496Z" fill="#c93941" stroke-width="0"/>
  <path d="M30.751,26.168v2.092h-.589v-2.092h.589Z" fill="#c93941" stroke-width="0"/>
  <path d="M31.772,31.901h-.12c-.043-.164-.104-.284-.183-.359-.078-.075-.243-.168-.493-.277l-3.039-1.33c-.321-.139-.547-.293-.679-.461-.131-.169-.196-.391-.196-.666,0-.084.005-.158.014-.223l.796.161c-.041.125-.061.244-.061.355,0,.234.088.433.266.595s.495.328.95.499l2.038-.967c.209-.099.35-.189.42-.272s.127-.206.168-.37h.119v1.613h-.119c-.023-.164-.089-.246-.198-.246-.072,0-.183.033-.331.104l-1.156.56.848.362c.214.093.383.14.506.14.178,0,.288-.104.332-.314h.119v1.098Z" fill="#c93941" stroke-width="0"/>
  <path d="M30.456,35.534c-.405,0-.745-.151-1.019-.453s-.41-.699-.41-1.191.137-.89.409-1.194c.272-.304.612-.456,1.02-.456.254,0,.494.07.722.21.228.141.401.333.521.578.119.245.179.532.179.863,0,.494-.137.892-.41,1.192s-.61.451-1.012.451ZM30.455,34.659c.393,0,.696-.066.912-.2.216-.133.323-.323.323-.568,0-.253-.11-.446-.332-.578s-.538-.198-.951-.198c-.363,0-.652.07-.868.21-.216.141-.323.329-.323.565,0,.242.109.431.327.566s.521.203.912.203Z" fill="#c93941" stroke-width="0"/>
  <path d="M31.877,37.181h-.841v.014c.562.251.841.542.841.875,0,.183-.074.338-.224.469l-.798-.175c.228-.239.342-.438.342-.595,0-.116-.027-.218-.082-.304-.055-.087-.152-.182-.294-.284h-1.08c-.169,0-.284.029-.346.089s-.109.179-.144.358h-.119v-1.682h.119c.041.174.095.29.161.351s.176.091.328.091h1.395c.166,0,.29-.038.372-.114s.131-.199.145-.367h.119l.105,1.155v.119Z" fill="#c93941" stroke-width="0"/>
  <path d="M33.061,39.214c.125,0,.232.045.32.135.09.09.134.199.134.327,0,.125-.044.232-.132.321s-.195.133-.322.133c-.128,0-.237-.044-.327-.133s-.135-.196-.135-.321c0-.128.046-.237.137-.327s.199-.135.325-.135ZM31.877,39.95v.119h-2.177c-.265,0-.414.143-.448.427h-.119v-1.66h.119c.034.178.085.295.15.354.066.058.184.087.353.087h1.408c.162,0,.274-.03.339-.092.063-.062.113-.189.15-.383h.119l.105,1.148Z" fill="#c93941" stroke-width="0"/>
  <path d="M133.941,133.315h-.119v-1.921h.119c.039.201.099.337.178.407.08.07.226.105.438.105h3.128s0-.409,0-.409c0-.248-.054-.443-.161-.588-.106-.145-.276-.252-.509-.322v-.119l.987.041v.126c-.057.089-.085.224-.085.403v2.643c0,.185.028.318.085.403v.126l-.987.041v-.119c.232-.071.402-.179.509-.322.107-.145.161-.341.161-.589v-.408s-3.135,0-3.135,0c-.2,0-.343.035-.429.105-.085.07-.146.203-.18.396Z" fill="#c93941" stroke-width="0"/>
  <path d="M135.144,137.871c-.405,0-.745-.151-1.019-.453s-.41-.699-.41-1.191.137-.89.409-1.194c.272-.304.612-.456,1.02-.456.254,0,.494.07.722.21.228.141.401.333.521.578.119.245.179.532.179.863,0,.494-.137.892-.41,1.192s-.61.451-1.012.451ZM135.143,136.996c.393,0,.696-.066.912-.2.216-.133.323-.323.323-.568,0-.253-.11-.446-.332-.578s-.538-.198-.951-.198c-.363,0-.652.07-.868.21-.216.141-.323.329-.323.565,0,.242.109.431.327.566s.521.203.912.203Z" fill="#c93941" stroke-width="0"/>
  <path d="M135.439,138.356v2.092h-.589s0-2.092,0-2.092h.588Z" fill="#c93941" stroke-width="0"/>
  <path d="M136.566,142.082h-.646s0,.014,0,.014c.431.253.646.587.646,1.002s-.087.478-.261.655c-.175.178-.407.268-.699.268h-1.155c-.166,0-.283.029-.351.088-.067.06-.12.168-.159.325h-.119v-1.624h.119c.034.155.087.264.156.325s.176.093.319.093h1.094c.198,0,.353-.043.463-.129.11-.085.166-.205.166-.36,0-.271-.153-.49-.462-.656h-1.233c-.157,0-.269.027-.335.082s-.122.157-.168.308h-.119v-1.596h.119c.039.154.092.262.157.322.066.061.166.091.298.091h1.477c.15,0,.26-.035.328-.104s.115-.192.141-.37h.119l.105,1.148v.119Z" fill="#c93941" stroke-width="0"/>
  <path d="M135.144,148.162c-.405,0-.745-.151-1.019-.453s-.41-.699-.41-1.191.137-.89.409-1.194c.272-.304.612-.456,1.02-.456.254,0,.494.07.722.21.228.141.401.333.521.578.119.245.179.532.179.863,0,.494-.137.892-.41,1.192s-.61.451-1.012.451ZM135.143,147.287c.393,0,.696-.066.912-.2.216-.133.323-.323.323-.568,0-.253-.11-.446-.332-.578s-.538-.198-.951-.198c-.363,0-.652.07-.868.21-.216.141-.323.329-.323.565,0,.242.109.431.327.566s.521.203.912.203Z" fill="#c93941" stroke-width="0"/>
  <path d="M133.822,148.616h.119c.041.15.094.255.157.313.064.058.163.087.298.087h3.199c.118,0,.207-.028.265-.084.059-.056.108-.161.149-.315h.119s.075,1.073.075,1.073v.119h-2.96l.677.937c.053.07.12.105.202.106.065,0,.119-.026.158-.077.04-.052.061-.122.061-.21h.119v1.455h-.12c-.024-.175-.06-.316-.105-.425s-.126-.244-.242-.408l-.487-.691-1.304,1.245c-.096.086-.16.161-.193.225-.033.064-.056.152-.067.264h-.119v-1.206l1.261-1.214h-.602c-.182,0-.303.021-.363.064-.061.044-.119.154-.177.332h-.119v-1.59Z" fill="#c93941" stroke-width="0"/>
  <path d="M136.566,153.679v.119s-2.177,0-2.177,0c-.265,0-.414.143-.448.427h-.119v-1.66h.119c.034.178.085.295.15.354.066.058.184.087.353.087h1.408c.162,0,.274-.03.339-.092.063-.062.113-.189.15-.383h.119l.105,1.148ZM137.749,152.943c.125,0,.232.045.32.135.09.09.134.199.134.327,0,.125-.044.232-.132.321s-.195.133-.322.133c-.128,0-.237-.044-.327-.133s-.135-.196-.135-.321c0-.128.046-.237.137-.327s.199-.135.325-.135Z" fill="#c93941" stroke-width="0"/>
</svg>