<?xml version="1.0" encoding="UTF-8"?>
<svg id="a" data-name="レイヤー 1" xmlns="http://www.w3.org/2000/svg" width="59mm" height="86mm" viewBox="0 0 167.244 243.78">
  <polygon points="72.796 43.796 70.165 47.882 70.697 48.241 73.087 46.933 72.796 43.796" fill="#c93941" stroke-width="0"/>
  <path d="M158.74,0H10.012v9.658s5.011,5.011,5.011,5.011h24.199v24.199l21.12,21.12.403-.403.925-1.783.745-2.272-2.468-2.349-1.083-3.25-3.521-.812,1.083-3.521.812-2.437,12.593-6.635,1.083-1.625,1.76.406,1.76-2.302,4.071-.522-.444-1.805,1.4-1.338,2.131,1.228,29.76-19.904,3.559-1.328,1.477.51-32.853,23.412.716,2.545-.859,1.704-1.991-.881-1.145,2.202-2.527.421,1.461.869-.542,1.444,1.091,5.321,2.935-.872.355.66,3.692-2.467c-.067-2.698.92-5.417,2.979-7.475,3.197-3.197,7.985-3.825,11.814-1.896-2.918-.612-6.077.209-8.343,2.475-1.596,1.596-2.473,3.636-2.641,5.723l5.804,4.351.713,4.107-.548.859c1.997.724,4.196.73,6.198.017-2.166,1.49-4.777,2.044-7.278,1.677l-1.738,2.726.717.417-1.319,5.555,1.58,1.516-.135,5.01-4.333,7.041-2.537-.984-5.724,3.818-9.432,2.492-1.828,9.176,1.137,1.462-2.559,4.797.935,1.377-3.986,8.76-2.911-.609-1.62-.771-3.024,3.656-5.66,5.497-4.495,2.221-3.259.433-7.483,9.226-.632,5.506-1.625,3.069-2.568.402-3.159-3.159-.411-4.825,1.462-1.733,3.051-2.6,5.922-9.379-2.221-5.416,1.286-4.726,3.507-8.192-4.82,2.004-5.299-.83-8.756,6.59-1.715,3.34-1.986,1.264-6.68-3.25-4.423-5.326,2.798-1.715,2.798,2.076,4.784.271,8.214-8.937-.722-5.236,6.436-7.583-.659-1.625,7.041-5.055,1.535.361,5.326-3.43,1.444.542,8.576-2.979,2.505-3.814.632-1.535.597-.597-21.12-21.12H14.669V15.023l-5.011-5.011H0s0,225.263,0,225.263c0,4.697,3.807,8.504,8.504,8.504h148.728v-9.658s-5.011-5.011-5.011-5.011h-24.199v-24.2l-21.191-21.192-1.626.525-.271,2.076-1.354,1.354-2.979-.451-.893,2.726-1.647,1.232,1.151,1.422-10.272,5.623-2.41-1.273-5.056,1.337-.442-.605-3.891,3.449-.611.267c.187,2.834-.793,5.731-2.959,7.897-3.197,3.197-7.985,3.825-11.814,1.896,2.918.612,6.077-.209,8.343-2.475,1.962-1.962,2.839-4.595,2.643-7.161l-4.989-2.772-1.264-3.972.483-1.05c-2.05-.8-4.329-.84-6.399-.103,2.15-1.479,4.738-2.035,7.222-1.684l1.312-2.85-.767-.316-.153-5.524-2.762-2.112.406-4.468,5.285-10.44,2.505,1.557,1.489.406.984.379,4.244-2.726.053-1.58,2.37-1.286,7.293-2.059,1.544-6.743-1.137-1.462,2.559-4.797-.935-1.377,2.943-6.905,2.911.609,1.62.771,4.067-5.511,5.66-5.497,4.495-2.221,3.259-.433,7.483-9.225.632-5.506,1.625-3.069,2.568-.402,3.159,3.159.411,4.825-1.462,1.733-3.051,2.6-5.922,9.379,2.221,5.416-1.286,4.726-3.507,8.192,4.82-2.004,5.299.83,8.756-6.59,1.715-3.34,1.986-1.264,6.68,3.25,4.423,5.326-2.798,1.715-2.798-2.076-4.784-.271-8.214,8.937.722,5.236-6.436,7.583.659,1.625-5.687,3.791-1.535-.361-1.151,1.783,1.572.551.319,1.765,31.549,16.925,2.843,2.518.244,1.544-36.098-18.009-2.816,2.383-1.002-.515-.975-1.462-2.518,2.094-7.317,2.362,21.011,21.011h24.199v24.199l5.011,5.011h9.659s0-225.263,0-225.263c0-4.697-3.807-8.504-8.504-8.504Z" fill="#c93941" stroke-width="0"/>
  <path d="M4.715,5.069l.354-.354,4.943,4.943V0s-1.508,0-1.508,0C3.807,0,0,3.807,0,8.504v1.508h9.659s-4.943-4.943-4.943-4.943Z" fill="#fff" stroke-width="0"/>
  <polygon points="38.869 39.222 59.988 60.342 60.342 59.988 39.222 38.869 39.222 39.222 38.869 39.222" fill="#fff" stroke-width="0"/>
  <polygon points="4.715 5.069 9.659 10.012 14.669 15.023 14.669 14.669 15.023 14.669 10.012 9.658 5.069 4.715 4.715 5.069" fill="#fff" stroke-width="0"/>
  <path d="M15.169,15.169v23.553h23.553V15.169H15.169ZM23.111,20.878c.997,1.166,3.485,3.654,3.485,3.654l.313.313.865-.793,1.178-1.178c.264-.264.493-.493.769-.841l.06-.06-.445-.445c-.481-.481-2.644-2.644-3.605-3.438,0-.12.096-.505.24-.649,1.01,1.178,3.906,4.099,3.906,4.099l3.943,3.943c.685-.157,2.139-.313,2.259-.193.277.277.517,2.656.24,2.933-.132.132-.3.012-.385-.073l-4.171-4.171c.072.169.06.277,0,.337-.12.12-.468.036-.697-.121-.373.373-1.791,1.743-2.489,2.32l1.815,1.815c.637-.18,1.947-.313,2.055-.301.037.012.084.036.108.06.277.277.637,2.608.289,2.957-.12.12-.3-.012-.385-.096l-3.846-3.846c-1.706,2.813-1.358,7.368-.24,9.857.084.156.108.252.084.276s-.108-.012-.277-.108c-.324-.18-1.407-.998-2.127-1.094-.301-.036-.553-.193-.733-.373-.169-.169-.289-.36-.337-.552-.349-1.695.313-5,3.45-8.186l-.156-.156c-2.969,2.44-6.78,3.846-12.296.132-.06-.037-.108-.084-.144-.12-.037-.037-.073-.073-.049-.096.012-.012.085.012.229.084,4.652,2.344,7.957.578,10.589-1.67l-.529-.529c-.481-.481-2.259-2.259-3.209-3.04,0-.12.072-.481.24-.649Z" fill="#c93941" stroke-width="0"/>
  <path d="M14.669,15.023v24.199h24.553V14.669H14.669v.354ZM38.722,38.722H15.169V15.169h23.553v23.553Z" fill="#fff" stroke-width="0"/>
  <path d="M26.609,25.096c-2.632,2.248-5.937,4.015-10.589,1.67-.144-.072-.216-.096-.229-.084-.023.023.012.059.049.096.036.036.084.084.144.12,5.517,3.714,9.328,2.308,12.296-.132l.156.156c-3.137,3.185-3.799,6.49-3.45,8.186.048.192.168.384.337.552.18.18.432.337.733.373.72.096,1.803.914,2.127,1.094.169.097.253.133.277.108s0-.12-.084-.276c-1.117-2.489-1.466-7.044.24-9.857l3.846,3.846c.084.084.265.216.385.096.349-.349-.012-2.68-.289-2.957-.024-.024-.072-.048-.108-.06-.108-.012-1.418.121-2.055.301l-1.815-1.815c.697-.577,2.116-1.947,2.489-2.32.229.157.577.241.697.121.06-.06.072-.168,0-.337l4.171,4.171c.084.084.253.204.385.073.277-.277.037-2.656-.24-2.933-.12-.12-1.574.036-2.259.193l-3.943-3.943s-2.896-2.921-3.906-4.099c-.144.144-.24.529-.24.649.961.794,3.125,2.958,3.605,3.438l.445.445-.06.06c-.276.348-.505.577-.769.841l-1.178,1.178-.865.793-.313-.313s-2.488-2.488-3.485-3.654c-.168.168-.24.529-.24.649.949.781,2.728,2.56,3.209,3.04l.529.529Z" fill="#dbd5c4" stroke-width="0"/>
  <path d="M162.528,238.711l-.354.354-4.943-4.943v9.658s1.508,0,1.508,0c4.697,0,8.504-3.807,8.504-8.504v-1.508h-9.659s4.943,4.943,4.943,4.943Z" fill="#fff" stroke-width="0"/>
  <polygon points="128.376 204.558 107.365 183.546 106.83 183.719 128.021 204.911 128.021 204.558 128.376 204.558" fill="#fff" stroke-width="0"/>
  <polygon points="162.528 238.711 157.585 233.767 152.574 228.757 152.574 229.11 152.221 229.11 157.232 234.122 162.175 239.064 162.528 238.711" fill="#fff" stroke-width="0"/>
  <path d="M138.438,213.456l.301-.325c-.805-.805-1.443-.264-4.207,2.5l1.238.589c.949-.949,1.923-1.971,2.668-2.765Z" fill="#c93941" stroke-width="0"/>
  <path d="M152.074,228.61v-23.553h-23.553v23.553h23.553ZM144.135,224.201c-.385-.505-1.046-1.19-1.539-1.707-1.057,1.082-1.959,1.984-2.139,2.164-.301.325-.445.493-.722.817-.12.144-.168.241-.204.277s-.084.036-.397-.277c-.456-.456-1.407-1.67-1.106-1.971.083-.084.3-.084.721.12.144-.119,1.262-1.214,2.525-2.451l-.097-.097c-.372.108-1.118.397-1.503.421-.036.012-.072,0-.096-.024-.204-.204-.132-1.791.168-2.091.12-.12.276-.012.348.059l1.455,1.455c1.238-1.238,2.56-2.536,3.197-3.174-.769-.432-1.418-.769-1.766-.925l-.613-.276c-.626.601-1.286,1.262-1.9,1.875.686.3,1.286.565,1.55.661.036.133.048.529-.036.685-.432-.264-1.13-.649-1.851-1.01-.938.938-1.683,1.683-1.766,1.791l-.193.193c-.229.229-.601.601-.782.854-.072.095-.119.168-.144.192-.036.036-.06.012-.229-.157l-.06-.06c-.192-.192-1.503-1.646-1.166-1.983.097-.097.3-.085.673.096.133-.084.925-.83,1.887-1.791l-.733-.349-.397-.18c-.745.745-2.596,2.596-3.1,3.246-.108.132-.157.229-.193.264-.024.024-.048.024-.24-.169l-.06-.06c-.36-.36-1.454-1.671-1.118-2.007.096-.096.301-.108.649.097.373-.301,1.058-.938,1.827-1.707l.493-.493-1.082-.505c-.252.108-.649.192-.889.192-.06.013-.12.025-.253-.108-.312-.337-.805-1.839-.468-2.175.156-.156.468-.012.733.156l.637-.637c1.996-1.996,2.308-2.212,3.173-2.5.18-.06,1.251-.385,1.839.204.169.168.3.445.133.758-.168.312-.204.588-.181.829l.217-.217c.409-.384,1.081.097,1.322.338.312.312.492.709.229.973l-.024.024c-.445.396-1.707,1.587-3.33,3.21l.204.084.925.445c1.743-1.743,3.955-3.955,4.303-4.328.421-.468.41-.914-.925-2.248-1.563-1.563-2.248-1.646-3.21-1.358-.481.144-1.467.601-1.875.841-.276.156-.408.216-.432.192-.012-.012.023-.072.108-.156.048-.048.121-.096.193-.168l.277-.277c1.106-1.106,1.189-1.262,1.118-1.887-.049-.264.095-.529.288-.722.877-.877,2.271-.204,4.868,2.393,1.214,1.214,2.837,2.933,1.299,4.471-.06.06-.12.12-.205.18-.312.264-1.141,1.046-2.067,1.971.481-.12,3.449.204,6.142,1.045.037-.06.084-.108.133-.156.156-.156.312-.217.408-.121.361.361-.421,2.633-.517,2.729-.06.06-.097-.048-.3-.18-.553-.361-1.19-.758-1.827-1.13-.721.721-2.236,2.211-3.57,3.545.434.409.914.865,1.503,1.358.012.157-.073.456-.241.625Z" fill="#c93941" stroke-width="0"/>
  <path d="M152.574,228.757v-24.199h-24.553v24.553h24.553v-.354ZM128.521,205.058h23.553v23.553h-23.553v-23.553Z" fill="#fff" stroke-width="0"/>
  <path d="M146.443,218.673c.637.372,1.274.769,1.827,1.13.204.132.24.24.3.18.096-.096.878-2.368.517-2.729-.096-.096-.252-.035-.408.121-.048.048-.096.096-.133.156-2.692-.842-5.661-1.166-6.142-1.045.925-.925,1.755-1.708,2.067-1.971.085-.06.145-.12.205-.18,1.539-1.538-.085-3.257-1.299-4.471-2.596-2.596-3.991-3.27-4.868-2.393-.193.193-.337.457-.288.722.071.625-.012.782-1.118,1.887l-.277.277c-.072.072-.144.119-.193.168-.084.084-.119.144-.108.156.024.024.156-.036.432-.192.409-.24,1.395-.697,1.875-.841.961-.289,1.647-.205,3.21,1.358,1.334,1.334,1.346,1.779.925,2.248-.348.373-2.56,2.585-4.303,4.328l-.925-.445-.204-.084c1.623-1.623,2.885-2.813,3.33-3.21l.024-.024c.264-.264.084-.661-.229-.973-.241-.241-.914-.722-1.322-.338l-.217.217c-.023-.24.012-.517.181-.829.168-.313.036-.59-.133-.758-.588-.588-1.659-.264-1.839-.204-.865.288-1.177.505-3.173,2.5l-.637.637c-.265-.168-.577-.312-.733-.156-.336.336.156,1.838.468,2.175.133.133.193.121.253.108.24,0,.637-.084.889-.192l1.082.505-.493.493c-.769.769-1.454,1.406-1.827,1.707-.348-.204-.553-.193-.649-.097-.336.336.758,1.647,1.118,2.007l.06.06c.193.193.216.193.24.169.036-.036.084-.133.193-.264.504-.649,2.355-2.5,3.1-3.246l.397.18.733.349c-.961.961-1.754,1.707-1.887,1.791-.373-.181-.577-.193-.673-.096-.336.336.974,1.791,1.166,1.983l.06.06c.168.168.193.193.229.157.024-.024.072-.097.144-.192.181-.253.553-.625.782-.854l.193-.193c.084-.108.829-.854,1.766-1.791.721.36,1.418.746,1.851,1.01.084-.156.072-.552.036-.685-.264-.096-.865-.36-1.55-.661.613-.613,1.274-1.274,1.9-1.875l.613.276c.348.156.997.493,1.766.925-.637.637-1.959,1.936-3.197,3.174l-1.455-1.455c-.072-.072-.228-.18-.348-.059-.3.3-.373,1.887-.168,2.091.024.024.06.037.096.024.385-.024,1.13-.313,1.503-.421l.097.097c-1.262,1.237-2.38,2.332-2.525,2.451-.421-.204-.637-.204-.721-.12-.301.301.649,1.515,1.106,1.971.313.313.361.313.397.277s.084-.133.204-.277c.277-.324.421-.492.722-.817.18-.18,1.082-1.082,2.139-2.164.492.517,1.154,1.202,1.539,1.707.169-.168.253-.468.241-.625-.59-.493-1.07-.949-1.503-1.358,1.334-1.334,2.849-2.824,3.57-3.545ZM135.77,216.221l-1.238-.589c2.765-2.765,3.402-3.306,4.207-2.5l-.301.325c-.745.793-1.719,1.815-2.668,2.765Z" fill="#dbd5c4" stroke-width="0"/>
  <path d="M66.971,193.764l-.483,1.05,1.264,3.972,4.989,2.772c-.16-2.099-1.037-4.154-2.643-5.76-.92-.92-1.99-1.59-3.127-2.034Z" fill="#dbd5c4" stroke-width="0"/>
  <path d="M114.682,181.184l2.518-2.094.975,1.462,1.002.515,2.816-2.383,36.098,18.009-.244-1.544-2.843-2.518-31.549-16.925-.319-1.765-1.572-.551,1.151-1.783,1.535.361,5.687-3.791-.659-1.625,6.436-7.583-.722-5.236,8.214-8.937,4.784.271,2.798,2.076,2.798-1.715-4.423-5.326-6.68-3.25-1.986,1.264-1.715,3.34-8.756,6.59-5.299-.83-4.82,2.004,3.507-8.192,1.286-4.726-2.221-5.416,5.922-9.379,3.051-2.6,1.462-1.733-.411-4.825-3.159-3.159-2.568.402-1.625,3.069-.632,5.506-7.483,9.225-3.259.433-4.495,2.221-5.66,5.497-4.067,5.511-1.62-.771-2.911-.609-2.943,6.905.935,1.377-2.559,4.797,1.137,1.462-1.544,6.743-7.293,2.059-2.37,1.286-.053,1.58-4.244,2.726-.984-.379-1.489-.406-2.505-1.557-5.285,10.44-.406,4.468,2.762,2.112.153,5.524.767.316-1.312,2.85c2.113.299,4.15,1.252,5.776,2.878,1.822,1.822,2.802,4.162,2.959,6.546l.611-.267,3.891-3.449.442.605,5.056-1.337,2.41,1.273,10.272-5.623-1.151-1.422,1.647-1.232.893-2.726,2.979.451,1.354-1.354.271-2.076,1.626-.525.534-.173,7.317-2.362Z" fill="#dbd5c4" stroke-width="0"/>
  <path d="M67.793,191.978c-2.484-.351-5.072.205-7.222,1.684,2.07-.737,4.349-.697,6.399.103,1.138.444,2.208,1.114,3.127,2.034,1.606,1.606,2.482,3.661,2.643,5.76.196,2.566-.68,5.198-2.643,7.161-2.266,2.266-5.425,3.087-8.343,2.475,3.829,1.929,8.616,1.302,11.814-1.896,2.166-2.166,3.146-5.063,2.959-7.897-.157-2.384-1.137-4.724-2.959-6.546-1.626-1.626-3.663-2.579-5.776-2.878Z" fill="#dbd5c4" stroke-width="0"/>
  <polygon points="82.018 35.443 81.402 36.627 83.393 37.508 84.252 35.804 83.537 33.259 116.389 9.848 114.912 9.338 111.353 10.665 81.593 30.569 79.462 29.341 78.063 30.679 78.506 32.484 79.716 32.329 82.018 35.443" fill="#dbd5c4" stroke-width="0"/>
  <polygon points="70.697 48.241 73.377 50.05 73.087 46.933 70.697 48.241" fill="#dbd5c4" stroke-width="0"/>
  <path d="M59.391,60.939l-.632,1.535-2.505,3.814-8.576,2.979-1.444-.542-5.326,3.43-1.535-.361-7.041,5.055.659,1.625-6.436,7.583.722,5.236-8.214,8.937-4.784-.271-2.798-2.076-2.798,1.715,4.423,5.326,6.68,3.25,1.986-1.264,1.715-3.34,8.756-6.59,5.299.83,4.82-2.004-3.507,8.192-1.286,4.726,2.221,5.416-5.922,9.379-3.051,2.6-1.462,1.733.411,4.825,3.159,3.159,2.568-.402,1.625-3.069.632-5.506,7.483-9.226,3.259-.433,4.495-2.221,5.66-5.497,3.024-3.656,1.62.771,2.911.609,3.986-8.76-.935-1.377,2.559-4.797-1.137-1.462,1.828-9.176,9.432-2.492,5.724-3.818,2.537.984,4.333-7.041.135-5.01-1.58-1.516,1.319-5.555-.717-.417,1.738-2.726c-2.092-.308-4.108-1.259-5.72-2.87-1.93-1.93-2.917-4.439-2.979-6.968l-3.692,2.467-.355-.66-2.935.872.353,1.72,3.385,1.76-7.447,5.01-.817-.998-7.939,5.782-4.861-4.628-.745,2.272-.925,1.783-.403.403-.354.354-.597.597Z" fill="#dbd5c4" stroke-width="0"/>
  <path d="M93.174,50.229c.974.974,2.114,1.679,3.329,2.12l.548-.859-.713-4.107-5.804-4.351c-.208,2.578.669,5.226,2.641,7.198Z" fill="#dbd5c4" stroke-width="0"/>
  <path d="M95.423,54.042c2.501.368,5.112-.187,7.278-1.677-2.002.712-4.201.707-6.198-.017-1.214-.44-2.354-1.145-3.329-2.12-1.972-1.972-2.848-4.62-2.641-7.198.168-2.087,1.045-4.127,2.641-5.723,2.266-2.266,5.425-3.087,8.343-2.475-3.829-1.929-8.616-1.302-11.814,1.896-2.059,2.059-3.046,4.778-2.979,7.475.063,2.528,1.05,5.038,2.979,6.968,1.611,1.611,3.627,2.562,5.72,2.87Z" fill="#dbd5c4" stroke-width="0"/>
  <polygon points="75.216 54.376 73.595 52.395 73.377 50.05 70.697 48.241 70.165 47.882 72.796 43.796 72.06 35.876 77.731 39.249 80.257 38.828 81.402 36.627 82.018 35.443 79.716 32.329 78.506 32.484 74.435 33.006 72.675 35.308 70.915 34.902 69.831 36.526 57.239 43.161 56.426 45.598 55.343 49.119 58.864 49.931 59.947 53.181 62.415 55.53 67.276 60.158 75.216 54.376" fill="#dbd5c4" stroke-width="0"/>
  <polygon points="72.796 43.796 73.087 46.933 73.377 50.05 73.595 52.395 75.216 54.376 76.032 55.374 83.479 50.364 80.094 48.604 79.741 46.883 78.65 41.563 79.192 40.119 77.731 39.249 72.06 35.876 72.796 43.796" fill="#dbd5c4" stroke-width="0"/>
</svg>