<?xml version="1.0" encoding="UTF-8"?>
<svg id="a" data-name="レイヤー 1" xmlns="http://www.w3.org/2000/svg" width="59mm" height="86mm" viewBox="0 0 167.244 243.78">
  <rect width="166.8" x="0.1" y="0.1" height="243.78" rx="8.904" ry="8.904" fill="#c93941" stroke-width="0"/>
  <line x1="4.892" y1="4.892" x2="63.119" y2="63.119" fill="none" stroke="#fff" stroke-miterlimit="10" stroke-width=".5"/>
  <rect x="14.919" y="14.919" width="24.053" height="24.053" fill="#c93941" stroke="#fff" stroke-miterlimit="10" stroke-width=".5"/>
  <path d="M28.616,27.104c-1.706,2.813-1.358,7.368-.24,9.857.084.156.108.252.084.276s-.108-.012-.277-.108c-.324-.18-1.407-.998-2.127-1.094-.301-.036-.553-.193-.733-.373-.168-.168-.289-.36-.337-.552-.349-1.695.313-5,3.45-8.186l-.156-.156c-2.969,2.44-6.78,3.846-12.296.132-.06-.037-.108-.084-.144-.12-.037-.037-.073-.073-.049-.096.012-.012.085.012.229.084,4.652,2.344,7.957.578,10.589-1.67l-.529-.529c-.481-.481-2.259-2.259-3.209-3.04,0-.12.072-.481.24-.649.997,1.166,3.485,3.654,3.485,3.654l.313.313.865-.793,1.178-1.178c.264-.264.493-.493.769-.841l.06-.06-.445-.445c-.481-.481-2.644-2.644-3.605-3.438,0-.12.096-.505.24-.649,1.01,1.178,3.906,4.099,3.906,4.099l3.943,3.943c.685-.157,2.139-.314,2.259-.193.277.277.517,2.656.24,2.933-.132.132-.3.012-.385-.073l-4.171-4.171c.072.168.06.277,0,.337-.12.12-.468.036-.697-.121-.373.373-1.791,1.743-2.489,2.32l1.815,1.815c.637-.18,1.947-.313,2.055-.301.037.012.084.036.108.06.277.277.637,2.608.289,2.957-.12.12-.3-.012-.385-.096l-3.846-3.846Z" fill="#dbd5c4" stroke-width="0"/>
  <line x1="162.352" y1="238.887" x2="104.125" y2="180.66" fill="none" stroke="#fff" stroke-miterlimit="10" stroke-width=".5"/>
  <rect x="128.272" y="204.807" width="24.053" height="24.053" fill="#c93941" stroke="#fff" stroke-miterlimit="10" stroke-width=".5"/>
  <path d="M137.104,210.079c1.106-1.106,1.189-1.262,1.118-1.887-.049-.264.095-.529.288-.722.877-.877,2.271-.204,4.868,2.393,1.214,1.214,2.837,2.933,1.299,4.471-.06.06-.12.12-.205.18-.312.264-1.141,1.046-2.067,1.971.481-.12,3.449.204,6.142,1.045.037-.06.084-.108.133-.156.156-.156.312-.217.408-.121.361.361-.421,2.633-.517,2.729-.06.06-.097-.048-.3-.18-.553-.361-1.19-.758-1.827-1.13-.721.721-2.236,2.211-3.57,3.545.434.409.914.865,1.503,1.358.012.157-.073.456-.241.625-.385-.505-1.046-1.19-1.539-1.707-1.057,1.082-1.959,1.984-2.139,2.164-.301.325-.445.493-.722.817-.119.144-.168.241-.204.277s-.084.036-.397-.277c-.456-.456-1.407-1.67-1.106-1.971.084-.084.3-.084.721.12.144-.119,1.262-1.214,2.525-2.451l-.097-.097c-.372.108-1.118.397-1.503.421-.036.012-.072,0-.096-.024-.204-.204-.132-1.791.168-2.091.12-.12.276-.012.348.059l1.455,1.455c1.238-1.238,2.56-2.536,3.197-3.174-.769-.432-1.418-.769-1.766-.925l-.613-.276c-.626.601-1.286,1.262-1.9,1.875.686.3,1.286.565,1.55.661.036.133.048.529-.036.685-.432-.264-1.13-.649-1.851-1.01-.938.938-1.683,1.683-1.766,1.791l-.193.193c-.229.229-.601.601-.782.853-.072.095-.119.168-.144.192-.036.036-.06.012-.229-.157l-.06-.06c-.192-.192-1.503-1.646-1.166-1.983.097-.097.3-.085.673.096.133-.084.925-.83,1.887-1.791l-.733-.349-.397-.18c-.745.745-2.596,2.596-3.1,3.246-.108.132-.157.229-.193.264-.024.024-.048.024-.24-.168l-.06-.06c-.36-.36-1.454-1.671-1.118-2.007.096-.096.301-.108.649.097.373-.301,1.058-.938,1.827-1.707l.493-.493-1.082-.505c-.252.108-.649.192-.889.192-.06.013-.12.025-.253-.108-.312-.337-.804-1.839-.468-2.175.156-.156.468-.012.733.156l.637-.637c1.996-1.996,2.308-2.212,3.173-2.5.18-.06,1.251-.385,1.839.204.168.168.3.445.133.758-.168.312-.204.588-.181.829l.217-.217c.409-.384,1.081.097,1.322.338.312.312.492.709.229.973l-.024.024c-.445.396-1.707,1.587-3.33,3.21l.204.084.925.445c1.743-1.743,3.955-3.955,4.303-4.328.421-.468.409-.914-.925-2.248-1.563-1.563-2.248-1.646-3.21-1.358-.481.144-1.467.601-1.875.841-.276.156-.408.216-.432.192-.012-.012.023-.072.108-.156.048-.048.121-.096.193-.168l.277-.277ZM138.739,213.132c-.805-.805-1.443-.264-4.207,2.5l1.238.589c.949-.949,1.923-1.971,2.668-2.765l.301-.325Z" fill="#dbd5c4" stroke-width="0"/>
  <path d="M157.848,195.148l-2.843-2.518-31.549-16.925-.319-1.765-1.572-.551,1.151-1.783,1.535.361,5.687-3.791-.659-1.625,6.436-7.583-.722-5.236,8.214-8.937,4.784.271,2.798,2.076,2.798-1.715-4.423-5.326-6.68-3.25-1.986,1.264-1.715,3.34-8.756,6.59-5.299-.83-4.82,2.004,3.507-8.192,1.286-4.726-2.221-5.416,5.922-9.379,3.051-2.6,1.462-1.733-.411-4.825-3.159-3.159-2.568.402-1.625,3.069-.632,5.506-7.483,9.225-3.259.433-4.495,2.221-5.66,5.497-4.067,5.511-1.62-.771-2.911-.609-2.943,6.905.935,1.377-2.559,4.797,1.137,1.462-1.544,6.743-7.293,2.059-2.37,1.286-.053,1.58-4.244,2.726-.984-.379-1.489-.406-2.505-1.557-5.285,10.44-.406,4.468,2.762,2.112.153,5.524.767.316-1.312,2.85c-2.484-.351-5.072.205-7.222,1.684,2.07-.737,4.349-.697,6.399.103l-.483,1.05,1.264,3.972,4.989,2.772c.196,2.566-.68,5.198-2.643,7.161-2.266,2.266-5.425,3.087-8.343,2.475,3.829,1.929,8.616,1.302,11.814-1.896,2.166-2.166,3.146-5.063,2.959-7.897l.611-.267,3.891-3.449.442.605,5.056-1.337,2.41,1.273,10.272-5.623-1.151-1.422,1.647-1.232.893-2.726,2.979.451,1.354-1.354.271-2.076,9.478-3.06,2.518-2.094.975,1.462,1.002.515,2.816-2.383,36.098,18.009-.244-1.544Z" fill="#dbd5c4" stroke-width="0"/>
  <g>
    <polygon points="73.087 46.933 72.796 43.796 70.165 47.882 70.697 48.241 73.087 46.933" fill="none" stroke-width="0"/>
    <path d="M96.503,52.348l.548-.859-.713-4.107-5.804-4.351c.168-2.087,1.045-4.127,2.641-5.723,2.266-2.266,5.425-3.087,8.343-2.475-3.829-1.929-8.616-1.302-11.814,1.896-2.059,2.059-3.046,4.778-2.979,7.475l-3.692,2.467-.355-.66-2.935.872-1.091-5.321.542-1.444-1.461-.869,2.527-.421,1.145-2.202,1.991.881.859-1.704-.716-2.545,32.853-23.412-1.477-.51-3.559,1.328-29.76,19.904-2.131-1.228-1.4,1.338.444,1.805-4.071.522-1.76,2.302-1.76-.406-1.083,1.625-12.593,6.635-.812,2.437-1.083,3.521,3.521.812,1.083,3.25,2.468,2.349-.745,2.272-.925,1.783-1.354,1.354-.632,1.535-2.505,3.814-8.576,2.979-1.444-.542-5.326,3.43-1.535-.361-7.041,5.055.659,1.625-6.436,7.583.722,5.236-8.214,8.937-4.784-.271-2.798-2.076-2.798,1.715,4.423,5.326,6.68,3.25,1.986-1.264,1.715-3.34,8.756-6.59,5.299.83,4.82-2.004-3.507,8.192-1.286,4.726,2.221,5.416-5.922,9.379-3.051,2.6-1.462,1.733.411,4.825,3.159,3.159,2.568-.402,1.625-3.069.632-5.506,7.483-9.226,3.259-.433,4.495-2.221,5.66-5.497,3.024-3.656,1.62.771,2.911.609,3.986-8.76-.935-1.377,2.559-4.797-1.137-1.462,1.828-9.176,9.432-2.492,5.724-3.818,2.537.984,4.333-7.041.135-5.01-1.58-1.516,1.319-5.555-.717-.417,1.738-2.726c2.501.368,5.112-.187,7.278-1.677-2.002.712-4.201.707-6.198-.017ZM72.796,43.796l.291,3.137-2.39,1.308-.532-.359,2.631-4.086Z" fill="#dbd5c4" stroke-width="0"/>
  </g>
  <g>
    <path d="M10.012,10.012V0s-1.508,0-1.508,0C3.807,0,0,3.807,0,8.504v1.508h10.012Z" fill="#fff" stroke-width="0"/>
    <path d="M157.232,233.767v10.012s1.508,0,1.508,0c4.697,0,8.504-3.807,8.504-8.504v-1.508h-10.012Z" fill="#fff" stroke-width="0"/>
  </g>
</svg>