<?xml version="1.0" encoding="UTF-8"?>
<svg id="a" data-name="レイヤー 1" xmlns="http://www.w3.org/2000/svg" width="59mm" height="86mm" xmlns:xlink="http://www.w3.org/1999/xlink" viewBox="0 0 167.244 243.78">
  <defs>
    <linearGradient id="b" x1="-871.714" y1="-6992.821" x2="-786.675" y2="-6992.821" gradientTransform="translate(919.911 -6928.333) scale(1 -1)" gradientUnits="userSpaceOnUse">
      <stop offset="0" stop-color="#c93941" stop-opacity=".5"/>
      <stop offset=".239" stop-color="rgba(201, 57, 65, .484)" stop-opacity=".484"/>
      <stop offset=".431" stop-color="rgba(201, 57, 65, .434)" stop-opacity=".434"/>
      <stop offset=".606" stop-color="rgba(201, 57, 65, .35)" stop-opacity=".35"/>
      <stop offset=".772" stop-color="rgba(201, 57, 65, .232)" stop-opacity=".232"/>
      <stop offset=".93" stop-color="rgba(201, 57, 65, .081)" stop-opacity=".081"/>
      <stop offset="1" stop-color="#c93941" stop-opacity="0"/>
    </linearGradient>
    <linearGradient id="c" x1="-871.714" y1="-6989.277" x2="-786.675" y2="-6989.277" gradientTransform="translate(919.911 -6928.333) scale(1 -1)" gradientUnits="userSpaceOnUse">
      <stop offset="0" stop-color="#c93941"/>
      <stop offset=".179" stop-color="rgba(201, 57, 65, .984)" stop-opacity=".984"/>
      <stop offset=".323" stop-color="rgba(201, 57, 65, .934)" stop-opacity=".934"/>
      <stop offset=".455" stop-color="rgba(201, 57, 65, .85)" stop-opacity=".85"/>
      <stop offset=".579" stop-color="rgba(201, 57, 65, .732)" stop-opacity=".732"/>
      <stop offset=".699" stop-color="rgba(201, 57, 65, .578)" stop-opacity=".578"/>
      <stop offset=".814" stop-color="rgba(201, 57, 65, .39)" stop-opacity=".39"/>
      <stop offset=".925" stop-color="rgba(201, 57, 65, .172)" stop-opacity=".172"/>
      <stop offset="1" stop-color="#c93941" stop-opacity="0"/>
    </linearGradient>
  </defs>
  <path d="M158.74,0H8.504C3.807,0,0,3.807,0,8.504v113.386h167.244V8.504C167.244,3.807,163.437,0,158.74,0Z" fill="#dbd5c4" stroke-width="0"/>
  <path d="M158.74,243.78H8.504c-4.697,0-8.504-3.807-8.504-8.504v-113.386h167.244v113.386c0,4.697-3.807,8.504-8.504,8.504Z" fill="#c93941" stroke-width="0"/>
  <polygon points="133.235 7.087 48.196 92.126 77.96 121.89 133.235 121.89 133.235 7.087" fill="url(#b)" opacity=".3" stroke-width="0"/>
  <polygon points="133.235 0 107.015 0 48.196 58.819 111.267 121.89 133.235 121.89 133.235 0" fill="url(#c)" opacity=".3" stroke-width="0"/>
  <path d="M144.921,121.89h22.323V8.504C167.244,3.807,163.437,0,158.74,0h-85.379l-25.165,25.165,96.725,96.725Z" fill="#c93941" stroke-width="0"/>
  <line x1="55.276" y1="0" x2="55.276" y2="121.89" fill="#fff" stroke="#fff" stroke-miterlimit="10" stroke-width=".465"/>
  <rect x="50.27" y="20.159" width="10.012" height="10.012" transform="translate(-1.604 46.456) rotate(-45)" fill="#fff" stroke-width="0"/>
  <rect x="50.27" y="87.12" width="10.012" height="10.012" transform="translate(-48.953 66.068) rotate(-45)" fill="#fff" stroke-width="0"/>
  <rect x="50.27" y="53.813" width="10.012" height="10.012" transform="translate(-25.401 56.313) rotate(-45)" fill="#fff" stroke-width="0"/>
  <g>
    <line x1="69.442" y1="91.8" x2="69.442" y2="27.334" fill="none" stroke="#fff" stroke-miterlimit="10" stroke-width="2"/>
    <polygon points="77.621 33.961 76.157 35.325 69.444 28.101 62.729 35.325 61.264 33.961 69.444 25.165 77.621 33.961" fill="#fff" stroke-width="0"/>
  </g>
  <g>
    <path d="M17.172,24.25c0,.45-.774.667-1.387.667-.522,0-1.026-.162-1.026-.648v-.019s.145-3.619.145-7.147h-1.44c-.559,5.797-3.565,7.094-4.862,7.724-.216.108-.359.162-.414.162-.018,0-.036-.018-.036-.018,0-.054.108-.145.289-.271,2.466-1.765,2.952-5.023,3.042-7.58-.737,0-1.603.018-2.34.09-.055-.054-.307-.396-.307-.666.792.072,1.782.108,2.646.126.019-.648.019-1.225.019-1.71-.019-.271-.054-.9-.09-1.243-.973.234-2.647.631-2.899.631-.071,0-.107,0-.107-.036s.071-.09.288-.181c1.17-.468,3.349-1.836,4.141-2.952.055-.072.019-.126.09-.126.307,0,1.639.846,1.909,1.368-.036-.847-.09-1.53-.09-1.53q0-.036.27-.036h.216c.541,0,2.396.18,2.396.648,0,.162-.181.306-.667.449-.018.217-.035.883-.035,1.855,0,.792.018,1.782.035,2.881h1.045c.216-.343.576-.703.666-.774.072-.036.126-.072.198-.072.306,0,1.891,1.044,1.891,1.494,0,.198-.234.378-.685.505-.018.216-.018.414-.018.611,0,3.26,1.891,4.033,2.448,4.033.198,0,.721-.054,1.801-2.502.108-.234.198-.36.234-.36.018,0,.036.036.036.108,0,.071,0,.18-.036.342-.055.288-.145,1.152-.145,1.656,0,.648.072.756.378,1.261.126.198.181.432.181.666,0,.756-.631,1.188-1.513,1.188-1.062,0-2.341-.631-2.881-1.045-1.368-1.044-2.413-3.223-2.449-6.697h-1.152c0,.647.055,4.321.217,7.111v.036ZM13.769,10.259c-.72,0-2.305,0-3.547.108-.054-.054-.307-.396-.307-.666,1.387.107,3.331.144,4.231.144h3.854c.216-.342.576-.702.666-.774.072-.035.126-.071.198-.071.306,0,1.891,1.044,1.891,1.494,0,.198-.234.378-.685.504-.018.252-.036.486-.036.721,0,3.133,2.233,3.421,2.449,3.421.324,0,.882-.414,1.818-2.539.108-.233.198-.359.234-.359.018,0,.036.035.036.107s0,.18-.036.342c-.055.288-.162,1.152-.162,1.657,0,.666.018.738.378,1.296.144.216.216.433.216.648,0,.324-.306,1.17-1.513,1.17-.288,0-.594-.054-.882-.126.828.559.847.793.847.847,0,.107-.108.18-.379.18-.071,0-.144-.018-.216-.018-.54.396-1.656.846-2.358,1.08-.055.018-.09.018-.108.018-.018,0-.036,0-.036-.018s.019-.036.055-.072c.306-.45.936-1.566,1.116-2.286,0-.036,0-.072.018-.108-2.106-.954-3.367-2.898-3.403-6.698h-4.339ZM14.903,16.688c0-1.423-.019-2.755-.055-3.926-.054.09-.162.145-.306.145-.108,0-.234-.036-.396-.108-.36.18-.828.342-1.314.504.54.091,1.314.198,1.314.505,0,.197-.288.378-.558.414l-.036,1.368-.055,1.099h1.405ZM21.853,14.004c-.342-.558-.737-1.17-1.44-1.278-.09-.018-.107-.036-.107-.036,0-.018.792-.468,1.656-.468,1.206,0,1.404.882,1.404,1.152,0,.559-.504.973-.954.973-.216,0-.433-.108-.559-.343ZM20.467,12.114c-.055.019-.09.019-.108.019-.018,0-.036,0-.036-.019,0-.018.019-.054.055-.09.197-.306,1.062-1.854,1.224-2.521.036-.144.036-.198.072-.198s.09.019.216.055c.54.18,1.765,1.008,1.765,1.313,0,.108-.107.181-.378.181-.054,0-.126-.019-.216-.019-.54.396-1.873,1.045-2.593,1.278ZM22.429,21.567c-.216,0-.432-.09-.576-.306-.323-.522-.737-1.116-1.422-1.207-.09-.018-.108-.018-.108-.036,0-.018.793-.432,1.656-.432,1.243,0,1.405.9,1.405,1.08,0,.522-.505.9-.955.9Z" fill="#c93941" stroke-width="0"/>
    <path d="M12.994,40.666c0,1.656-1.746,2.215-2.377,2.215-.233,0-.432-.091-.611-.469-.271-.558-.811-.954-1.243-1.134-.216-.09-.323-.145-.323-.162,0-.036.071-.036.18-.036h.162c.09,0,.18.018.27.018,1.585,0,1.891-.485,1.891-.972v-3.583c-.342.233-.702.485-.954.63v.09c0,.288-.108.486-.252.486-.324,0-1.206-2.017-1.206-2.395,0-.108.071-.072.288-.108.647-.126,1.386-.288,2.124-.468v-3.403c-.576,0-1.224.036-1.944.108-.108-.126-.324-.486-.324-.666.648.071,1.549.107,2.269.126v-2.305c0-.541-.036-1.297-.071-1.675-.019-.072-.019-.126-.019-.18,0-.072.054-.072.271-.072,1.08.036,2.358.162,2.358.54,0,.144-.162.324-.63.468-.019.378-.019,1.621-.019,3.224h.019c.09-.198.647-1.062.792-1.062.216,0,1.422.954,1.422,1.278,0,.144-.197.198-.306.198h-1.908c0,.899.018,1.891.018,2.881.702-.198,1.278-.379,1.566-.486.288-.126.45-.181.522-.181q.018,0,.018.019c0,.126-.738.882-2.088,1.837.035,2.143.071,4.159.107,5.167v.072ZM22.772,42.07c0,.45-.738.666-1.333.666-.504,0-.99-.162-.99-.648v-.018l.072-2.251.019-.954-.162.09c-1.081.631-3.674,1.747-5.654,2.395-.018.307-.162.541-.342.541-.433,0-1.225-2.017-1.225-2.503,0-.126.108-.09.396-.108.666-.018,1.44-.054,2.232-.126v-2.448c-.612.018-1.297.054-2.16.126-.091-.108-.324-.522-.324-.667.72.091,1.729.108,2.484.126-.018-.396-.018-.72-.018-.882-.019-.486-.019-.72-.055-1.17-.018-.198-.054-.324-.054-.379,0-.018,0-.071.432-.071.145,0,2.27.144,2.27.63,0,.144-.162.306-.631.468-.018.162-.036.721-.054,1.404h.216c.721-1.098.9-1.313,1.062-1.313.288,0,1.53,1.188,1.62,1.44,0-.99.019-2.017.019-3.008,0-1.548-.019-4.896-.126-6.409,0-.108-.019-.162-.019-.216,0-.072.036-.072.433-.072.126,0,2.322.144,2.322.666,0,.144-.162.288-.63.432-.019.253-.036,1.333-.036,2.827v1.782c.973.127,3.223.937,3.223,2.719,0,.847-.594,1.351-1.152,1.351-.468,0-.918-.324-1.044-1.08-.198-1.099-.306-1.927-1.026-2.736.108,6.788.145,7.832.234,9.362v.036ZM16.344,33.175c-.738,0-1.387.018-2.521.107-.071-.071-.306-.432-.306-.666.702.09,1.603.126,2.269.126v-2.719c-.432.019-.882.055-1.603.108-.09-.09-.306-.45-.306-.666.611.071,1.314.107,1.908.126,0-.576-.018-1.062-.018-1.278-.019-.486-.036-.721-.072-1.152-.019-.198-.055-.307-.055-.36,0-.108.576-.108.612-.108.685,0,2.107.234,2.107.648,0,.145-.162.288-.631.45-.036.18-.036.937-.054,1.818h.18c.019-.054.612-1.351.864-1.351.036,0,.108.036.181.091.576.342,1.278,1.332,1.278,1.44,0,.18-.252.233-.378.233h-2.125c-.018,1.099-.018,2.305-.018,2.737h.233c.774-1.333.828-1.423.954-1.423.324,0,1.531,1.207,1.531,1.656,0,.019,0,.181-.324.181h-3.709ZM20.539,38.594c.018-.647.018-1.332.018-2.034-.054.108-.234.162-.342.162l-2.539-.018c-.018.81-.018,1.71-.018,2.286,1.152-.107,2.143-.234,2.592-.342l.289-.055Z" fill="#c93941" stroke-width="0"/>
    <path d="M29.252,11.425h-.119v-1.921h.119c.039.201.099.337.178.407.08.07.226.105.438.105h3.128v-.409c0-.248-.054-.443-.161-.588-.106-.145-.276-.252-.509-.322v-.119l.987.041v.126c-.057.089-.085.224-.085.403v2.643c0,.185.028.318.085.403v.126l-.987.041v-.119c.232-.071.402-.179.509-.322.107-.145.161-.341.161-.589v-.408h-3.135c-.2,0-.343.035-.429.105-.085.07-.146.203-.18.396Z" fill="#c93941" stroke-width="0"/>
    <path d="M30.455,15.981c-.405,0-.745-.151-1.019-.453s-.41-.699-.41-1.191.137-.89.409-1.194c.272-.304.612-.456,1.02-.456.254,0,.494.07.722.21.228.141.401.333.521.578.119.245.179.532.179.863,0,.494-.137.892-.41,1.192s-.61.451-1.012.451ZM30.454,15.106c.393,0,.696-.066.912-.2.216-.133.323-.323.323-.568,0-.253-.11-.446-.332-.578s-.538-.198-.951-.198c-.363,0-.652.07-.868.21-.216.141-.323.329-.323.565,0,.242.109.431.327.566s.521.203.912.203Z" fill="#c93941" stroke-width="0"/>
    <path d="M33.515,17.444v.12h-2.122c.323.308.484.646.484,1.015,0,.357-.131.657-.393.899-.262.241-.587.361-.975.361-.469,0-.834-.152-1.094-.459s-.39-.746-.39-1.318c0-.503.036-.933.106-1.288h3.794c.214,0,.345-.133.394-.399h.119l.075,1.069ZM31.204,17.564h-1.548c-.159,0-.273.032-.341.097-.067.065-.101.173-.101.323,0,.654.404.98,1.212.98.324,0,.587-.072.789-.217s.303-.334.303-.568c0-.107-.022-.204-.066-.291-.045-.087-.127-.194-.248-.324Z" fill="#c93941" stroke-width="0"/>
    <path d="M31.877,21.42v.119h-2.177c-.265,0-.414.143-.448.427h-.119v-1.66h.119c.034.178.085.295.15.354.066.058.184.087.353.087h1.408c.162,0,.274-.03.339-.092.063-.062.113-.189.15-.383h.119l.105,1.148ZM33.061,20.684c.125,0,.232.045.32.135.09.09.134.199.134.327,0,.125-.044.232-.132.321s-.195.133-.322.133c-.128,0-.237-.044-.327-.133s-.135-.196-.135-.321c0-.128.046-.237.137-.327s.199-.135.325-.135Z" fill="#c93941" stroke-width="0"/>
    <path d="M30.75,22.373v2.092h-.589v-2.092h.589Z" fill="#c93941" stroke-width="0"/>
    <path d="M29.133,24.898h.119c.041.15.094.255.157.313.064.058.163.087.298.087h3.199c.118,0,.207-.028.265-.084.059-.056.108-.161.149-.315h.119l.075,1.073v.119h-2.96l.677.937c.053.07.12.105.202.106.065,0,.119-.026.158-.077.04-.052.061-.122.061-.21h.119v1.455h-.12c-.024-.175-.06-.316-.105-.425s-.126-.244-.242-.408l-.487-.691-1.304,1.245c-.096.086-.16.161-.193.225-.033.064-.056.152-.067.264h-.119v-1.206l1.261-1.214h-.602c-.182,0-.303.021-.363.064-.061.044-.119.154-.177.332h-.119v-1.59Z" fill="#c93941" stroke-width="0"/>
    <path d="M29.026,29.546c0-.219.068-.405.204-.559.136-.154.299-.23.49-.23s.351.076.477.229c.127.152.254.472.381.957.062.234.112.403.15.506.244,0,.421-.053.53-.157s.164-.271.164-.499c0-.357-.147-.622-.44-.793v-.103c.284.07.505.209.661.415s.233.462.233.768c0,.354-.086.635-.26.846-.173.211-.415.316-.728.316h-1.244c-.234,0-.353.054-.353.161,0,.111.082.181.246.208v.112c-.164-.014-.29-.076-.379-.188s-.134-.264-.134-.455c0-.161.029-.292.088-.391.058-.1.153-.182.285-.248l-.059-.062c-.209-.237-.314-.515-.314-.834ZM29.587,30.442h1.002c-.148-.349-.275-.579-.383-.692-.107-.112-.245-.169-.414-.169-.144,0-.259.033-.347.101s-.132.155-.132.265c0,.148.092.313.273.496Z" fill="#c93941" stroke-width="0"/>
    <path d="M29.133,32.045h.119c.041.15.094.255.157.313.064.058.163.087.298.087h3.199c.118,0,.207-.028.265-.084.059-.056.108-.161.149-.315h.119l.075,1.073v.119h-2.96l.677.937c.053.07.12.105.202.106.065,0,.119-.026.158-.077.04-.052.061-.122.061-.21h.119v1.455h-.12c-.024-.175-.06-.316-.105-.425s-.126-.244-.242-.408l-.487-.691-1.304,1.245c-.096.086-.16.161-.193.225-.033.064-.056.152-.067.264h-.119v-1.206l1.261-1.214h-.602c-.182,0-.303.021-.363.064-.061.044-.119.154-.177.332h-.119v-1.59Z" fill="#c93941" stroke-width="0"/>
    <path d="M29.026,36.693c0-.219.068-.405.204-.559.136-.154.299-.23.49-.23s.351.076.477.229c.127.152.254.472.381.957.062.234.112.403.15.506.244,0,.421-.053.53-.157s.164-.271.164-.499c0-.357-.147-.622-.44-.793v-.103c.284.07.505.209.661.415s.233.462.233.768c0,.354-.086.635-.26.846-.173.211-.415.316-.728.316h-1.244c-.234,0-.353.054-.353.161,0,.111.082.181.246.208v.112c-.164-.014-.29-.076-.379-.188s-.134-.264-.134-.455c0-.161.029-.292.088-.391.058-.1.153-.182.285-.248l-.059-.062c-.209-.237-.314-.515-.314-.834ZM29.587,37.588h1.002c-.148-.349-.275-.579-.383-.692-.107-.112-.245-.169-.414-.169-.144,0-.259.033-.347.101s-.132.155-.132.265c0,.148.092.313.273.496Z" fill="#c93941" stroke-width="0"/>
    <path d="M31.877,40.384h-.841v.014c.562.251.841.542.841.875,0,.183-.074.338-.224.469l-.798-.175c.228-.239.342-.438.342-.595,0-.116-.027-.218-.082-.304-.055-.087-.152-.182-.294-.284h-1.08c-.169,0-.284.029-.346.089s-.109.179-.144.358h-.119v-1.682h.119c.041.174.095.29.161.351s.176.091.328.091h1.395c.166,0,.29-.038.372-.114s.131-.199.145-.367h.119l.105,1.155v.119Z" fill="#c93941" stroke-width="0"/>
    <path d="M31.877,43.154v.119h-2.177c-.265,0-.414.143-.448.427h-.119v-1.66h.119c.034.178.085.295.15.354.066.058.184.087.353.087h1.408c.162,0,.274-.03.339-.092.063-.062.113-.189.15-.383h.119l.105,1.148ZM33.061,42.419c.125,0,.232.045.32.135.09.09.134.199.134.327,0,.125-.044.232-.132.321s-.195.133-.322.133c-.128,0-.237-.044-.327-.133s-.135-.196-.135-.321c0-.128.046-.237.137-.327s.199-.135.325-.135Z" fill="#c93941" stroke-width="0"/>
  </g>
  <path d="M156.614,143.585v.071c.019.288.036,1.063.036,1.513,0,1.891-2.053,2.287-2.412,2.287-.324,0-.595-.145-.721-.396-.27-.522-.864-.972-1.477-1.206-.198-.072-.324-.126-.324-.162,0-.019.055-.019.162-.019h.505c1.638,0,2.232-.18,2.232-1.044.018-.18.018-.559.018-1.044h-4.231s0,1.908,0,1.908c.019.721.019.954.019,1.099v.054c0,.162-.019.937-1.278.937-.396,0-.847-.162-.847-.576v-.055c.126-2.502.126-2.881.145-3.349-.433.019-.919.054-1.53.108-.108-.108-.307-.45-.307-.666.576.071,1.278.09,1.837.107.018-.9.036-1.765.036-2.412s-.019-1.009-.055-1.873c-.018-.216-.054-.342-.054-.414,0-.054.036-.072.108-.072.936,0,2.07.504,2.322.685.036.036.072.054.09.09h.685c0-.504,0-.882-.019-.99,0-.144-.018-.306-.035-.45h-.486c-.648,0-2.395.018-3.512.108-.107-.091-.306-.396-.306-.667.612.091,1.603.108,2.467.127v-1.657c-.324,0-.738,0-1.188.019.019.036.019.072.019.107,0,.181-.181.217-.307.217h-2.106s0,1.603,0,1.603c1.44.288,2.106,1.044,2.106,1.746,0,.954-.738,1.152-.99,1.152-.45,0-.648-.486-.666-.9-.036-.486-.072-1.17-.45-1.675.036,4.016.09,7.347.198,9.039v.018c0,.576-1.135.703-1.369.703-.449,0-.936-.162-.936-.559v-.018c.216-4.357.27-6.194.27-6.194-1.134,2.034-2.719,2.971-2.862,2.971q-.019,0-.019-.018c0-.019.09-.145.252-.36,1.225-1.639,2.323-5.798,2.467-7.508-.521.018-1.134.054-1.891.126-.107-.126-.306-.486-.306-.667.72.091,1.692.108,2.377.127,0-2.396,0-2.611-.091-4.124,0-.09-.018-.126-.018-.162s.018-.054.09-.054c1.188,0,2.521.216,2.521.595,0,.161-.181.342-.648.45-.036.252-.036,1.548-.036,3.295h.126c.27-.648.702-1.423.882-1.423.217,0,.667.433,1.099,1.044l1.477.036v-1.404c-.594.019-1.297.054-1.98.108-.072-.055-.307-.45-.307-.666.631.071,1.549.107,2.287.126v-.45c-.018-.486-.036-.721-.072-1.152-.018-.198-.036-.307-.036-.379s.108-.09.414-.09c.559,0,2.143.234,2.143.612,0,.108-.144.252-.558.378-.019.126-.036.541-.036,1.099h1.675c0-.216-.019-.378-.019-.468-.018-.486-.018-.721-.054-1.152-.018-.217-.054-.324-.054-.379s.45-.09.485-.09c.631,0,1.549.198,1.873.379.126.054.198.144.198.233,0,.108-.145.252-.559.378,0,.126-.018.541-.018,1.099h.521c.198-.36.667-1.044.919-1.296.036-.036.072-.072.126-.072.198,0,1.692,1.134,1.692,1.548,0,.198-.252.234-.396.234h-2.881s0,1.404,0,1.404h.252c.127-.252.757-1.188.937-1.188.145,0,1.621.955,1.621,1.369,0,.18-.234.233-.379.233h-2.448s0,1.675,0,1.675h.756c.145-.252.9-1.404,1.135-1.404.306,0,1.836,1.206,1.836,1.62,0,.181-.233.198-.359.198h-4.735c.107.054.144.108.144.162,0,.108-.144.234-.396.324v.954s1.081,0,1.081,0c.233-.36.576-.685.647-.756.072-.036.091-.072.145-.072.234,0,1.873.937,1.873,1.404,0,.216-.217.433-.595.54-.018.181-.018.414-.018.648,0,.54.018,1.206.036,1.782.504-1.062.63-1.116.72-1.116.072,0,.144.019.198.072.45.306,1.368,1.314,1.368,1.71,0,.217-.234.217-.342.217h-1.909ZM154.634,141.443h-1.225s0,1.729,0,1.729h1.225s0-1.729,0-1.729ZM154.616,139.57h-1.207s0,1.44,0,1.44h1.207s0-1.44,0-1.44ZM153.212,135.626l-1.692-.018c-.019.72-.019,1.351-.019,1.692h1.711s0-1.675,0-1.675ZM153.212,133.808l-1.675-.018c-.018.45-.018.936-.018,1.422h1.692s0-1.404,0-1.404ZM151.573,143.171c.018-.343.018-.99.018-1.729h-1.17c0,.54-.019,1.152-.019,1.729h1.171ZM151.591,139.57h-.792c-.072.072-.18.145-.324.198-.018.306-.036.756-.036,1.242h1.152s0-1.44,0-1.44Z" fill="#dbd5c4" stroke-width="0"/>
  <path d="M151.808,158.992c.09-.108.611-.721.846-.721.36,0,2.106,1.045,2.106,1.603,0,.252-.378.342-.882.414-.433.774-.937,1.44-1.513,2.017,1.692.486,3.673.576,4.97.576.72,0,1.242-.018,1.387-.036.09-.018.162-.018.216-.018s.072,0,.072.018-.072.108-.253.217c-.414.306-1.53.954-1.926,1.548-.234.324-.505.595-1.135.595-1.08,0-3.367-.36-4.951-1.621-2.809,1.729-6.662,1.944-7.887,1.944-.198,0-.306-.035-.306-.071s.144-.108.396-.145c1.765-.216,4.502-.918,6.681-2.971-.343-.54-.595-1.188-.702-1.963-2.953,3.548-6.662,4.321-6.698,4.321s-.054,0-.054-.018.107-.126.342-.234c2.358-1.08,4.934-4.609,5.798-7.076.09-.233.018-.27.18-.27.342,0,2.646.612,2.646,1.206,0,.145-.18.271-.594.271-.072,0-.162,0-.271-.019l-.288.433h1.819ZM153.031,151.989c.072.035.126.107.126.18s-.107.216-.378.306v.774c.036-.018.09-.018.145-.018,1.368,0,4.321.432,4.321,2.322,0,.469-.343,1.314-1.188,1.314-.45,0-.9-.252-1.135-.882-.45-1.243-1.242-2.161-1.962-2.558-.072-.054-.127-.071-.162-.107,0,.396.018.846.035,1.08.055,1.063.055,1.08.055,1.116,0,1.711-1.729,1.999-2.197,1.999-.27,0-.432-.09-.558-.342-.198-.415-.9-.757-1.368-.937-1.747,3.007-5.672,3.637-5.834,3.637-.019,0-.036,0-.036-.018,0-.019.108-.091.342-.181,3.205-1.332,4.376-4.015,4.376-6.571v-.343c0-.27-.019-.576-.036-.773h-.271c-.774,0-3.547.071-4.844.126-.107-.108-.323-.415-.323-.667,1.026.108,3.259.126,4.537.126h2.305c0-.071-.019-1.313-.09-1.89-.019-.198-.055-.307-.055-.36,0-.072.072-.072.559-.072,1.026,0,2.665.216,2.665.648,0,.126-.162.288-.648.414-.036.324-.036,1.008-.036,1.26h3.043c.378-.594,1.225-1.656,1.458-1.656.055,0,.127.019.217.072.684.288,2.034,1.387,2.034,1.801,0,.18-.216.198-.36.198h-4.735ZM149.755,159.334l-.54.721c.233.576.666,1.044,1.224,1.422.505-.612.973-1.332,1.351-2.143h-2.034ZM149.971,151.989c.072.035.126.09.126.144,0,.072-.108.18-.432.288v.271c0,1.152-.217,2.286-.774,3.349,1.351,0,2.017-.145,2.017-.9,0-2.125-.019-2.574-.072-3.15h-.864ZM146.712,154.563c-1.585,2.413-3.907,3.241-4.033,3.241-.019,0-.036-.019-.036-.019,0-.035.072-.107.216-.252,1.026-1.008,1.656-3.007,1.854-4.321.019-.126,0-.162.162-.162.757,0,2.575.793,2.575,1.188,0,.181-.234.324-.648.324h-.09Z" fill="#dbd5c4" stroke-width="0"/>
  <g>
    <path d="M137.118,133.457l-.72-.762-2.018,1.639c-.168.137-.28.244-.335.321-.056.077-.089.172-.101.285h-.119v-1.869h.119c.044.189.108.283.195.283.048,0,.105-.028.174-.085l1.59-1.281h-1.337c-.198,0-.334.027-.408.084-.074.056-.146.199-.214.429h-.119v-1.936h.119c.051.217.114.357.191.423.078.064.212.097.403.098h2.687c.188,0,.317-.034.391-.102.072-.067.134-.206.184-.418h.12v1.935h-.12c-.045-.2-.107-.335-.186-.406-.079-.071-.191-.106-.337-.106h-1.214s1.214,1.261,1.214,1.261c.08.084.158.127.235.127.133,0,.229-.127.287-.38h.12v1.702h-.12c0-.191-.05-.38-.151-.565-.102-.187-.278-.411-.531-.676Z" fill="#dbd5c4" stroke-width="0"/>
    <path d="M133.72,135.892c0-.219.068-.405.204-.559.136-.154.299-.23.49-.23s.351.076.477.229c.127.152.254.472.381.957.062.234.112.403.15.506.244,0,.421-.053.53-.157s.164-.271.164-.499c0-.357-.147-.622-.44-.793v-.103c.284.07.505.209.661.415s.233.462.233.768-.086.635-.26.846c-.173.211-.415.316-.728.316h-1.244c-.234,0-.353.054-.353.161,0,.111.082.181.246.208v.112c-.164-.014-.29-.076-.379-.188s-.134-.264-.134-.455c0-.161.029-.292.088-.391.058-.1.153-.182.285-.248l-.059-.062c-.209-.237-.314-.515-.314-.834ZM134.28,136.787h1.002c-.148-.349-.275-.579-.383-.692-.107-.112-.245-.169-.414-.169-.144,0-.259.033-.347.101s-.132.155-.132.265c0,.148.092.313.273.496Z" fill="#dbd5c4" stroke-width="0"/>
    <path d="M136.57,139.59h-.652s0,.014,0,.014c.436.205.652.515.652.93,0,.442-.217.729-.652.861.232.135.399.275.501.423s.151.325.151.532c0,.272-.084.482-.253.631-.168.147-.406.222-.714.222h-1.142c-.162,0-.278.029-.349.088-.07.058-.127.167-.168.326h-.119v-1.623h.119c.034.15.086.258.154.322.068.065.166.098.294.098h1.268c.142,0,.256-.04.344-.12s.132-.183.132-.309c0-.27-.189-.467-.567-.59h-1.148c-.144,0-.249.029-.316.089s-.12.168-.159.324h-.119v-1.623h.119c.037.15.089.258.157.323.068.064.163.097.284.097h1.322c.123,0,.226-.039.307-.119s.121-.176.121-.287c0-.234-.154-.438-.462-.608h-1.213c-.171,0-.29.028-.357.086s-.12.167-.159.327h-.119v-1.619h.119c.037.152.089.26.157.32.068.063.173.093.312.093h1.415c.171,0,.29-.031.358-.094s.121-.189.158-.381h.119l.105,1.148v.119Z" fill="#dbd5c4" stroke-width="0"/>
    <path d="M133.72,144.71c0-.219.068-.405.204-.559.136-.154.299-.23.49-.23s.351.076.477.229c.127.152.254.472.381.957.062.234.112.403.15.506.244,0,.421-.053.53-.157s.164-.271.164-.499c0-.357-.147-.622-.44-.793v-.103c.284.07.505.209.661.415s.233.462.233.768c0,.354-.086.635-.26.846-.173.211-.415.316-.728.316h-1.244c-.234,0-.353.054-.353.161s.082.181.246.208v.112c-.164-.014-.29-.076-.379-.188s-.134-.264-.134-.455c0-.161.029-.292.088-.391.058-.1.153-.182.285-.248l-.059-.062c-.209-.237-.314-.515-.314-.834ZM134.28,145.606h1.002c-.148-.349-.275-.579-.383-.692-.107-.112-.245-.169-.414-.169-.144,0-.259.033-.347.101s-.132.155-.132.265c0,.148.092.313.273.496Z" fill="#dbd5c4" stroke-width="0"/>
    <path d="M134.64,150.001v.119c-.285-.118-.51-.304-.674-.557s-.246-.538-.246-.854c0-.412.135-.756.402-1.03s.603-.412,1.007-.412c.41,0,.753.141,1.028.422s.413.631.413,1.048c0,.376-.107.688-.322.938-.216.249-.505.398-.867.445v-1.999c-.036-.002-.072-.003-.109-.003-.357,0-.647.089-.871.27-.224.179-.335.402-.335.668,0,.38.191.695.574.945ZM135.542,148.118v1.151c.248-.016.45-.079.606-.188s.234-.245.234-.404-.076-.291-.229-.392c-.153-.1-.357-.156-.612-.167Z" fill="#dbd5c4" stroke-width="0"/>
    <path d="M135.443,150.524v2.092h-.589v-2.092h.589Z" fill="#dbd5c4" stroke-width="0"/>
    <path d="M133.826,153.049h.119c.041.15.094.255.157.313.064.058.163.087.298.087h3.199c.118,0,.207-.028.265-.084.059-.056.108-.161.149-.315h.119l.075,1.073v.119h-2.96s.677.937.677.937c.053.07.12.105.202.106.065,0,.119-.026.158-.077.04-.052.061-.122.061-.21h.119v1.455h-.12c-.024-.175-.06-.316-.105-.425s-.126-.244-.242-.408l-.487-.691-1.304,1.245c-.096.086-.16.161-.193.225-.033.064-.056.152-.067.264h-.119v-1.206s1.261-1.214,1.261-1.214h-.602c-.182,0-.303.021-.363.064-.061.044-.119.154-.177.332h-.119v-1.59Z" fill="#dbd5c4" stroke-width="0"/>
    <path d="M133.72,157.699c0-.219.068-.405.204-.559.136-.154.299-.23.49-.23s.351.076.477.229c.127.152.254.472.381.957.062.234.112.403.15.506.244,0,.421-.053.53-.157s.164-.271.164-.499c0-.357-.147-.622-.44-.793v-.103c.284.07.505.209.661.415s.233.462.233.768c0,.354-.086.635-.26.846-.173.211-.415.316-.728.316h-1.244c-.234,0-.353.054-.353.161,0,.111.082.181.246.208v.112c-.164-.014-.29-.076-.379-.188s-.134-.264-.134-.455.029-.292.088-.391c.058-.1.153-.182.285-.248l-.059-.062c-.209-.237-.314-.515-.314-.834ZM134.28,158.594h1.002c-.148-.349-.275-.579-.383-.692-.107-.112-.245-.169-.414-.169-.144,0-.259.033-.347.101s-.132.155-.132.265.092.313.273.496Z" fill="#dbd5c4" stroke-width="0"/>
    <path d="M134.64,162.99v.119c-.285-.118-.51-.304-.674-.557s-.246-.538-.246-.854c0-.412.135-.756.402-1.03s.603-.412,1.007-.412c.41,0,.753.141,1.028.422s.413.631.413,1.048c0,.376-.107.688-.322.938-.216.249-.505.398-.867.445v-1.999c-.036-.002-.072-.003-.109-.003-.357,0-.647.089-.871.27-.224.179-.335.402-.335.668,0,.38.191.695.574.945ZM135.542,161.107v1.151c.248-.016.45-.079.606-.188s.234-.245.234-.404-.076-.291-.229-.392c-.153-.1-.357-.156-.612-.167Z" fill="#dbd5c4" stroke-width="0"/>
  </g>
  <rect x="143.019" y="173.343" width="14.432" height="14.432" transform="translate(-83.672 159.116) rotate(-45)" fill="#dbd5c4" stroke-width="0"/>
  <path d="M151.094,179.86c.516,2.105,2.8,4.066,4.48,4.704.111.034.168.067.168.09s-.057.045-.18.078c-.235.067-1.12.19-1.501.481-.156.124-.347.168-.515.168-.157,0-.303-.033-.415-.101-.952-.627-2.184-2.475-2.206-5.421h-.146c-.246,2.521-1.366,4.951-5.667,5.791-.045.011-.09.011-.123.011-.034,0-.067,0-.067-.022,0-.011.045-.033.146-.067,3.259-1.075,3.976-3.438,4.155-5.712h-.493c-.448,0-2.105,0-2.912.079-.056-.057-.19-.258-.19-.415,1.008.079,3.326.079,3.326.079h.292s.033-.773.033-.773v-1.098c0-.246,0-.459-.033-.75v-.056s-.415,0-.415,0c-.447,0-2.464,0-3.281.078-.056-.057-.19-.28-.19-.415,1.02.079,3.729.09,3.729.09h3.674c.246-.392.851-1.143.963-1.143.258,0,1.479.997,1.479,1.255,0,.123-.135.146-.213.146h-3.887c.112.045.157.101.157.157,0,.111-.201.234-.381.269,0,.347-.022,1.646-.078,2.24h1.691c.213-.381.761-1.054.817-1.098.022-.012.056-.022.078-.022.258,0,1.512.918,1.512,1.243,0,.111-.146.134-.224.134h-3.584Z" fill="#c93941" stroke-width="0"/>
  <rect x="143.019" y="194.886" width="14.432" height="14.432" transform="translate(-98.905 165.426) rotate(-45)" fill="#dbd5c4" stroke-width="0"/>
  <path d="M154.88,203.767c0,1.03.034,1.143.358,1.4.146.101.202.291.202.471,0,.817-.963,1.153-3.383,1.153-1.131,0-2.687-.045-2.687-1.479,0-.056,0-.112.011-.18.022-.269.045-1.019.045-1.881-.168.279-1.702,1.512-3.349,2.374.011.045.011.09.011.135,0,.146-.044.246-.134.246-.336,0-1.03-1.423-1.03-1.512s.067-.022.224-.057c.426-.089.907-.201,1.378-.324,0-.672.011-2.072.011-3.315-.392.012-.828.022-1.333.067-.078-.067-.179-.246-.179-.403.414.056,1.042.067,1.512.078-.011-.996-.011-1.837-.011-2.005-.012-.291-.022-.437-.045-.717-.012-.123-.034-.19-.034-.224s.022-.056.314-.056c.425,0,1.434.123,1.434.403,0,.078-.102.179-.393.279-.011.123-.022,1.154-.033,2.318h.09c.123-.224.336-.705.504-.896.011-.022.033-.034.056-.034.19,0,.896.773.896,1.053,0,.112-.123.135-.189.135h-1.355c0,1.153-.012,2.374-.012,2.968.561-.156,1.02-.302,1.255-.392l.414-.157c.012-.571.012-1.187.012-1.758-.46.179-.862.336-1.03.414-.079-.045-.27-.224-.303-.336.324-.078.829-.224,1.333-.392,0-.874,0-1.568-.012-1.658v-.179c0-.213,0-.561-.033-.762-.012-.078-.022-.135-.022-.157s.022-.033.179-.033h.057c.179,0,1.467.067,1.467.381,0,.09-.101.179-.358.269-.022.101-.045.817-.045,1.714l.504-.18.27-.101c0-.694,0-2.419-.067-2.957-.012-.111-.034-.179-.034-.213,0-.022.012-.033.19-.033h.057c.336,0,1.456.101,1.456.414,0,.09-.09.19-.348.258-.033.313-.056.93-.056,1.646v.459s.739-.269.739-.269c.066-.168.213-.392.324-.504.022-.034.045-.067.168-.067.303.012,1.232.481,1.232.795,0,.146-.213.225-.415.27v.593c0,1.859-.044,2.106-.313,2.644-.056.112-.403.762-.951.762-.157,0-.348-.067-.415-.291-.067-.225-.179-.37-.302-.471v.202c-.012.369-.549.459-.773.459-.291,0-.56-.102-.56-.348v-.022c.022-.392.056-1.534.056-3.046l-.135.056-.638.224c0,1.624,0,3.686.011,4.021.022.414.235.616,1.479.616,1.456,0,1.814-.28,2.128-.863.157-.291.403-.963.481-1.266.057-.201.09-.291.112-.291.011,0,.022.045.022.123,0,.045-.012.102-.012.168v.258ZM152.696,203.107c.75,0,.795-.549.795-3.125l-.851.302c0,.885.022,1.814.045,2.531l.011.292Z" fill="#c93941" stroke-width="0"/>
  <g>
    <path d="M136.734,180.559h-1.75c-5.918,0-10.715,4.797-10.715,10.715s4.797,10.715,10.715,10.715h1.75" fill="none" stroke="#fff" stroke-miterlimit="10"/>
    <polygon points="133.375 176.519 132.701 177.259 136.351 180.574 132.777 183.972 133.467 184.697 137.819 180.558 133.375 176.519" fill="#fff" stroke-width="0"/>
    <polygon points="133.375 206.029 132.701 205.289 136.351 201.973 132.777 198.575 133.467 197.85 137.819 201.99 133.375 206.029" fill="#fff" stroke-width="0"/>
  </g>
  <circle cx="69.442" cy="92.126" r="2.835" fill="#fff" stroke-width="0"/>
  <circle cx="69.442" cy="58.819" r="2.835" fill="#fff" stroke-width="0"/>
  <line x1="167.244" y1="121.89" y2="121.89" fill="none" stroke="#fff" stroke-miterlimit="10" stroke-width="2"/>
  <rect y="0" width="167.244" height="243.78" rx="8.504" ry="8.504" fill="none" stroke-width="0"/>
  <g>
    <g>
      <path d="M78.514,212.48l-.547.316-1.709.987-1.709.987-1.709.987c-2.378,1.373-4.922,2.199-7.486,2.517-2.564.318-5.148.128-7.606-.53s-4.791-1.786-6.853-3.344c-2.061-1.558-3.852-3.545-5.225-5.923-1.373-2.378-2.199-4.922-2.517-7.486" fill="none" stroke="#fff" stroke-miterlimit="10" stroke-width="1.238"/>
      <polygon points="72.433 210.148 72.155 211.355 78.102 212.717 76.309 218.55 77.493 218.913 79.676 211.808 72.433 210.148" fill="#fff" stroke-width="0"/>
    </g>
    <g>
      <path d="M52.007,168.62l.547-.316,1.709-.987,1.709-.987,1.709-.987c2.378-1.373,4.922-2.199,7.486-2.517,2.564-.318,5.148-.128,7.606.53s4.791,1.786,6.853,3.344c2.061,1.558,3.852,3.545,5.225,5.923s2.199,4.922,2.517,7.486" fill="none" stroke="#fff" stroke-miterlimit="10" stroke-width="1.238"/>
      <polygon points="58.089 170.953 58.367 169.746 52.419 168.383 54.213 162.55 53.028 162.187 50.846 169.292 58.089 170.953" fill="#fff" stroke-width="0"/>
    </g>
  </g>
  <g>
    <polygon points="25.203 160.2 26.74 159.606 26.346 158.41 24.824 157.556 29.231 131.298 28.303 131.75 27.262 134.03 22.662 157.208 21.095 157.629 21.066 158.907 23.736 160.523 25.203 160.2" fill="#dbd5c4" stroke-width="0"/>
    <polygon points="24.894 191.095 27.506 185.703 26.896 182.754 26.474 181.743 26.474 180.479 26.074 179.215 25.218 177.526 25.412 176.182 24.211 176.056 26.381 168.637 28.1 168.107 30.374 163.909 30.848 164.051 31.518 160.686 32.533 158.869 37.39 158.174 39.639 159.757 40.532 163.791 41.062 163.652 43.038 166.859 44.483 166.829 46.758 169.231 48.022 174.539 46.379 175.264 45.49 179.717 42.25 185.282 45.68 190.417 46.894 190.568 47.938 194.002 49.017 194.208 51.245 200.157 49.602 201.231 48.485 201.627 48.78 204.745 48.705 209.951 47.643 213.086 46.325 214.809 47.138 222.607 49.412 225.471 50.087 227.662 49.075 229.048 46.127 229.048 43.683 226.988 43.557 225.496 43.767 222.86 42.154 215.719 38.59 214.227 36.985 211.422 34.798 205.962 33.484 209.147 30.623 211.232 29.613 218.394 30.37 220.753 30.034 222.27 25.4 223.871 20.85 223.449 21.355 221.343 23.63 221.006 25.989 218.9 25.653 210.895 22.872 208.789 22.337 202.246 21.271 201.796 22.198 196.151 23.083 195.603 23.967 191.516 24.894 191.095" fill="#dbd5c4" stroke-width="0"/>
    <path d="M37.242,160.978c-3.33,0-6.03-2.699-6.03-6.03,0-2.115,1.091-3.973,2.738-5.048-2.688.886-4.629,3.414-4.629,6.398,0,3.722,3.018,6.741,6.741,6.741,3.301,0,6.044-2.375,6.623-5.508-.968,2.037-3.038,3.449-5.443,3.449h0Z" fill="#dbd5c4" stroke-width="0"/>
    <polygon points="22.607 158.905 20.459 161.686 20.711 163.582 19.7 164.213 19.953 165.477 17.173 174.45 17.931 175.967 19.069 178.115 21.091 176.852 23.113 177.863 29.79 177.698 31.075 169.522 25.409 170.621 24.377 165.857 25.009 164.972 24.63 163.455 25.893 161.686 25.135 159.284 22.607 158.905" fill="#dbd5c4" stroke-width="0"/>
    <polygon points="26.42 163.712 30.38 166.324 32.781 165.566 31.643 171.38 29.116 171.127 20.69 164.133 25.998 162.786 26.42 163.712" fill="#dbd5c4" stroke-width="0"/>
  </g>
  <g>
    <polygon points="90.793 159.837 95.511 158.489 97.954 159.753 99.387 163.628 99.892 163.418 102.542 165.924 104.817 165.621 106.713 167.896 109.118 175.234 107.223 175.676 106.338 176.182 105.701 176.464 104.993 179.717 105.706 180.479 105.201 182.185 102.757 186.55 105.184 190.417 106.397 190.569 107.442 194.002 108.52 194.208 110.37 198.805 108.727 199.879 107.611 200.275 108.284 204.745 108.209 209.951 107.147 213.086 105.828 214.809 106.641 222.607 108.916 225.471 109.59 227.662 108.579 229.048 105.63 229.048 103.187 226.988 103.061 225.496 103.271 222.86 101.658 215.719 98.094 214.227 96.489 211.422 94.302 205.962 92.988 209.147 90.128 211.232 89.116 218.394 89.875 220.753 89.537 222.27 84.904 223.871 80.354 223.449 80.859 221.343 83.134 221.006 85.494 218.9 85.156 210.895 82.376 208.789 81.841 202.247 80.775 201.796 81.66 197.372 82.545 196.825 82.25 195.456 81.258 195.932 80.286 195.257 57.664 202.082 55.161 202.234 54.327 201.627 79.579 193.185 79.781 190.758 80.488 190.531 81.626 190.758 81.824 188.606 84.819 182.754 83.977 181.659 83.977 180.395 85.577 179.215 84.722 177.526 84.916 176.182 83.716 176.056 85.885 168.637 87.604 168.107 89.339 165.124 89.828 165.2 90.034 161.775 90.793 159.837" fill="#dbd5c4" stroke-width="0"/>
    <path d="M95.81,160.978c-3.33,0-6.03-2.699-6.03-6.03,0-2.115,1.091-3.973,2.738-5.048-2.688.886-4.629,3.414-4.629,6.398,0,3.722,3.018,6.741,6.741,6.741,3.301,0,6.044-2.375,6.623-5.508-.968,2.037-3.038,3.448-5.443,3.448h0Z" fill="#dbd5c4" stroke-width="0"/>
  </g>
</svg>