<?xml version="1.0" encoding="UTF-8"?>
<svg id="a" data-name="レイヤー 1" xmlns="http://www.w3.org/2000/svg" width="59mm" height="86mm" viewBox="0 0 167.244 243.78">
  <path d="M158.74,0H8.504L0,8.504v226.772C0,239.972,3.807,243.78,8.504,243.78h150.236l8.504-8.504V8.504C167.244,3.807,163.437,0,158.74,0Z" fill="#313433" stroke-width="0"/>
  <path d="M158.74,3c3.035,0,5.504,2.469,5.504,5.504v226.772c0,3.035-2.469,5.504-5.504,5.504H8.504c-3.035,0-5.504-2.469-5.504-5.504V8.504c0-3.035,2.469-5.504,5.504-5.504h150.236M158.74,0H8.504C3.807,0,0,3.807,0,8.504v226.772c0,4.697,3.807,8.504,8.504,8.504h150.236c4.697,0,8.504-3.807,8.504-8.504V8.504c0-4.697-3.807-8.504-8.504-8.504h0Z" fill="#231916" stroke-width="0"/>
  <path d="M0,8.504v141.732L90.709,59.528,31.181,0H8.504C3.807,0,0,3.807,0,8.504Z" fill="#376771" stroke-width="0"/>
  <path d="M76.535,184.252l59.528,59.528h22.677c4.697,0,8.504-3.807,8.504-8.504V93.543l-90.709,90.709Z" fill="#922a34" stroke-width="0"/>
  <line x1="83.622" y1="59.52" x2="83.622" y2="184.259" fill="#fff" stroke="#fff" stroke-miterlimit="10" stroke-width=".5"/>
  <rect x="78.611" y="148.06" width="10.022" height="10.022" transform="translate(-83.745 103.962) rotate(-45)" fill="#fff" stroke-width="0"/>
  <rect x="78.611" y="179.241" width="10.022" height="10.022" transform="translate(-105.793 113.095) rotate(-45)" fill="#fff" stroke-width="0"/>
  <rect x="78.611" y="116.879" width="10.022" height="10.022" transform="translate(-61.697 94.83) rotate(-45)" fill="#fff" stroke-width="0"/>
  <rect x="78.611" y="85.698" width="10.022" height="10.022" transform="translate(-39.648 85.697) rotate(-45)" fill="#fff" stroke-width="0"/>
  <rect x="78.611" y="54.516" width="10.022" height="10.022" transform="translate(-17.6 76.564) rotate(-45)" fill="#fff" stroke-width="0"/>
</svg>