<?xml version="1.0" encoding="UTF-8"?>
<svg id="a" data-name="Layer 1" xmlns="http://www.w3.org/2000/svg" width="1386" height="348.968" viewBox="0 0 1386 348.968">
  <path d="M0,142.968c2.655,1.308,5.367,2.517,7.95,3.955,2.328,1.296,4.498,1.935,7.085-.128-1.13-1.307-2.15-2.349-3.011-3.51-2.304-3.106-1.789-5.444,1.527-7.419,2.333-1.389,4.821-1.261,7.258-.547,1.904.558,3.672,1.575,5.57,2.164.826.256,1.989.222,2.687-.199.443-.267.592-1.574.382-2.265-.604-1.992-1.458-3.908-2.214-5.854,1.829-.651,3.802-1.063,5.436-2.041,1.026-.613,1.591-2.047,2.279-3.164,1.891-3.069,4.552-4.629,7.933-3.663,3.981,1.138,7.892.819,11.883.661,4.658-.185,9.327-.081,13.987-.223,3.34-.102,5.856,1.1,7.309,4.158,1.033,2.175,2.7,2.904,5.046,3.394,2.868.6,5.592,2.024,8.28,3.299,1.651.783,1.571,1.993-.216,2.821-3.317,1.538-6.651,3.119-10.13,4.187-1.352.415-3.196-.304-4.671-.88-1.927-.752-3.781-1.727-5.324.407-1.573,2.175-1.261,4.992.505,6.841,1.6,1.674,3.513,2.614,5.827,2.146,6.193-1.252,12.483-2.276,18.022-5.585,2.251-1.345,4.542-1.739,7.139-1.658,3.297.104,6.606-.304,9.913-.396,4.155-.116,8.323.031,12.464-.249,3.127-.212,6.296-.652,9.298-1.51,1.631-.466,3.153-1.84,4.318-3.162.509-.578.001-2.052-.045-3.119-.893.116-1.857.057-2.664.386-1.5.612-2.835,1.766-4.371,2.117-2.053.469-4.026.062-4.644-2.532-.151-.633-.479-1.253-.843-1.8-1.433-2.152-3.145-2.17-3.897.325-1.036,3.442-3.369,4.183-6.393,4.383-2.159.143-4.301.529-6.46.663-6.797.422-11.667-3.248-15.905-7.898-1.843-2.022-.832-5.699,1.796-6.649,2.149-.776,4.528-1.223,6.809-1.242,2.665-.022,4.91-.549,6.721-2.565,2.418-2.691,5.529-3.502,9.031-3.378,2.995.106,5.994.061,8.992.093,2.525.027,4.501.949,5.658,3.345,1.564,3.239,4.223,4.525,7.756,4.254,1.158-.089,2.33.016,3.496.019,2.461.007,3.975,1.123,4.811,3.521,1.147,3.292,2.472,6.531,3.904,9.71,1.105,2.453.86,4.691-1.033,6.406-2.442,2.211-5.065,4.272-7.827,6.061-2.073,1.342-4.544,2.05-6.739,3.226-2.852,1.529-5.494,1.376-7.82-.82-2.165-2.044-4.433-1.852-7.27-1.748-6.964.255-13.62,3.413-20.731,2.033-.757-.147-2.307.562-2.431,1.111-.207.921.122,2.582.785,2.965,2.258,1.305,4.722,2.293,7.186,3.182,1.055.38,2.309.189,3.468.309,1.819.187,2.041,1.153,1.56,2.789-.994,3.379-2.981,5.52-6.581,5.915-.99.109-2.058.374-2.976.132-6.897-1.817-13.796-1.105-20.778-.576-5.985.453-9.535-2.9-10.787-8.765-.216-1.012-1.07-2.743-1.468-2.698-1.158.13-2.237.985-3.336,1.575-.131.07-.194.265-.288.402-.893,1.308-1.29,3.65-3.359,3.03-1.578-.473-3.064-1.86-4.166-3.192-2.311-2.796-4.212-5.931-6.533-8.717-1.505-1.806-1.743-3.504-.733-5.483,1.113-2.182,2.276-4.338,3.498-6.659-3.604-1.507-6.271-.946-8.248,1.933-1.773,2.582-4.092,4.051-7.12,5.029-4.536,1.465-6.043,6.812-3.284,10.595.519.711,1.516,1.311,2.37,1.439.416.062,1.195-1.006,1.49-1.699.762-1.788,1.346-3.652,2.279-6.264,3.872,4.494,9.103,6.583,10.419,12.466.387,1.729,2.273,3.186,3.627,4.62,2.776,2.939,2.616,4.662-1.031,6.302-1.628.732-3.511,1.161-5.294,1.219-2.816.092-5.67-.069-8.466-.441-4.003-.532-4.359-1.161-3.824-5.205.065-.492.255-.979.251-1.467-.015-1.805-1.452-2.741-3.032-1.997-.296.139-.631.317-.806.573-2.769,4.06-6.856,3.437-10.848,3.038-5.055-.505-9.895-1.575-13.387-5.747C5.178,156.845,3.241,154.786,0,154.968,0,150.968,0,146.968,0,142.968Z" fill="#a5802e" stroke-width="0"/>
  <path d="M0,160.968c2.55,1.816,5.141,3.577,7.639,5.462,3.073,2.318,6.333,3.436,10.258,2.633,4.141-.846,8.007.301,11.307,2.804,3.7,2.806,7.759,3.548,12.238,3.128,8.612-.806,17.256-1.336,25.626-3.796,1.592-.468,3.247-.921,4.888-.986,8.636-.341,17.279-.794,25.915-.704,3.931.041,7.613-.106,11.112-1.988.726-.39,1.522-.709,2.324-.877.405-.085,1.087.112,1.294.418.207.306.152,1.059-.098,1.349-.64.743-1.35,1.561-2.212,1.954-4.09,1.866-8.152,3.444-12.932,2.936-3.558-.379-7.239.351-10.861.637-3.81.301-7.649.452-11.411,1.069-2.551.418-5.252,1.097-7.413,2.428-3.062,1.886-3.468,5.812-1.506,8.834.789,1.216,1.94,2.189,3.281,1.282.67-.453,1.017-1.881.955-2.831-.229-3.511.04-4.084,3.396-4.593,1.635-.248,3.319-.24,4.981-.236,3.341.01,6.478-.016,9.351-2.48,2.216-1.901,5.309-1.86,8.104-.784.833.321,2.081,1.26,2.027,1.806-.091.923-.939,1.903-1.708,2.592-.803.719-1.889,1.124-3.029,1.766,4.091,2.085,7.866.722,9.162-3.217.427-1.299.459-2.531,2.146-2.897,5.526-1.199,11.021-2.539,16.55-3.725,2.868-.615,5.198.239,6.87,2.834,2.619,4.064.936,8.998-3.759,10.34-2.554.73-5.214,1.083-7.81,1.676-1.328.303-2.773.772-2.32,2.567.419,1.66,1.886,1.674,3.263,1.488,1.483-.2,2.946-.56,4.432-.728,2.489-.282,4.672.406,6.097,2.572,1.408,2.14.57,4.216-.683,6.053-1.243,1.822-2.557,3.369-1.228,5.865.357.67-.606,2.483-1.44,3.261-2.094,1.956-4.847,1.964-7.547,1.82-3.968-.211-7.915-.853-11.8.898-1.915.863-3.598-.209-4.548-2.042-.684-1.322-1.16-2.752-1.741-4.129-2.485-5.885-10.328-7.951-15.464-4.053-.19.144-.143.601-.337,1.555,1.558-.139,2.935-.261,4.311-.384,1.318-.118,2.658-.443,3.949-.308,2.345.245,3.08,1.454,2.791,3.744-.244,1.937-.489,3.897-.444,5.841.054,2.338-.871,3.732-3.062,4.532-2.627.958-5.164,2.16-7.784,3.138-1.064.397-2.235.572-3.373.68-.986.093-2.067-.31-2.98-.05-4.239,1.208-7.891,1.41-9.321-4.003-.098-.372-1.818-.777-2.433-.468-2.073,1.042-3.059-.008-4.047-1.552-3.051-4.767-6.091-9.542-9.246-14.24-1.149-1.711-1.038-3.362-.637-5.224,1.107-5.133-4.543-8.456-8.694-7.023-.616.213-.997,1.107-1.487,1.685.531.26,1.04.657,1.599.751,1.286.215,2.69.028,3.875.465,1.921.709,2.292,2.535.803,3.957-1.052,1.004-2.534,1.543-3.704,2.446-.825.637-1.449,1.537-2.162,2.319.954.52,1.873,1.12,2.868,1.541,1.808.765,3.848,1.139,5.452,2.193,2.566,1.686,2.636,3.127.156,4.926-3.059,2.219-3.553,4.861-2.666,8.299.375,1.454.546,3.951-.242,4.521-2.065,1.495-4.644,2.498-7.159,3.025-.801.168-2.454-1.588-3.003-2.79-1.309-2.864-2.446-5.862-3.185-8.918-.998-4.126-3.57-6.067-7.513-6.988-2.365-.552-4.933-1.274-6.795-2.713-3.72-2.874-4.486-7.268-4.327-11.719.029-.815,1.245-2.221,1.982-2.268,3.543-.227,7.533-1.242,9.438,3.326.063.152.136.349.263.416.541.284,1.203.837,1.628.698.419-.136.84-.981.856-1.527.109-3.828.362-7.68.034-11.478-.139-1.615-1.246-3.456-2.464-4.613-4.146-3.939-10.484-4.258-16.87-.633,2.381.537,4.043,1.017,5.74,1.272,3.149.472,5.546,2.206,7.6,4.444,1.197,1.304.666,2.546-1.034,2.804-.489.074-1.014.105-1.494.009-5.379-1.07-10.877,1.037-16.279-.699-1.243-.399-2.863.375-4.31.609,0-7.333,0-14.667,0-22Z" fill="#a5802e" stroke-width="0"/>
  <path d="M0,184.968c2.771.492,5.616.696,7.563,3.24,2.346,3.065,2.011,4.997-1.413,6.733-1.471.746-3,1.378-4.471,2.123-.215.109-.257.56-.662,1.535,2.063.136,3.93.387,5.791.354,3.164-.055,5.963.687,8.033,3.215,2.009,2.454,4.482,3.597,7.698,3.981,5.193.621,7.121,2.845,7.062,7.312-.011.859-.481,1.925-1.108,2.476-.325.286-1.516-.229-2.212-.585-1.578-.809-3.036-1.873-4.659-2.56-.566-.24-1.473.325-2.756.663,1.027,1.189,1.683,2.073,2.462,2.831,3.231,3.146,3.478,6.027.749,9.611-.301.395-.727.702-.994,1.116-.706,1.095-3.041,1.845-1.308,3.439.475.437,2.69-.546,3.76-1.342,1.443-1.074,2.642-2.525,3.781-3.947,1.45-1.811,3.248-2.188,5.352-1.677,2.226.54,3.344,2.043,3.529,4.279.124,1.493.226,2.988.32,4.483.474,7.468.102,8.138-6.797,11.509-1.789.874-3.664,1.577-5.51,2.331-2.595,1.06-5.128.987-7.756-.099-1.488-.615-3.449-1.426-4.735-.937-4.017,1.528-7.826.821-11.719-.084v-60Z" fill="#a5802e" stroke-width="0"/>
  <path d="M100.862,113.561c.86-5.478,1.488-10.729,2.546-15.893,1.236-6.029,2.702-12.021,4.367-17.945.661-2.352,1.843-4.679,3.269-6.673,6.975-9.749,13.888-19.555,21.246-29.013,9.985-12.834,22.533-22.699,37.405-29.248,10.191-4.487,20.635-8.483,31.186-12.048,11.29-3.815,22.981-2.913,34.655-1.663,5.931.635,11.954.74,17.923.582,4.146-.109,7.869.54,11.485,2.578,11.315,6.379,22.754,12.541,34.004,19.03,2.82,1.626,5.291,3.988,7.611,6.322,4.457,4.484,8.413,9.494,13.071,13.744,11.192,10.213,18.161,22.905,22.461,37.165,2.784,9.236,5.078,18.621,7.505,27.962,1.256,4.835,2.322,9.719,3.474,14.581.192.81.592,1.639.521,2.426-.078.869-.587,1.7-.908,2.547-.61-.463-1.465-.796-1.791-1.41-1.743-3.284-4.702-4.53-8.1-5.183-5.93-1.139-11.689,3.47-11.916,9.569-.141,3.771-.124,3.871-3.927,4.514-4.848.82-8.28,4.098-12.129,6.669-.718,4.13-4.208,6.441-6.233,9.695-.843,1.355-.601,3.524-.488,5.299.137,2.139-.646,3.147-2.749,3.171-2.662.031-5.324.042-7.986.078-2.302.031-4.643.371-6.897.061-3.376-.464-6.719-1.276-10.004-2.2-.563-.158-.977-1.585-1.092-2.473-.586-4.499-1.679-6.055-6.236-7.101-4.372-1.004-8.882-1.403-13.264-2.372-3.223-.712-6.43-1.692-9.476-2.956-3.616-1.5-7.253-2.292-11.163-2.101-3.157.155-6.324.099-9.486.12-6.055.041-11.557,1.428-15.69,6.288-1.361,1.6-3.111,2.393-5.259,2.443-6.794.158-11.629,3.44-14.828,9.363-.54,1-1.342,1.923-2.206,2.67-2.925,2.531-4.82,5.464-4.437,9.534.197,2.09-.947,2.978-2.975,3.098-1.149.068-2.341.284-3.407.705-2.532.998-4.381.4-6.117-1.719-2.125-2.594-5.153-3.569-8.443-3.702-1.663-.067-3.37-.289-4.988-.022-7.287,1.204-14.582,1.096-21.922.697-2.193-.119-4.565,1.402-6.626,1.001-1.925-.375-3.417-2.59-5.341-3.464-1.603-.727-3.547-.768-5.356-.962-3.195-.343-3.636-.58-3.522-3.451.088-2.206.392-3.974-2.166-5.412-1.843-1.036.259-5.225,2.88-5.368,1.569-.086,3.338.367,4.75,1.095,5.248,2.705,10.135,1.866,15.312-.459,5.261-2.363,9.895-5.28,13.608-9.76,3.294-3.974,4.455-7.99,1.986-12.848-1.346-2.649-2.314-5.51-3.265-8.338-1.491-4.434-4.387-7.109-9.122-7.161-3.657-.04-6.645-.538-8.871-4.076-.965-1.534-3.58-2.714-5.516-2.826-6.121-.352-12.326-.583-18.395.083-2.834.311-5.429,2.792-8.969,4.753Z" fill="#a5802e" stroke-width="0"/>
  <path d="M294.728,181.786c-5.947-3.712-10.432-.795-14.932,2.543-1.103-3.218.213-4.999,2.248-5.862,4.105-1.739,5.835-5.159,7.468-8.904,1.826-4.189,2.169-4.243,6.89-3.749,1.16.121,2.353.418,3.481.265,10.68-1.447,21.193,1.866,31.869,1.061,2.728-.206,5.546.745,8.32,1.178,1.309.204,2.617.416,3.917.667,3.071.592,6.134,1.223,9.206,1.809,1.949.372,3.898.798,5.867,1.001,1.597.165,3.225.033,5.939.033-1.396,1.711-1.907,2.765-2.748,3.291-3.138,1.961-6.544,2.326-10.074,1.137-1.261-.425-2.485-1.204-3.758-1.28-1.145-.068-2.335.605-3.505.951.706.802,1.264,1.856,2.14,2.365,5.845,3.396,11.976,2.765,17.547-1.98,2.089-1.779,4.174-2.789,6.935-3.389,3.487-.758,6.715-2.758,9.984-4.366.28-.138.327-1.659-.036-2.026-1.201-1.216-2.698-1.208-4.061-.156-1.05.81-1.991,1.759-3.012,2.608-1.911,1.59-4.052,1.955-5.828.094-1.852-1.941-3.603-1.861-5.81-.85-2.488,1.14-4.876.689-6.997-1.078-2.804-2.336-3.047-4.063-1.012-7.216.445-.689,1.312-1.5,1.192-2.094-.708-3.505.847-6.366,2.575-9.102-.421-.276-.572-.46-.698-.445-6.281.775-10.272-2.662-13.729-7.281-2.093-2.796-4.48-5.37-6.631-8.124-1.068-1.368-1.759-2.945-.137-4.454,1.493-1.39,3.138-2.882,5.271-1.559,1.641,1.018,2.989,2.508,4.46,3.797,1.48,1.297,2.754,3.012,4.461,3.837,6.59,3.189,13.259,6.237,20.029,9.019,1.884.774,4.216.482,6.346.627,4.465.304,8.944.471,13.391.939.944.099,2.564,1.339,2.497,1.883-.133,1.078-1.008,2.438-1.968,2.962-1.875,1.023-4.099,1.386-6.036,2.319-3.852,1.855-4.428,7.039-1.032,9.729.671.531,2.107.149,3.186.097,1.337-.064,3.077-1.823,3.88.189.725,1.816-1.303,2.308-2.6,2.97-.435.222-.803.577-1.456,1.06-.013,1.8,3.017,2.835,1.778,5.148-.083.155.98,1.267,1.625,1.407,2.733.593,5.394.244,7.439-1.824,2.145-2.17,4.61-3.115,7.636-2.966,2.105.104,3.952-.473,4.875-2.699.734-1.77,1.978-1.807,2.985-.383,1.389,1.963,3.565,3.561,3.536,6.665-1.386.163-2.676.278-3.952.475-1.086.167-2.157.429-3.476.697,3.142,2.901,4.537,2.99,9.724.69.276,1.107.734,2.14.758,3.182.085,3.83.061,7.663-.02,11.493-.012.557-.444,1.377-.897,1.571-.39.166-1.383-.231-1.605-.647-3.926-7.372-10.896-9.831-18.357-11.569-1.774-.413-3.473-1.161-5.253-1.528-2.153-.443-4.175-.281-6.18,1.08-1.605,1.089-3.645,1.536-5.492,2.268-5.946,2.356-6.847,4.631-3.676,10.227.641,1.132,2.139,1.969,3.425,2.47.715.278,1.809-.418,2.732-.675-.438-.789-.79-1.646-1.342-2.344-.396-.5-1.129-.719-1.595-1.182-1.905-1.89-1.831-3.523.571-4.691,4.556-2.214,8.912-5.982,14.435-4.066,5.546,1.924,11.598,3.155,15.495,8.258,1.253,1.642,2.304,3.326.797,5.419-1.214,1.686-.69,3.214.785,4.364,1.994,1.556,1.284,3.067.291,4.789-2.581,4.476-6.702,6.471-11.564,6.803-3.794.259-7.659.11-11.441-.314-2.291-.257-3.544.145-3.922,2.473-.08.491-.213.978-.367,1.453-1.232,3.807-1.58,4.138-5.78,3.626-3.298-.402-6.535-1.287-9.831-1.721-2.93-.386-5.942-.842-8.845-.547-3.41.346-5.867-.456-7.567-3.461-.655-1.158-1.442-2.241-2.153-3.368-1.264-2.005-2.966-3.287-5.414-2.597-2.718.767-4.274-.306-5.798-2.507-2.103-3.039-2.3-2.966-5.781-1.664-3.744,1.401-7.505,2.78-11.151,4.409-3.562,1.591-3.85,4.46-.862,6.983.625.528,1.366,1.05,2.138,1.252,4.414,1.157,5.718,5.922,9.324,8.037.301.176-.062,1.709-.338,2.537-.116.348-.789.565-1.248.735-5.766,2.13-11.471,4.463-17.343,6.25-2.45.746-5.278.587-7.896.37-4.514-.374-8.86-.206-13.361.761-6.219,1.336-12.647,1.325-18.697-1.158-5.233-2.148-10.388-4.514-15.456-7.029-4.256-2.112-4.457-3.176-2.288-7.355,1.259-2.426,1.037-3.345-1.477-4.007-2.729-.719-5.567-1.012-8.338-1.587-3.546-.737-4.685-1.909-4.377-4.291.297-2.295,2.223-4.252,4.969-3.916,3.821.468,6.628-.841,9.587-3.008,1.397-1.023,3.758-.897,5.693-.961,1.292-.043,2.6.518,3.907.773,2.464.481,4.375-.21,5.004-2.824.782-3.25,2.607-5.069,5.95-5.901,1.576-.392,3.317-1.836,4.121-3.282,2.066-3.717,4.761-5.358,8.968-4.208.215.059.544-.299,1.557-.899ZM290.31,200.846c-.05-.162-.099-.323-.149-.485-6.289,1.361-12.623,2.546-18.847,4.157-3.108.804-4.769,3.491-5.6,6.509-.176.637.118,1.812.589,2.104.46.285,1.525-.081,2.135-.463.505-.316.824-1.036,1.069-1.641,1.129-2.786,3.414-3.872,6.159-4.434,6.984-1.431,13.928-3.462,21.094-.967.45.157.99.154,1.472.095,1.291-.158,1.904-1.676.934-2.584-.812-.759-1.874-1.476-2.932-1.695-1.933-.4-3.945-.418-5.925-.596ZM313.095,182.953c.76,1.361,1.333,2.331,1.855,3.328,2.962,5.657,1.894,7.598-4.439,8.088-.329.025-.665-.017-.988.034-1.655.26-3.463.576-3.466,2.627,0,.325,2.469.714,3.818.956.632.113,1.317-.021,1.972-.098,7.282-.847,9.987-5.633,6.97-12.325-.988-2.191-2.494-3.429-5.721-2.611Z" fill="#a5802e" stroke-width="0"/>
  <path d="M189.687,242.11c2.024.467,4.043,1.294,6.075,1.325,3.931.059,6.332-2.432,6.8-6.484.172-1.488.192-3.002.481-4.465.905-4.592,3.952-7.2,8.277-8.408,2.774-.775,3.816.122,3.582,2.904-.083.984-.477,1.942-.571,2.927-.04.414.389,1.26.501,1.242,1.59-.249,3.249-.414,4.693-1.049.542-.238.96-1.727.777-2.487-1.329-5.504-2.824-10.968-4.276-16.442-.084-.317-.207-.646-.395-.911-2.153-3.049-4.322-6.087-6.563-9.236-1.269,2.543-2.55,4.919-3.596,7.395-.176.415.509,1.581,1.062,1.847,1.79.859,3.746,1.367,5.558,2.186,1.78.804,2.106,2.272.628,3.534-2.758,2.357-5.541,4.768-8.63,6.633-3.401,2.053-10.303-1.458-11.798-5.673-.44-1.241-.674-2.557-1.151-3.782-.13-.334-.814-.655-1.213-.621-.355.03-.968.573-.955.867.194,4.343-2.947,4.225-5.767,4.194-3.325-.036-6.663-.254-9.963-.656-2.437-.297-2.849-1.43-1.491-3.352.476-.674,1.156-1.2,1.68-1.845,2.127-2.615,2.548-5.324.488-8.221-.964-1.355-1.725-2.856-2.699-4.204-4.219-5.836-12.541-6.237-17.316-.83-.392.444-.468,1.166-.691,1.759.721.224,1.548.789,2.141.605,1.577-.49,3.019-1.401,4.577-1.971,4.49-1.644,8.842.275,10.706,4.637,1.17,2.738.761,4.721-1.928,5.752-2.71,1.04-3.791,2.396-3.954,5.401-.184,3.403-3.155,5.366-6.788,5.166-3.98-.219-7.966-.503-11.917-1.007-1.778-.227-3.571-.866-5.193-1.655-2.383-1.159-4.51-2.601-7.439-2.469-2.268.102-3.456-1.97-2.676-4.237.754-2.191,1.757-4.324,2.915-6.33.395-.684,1.554-1.037,2.436-1.302,1.043-.313,2.163-.368,3.281-.539-.152-.615-.156-1.111-.302-1.158-5.941-1.884-6.457-6.995-7.188-11.989-.295-2.018.647-3.328,2.525-3.651,3.581-.616,7.224-1.524,10.668.68.682.437,1.525.81,2.313.853,1.209.065,2.119-.88,1.324-1.85-1.084-1.323-2.543-2.69-4.111-3.189-2.67-.85-5.567-.962-8.331-1.56-.656-.142-1.599-.962-1.619-1.499-.021-.577.789-1.527,1.416-1.716,1.575-.474,3.245-.784,4.89-.85,6.64-.267,13.286-.417,19.929-.611,1.332-.039,2.665-.137,3.997-.116,4.722.074,6.184,1.12,7.776,5.476,1.295,3.543,2.138,3.953,5.276,1.795,6.856-4.715,13.805-4.055,20.001.539,7.552,5.599,15.931,5.038,24.402,4.863.928-.019,2.037-.464,2.733-1.081,4.55-4.037,10.317-4.258,15.847-5.241,2.174-.387,3.213.601,2.981,2.738-.341,3.144-.798,6.276-1.24,9.408-.465,3.297-1.035,6.58-1.443,9.883-.681,5.513.579,7.702,5.861,9.392,2.916.933,5.076,1.917,5.322,5.545.109,1.603,1.619,3.185,2.692,4.63,1.546,2.082,1.555,4.156-.236,5.842-1.516,1.427-3.339,2.762-5.271,3.467-5.009,1.827-10.227,1.614-15.247.09-6.25-1.898-11.468-.209-16.241,3.774-1.662,1.387-3.241,2.873-4.923,4.233-2.936,2.376-4.987,4.9-2.709,8.924.959,1.695.259,2.819-1.81,2.995-5.026.427-8.493,3.459-11.657,7.027-2.089,2.356-3.584,2.07-4.33-.947-.341-1.377-.041-2.927.054-4.394.21-3.232-.801-5.014-3.894-5.231-2.749-.193-5.578.336-8.32.833-.574.104-.92,1.463-1.371,2.244.862.308,1.708.782,2.591.866.586.056,1.237-.678,1.839-.65,1.228.058,2.869-.003,3.544.723.695.749,1.039,2.93.494,3.519-1.799,1.943-.811,3.658-.302,5.553.822,3.063.531,3.428-2.482,3.911-1.472.236-3.001.373-4.378.891-2.506.943-4.7.42-7.222-.264-3.283-.89-6.966-1.409-10.276-.866-7.206,1.181-12.108-2.449-16.96-6.708-2.341-2.055-1.787-4.404-.627-6.741-1.567-1.641-3.289-.662-4.833-.694-2.434-.051-4.519-.863-4.889-3.342-.394-2.638-3.746-4.586-1.596-7.818,2.631-3.954,5.311-7.998,10.383-8.662,4.089-.535,8.298-.32,12.446-.196,2.773.083,4.993,1.597,7.039,3.439.598.538,1.732.48,2.62.696-.029-1.075.292-2.345-.173-3.175-.614-1.096-1.852-1.838-2.807-2.747-.8-.762-1.579-1.546-2.368-2.321.991-.784,1.871-1.969,2.993-2.277,3.676-1.009,7.404-2.024,11.177-2.439,6.378-.701,12.628.479,18.707,2.422,4.701,1.503,5.694,3.427,4.552,8.314-.189.809-.548,1.587-.666,2.403-.393,2.735-1.815,4.142-4.683,4.056-1.101-.033-2.213.275-3.319.428-.084.445-.169.891-.253,1.336ZM158.033,253.785c.167-1.18.294-1.807.339-2.44.393-5.468,1.59-6.312,6.839-4.825,1.118.317,2.248.804,3.374.81.878.005,2.288-.384,2.554-.994,2.038-4.67,5.478-3.893,9.211-2.758,1.474.448,3.088.435,4.639.632.183-2.734-2.282-2.924-3.86-3.758-1.433-.757-3.149-1.239-4.764-1.31-1.389-.06-3.411.167-4.114,1.073-2.826,3.644-6.311,3.746-10.248,2.759-.628-.157-1.328-.097-1.987-.044-2.624.212-4.245,1.493-4.795,4.233-.482,2.401-.925,4.993,2.812,6.622Z" fill="#a5802e" stroke-width="0"/>
  <path d="M255.876,184.453c-2.929-1.308-4.984-1.985-6.783-3.082-3.136-1.912-3.414-3.338-1.869-6.584.489-1.027,1.302-2.219,1.127-3.182-.522-2.871.047-5.129,2.107-7.277.967-1.009-.1-1.799-1.29-1.765-.817.023-1.668.208-2.43.507-2.738,1.072-4.985.693-7.346-1.302-3.043-2.571-8.835-2.808-11.72-.756-.745.53-.943,1.83-1.393,2.777.896.202,1.794.575,2.686.559.978-.017,1.941-.471,2.927-.598,2.951-.38,3.83.123,4.948,2.883.749,1.851,1.476,3.721,2.055,5.63,1.188,3.918-.663,6.842-4.709,6.82-2.002-.011-4.217-.844-5.938-1.933-1.998-1.264-3.751-1.627-6.335-.669.832.858,1.35,1.458,1.934,1.985,2.765,2.496,2.545,4.262-.877,5.731-1.022.439-2.238.553-3.371.581-2.997.072-6.002.127-8.994-.015-5.305-.251-10.112-1.473-12.964-6.691-.77-1.409-2.273-2.405-3.38-3.643-2.55-2.852-2.588-5.322.484-7.661,2.343-1.784,3.965-3.81,5.198-6.451,1.166-2.499,3.38-4.08,6.185-4.618,1.798-.345,3.599-.683,5.407-.971,2.537-.405,4.748-1.294,6.482-3.352,2.762-3.279,6.429-4.523,10.669-4.495,3.99.027,7.997-.4,11.966-.15,2.593.164,5.15,1.115,7.691,1.83,3.34.939,6.606,2.181,9.982,2.949,4.215.958,8.492,1.691,12.775,2.279,2.623.36,3.805,1.585,3.899,4.198.116,3.2,1.526,5.209,5.016,5.744,3.6.553,5.232,2.369,5.184,4.907-.051,2.691-3.293,6.024-6.26,6.183-1.472.079-2.968-.293-4.453-.462-1.485-.169-2.969-.443-4.454-.448-.444-.002-1.036.675-1.276,1.177-.119.25.301.994.657,1.191,1.16.641,2.463,1.03,3.599,1.704,1.927,1.143,2.292,2.545.723,4.013-1.109,1.037-2.746,1.786-4.254,2.048-1.765.307-3.652-.171-5.474-.077-.875.045-1.722.621-2.582.957.667.585,1.243,1.413,2.021,1.705,1.707.641,3.527.976,5.28,1.502,1.717.515,3.098,1.399,2.789,3.507-.306,2.088-1.83,2.595-3.654,2.591-1.997-.005-4.034-.297-5.978.011-1.889.3-4.022.785-5.438,1.938-2.036,1.656-3.466,1.205-5.313-.028-5.163-3.446-5.189-4.479-.111-7.891,1.481-.995,2.822-2.2,4.859-3.806Z" fill="#a5802e" stroke-width="0"/>
  <path d="M248.462,252.154c-2.867-.732-5.887-1.112-8.564-2.278-3.947-1.719-7.946-2.234-12.167-2.134-2.979.07-6.003.032-8.939-.412-2.251-.34-2.702-1.883-1.518-3.628,3.312-4.88,13.537-8.527,19.263-6.871,3.235.936,3.245,1.04,1.553,4.165-.349.645-.682,1.734-.379,2.185.368.545,1.553,1.03,2.149.832,1.341-.446,2.724-1.124,3.76-2.069,4.808-4.388,8.614-4.308,13.442.055,1.663,1.503,3.849,2.493,5.913,3.471,2.695,1.278,5.712,1.977,8.226,3.52,6.005,3.684,6.488,11.003.502,14.742-4.364,2.726-7.447,5.577-8.384,10.741-.406,2.241-2.542,3.261-4.551,4.285-2.779,1.415-5.553,2.975-7.982,4.91-2.824,2.249-5.521,2.978-8.643.936-3.765-2.462-7.538-2.266-11.312-.089-4.036,2.328-7.827,1.776-11.827-.374-3.039-1.634-6.334-3.065-9.688-3.78-5.104-1.088-7.014-5.29-9.638-8.804-.448-.6.082-2.211.554-3.158.96-1.923,2.253-3.675,3.294-5.561,1.889-3.422,3.35-4.237,7.25-3.688,1.314.185,2.592.608,3.899.852,1.752.327,2.929.06,2.646-2.238-.27-2.196,1.457-2.746,3.134-3.162,2.734-.678,5.487-1.279,8.211-1.992,3.113-.815,5.964-.108,8.617,1.474,1.873,1.117,3.817,2.238,2.191,5.104-.369.65.311,2.148.873,3.022,1.269,1.972.644,2.985-1.335,3.782-2.157.869-4.301,1.811-6.327,2.943-.703.393-1.035,1.45-1.537,2.204.783.512,1.669,1.568,2.331,1.443,3.225-.608,6.463-1.327,9.552-2.417,2.1-.741,2.547-2.942,2.737-4.986.2-2.154.222-4.324.445-6.475.226-2.188,1.665-3.073,3.746-3.26,2-.18,2.379,1.001,2.881,2.619.703,2.266,2.528,2.447,3.974.639,1.919-2.401,1.127-5.291-1.791-6.47-.458-.185-.958-.326-1.448-.365-1.657-.132-3.318-.21-4.977-.308-.045.198-.09.397-.136.595Z" fill="#a5802e" stroke-width="0"/>
  <path d="M335.198,139.675c.409.139,1.96.223,2.801,1.04,2.368,2.301,4.535,4.83,6.6,7.413,1.149,1.438.841,3.1-.142,4.644-2.316,3.638-5.574,4.651-9.841,3.19-1.863-.638-3.807-1.113-5.753-1.395-.6-.087-1.328.709-1.998,1.101.432.562.753,1.407,1.318,1.629,1.441.567,2.295,1.367,1.901,2.968-.418,1.701-1.792,2.669-3.324,2.371-3.548-.69-7.252-1.275-10.469-2.798-3.911-1.853-3.992-4.771-.953-7.892,1.035-1.063,2.164-2.088,2.968-3.315,4.155-6.339,8.59-8.87,16.892-8.954Z" fill="#a5802e" stroke-width="0"/>
  <path d="M420.624,150.51c-.026,3.652-.239,3.754-3.715,4.485-2.581.543-5.13,1.331-7.605,2.246-1.696.627-2.154,1.69-.806,3.432,2.04,2.635,1.417,4.263-1.868,4.259-4.104-.005-7.436.937-10.096,4.227-.463.573-2.035.25-3.095.341.022-.932-.124-1.905.099-2.786.474-1.871,1.475-3.665,1.633-5.543.161-1.906-1.068-3.081-3.227-2.639-.651.133-1.326.478-1.94.388-1.188-.173-3.042-.257-3.372-.963-.866-1.851.999-2.485,2.311-3.106,3.149-1.493,6.29-3.02,9.518-4.324,3.689-1.491,7.456-2.793,11.216-4.1,1.564-.544,3.175-1.018,4.804-1.298,5.092-.875,6.179.116,6.142,5.381Z" fill="#a5802e" stroke-width="0"/>
  <path d="M283.725,238.4c-2.952,1.748-5.599,3.335-8.272,4.876-.409.235-1.049.496-1.4.339-4.628-2.069-10.051-2.331-13.903-6.181-1.645-1.645-2.081-3.155-.568-5.211,1.385-1.882,2.727-2.539,5.029-1.561,6.053,2.572,12.189,4.951,19.114,7.738Z" fill="#a5802e" stroke-width="0"/>
</svg>