<?xml version="1.0" encoding="UTF-8"?>
<svg id="a" data-name="Layer 1" xmlns="http://www.w3.org/2000/svg" width="1255.495" height="400" viewBox="0 0 1255.495 400">
  <path d="M1136.434,2.972c1.462.572,2.884,1.293,4.392,1.69,5.722,1.509,10.461,9.223,8.884,14.835-.204.726-1.263,1.642-1.995,1.708-2.131.193-4.307.118-6.446-.072-2.48-.221-2.688-2.675-3.82-4.225-.257-.352-.745-.535-1.849-1.288-.201,2.354-.412,4.209-.501,6.071-.071,1.496,0,2.999.02,4.498.099,7.085,4.319,11.319,11.51,11.291,2.406-.009,5.001.014,7.266-2.695-1.389-.312-2.354-.692-3.33-.72-3.766-.108-6.645-1.983-9.167-4.517-.511-.513-1.044-1.796-.794-2.111.521-.656,1.545-1.209,2.385-1.245,1.302-.055,2.617.448,3.939.548,1.472.111,3.099.428,4.406-.044,2.371-.856,4.517-.187,6.82-.034,3.241.215,6.557-.347,9.801-.84.583-.089.974-1.447,1.453-2.219-.748-.226-1.518-.692-2.238-.626-1.313.121-2.609.847-3.889.792-1.763-.076-3.682-.301-5.21-1.089-1.758-.907-3.184-2.54-3.031-4.813.147-2.178,1.908-3.205,3.615-3.704,3.176-.927,6.456-1.843,9.723-1.969,1.689-.065,4.045,1.13,5.069,2.517,5.167,7.001,13.013,10.855,19.18,16.679,2.469,2.331,6.517,3.089,9.944,4.281,4.123,1.433,4.481,2.285,1.984,5.885-1.532,2.208-3.389,3.698-6.254,3.179-2.856-.517-4.884-2.031-5.655-4.954-.043-.161-.054-.333-.115-.486-.502-1.267-.162-3.362-2.41-3.044-1.729.245-3.106,2.781-2.781,4.686.081.476.5.893.584,1.369.371,2.113-.591,3.152-2.714,2.952-.49-.046-.962-.348-1.448-.363-1.071-.033-2.145.043-3.218.074.59,1.077.927,2.489,1.821,3.164,2.193,1.655,4.796,2.256,7.573,1.704,1.14-.227,2.275-.523,3.427-.628.366-.034.993.37,1.114.71.131.369-.084,1.227-.331,1.306-1.854.597-3.79,1.569-5.63,1.436-2.769-.2-5.554-.993-8.191-1.932-1.968-.701-3.084-1.335-4.035,1.43-1.362,3.958-3.398,4.072-6.673,1.33-4.72-3.952-9.622-7.687-14.427-11.539-2.409-1.932-5.223-2.184-8.067-1.76-4.896.731-9.31-.324-13.199-3.286-2.411-1.836-5.046-2.437-7.965-2.274-8.969.503-17.965.565-26.721,3.143-4.629,1.363-9.429,1.74-14.336,1.379-3.256-.24-6.576.533-9.875.711-2.82.153-5.654.197-8.478.123-4.022-.104-7.974-.23-11.573,2.159-.715.475-2.626.427-2.983-.083-.96-1.368-.037-2.537,1.416-3.032,4.837-1.648,9.435-3.944,14.979-2.464,2.546.679,5.564-.337,8.357-.672,4.451-.535,8.879-1.358,13.344-1.674,7.627-.539,10.46-5.686,6.771-12.458-2.193-4.026-5.011-7.046-9.899-7.226-.824-.03-1.669.496-2.505.766.5.774.828,1.814,1.534,2.269,1.67,1.079,3.571,1.794,5.284,2.814,2.374,1.414,2.876,3.371,2.072,6.452-.643,2.462-2.342,2.949-4.553,2.868-1.997-.073-3.999.01-5.998.002-2.196-.009-4.069.405-5.985,1.872-1.571,1.203-3.966,1.702-6.03,1.803-3.301.16-4.222-.905-4.851-4.27-.605-3.235-.804-3.421-3.758-2.972-1.95.297-3.884.7-5.758,1.043,0,.491-.135.921.02,1.101,3.298,3.843,3.351,3.99-1.466,5.448-3.812,1.154-7.719,2.102-11.65,2.725-4.731.749-7.475-1.317-8.37-5.734-.769-3.789,1.298-6.637,5.859-7.804,2.571-.658,5.225-.988,7.795-1.648.651-.167,1.684-1.269,1.573-1.53-.328-.776-1.098-1.842-1.772-1.901-1.777-.154-3.629-.006-5.389.341-2.126.419-3.95.095-5.617-1.265-2.182-1.78-3.032-3.994-1.285-6.08,2.806-3.35,2.277-7.086,2.378-10.838h26c1.251,7.988,7.42,12.152,14.377,9.602.761-.279,1.263-1.269,1.884-1.929-.785-.316-1.556-.84-2.359-.896-.958-.066-1.938.359-2.918.415-5.176.296-6.433-1.29-5.009-6.214.088-.303.02-.651.024-.978,12.333,0,24.667,0,37,0,.508,1.204.911,2.467,1.544,3.601,2.538,4.55,6.243,8.549,4.84,14.599-.548,2.365,1.38,3.437,4.507,3.365-.139-.477-.212-.96-.412-1.382-2.171-4.577-1.848-5.595,2.468-7.676.744-.359,1.547-.639,2.207-1.117,1.19-.861,1.011-2.184-.399-2.546-1.596-.41-3.393-.245-4.863-.881-1.584-.685-3.291-1.762-4.156-3.156-.463-.747.746-2.518,1.17-3.837.097-.302.067-.645.096-.97,6,0,12,0,18,0,.538,2.078,1.633,3.418,4.027,3.033,0,0-.088-.061-.088-.061Z" fill="#a5802e" stroke-width="0"/>
  <path d="M1033.495,0c-.433.703-1.078,1.355-1.262,2.118-.828,3.428-2.675,5.513-6.743,4.993.402.828.505,1.505.826,1.632,5.589,2.216,6.058,6.977,6.034,11.988-.009,1.928-.965,3.061-2.872,3.508-3.317.777-6.573,1.121-9.682-.727-.713-.424-1.4-.976-2.175-1.184-.519-.139-1.426.041-1.698.415-.305.418-.347,1.587-.059,1.787,1.725,1.196,3.471,2.507,5.416,3.199,2.168.771,4.577.839,6.838,1.392.676.165,1.641.895,1.685,1.43.05.611-.649,1.646-1.256,1.875-1.371.518-2.88.861-4.345.911-7.975.269-15.953.463-23.931.611-5.334.099-6.401-.718-8.302-5.924-1.374-3.764-2.369-4.038-5.768-1.589-5.458,3.933-12.772,4.659-18.124.526-7.66-5.916-16.279-6.181-25.163-5.843-1.565.06-3.279.715-4.611,1.579-4.46,2.89-9.414,4.119-14.56,4.834-2.686.373-3.456-.108-3.207-2.874.462-5.128,1.324-10.218,1.963-15.332.387-3.101.669-6.215.998-9.324,9,0,18,0,27,0,1.514,2.798,3.028,5.595,4.699,8.684,1.255-3.301,2.278-5.992,3.301-8.684,10.333,0,20.667,0,31,0-.667,3.86,1.443,6.793,3.536,9.543,5.24,6.886,10.861,6.88,17.091,1.769.62-.509.714-1.658,1.053-2.511-.884-.077-1.872-.442-2.631-.17-1.55.555-2.916,1.625-4.466,2.174-3.821,1.354-6.774.281-9.203-2.91-1.854-2.435-2.37-5.011-1.379-7.896C1006.828,0,1020.162,0,1033.495,0Z" fill="#a5802e" stroke-width="0"/>
  <path d="M1255.495,22c-1.62.3-3.261.517-4.857.915-6.031,1.501-7.609.417-8.11-5.659-.205-2.489-.421-4.978-.651-7.466-.076-.828,0-1.76-.362-2.453-.64-1.229-1.463-3.18-2.383-3.283-2.22-.25-1.589,1.955-1.734,3.282-.351,3.195-2.419,4.47-5.246,5.162-.554.136-.91,1.079-1.358,1.649.535.328,1.047.878,1.611.939,1.316.144,2.719-.189,3.967.134.977.253,2.359,1.091,2.508,1.87.209,1.098-.179,2.809-.972,3.507-2.601,2.288-5.449,4.311-8.301,6.292-2.263,1.573-4.803,2.273-7.585,1.539-4.35-1.148-8.566-.585-12.762.856-2.036.699-4.145,1.383-6.269,1.596-4.628.464-8.554-.965-11.113-5.135-1.778-2.897-3.933-5.052-7.338-6.356-2.929-1.122-5.14-3.511-4.182-7.506.587-2.447-.093-2.823-2.674-2.361-.652.117-1.282.417-1.934.464-2.438.175-3.33-.8-2.848-3.227.451-2.269,1.055-4.508,1.592-6.76,14,0,28,0,42,0,.221,2.941-.185,5.596-2.762,7.589-.541.419-.949,1.96-.632,2.363,1.001,1.268,2.867,2.108,2.208,4.098-.789,2.381-3.025,1.453-4.726,1.694-.164.023-.379-.025-.487.062-.475.384-1.243.774-1.287,1.223-.048.491.459,1.277.939,1.538,2.275,1.237,6.601.548,7.634-1.731,2.428-5.356,5.954-10.463,5.114-16.837,8.333,0,16.667,0,25,0-.616.959-1.253,1.906-1.845,2.88-1.286,2.115-.935,6.281.966,7.695.88.655,2.365.497,3.575.708-.02-1.016.261-2.163-.113-3.026-1.547-3.57-1.328-4.133,2.507-4.544.949-.102,1.939.181,2.91.287v18Z" fill="#a5802e" stroke-width="0"/>
  <path d="M1255.495,80c-1.163.012-2.328.078-3.488.026-4.02-.181-7.939-.058-11.729,1.699-3.905,1.81-7.474.49-10.789-1.834-1.551-1.087-1.912-2.233-.343-3.605.948-.829,1.87-1.688,2.971-2.684-4.036-1.267-5.844-.905-7.37,1.242-1.575,2.216-1.688,5.363-.195,7.52.469.677,1.08,1.269,1.691,1.83,3.879,3.559,3.781,3.464.267,7.608-2.263,2.669-4.923,3.892-8.33,3.394-2.468-.36-3.18-1.774-1.858-3.831.891-1.386,2.188-2.506,3.167-3.845.338-.462.537-1.382.296-1.807-.236-.417-1.251-.805-1.685-.626-1.967.812-3.891,1.754-5.738,2.811-.68.39-1.074,1.257-1.653,1.853-.999,1.029-2.129,1.643-3.544.759-1.458-.91-2.016-2.235-1.446-3.852.487-1.381,1.177-2.69,1.902-4.311-1.53-.419-2.925-.524-4.007-1.16-1.808-1.062-3.738-2.202-5.03-3.787-1.785-2.192-1.567-4.55.709-6.151,5.936-4.176,11.555-9.155,19.711-8.469,1.801.152,3.973-.669,5.517-1.716,2.359-1.601,4.756-2.132,7.511-2.102,7.82.084,15.641.034,23.462.037v21Z" fill="#a5802e" stroke-width="0"/>
  <path d="M1255.495,107c-2.734-.529-5.696-.569-8.145-1.711-3.008-1.402-5.691-1.592-8.549-.178-5.994,2.966-10.944.682-15.55-3.092-1.979-1.622-1.75-2.513.607-3.276.312-.101.72-.014.971-.182,2.613-1.747,4.669-1.934,7.082.842,1.916,2.205,6.798,1.81,9.349.04.353-.245.796-.938.682-1.158-.264-.512-.781-1.062-1.31-1.224-.589-.181-1.303.072-1.965.099-.992.04-2.008.193-2.974.042-2.407-.377-5.012-3.063-4.94-4.934.089-2.32,2.511-5.146,5.045-5.335,5.939-.444,11.751-2.432,17.813-1.469.588.093,1.253-.298,1.883-.464v22Z" fill="#a5802e" stroke-width="0"/>
  <path d="M1164.495,0c-1.155,2.188.73,3.668,1.307,5.436,1.047,3.204.504,4.3-2.791,4.713-2.295.288-4.683.742-6.911.385-2.161-.346-5.006-1.053-6.095-2.615-3.513-5.041-8.354-5.241-13.572-4.947,0,0,.088.061.088.061-.342-1.011-.684-2.022-1.027-3.033,9.667,0,19.333,0,29,0Z" fill="#a5802e" stroke-width="0"/>
  <path d="M1255.495,41c-1.647.219-3.306.369-4.938.67-4.37.808-6.277,3.151-6.236,7.539.055,5.863.067,5.791-5.595,4.893-2.118-.336-4.312-.16-6.456-.373-4.004-.398-4.989-2.346-2.88-5.652,1.912-2.996,4.494-4.922,8.258-4.523,3.296.35,5.852-.125,8.312-3.048,1.557-1.849,4.988-2.134,7.593-3.08.618-.224,1.293-.288,1.942-.426v4Z" fill="#a5802e" stroke-width="0"/>
  <path d="M1255.495,53c-1.374-.412-2.849-.628-4.102-1.275-2.753-1.422-2.986-3.193-.555-5.237,1.318-1.108,3.09-1.677,4.657-2.489v9Z" fill="#a5802e" stroke-width="0"/>
  <path d="M1125.969,63.113c-1.03-.414-2.109-.545-2.729-1.148-3.399-3.303-7.75-5.743-8.941-11.026-.386-1.711-2.4-3.078-3.73-4.547-2.311-2.553-2.094-4.227,1.031-5.845,4.844-2.509,10.007-2.373,15.118-1.204,2.845.651,3.256,1.811,2.932,5.201-.078.817-.185,1.68-.013,2.463.333,1.511,1.87,2.027,3.043,1.024.749-.64,1.189-1.704,1.999-2.196,1.22-.74,2.69-1.699,3.971-1.591,3.967.336,7.935.956,11.82,1.832,1.708.385,3.311,1.52,4.794,2.554,2.448,1.708,4.857,3.501,7.096,5.469,1.47,1.292,2.734,2.871,3.871,4.476,1.309,1.847,1.144,3.743-.458,5.451-1.55,1.654-3.404,2.118-5.435,1.182-1.184-.546-2.189-1.47-3.316-2.156-1.123-.684-2.243-1.616-3.466-1.814-.936-.152-2.162.506-2.971,1.16-.237.191.27,1.874.858,2.408,1.954,1.773,2.868,3.829,1.682,6.225-1.296,2.617-3.764,3.884-6.606,3.663-1.931-.15-3.819-.999-5.7-1.616-1.261-.413-2.438-1.148-3.719-1.415-1.785-.372-2.916.922-2.468,2.656.163.632.576,1.195.835,1.806.573,1.353,1.12,2.717,1.678,4.077-1.339.467-2.806.729-3.982,1.459-1.204.747-2.329,1.812-3.13,2.983-3.587,5.244-4.997,5.737-11.29,4.071-1.722-.456-3.597-.536-5.392-.475-5.485.185-10.963.556-16.447.791-4.191.179-7.444-1.167-9.192-5.393-.398-.962-1.89-2.036-2.918-2.077-5-.201-7.527-3.893-10.469-6.994-.969-1.021-.797-2.279.605-2.836,3.71-1.474,7.441-2.908,11.223-4.18,2.189-.737,3.822.675,5.341,2.01,1.318,1.159,2.672,2.358,4.22.51,1.357-1.62,1.241-3.398-.203-4.97-2.278-2.48-4.949-4.055-8.435-2.882-5.504,1.852-11.012,3.706-16.438,5.771-3.01,1.145-5.88,2.206-9.184,1.244-1.222-.356-2.776-.453-3.928-.012-4.209,1.61-8.537,1.097-12.849,1.175-3.494.063-6.995.184-10.473.497-2.577.232-4.899,1.342-6.188,3.694-.468.855-.154,2.138-.196,3.226,1.021-.149,2.097-.145,3.043-.495.737-.273,1.243-1.125,1.969-1.478,2.813-1.368,4.945-.666,6.639,2.078.437.707.767,1.501,1.3,2.124,1.417,1.659,3.38,1.378,3.559-.749.295-3.518,2.366-3.89,5.094-3.985,2.493-.087,4.973-.508,7.466-.591,4.604-.153,8.914.545,12.148,4.389.943,1.121,2.408,1.788,3.446,2.847,2.664,2.717,1.91,6.268-1.681,7.415-2.029.648-4.239,1.018-6.365,1.008-2.821-.013-5.252.508-7.228,2.645-2.182,2.359-4.913,3.222-8.116,3.044-2.991-.166-5.999-.146-8.995-.067-2.969.078-5.223-.938-6.424-3.752-1.059-2.481-2.967-3.448-5.557-3.374-.831.024-1.665-.041-2.498-.072-6.246-.233-6.332-.366-8.334-6.371-.733-2.197-1.669-4.361-2.794-6.384-1.201-2.158-1.174-4.087.204-6.069,2.315-3.329,4.938-6.254,8.938-7.666,1.872-.661,3.653-1.599,5.429-2.504,3.336-1.7,6.552-1.609,9.19,1.11,1.79,1.845,3.412,1.734,5.77,1.316,5.861-1.038,11.824-1.5,17.748-2.182,1.647-.19,3.353-.136,4.935-.557,2.051-.545,2.526-2.669.676-3.643-2.58-1.359-5.521-2.057-8.343-2.922-1.477-.453-3.751.657-4.292-1.505-.557-2.229.436-4.334,2.419-5.609,2.707-1.74,5.686-3.139,8.959-2.128,5.738,1.773,11.314,1.686,17.2.372,6.42-1.434,11.351,2.568,12.852,9.31.198.891.807,2.416,1.182,2.402,1.013-.036,2.019-.709,2.988-1.207.254-.13.338-.561.541-.823,3.23-4.156,6.507-3.989,8.766,1.019,1.429,3.168,3.338,5.716,5.795,7.968,1.674,1.535,1.596,3.153.646,4.943-.937,1.765-2.021,3.462-2.824,5.285-.796,1.807.025,3.215,1.895,2.921,1.661-.261,3.632-1.01,4.681-2.223,2.448-2.831,5.101-5.022,8.617-6.515,4.587-1.949,5.317-8.02,1.65-11.206-1.066-.926-2.225-1.02-2.679.598-.577,2.055-.938,4.171-1.462,6.582Z" fill="#a5802e" stroke-width="0"/>
  <path d="M903.649,23.838c-2.648-.757-5.323-1.431-7.929-2.312-1.028-.348-2.237-.948-2.77-1.803-1.096-1.757.252-3.991,2.606-4.24,2.471-.261,4.984-.15,7.479-.158,2.043-.007,3.972-.113,5.269-2.101,1.019-1.563,2.445-1.487,3.922-.594.427.258.877.479,1.303.738,5.027,3.06,5.026,4.985,0,7.855-.289.165-.627.277-.862.498-1.043.985-2.056,2.001-3.079,3.006,1.058.703,2.101,1.427,3.176,2.102,1.263.793,2.619,1.454,3.815,2.335,1.872,1.378,2.364,3.028.95,5.163-.695,1.049-1.382,2.437-1.286,3.607.213,2.587.299,4.946-1.88,6.835-.264.229-.353,1.15-.152,1.327.442.389,1.12.678,1.707.69.631.012,1.286-.296,1.9-.541,2.563-1.022,4.908-.706,6.958,1.166,3.492,3.188,7.415,2.342,11.27,1.082.869-.284,1.41-1.574,2.102-2.401-.961-.369-1.957-1.126-2.877-1.043-6.568.591-6.559.643-8.677-5.243-.281-.781-.622-1.542-.968-2.298-.888-1.94-1.236-3.826.541-5.49,2.076-1.943,5.11-2.512,7.369-1.236,1.296.732,2.391,1.819,3.685,2.559.821.47,1.833.766,2.772.804.493.02,1.256-.592,1.448-1.091.16-.416-.187-1.411-.567-1.583-1.779-.806-3.003-2.167-1.88-3.842.771-1.149,2.67-2.166,4.062-2.163,5.808.013,11.645.179,17.404.855,1.867.219,3.723,1.962,5.235,3.379,1.675,1.569,2.946,3.566,4.4,5.371,2.154,2.675,2.184,5.326-.498,7.412-2.453,1.908-4.252,4-5.382,6.943-.513,1.335-2.129,2.458-3.503,3.193-1.427.764-3.142,1.091-4.773,1.35-4.203.669-7.925,2.02-11.007,5.248-3.097,3.244-7.44,3.398-11.636,3.5-2.989.073-5.997.257-8.964.007-2.445-.206-5.089-.499-7.212-1.594-5.022-2.589-10.524-2.959-15.848-4.145-2.431-.541-4.917-.852-7.39-1.185-2.264-.304-3.918-1.483-4.007-3.742-.166-4.216-2.705-5.681-6.316-6.384-1.098-.214-2.324-.724-3.071-1.502-.704-.733-1.248-2.026-1.179-3.024.272-3.896,5.104-7.348,9.02-6.601,1.795.342,3.551.922,5.356,1.151.667.085,1.423-.526,2.138-.82-.421-.602-.747-1.32-1.293-1.771-.486-.401-1.24-.457-1.833-.752-1.473-.734-3.206-1.293-3.088-3.43.099-1.78,2.29-3.756,4.56-3.938,1.478-.118,2.984.149,4.479.185,1.598.039,3.198.009,4.797.009.067-.448.133-.896.2-1.344Z" fill="#a5802e" stroke-width="0"/>
</svg>