<?xml version="1.0" encoding="UTF-8"?>
<svg id="a" data-name="Layer 1" xmlns="http://www.w3.org/2000/svg" width="1255.495" height="279.632" viewBox="0 0 1255.495 279.632">
  <path d="M863.495,279.632c-1.598-6.275-3.069-12.588-4.893-18.797-.414-1.411-1.875-2.71-3.161-3.634-5.411-3.888-10.869-7.72-16.448-11.361-3.577-2.335-6.159-5.343-8.508-8.914-6.22-9.456-10.16-19.826-13.364-30.556-1.009-3.378-1.035-3.457,2.025-4.938,4.197-2.031,8.465-3.915,12.687-5.896,2.724-1.278,5.471-1.253,8.27-.32,8.319,2.773,16.835,1.588,25.298,1.171,2.592-.128,2.855-.928,1.598-3.143-1.134-1.999-3.164-4.122-3.006-6.043.159-1.929,2.775-3.542,3.876-5.536,1.504-2.724,2.167-5.99,3.978-8.443,1.812-2.454,4.931-3.92,6.86-6.315,2.278-2.829,3.942-6.163,5.786-9.329,2.351-4.035,4.592-8.114,8.432-11.034,1.868-1.421,2.376-3.132.348-5.002-1.808-1.667-1.384-3.576-.318-5.461.328-.58.813-1.093,1.034-1.706.477-1.322,1.583-3.209,1.083-3.932-1.159-1.675-2.82-3.406-5.347-3.006-1.97.312-3.909.857-5.887,1.062-1.839.191-2.619-.89-1.614-2.441,5.431-8.384,10.935-16.724,16.58-24.964.763-1.114,2.378-1.84,3.747-2.302,2.583-.871,3.715-2.593,3.932-5.177.265-3.154.64-6.299.896-9.454.199-2.455.762-4.968-1.993-6.703-.53-.334-.595-2.26-.178-3.11,3.233-6.601,6.789-13.072,12.269-18.089,1.584-1.45,4.144-1.864,6.292-2.657,2.069-.764,2.269-1.455.685-3.111-.573-.599-1.589-1.009-1.781-1.682-.267-.936-.358-2.565.184-2.986,4.063-3.161,8.19-6.268,12.519-9.047,3.203-2.056,6.699-3.679,10.144-5.327,1.75-.837,3.689-1.852,5.519-1.809,2.693.064,2.775-1.244,2.388-3.056-1.17-5.48-1.042-10.957.224-16.359.734-3.137,1.98-6.153,2.974-9.158-.349,6.237-1.104,12.37-.882,18.467.135,3.716,1.323,7.578,2.851,11.013,1.987,4.466,4.28,4.656,7.987,1.509.372-.316.83-.529,1.537-.97.376,2.695-.889,4.731-2.315,6.299-2.814,3.095-2.423,5.817.014,8.768.59.714.881,1.675,1.459,2.818-.981.243-1.579.509-2.18.518-2.488.039-2.614,1.318-1.277,2.816,1.401,1.571,1.209,2.642.055,4.304-1.071,1.543-1.449,3.566-2.156,5.441-.063.029-.207.098-.354.161-1.561.664-4.301-1.823-4.666.829-.298,2.169,1.146,4.653,2.122,6.863.205.465,2.086.809,2.605.421,5.887-4.405,13.184-4.373,19.768-6.539,1.803-.593,3.395-1.855,5.047-2.869.971-.596,1.814-1.764,2.812-1.887,4.114-.51,6.433-3.399,8.301-6.434,4.1-6.662,7.878-13.527,11.646-20.387,1.413-2.573,1.165-3.087-1.672-4.65-3.792-2.089-7.685-3.994-11.503-6.039-1.213-.65-2.323-1.493-4.081-2.639,3.076-1.22,5.057-.387,6.994.454,3.514,1.527,6.966,3.201,10.501,4.676,2.78,1.16,3.402,1.007,4.721-1.745,2.663-5.556,5.099-11.221,7.65-16.832.742-1.633,1.552-3.234,2.613-5.433,1.633,2.241,1.157,4.003.594,5.619-1.205,3.457-2.574,6.858-3.901,10.272-1.026,2.64-2.034,5.289-3.15,7.891-1.026,2.393-.477,3.984,1.816,5.374,10.823,6.562,21.414,13.529,32.438,19.726,3.763,2.116,8.51,2.637,12.889,3.444,2.609.481,4.341,1.188,4.748,4.08.323,2.291,1.906,3.811,3.894,4.916,2.748,1.527,5.46,3.121,8.23,4.606,1.887,1.012,3.732,1.839,3.94,4.487.06.77,1.455,1.803,2.416,2.068,3.367.927,6.798,1.648,10.237,2.268.871.157,1.862-.35,2.797-.551-.342-.835-.605-1.713-1.046-2.492-.474-.837-1.335-1.505-1.633-2.381-.563-1.657-1.336-2.295-3.255-2.234-2.861.091-3.38-.653-2.04-3.203,2.694-5.124,2.197-10.777,2.102-16.025-.107-5.947-3.115-11.485-7.037-16.239-1.221-1.48-2.262-3.108-3.386-4.668.221-.249.443-.498.664-.747.951.417,1.959.739,2.837,1.275.983.599,1.83,1.969,2.767,1.998,3.608.112,4.973,1.342,3.313,4.895-.16.342.102,1.023.372,1.401,2.08,2.916,3.615,5.94,2.912,9.728-.09.483.908,1.168,1.402,1.759.769-.754,2.194-1.504,2.198-2.261.021-4.122.25-8.375-.663-12.336-1.068-4.636-3.236-9.018-4.993-13.687,2.098-.847,3.014.549,3.697,1.728,1.39,2.398,2.839,4.466,5.991,4.618.382.018,1.172,1.926.972,2.117-2.993,2.854-1.631,5.88-.342,8.761.887,1.984,1.519,3.425-.612,5.2-1.542,1.285-.874,2.679,1.173,3.01,1.804.292,3.72.107,5.443.619,1.478.439,3.233,1.256,4.006,2.459,1.274,1.982,2.984,2.446,4.986,2.789,3.939.676,7.856,1.488,11.807,2.078,2.293.343,3.4,1.09,2.302,3.567-1.063,2.398.535,2.905,2.412,3.049,3.655.281,7.313.52,10.967.798,1.328.101,2.654.245,3.976.408,1.938.24,2.359,1.333,2.024,3.175-.889,4.887-.829,4.901,3.612,6.937.605.277,1.214.568,1.849.753,3.836,1.119,6.308,3.478,7.065,7.511.678,3.613,2.499,5.433,6.572,4.913,2.788-.356,3.405.651,2.197,3.236-2.89,6.179-6.025,12.244-9.07,18.351-.446.894-.864,1.818-1.432,2.632-1.35,1.935-.805,3.213,1.016,4.565,6.016,4.468,11.928,9.079,17.873,13.643.641.492,1.241,1.036,2.311,1.933-1.027.49-1.647.91-2.329,1.087-1.873.484-1.958,1.599-1.101,2.99,1.748,2.836,3.553,5.636,5.344,8.445,1.809,2.838,3.395,5.738,3.227,9.275-.097,2.048.948,3.199,3.006,3.06,4.521-.307,7.919,1.898,11.255,4.562,4.686,3.741,9.531,7.281,14.297,10.922.792.605,2.125,1.226,2.193,1.937.434,4.5,4.516,5.418,7.159,7.756,1.492,1.319,2.734,2.918,4.165,4.311,1.607,1.564,2.885,3.199,2.621,5.645-.255,2.368,1.052,2.883,3.098,2.42,5.356-1.214,10.716-2.409,16.074-3.612v93h-392ZM936.403,188.67c.809.245,1.618.489,2.427.734.032-.209.065-.418.097-.627h-2.622c-.718-.38-1.398-.888-2.161-1.117-2.256-.677-2.842-2.038-2.005-4.183.361-.926.455-1.965.873-2.858,1.121-2.389,2.681-4.622,3.466-7.107,1.35-4.27,2.452-8.646,3.274-13.049.878-4.701,2.227-9.025,6.07-12.199.502-.414.895-.991,1.247-1.549.804-1.275.512-2.21-.996-2.595-.639-.163-1.34-.349-1.968-.247-5.676.915-9.918-1.863-13.931-5.293-.504-.431-1.076-.781-1.618-1.166-1.365-.97-2.48-.694-3.345.697-1.493,2.4-3.087,4.746-4.43,7.228-1.608,2.972-3.21,5.807-6.702,6.999-1.42.485-2.286,1.718-1.151,3.116,1.813,2.234.362,3.165-1.323,4.204-5.946,3.665-11.696,7.698-17.862,10.943-5.374,2.828-8.938,7.307-12.672,11.704-2.299,2.707-1.944,4.819.351,7.492,2.289,2.666,4.934,3.676,8.41,2.851,6.309-1.497,12.684-2.726,18.977-4.283,7.042-1.742,14.035-2.53,21.179-.57,2.063.566,4.272.599,6.415.876ZM942.991,98.565c3.996.847,7.072,1.364,10.068,2.174,2.543.687,5.112,1.477,7.45,2.656,1.92.969,2.949,3.967,1.752,5.082-1.756,1.636-4.057,2.746-6.244,3.843-1.683.844-2.682-.54-3.791-1.596-3.92-3.731-8.776-5.307-14.051-5.688-.66-.048-1.376.693-2.066,1.068.479.543.853,1.289,1.452,1.597,5.611,2.878,11.25,5.7,16.904,8.492,1.542.762,2.077,1.882.859,3.119-1.963,1.994-1.084,3.528.402,5.141.564.612,1.052,1.293,1.615,1.906,4.025,4.389,6.142,9.422,5.277,15.476-.224,1.565.207,2.598,2.008,2.704.938.055,1.867.292,3.147.504-.436,1.046-.616,1.862-1.064,2.485-1.749,2.433-3.585,4.802-5.384,7.199-2.998,3.996-6.16,7.881-8.95,12.017-4.544,6.735-3.644,10.486,3.152,14.645.994.609,2.048,1.125,3.012,1.777,1.926,1.305,3.897,2.57,5.661,4.073.634.54.726,1.717,1.066,2.604-.87.32-1.734.893-2.612.917-3.772.103-7.549.044-11.324.044,14.271.939,28.536,2.23,42.724-.774,9.173-1.942,18.305-2.54,27.727-.801,20.52,3.786,41.399,4.065,62.163,5.416,2.52.164,4.191-.71,5.122-2.977,1.177-2.867,3.461-4.574,6.255-5.311,5.644-1.49,8.114-5.228,8.445-10.771.029-.494.177-.983.3-1.467.709-2.786.071-5.14-1.769-7.422-3.762-4.666-7.338-9.483-10.944-14.273-2.671-3.548-5.267-7.151-8.504-11.556,3.1-.458,5.223-.576,7.226-1.131,1.498-.415,3.318-1.036,4.168-2.179,3.273-4.407,6.251-9.037,9.241-13.648.484-.747.805-1.886.63-2.724-.805-3.862-.881-3.859,2.77-4.886,3.206-.902,6.425-1.756,9.629-2.663,1.509-.427,2.996-.928,4.833-1.501-6.177-4.394-6.335-4.32-9.709-11.452-1.45-3.064-3.467-4.475-6.71-5.068-5.562-1.016-11.054-2.424-16.57-3.688-1.484-.34-3.115-.714-3.046-2.678.087-2.468-1.387-3.224-3.4-3.336-3.577-.199-5.614-2.265-7.327-5.202-2.515-4.312-5.362-8.43-8.048-12.643-1.202-1.884-2.535-3.475-5.046-3.569-2.207-.082-3.595-1.214-4.443-3.371-.417-1.06-1.701-1.788-2.616-2.642-.806-.752-1.686-1.427-2.456-2.213-.914-.934-1.577-2.214-2.638-2.888-10.544-6.697-21.126-13.335-31.749-19.906-2.653-1.641-3.138-1.495-4.736,1.229-3.622,6.177-7.135,12.418-10.653,18.655-.485.86-.771,1.838-1.105,2.778-1.136,3.197-2.234,6.408-3.395,9.596-.16.439-.523,1.012-.911,1.129-4.594,1.392-5.568,5.752-7.644,9.205-.343.571-.618,1.184-.984,1.738-.849,1.281-1.885,2.784-3.559,1.738-1.603-1.002-1.06-2.575-.024-3.886.516-.653,1.183-1.231,1.53-1.963.448-.943.643-2.005,1.034-3.302-4-.31-6.38,1.941-8.873,3.732-3.106,2.233-6.237,4.493-9.014,7.106-3.194,3.005-6.624,4.137-10.904,3.137-.967-.226-2.748.033-3.085.652-1.179,2.163-3.211,2.745-5.146,3.676-.677.325-1.599,1.172-1.577,1.75.136,3.583-2.057,5.704-5.551,8.116ZM1117.111,190.798c1.953.46,3.165.879,4.408,1.014,5.292.575,10.59,1.098,15.891,1.58,8.112.737,16.247,2.173,24.339,1.973,16.454-.407,32.883-1.787,49.33-2.584,3.726-.18,4.438-2.977,5.777-5.359,1.293-2.3-.855-3.23-1.965-4.528-1.08-1.263-2.123-2.61-3.411-3.629-1.262-.999-2.728-1.932-4.255-2.367-4.312-1.23-8.709-2.156-13.056-3.266-3.865-.987-7.694-2.116-11.567-3.074-2.314-.572-3.651-1.566-2.64-4.184.153-.396.021-.902.021-1.609-1.456-.106-2.779-.407-4.05-.259-5.054.588-8.916-1.507-12.604-4.75-5.743-5.049-11.843-9.691-17.635-14.686-2.327-2.006-4.5-2.43-7.258-1.136-3.914,1.836-7.963,3.386-11.862,5.251-3.667,1.754-7.292,2.122-11.078.542-.765-.319-1.567-.57-2.374-.764-3.104-.744-3.746-.25-2.977,2.767,1.436,5.638,3.13,11.209,4.627,16.832.945,3.55,1.892,6.803,5.23,9.252,3.268,2.399,3.049,4.596.548,8.152-1.017,1.447-2.051,2.882-3.439,4.83ZM1152.35,96.502c.073,1.415.046,2.896.283,4.333.077.466.86,1.152,1.293,1.132.457-.021,1.263-.77,1.256-1.191-.04-2.758-.227-5.517-.467-8.267-.026-.293-.702-.731-1.078-.733-.346-.002-.952.455-.999.776-.189,1.284-.205,2.594-.288,3.95Z" fill="#a5802e" stroke-width="0"/>
  <path d="M936.305,188.776h2.622c-.032.209-.065.418-.097.627-.809-.245-1.618-.489-2.427-.734l-.098.107Z" fill="#242323" stroke-width="0"/>
</svg>